G75*
%MOIN*%
%OFA0B0*%
%FSLAX24Y24*%
%IPPOS*%
%LPD*%
%AMOC8*
5,1,8,0,0,1.08239X$1,22.5*
%
%ADD10C,0.0000*%
%ADD11C,0.0080*%
%ADD12C,0.0010*%
%ADD13C,0.0040*%
%ADD14C,0.0150*%
%ADD15C,0.0060*%
%ADD16C,0.0050*%
%ADD17C,0.0030*%
D10*
X000486Y000241D02*
X000486Y019926D01*
X018203Y019926D01*
X018203Y000241D01*
X000486Y000241D01*
X012455Y015989D02*
X012457Y016039D01*
X012463Y016089D01*
X012473Y016138D01*
X012487Y016186D01*
X012504Y016233D01*
X012525Y016278D01*
X012550Y016322D01*
X012578Y016363D01*
X012610Y016402D01*
X012644Y016439D01*
X012681Y016473D01*
X012721Y016503D01*
X012763Y016530D01*
X012807Y016554D01*
X012853Y016575D01*
X012900Y016591D01*
X012948Y016604D01*
X012998Y016613D01*
X013047Y016618D01*
X013098Y016619D01*
X013148Y016616D01*
X013197Y016609D01*
X013246Y016598D01*
X013294Y016583D01*
X013340Y016565D01*
X013385Y016543D01*
X013428Y016517D01*
X013469Y016488D01*
X013508Y016456D01*
X013544Y016421D01*
X013576Y016383D01*
X013606Y016343D01*
X013633Y016300D01*
X013656Y016256D01*
X013675Y016210D01*
X013691Y016162D01*
X013703Y016113D01*
X013711Y016064D01*
X013715Y016014D01*
X013715Y015964D01*
X013711Y015914D01*
X013703Y015865D01*
X013691Y015816D01*
X013675Y015768D01*
X013656Y015722D01*
X013633Y015678D01*
X013606Y015635D01*
X013576Y015595D01*
X013544Y015557D01*
X013508Y015522D01*
X013469Y015490D01*
X013428Y015461D01*
X013385Y015435D01*
X013340Y015413D01*
X013294Y015395D01*
X013246Y015380D01*
X013197Y015369D01*
X013148Y015362D01*
X013098Y015359D01*
X013047Y015360D01*
X012998Y015365D01*
X012948Y015374D01*
X012900Y015387D01*
X012853Y015403D01*
X012807Y015424D01*
X012763Y015448D01*
X012721Y015475D01*
X012681Y015505D01*
X012644Y015539D01*
X012610Y015576D01*
X012578Y015615D01*
X012550Y015656D01*
X012525Y015700D01*
X012504Y015745D01*
X012487Y015792D01*
X012473Y015840D01*
X012463Y015889D01*
X012457Y015939D01*
X012455Y015989D01*
X012455Y018351D02*
X012457Y018401D01*
X012463Y018451D01*
X012473Y018500D01*
X012487Y018548D01*
X012504Y018595D01*
X012525Y018640D01*
X012550Y018684D01*
X012578Y018725D01*
X012610Y018764D01*
X012644Y018801D01*
X012681Y018835D01*
X012721Y018865D01*
X012763Y018892D01*
X012807Y018916D01*
X012853Y018937D01*
X012900Y018953D01*
X012948Y018966D01*
X012998Y018975D01*
X013047Y018980D01*
X013098Y018981D01*
X013148Y018978D01*
X013197Y018971D01*
X013246Y018960D01*
X013294Y018945D01*
X013340Y018927D01*
X013385Y018905D01*
X013428Y018879D01*
X013469Y018850D01*
X013508Y018818D01*
X013544Y018783D01*
X013576Y018745D01*
X013606Y018705D01*
X013633Y018662D01*
X013656Y018618D01*
X013675Y018572D01*
X013691Y018524D01*
X013703Y018475D01*
X013711Y018426D01*
X013715Y018376D01*
X013715Y018326D01*
X013711Y018276D01*
X013703Y018227D01*
X013691Y018178D01*
X013675Y018130D01*
X013656Y018084D01*
X013633Y018040D01*
X013606Y017997D01*
X013576Y017957D01*
X013544Y017919D01*
X013508Y017884D01*
X013469Y017852D01*
X013428Y017823D01*
X013385Y017797D01*
X013340Y017775D01*
X013294Y017757D01*
X013246Y017742D01*
X013197Y017731D01*
X013148Y017724D01*
X013098Y017721D01*
X013047Y017722D01*
X012998Y017727D01*
X012948Y017736D01*
X012900Y017749D01*
X012853Y017765D01*
X012807Y017786D01*
X012763Y017810D01*
X012721Y017837D01*
X012681Y017867D01*
X012644Y017901D01*
X012610Y017938D01*
X012578Y017977D01*
X012550Y018018D01*
X012525Y018062D01*
X012504Y018107D01*
X012487Y018154D01*
X012473Y018202D01*
X012463Y018251D01*
X012457Y018301D01*
X012455Y018351D01*
X016392Y018351D02*
X016394Y018401D01*
X016400Y018451D01*
X016410Y018500D01*
X016424Y018548D01*
X016441Y018595D01*
X016462Y018640D01*
X016487Y018684D01*
X016515Y018725D01*
X016547Y018764D01*
X016581Y018801D01*
X016618Y018835D01*
X016658Y018865D01*
X016700Y018892D01*
X016744Y018916D01*
X016790Y018937D01*
X016837Y018953D01*
X016885Y018966D01*
X016935Y018975D01*
X016984Y018980D01*
X017035Y018981D01*
X017085Y018978D01*
X017134Y018971D01*
X017183Y018960D01*
X017231Y018945D01*
X017277Y018927D01*
X017322Y018905D01*
X017365Y018879D01*
X017406Y018850D01*
X017445Y018818D01*
X017481Y018783D01*
X017513Y018745D01*
X017543Y018705D01*
X017570Y018662D01*
X017593Y018618D01*
X017612Y018572D01*
X017628Y018524D01*
X017640Y018475D01*
X017648Y018426D01*
X017652Y018376D01*
X017652Y018326D01*
X017648Y018276D01*
X017640Y018227D01*
X017628Y018178D01*
X017612Y018130D01*
X017593Y018084D01*
X017570Y018040D01*
X017543Y017997D01*
X017513Y017957D01*
X017481Y017919D01*
X017445Y017884D01*
X017406Y017852D01*
X017365Y017823D01*
X017322Y017797D01*
X017277Y017775D01*
X017231Y017757D01*
X017183Y017742D01*
X017134Y017731D01*
X017085Y017724D01*
X017035Y017721D01*
X016984Y017722D01*
X016935Y017727D01*
X016885Y017736D01*
X016837Y017749D01*
X016790Y017765D01*
X016744Y017786D01*
X016700Y017810D01*
X016658Y017837D01*
X016618Y017867D01*
X016581Y017901D01*
X016547Y017938D01*
X016515Y017977D01*
X016487Y018018D01*
X016462Y018062D01*
X016441Y018107D01*
X016424Y018154D01*
X016410Y018202D01*
X016400Y018251D01*
X016394Y018301D01*
X016392Y018351D01*
X016392Y015989D02*
X016394Y016039D01*
X016400Y016089D01*
X016410Y016138D01*
X016424Y016186D01*
X016441Y016233D01*
X016462Y016278D01*
X016487Y016322D01*
X016515Y016363D01*
X016547Y016402D01*
X016581Y016439D01*
X016618Y016473D01*
X016658Y016503D01*
X016700Y016530D01*
X016744Y016554D01*
X016790Y016575D01*
X016837Y016591D01*
X016885Y016604D01*
X016935Y016613D01*
X016984Y016618D01*
X017035Y016619D01*
X017085Y016616D01*
X017134Y016609D01*
X017183Y016598D01*
X017231Y016583D01*
X017277Y016565D01*
X017322Y016543D01*
X017365Y016517D01*
X017406Y016488D01*
X017445Y016456D01*
X017481Y016421D01*
X017513Y016383D01*
X017543Y016343D01*
X017570Y016300D01*
X017593Y016256D01*
X017612Y016210D01*
X017628Y016162D01*
X017640Y016113D01*
X017648Y016064D01*
X017652Y016014D01*
X017652Y015964D01*
X017648Y015914D01*
X017640Y015865D01*
X017628Y015816D01*
X017612Y015768D01*
X017593Y015722D01*
X017570Y015678D01*
X017543Y015635D01*
X017513Y015595D01*
X017481Y015557D01*
X017445Y015522D01*
X017406Y015490D01*
X017365Y015461D01*
X017322Y015435D01*
X017277Y015413D01*
X017231Y015395D01*
X017183Y015380D01*
X017134Y015369D01*
X017085Y015362D01*
X017035Y015359D01*
X016984Y015360D01*
X016935Y015365D01*
X016885Y015374D01*
X016837Y015387D01*
X016790Y015403D01*
X016744Y015424D01*
X016700Y015448D01*
X016658Y015475D01*
X016618Y015505D01*
X016581Y015539D01*
X016547Y015576D01*
X016515Y015615D01*
X016487Y015656D01*
X016462Y015700D01*
X016441Y015745D01*
X016424Y015792D01*
X016410Y015840D01*
X016400Y015889D01*
X016394Y015939D01*
X016392Y015989D01*
X016392Y010083D02*
X016394Y010133D01*
X016400Y010183D01*
X016410Y010232D01*
X016424Y010280D01*
X016441Y010327D01*
X016462Y010372D01*
X016487Y010416D01*
X016515Y010457D01*
X016547Y010496D01*
X016581Y010533D01*
X016618Y010567D01*
X016658Y010597D01*
X016700Y010624D01*
X016744Y010648D01*
X016790Y010669D01*
X016837Y010685D01*
X016885Y010698D01*
X016935Y010707D01*
X016984Y010712D01*
X017035Y010713D01*
X017085Y010710D01*
X017134Y010703D01*
X017183Y010692D01*
X017231Y010677D01*
X017277Y010659D01*
X017322Y010637D01*
X017365Y010611D01*
X017406Y010582D01*
X017445Y010550D01*
X017481Y010515D01*
X017513Y010477D01*
X017543Y010437D01*
X017570Y010394D01*
X017593Y010350D01*
X017612Y010304D01*
X017628Y010256D01*
X017640Y010207D01*
X017648Y010158D01*
X017652Y010108D01*
X017652Y010058D01*
X017648Y010008D01*
X017640Y009959D01*
X017628Y009910D01*
X017612Y009862D01*
X017593Y009816D01*
X017570Y009772D01*
X017543Y009729D01*
X017513Y009689D01*
X017481Y009651D01*
X017445Y009616D01*
X017406Y009584D01*
X017365Y009555D01*
X017322Y009529D01*
X017277Y009507D01*
X017231Y009489D01*
X017183Y009474D01*
X017134Y009463D01*
X017085Y009456D01*
X017035Y009453D01*
X016984Y009454D01*
X016935Y009459D01*
X016885Y009468D01*
X016837Y009481D01*
X016790Y009497D01*
X016744Y009518D01*
X016700Y009542D01*
X016658Y009569D01*
X016618Y009599D01*
X016581Y009633D01*
X016547Y009670D01*
X016515Y009709D01*
X016487Y009750D01*
X016462Y009794D01*
X016441Y009839D01*
X016424Y009886D01*
X016410Y009934D01*
X016400Y009983D01*
X016394Y010033D01*
X016392Y010083D01*
X016392Y004178D02*
X016394Y004228D01*
X016400Y004278D01*
X016410Y004327D01*
X016424Y004375D01*
X016441Y004422D01*
X016462Y004467D01*
X016487Y004511D01*
X016515Y004552D01*
X016547Y004591D01*
X016581Y004628D01*
X016618Y004662D01*
X016658Y004692D01*
X016700Y004719D01*
X016744Y004743D01*
X016790Y004764D01*
X016837Y004780D01*
X016885Y004793D01*
X016935Y004802D01*
X016984Y004807D01*
X017035Y004808D01*
X017085Y004805D01*
X017134Y004798D01*
X017183Y004787D01*
X017231Y004772D01*
X017277Y004754D01*
X017322Y004732D01*
X017365Y004706D01*
X017406Y004677D01*
X017445Y004645D01*
X017481Y004610D01*
X017513Y004572D01*
X017543Y004532D01*
X017570Y004489D01*
X017593Y004445D01*
X017612Y004399D01*
X017628Y004351D01*
X017640Y004302D01*
X017648Y004253D01*
X017652Y004203D01*
X017652Y004153D01*
X017648Y004103D01*
X017640Y004054D01*
X017628Y004005D01*
X017612Y003957D01*
X017593Y003911D01*
X017570Y003867D01*
X017543Y003824D01*
X017513Y003784D01*
X017481Y003746D01*
X017445Y003711D01*
X017406Y003679D01*
X017365Y003650D01*
X017322Y003624D01*
X017277Y003602D01*
X017231Y003584D01*
X017183Y003569D01*
X017134Y003558D01*
X017085Y003551D01*
X017035Y003548D01*
X016984Y003549D01*
X016935Y003554D01*
X016885Y003563D01*
X016837Y003576D01*
X016790Y003592D01*
X016744Y003613D01*
X016700Y003637D01*
X016658Y003664D01*
X016618Y003694D01*
X016581Y003728D01*
X016547Y003765D01*
X016515Y003804D01*
X016487Y003845D01*
X016462Y003889D01*
X016441Y003934D01*
X016424Y003981D01*
X016410Y004029D01*
X016400Y004078D01*
X016394Y004128D01*
X016392Y004178D01*
X016392Y001816D02*
X016394Y001866D01*
X016400Y001916D01*
X016410Y001965D01*
X016424Y002013D01*
X016441Y002060D01*
X016462Y002105D01*
X016487Y002149D01*
X016515Y002190D01*
X016547Y002229D01*
X016581Y002266D01*
X016618Y002300D01*
X016658Y002330D01*
X016700Y002357D01*
X016744Y002381D01*
X016790Y002402D01*
X016837Y002418D01*
X016885Y002431D01*
X016935Y002440D01*
X016984Y002445D01*
X017035Y002446D01*
X017085Y002443D01*
X017134Y002436D01*
X017183Y002425D01*
X017231Y002410D01*
X017277Y002392D01*
X017322Y002370D01*
X017365Y002344D01*
X017406Y002315D01*
X017445Y002283D01*
X017481Y002248D01*
X017513Y002210D01*
X017543Y002170D01*
X017570Y002127D01*
X017593Y002083D01*
X017612Y002037D01*
X017628Y001989D01*
X017640Y001940D01*
X017648Y001891D01*
X017652Y001841D01*
X017652Y001791D01*
X017648Y001741D01*
X017640Y001692D01*
X017628Y001643D01*
X017612Y001595D01*
X017593Y001549D01*
X017570Y001505D01*
X017543Y001462D01*
X017513Y001422D01*
X017481Y001384D01*
X017445Y001349D01*
X017406Y001317D01*
X017365Y001288D01*
X017322Y001262D01*
X017277Y001240D01*
X017231Y001222D01*
X017183Y001207D01*
X017134Y001196D01*
X017085Y001189D01*
X017035Y001186D01*
X016984Y001187D01*
X016935Y001192D01*
X016885Y001201D01*
X016837Y001214D01*
X016790Y001230D01*
X016744Y001251D01*
X016700Y001275D01*
X016658Y001302D01*
X016618Y001332D01*
X016581Y001366D01*
X016547Y001403D01*
X016515Y001442D01*
X016487Y001483D01*
X016462Y001527D01*
X016441Y001572D01*
X016424Y001619D01*
X016410Y001667D01*
X016400Y001716D01*
X016394Y001766D01*
X016392Y001816D01*
X002416Y016316D02*
X002418Y016342D01*
X002424Y016368D01*
X002434Y016393D01*
X002447Y016416D01*
X002463Y016436D01*
X002483Y016454D01*
X002505Y016469D01*
X002528Y016481D01*
X002554Y016489D01*
X002580Y016493D01*
X002606Y016493D01*
X002632Y016489D01*
X002658Y016481D01*
X002682Y016469D01*
X002703Y016454D01*
X002723Y016436D01*
X002739Y016416D01*
X002752Y016393D01*
X002762Y016368D01*
X002768Y016342D01*
X002770Y016316D01*
X002768Y016290D01*
X002762Y016264D01*
X002752Y016239D01*
X002739Y016216D01*
X002723Y016196D01*
X002703Y016178D01*
X002681Y016163D01*
X002658Y016151D01*
X002632Y016143D01*
X002606Y016139D01*
X002580Y016139D01*
X002554Y016143D01*
X002528Y016151D01*
X002504Y016163D01*
X002483Y016178D01*
X002463Y016196D01*
X002447Y016216D01*
X002434Y016239D01*
X002424Y016264D01*
X002418Y016290D01*
X002416Y016316D01*
X002416Y018048D02*
X002418Y018074D01*
X002424Y018100D01*
X002434Y018125D01*
X002447Y018148D01*
X002463Y018168D01*
X002483Y018186D01*
X002505Y018201D01*
X002528Y018213D01*
X002554Y018221D01*
X002580Y018225D01*
X002606Y018225D01*
X002632Y018221D01*
X002658Y018213D01*
X002682Y018201D01*
X002703Y018186D01*
X002723Y018168D01*
X002739Y018148D01*
X002752Y018125D01*
X002762Y018100D01*
X002768Y018074D01*
X002770Y018048D01*
X002768Y018022D01*
X002762Y017996D01*
X002752Y017971D01*
X002739Y017948D01*
X002723Y017928D01*
X002703Y017910D01*
X002681Y017895D01*
X002658Y017883D01*
X002632Y017875D01*
X002606Y017871D01*
X002580Y017871D01*
X002554Y017875D01*
X002528Y017883D01*
X002504Y017895D01*
X002483Y017910D01*
X002463Y017928D01*
X002447Y017948D01*
X002434Y017971D01*
X002424Y017996D01*
X002418Y018022D01*
X002416Y018048D01*
D11*
X005780Y018720D02*
X006280Y018720D01*
X006280Y019320D02*
X005780Y019320D01*
X006809Y015040D02*
X006990Y015040D01*
X007082Y014918D01*
X007171Y015040D02*
X006990Y015040D01*
X006980Y015034D02*
X006904Y014918D01*
X007943Y015123D02*
X008124Y015123D01*
X008216Y015001D01*
X008305Y015123D02*
X008124Y015123D01*
X008114Y015117D02*
X008038Y015001D01*
X009416Y012820D02*
X011778Y012820D01*
X011778Y012623D01*
X011089Y012426D02*
X010124Y012426D01*
X010105Y011835D02*
X011089Y011835D01*
X011778Y011639D02*
X011778Y011442D01*
X009416Y011442D01*
X009416Y011639D01*
X009486Y010674D02*
X011849Y010674D01*
X011849Y010477D01*
X011160Y010280D02*
X010175Y010280D01*
X010175Y009690D02*
X011140Y009690D01*
X011849Y009493D02*
X011849Y009296D01*
X009486Y009296D01*
X009486Y009493D01*
X009486Y010477D02*
X009486Y010674D01*
X008299Y011908D02*
X005679Y011908D01*
X005540Y011769D01*
X005540Y009148D01*
X008299Y009148D01*
X008299Y011908D01*
X009416Y012623D02*
X009416Y012820D01*
X005420Y011978D02*
X005422Y011993D01*
X005427Y012007D01*
X005436Y012019D01*
X005448Y012029D01*
X005461Y012035D01*
X005476Y012038D01*
X005491Y012037D01*
X005506Y012032D01*
X005518Y012024D01*
X005529Y012013D01*
X005536Y012000D01*
X005540Y011986D01*
X005540Y011970D01*
X005536Y011956D01*
X005529Y011943D01*
X005518Y011932D01*
X005506Y011924D01*
X005491Y011919D01*
X005476Y011918D01*
X005461Y011921D01*
X005448Y011927D01*
X005436Y011937D01*
X005427Y011949D01*
X005422Y011963D01*
X005420Y011978D01*
X004250Y012257D02*
X004250Y012316D01*
X004250Y012257D02*
X003463Y012257D01*
X003463Y012316D01*
X003561Y010831D02*
X003742Y010831D01*
X003834Y010709D01*
X003923Y010831D02*
X003742Y010831D01*
X003732Y010825D02*
X003656Y010709D01*
X003463Y013969D02*
X003463Y014028D01*
X004250Y014028D01*
X004250Y013969D01*
X007782Y008356D02*
X007658Y008233D01*
X007658Y007986D01*
X007782Y007862D01*
X008399Y007862D01*
X008276Y007601D02*
X008399Y007478D01*
X008399Y007231D01*
X008276Y007107D01*
X008152Y007107D01*
X007658Y007601D01*
X007658Y007107D01*
X007782Y008356D02*
X008399Y008356D01*
X006778Y005296D02*
X004053Y005296D01*
X004053Y003406D01*
X006778Y003406D01*
X006778Y005296D01*
X006463Y005139D02*
X006463Y003564D01*
X004368Y003564D01*
X004368Y005139D01*
X006463Y005139D01*
X006817Y004981D02*
X006975Y004981D01*
X006975Y004824D01*
X006817Y004824D01*
X006817Y004627D02*
X006975Y004627D01*
X006975Y004076D01*
X006817Y004076D01*
X006817Y003879D02*
X006975Y003879D01*
X006975Y003721D01*
X006817Y003721D01*
X007325Y002776D02*
X004601Y002776D01*
X004601Y000887D01*
X007325Y000887D01*
X007325Y002776D01*
X007364Y002461D02*
X007522Y002461D01*
X007522Y002304D01*
X007364Y002304D01*
X007364Y002107D02*
X007522Y002107D01*
X007522Y001556D01*
X007364Y001556D01*
X007364Y001359D02*
X007522Y001359D01*
X007522Y001202D01*
X007364Y001202D01*
X007010Y001044D02*
X004916Y001044D01*
X004916Y002619D01*
X007010Y002619D01*
X007010Y001044D01*
X007983Y001229D02*
X008140Y001229D01*
X007983Y001229D02*
X007983Y001387D01*
X008140Y001387D01*
X008140Y001583D02*
X007983Y001583D01*
X007983Y002135D01*
X008140Y002135D01*
X008140Y002331D02*
X007983Y002331D01*
X007983Y002489D01*
X008140Y002489D01*
X008179Y002804D02*
X010904Y002804D01*
X010904Y000914D01*
X008179Y000914D01*
X008179Y002804D01*
X008494Y002646D02*
X010589Y002646D01*
X010589Y001072D01*
X008494Y001072D01*
X008494Y002646D01*
X010943Y002489D02*
X011101Y002489D01*
X011101Y002331D01*
X010943Y002331D01*
X010943Y002135D02*
X011101Y002135D01*
X011101Y001583D01*
X010943Y001583D01*
X010943Y001387D02*
X011101Y001387D01*
X011101Y001229D01*
X010943Y001229D01*
X011967Y001170D02*
X012124Y001170D01*
X011967Y001170D02*
X011967Y001328D01*
X012124Y001328D01*
X012124Y001524D02*
X011967Y001524D01*
X011967Y002076D01*
X012124Y002076D01*
X012124Y002272D02*
X011967Y002272D01*
X011967Y002430D01*
X012124Y002430D01*
X012164Y002745D02*
X014888Y002745D01*
X014888Y000855D01*
X012164Y000855D01*
X012164Y002745D01*
X012479Y002587D02*
X014573Y002587D01*
X014573Y001013D01*
X012479Y001013D01*
X012479Y002587D01*
X014927Y002430D02*
X015085Y002430D01*
X015085Y002272D01*
X014927Y002272D01*
X014927Y002076D02*
X015085Y002076D01*
X015085Y001524D01*
X014927Y001524D01*
X014927Y001328D02*
X015085Y001328D01*
X015085Y001170D01*
X014927Y001170D01*
X004561Y001202D02*
X004404Y001202D01*
X004404Y001359D01*
X004561Y001359D01*
X004561Y001556D02*
X004404Y001556D01*
X004404Y002107D01*
X004561Y002107D01*
X004561Y002304D02*
X004404Y002304D01*
X004404Y002461D01*
X004561Y002461D01*
X004014Y003721D02*
X003857Y003721D01*
X003857Y003879D01*
X004014Y003879D01*
X004014Y004076D02*
X003857Y004076D01*
X003857Y004627D01*
X004014Y004627D01*
X004014Y004824D02*
X003857Y004824D01*
X003857Y004981D01*
X004014Y004981D01*
X002699Y003371D02*
X002699Y001206D01*
X000435Y001206D01*
X000435Y003371D01*
X002699Y003371D01*
X000435Y003371D02*
X000140Y003371D01*
X000140Y001206D01*
X000435Y001206D01*
D12*
X002878Y001100D02*
X002903Y001050D01*
X002953Y001000D01*
X002953Y001075D01*
X002978Y001100D01*
X003003Y001100D01*
X003028Y001075D01*
X003028Y001025D01*
X003003Y001000D01*
X002953Y001000D01*
X003003Y000953D02*
X003028Y000928D01*
X003028Y000878D01*
X003003Y000853D01*
X002903Y000853D01*
X002878Y000878D01*
X002878Y000928D01*
X002903Y000953D01*
X007237Y005557D02*
X007338Y005557D01*
X007363Y005582D01*
X007363Y005632D01*
X007338Y005657D01*
X007338Y005705D02*
X007363Y005730D01*
X007363Y005780D01*
X007338Y005805D01*
X007287Y005805D01*
X007262Y005780D01*
X007262Y005755D01*
X007287Y005705D01*
X007212Y005705D01*
X007212Y005805D01*
X007237Y005657D02*
X007212Y005632D01*
X007212Y005582D01*
X007237Y005557D01*
X003462Y010420D02*
X003462Y010495D01*
X003437Y010520D01*
X003337Y010520D01*
X003312Y010495D01*
X003312Y010420D01*
X003462Y010420D01*
X003462Y010567D02*
X003462Y010667D01*
X003462Y010617D02*
X003312Y010617D01*
X003362Y010567D01*
X005675Y012558D02*
X005700Y012533D01*
X005750Y012533D01*
X005775Y012558D01*
X005775Y012683D01*
X005822Y012633D02*
X005872Y012683D01*
X005872Y012533D01*
X005822Y012533D02*
X005922Y012533D01*
X005675Y012558D02*
X005675Y012683D01*
X004602Y013690D02*
X004527Y013690D01*
X004477Y013740D01*
X004452Y013740D01*
X004502Y013788D02*
X004452Y013838D01*
X004602Y013838D01*
X004602Y013788D02*
X004602Y013888D01*
X004527Y013690D02*
X004477Y013640D01*
X004452Y013640D01*
X006560Y014628D02*
X006560Y014703D01*
X006585Y014728D01*
X006685Y014728D01*
X006710Y014703D01*
X006710Y014628D01*
X006560Y014628D01*
X006585Y014776D02*
X006560Y014801D01*
X006560Y014851D01*
X006585Y014876D01*
X006610Y014876D01*
X006710Y014776D01*
X006710Y014876D01*
X007694Y014883D02*
X007694Y014933D01*
X007719Y014958D01*
X007744Y014958D01*
X007769Y014933D01*
X007794Y014958D01*
X007819Y014958D01*
X007844Y014933D01*
X007844Y014883D01*
X007819Y014858D01*
X007819Y014811D02*
X007719Y014811D01*
X007694Y014786D01*
X007694Y014711D01*
X007844Y014711D01*
X007844Y014786D01*
X007819Y014811D01*
X007769Y014908D02*
X007769Y014933D01*
X007719Y014858D02*
X007694Y014883D01*
X008025Y016538D02*
X008125Y016538D01*
X008150Y016563D01*
X008150Y016613D01*
X008125Y016638D01*
X008150Y016685D02*
X008050Y016785D01*
X008025Y016785D01*
X008000Y016760D01*
X008000Y016710D01*
X008025Y016685D01*
X008025Y016638D02*
X008000Y016613D01*
X008000Y016563D01*
X008025Y016538D01*
X008150Y016685D02*
X008150Y016785D01*
X008761Y018778D02*
X008861Y018778D01*
X008886Y018803D01*
X008886Y018853D01*
X008861Y018878D01*
X008886Y018925D02*
X008886Y019025D01*
X008886Y018975D02*
X008736Y018975D01*
X008786Y018925D01*
X008761Y018878D02*
X008736Y018853D01*
X008736Y018803D01*
X008761Y018778D01*
X009913Y018795D02*
X009938Y018770D01*
X010038Y018770D01*
X010064Y018795D01*
X010064Y018845D01*
X010038Y018870D01*
X010038Y018917D02*
X010064Y018942D01*
X010064Y018992D01*
X010038Y019017D01*
X010013Y019017D01*
X009988Y018992D01*
X009988Y018967D01*
X009988Y018992D02*
X009963Y019017D01*
X009938Y019017D01*
X009913Y018992D01*
X009913Y018942D01*
X009938Y018917D01*
X009938Y018870D02*
X009913Y018845D01*
X009913Y018795D01*
X010925Y018795D02*
X010950Y018770D01*
X011050Y018770D01*
X011075Y018795D01*
X011075Y018845D01*
X011050Y018870D01*
X011000Y018917D02*
X011000Y019017D01*
X010925Y018992D02*
X011000Y018917D01*
X010950Y018870D02*
X010925Y018845D01*
X010925Y018795D01*
X010925Y018992D02*
X011075Y018992D01*
X005682Y019525D02*
X005582Y019525D01*
X005632Y019525D02*
X005632Y019676D01*
X005582Y019626D01*
X005535Y019676D02*
X005435Y019676D01*
X005435Y019525D01*
X005435Y019601D02*
X005485Y019601D01*
D13*
X003962Y018367D02*
X003962Y017979D01*
X003942Y017979D02*
X003206Y017979D01*
X003001Y017897D02*
X003001Y016467D01*
X003002Y016467D02*
X003000Y016451D01*
X002996Y016436D01*
X002988Y016421D01*
X002978Y016409D01*
X002966Y016399D01*
X002951Y016391D01*
X002936Y016387D01*
X002920Y016385D01*
X002900Y016387D01*
X002881Y016393D01*
X002863Y016402D01*
X002848Y016415D01*
X002835Y016430D01*
X002826Y016448D01*
X002820Y016467D01*
X002818Y016487D01*
X002818Y017877D01*
X002820Y017897D01*
X002826Y017916D01*
X002835Y017934D01*
X002848Y017949D01*
X002863Y017962D01*
X002881Y017971D01*
X002900Y017977D01*
X002920Y017979D01*
X002920Y017979D01*
X002936Y017977D01*
X002951Y017973D01*
X002966Y017965D01*
X002978Y017955D01*
X002988Y017943D01*
X002996Y017928D01*
X003000Y017913D01*
X003002Y017897D01*
X002470Y017509D02*
X002470Y016855D01*
X002471Y016855D02*
X002468Y016837D01*
X002461Y016820D01*
X002452Y016805D01*
X002439Y016792D01*
X002424Y016783D01*
X002407Y016776D01*
X002389Y016773D01*
X002388Y016773D02*
X000794Y016691D01*
X000778Y016693D01*
X000763Y016697D01*
X000748Y016705D01*
X000736Y016715D01*
X000726Y016727D01*
X000718Y016742D01*
X000714Y016757D01*
X000712Y016773D01*
X000714Y016789D01*
X000718Y016804D01*
X000726Y016819D01*
X000736Y016831D01*
X000748Y016841D01*
X000763Y016849D01*
X000778Y016853D01*
X000794Y016855D01*
X002143Y016937D01*
X002143Y017427D01*
X000794Y017509D01*
X000778Y017511D01*
X000763Y017515D01*
X000748Y017523D01*
X000736Y017533D01*
X000726Y017545D01*
X000718Y017560D01*
X000714Y017575D01*
X000712Y017591D01*
X000712Y017591D01*
X000714Y017607D01*
X000718Y017622D01*
X000726Y017637D01*
X000736Y017649D01*
X000748Y017659D01*
X000763Y017667D01*
X000778Y017671D01*
X000794Y017673D01*
X000794Y017672D02*
X002388Y017591D01*
X002389Y017591D02*
X002407Y017588D01*
X002424Y017581D01*
X002439Y017572D01*
X002452Y017559D01*
X002461Y017544D01*
X002468Y017527D01*
X002471Y017509D01*
X001877Y017775D02*
X001877Y017856D01*
X000937Y017959D01*
X000937Y018163D01*
X001877Y018265D01*
X001877Y018347D01*
X000794Y018265D01*
X000775Y018261D01*
X000756Y018255D01*
X000739Y018245D01*
X000723Y018233D01*
X000710Y018218D01*
X000699Y018201D01*
X000692Y018183D01*
X000692Y017959D02*
X000699Y017941D01*
X000710Y017924D01*
X000723Y017909D01*
X000739Y017897D01*
X000756Y017887D01*
X000775Y017881D01*
X000794Y017877D01*
X001877Y017775D01*
X001970Y018694D02*
X002879Y018694D01*
X002863Y018696D01*
X002848Y018700D01*
X002833Y018708D01*
X002821Y018718D01*
X002811Y018730D01*
X002803Y018745D01*
X002799Y018760D01*
X002797Y018776D01*
X002797Y018837D01*
X003799Y018367D02*
X003942Y018367D01*
X003942Y016385D02*
X003206Y016385D01*
X003799Y015997D02*
X003942Y015997D01*
X003962Y015996D02*
X003962Y016385D01*
X002879Y015669D02*
X001970Y015670D01*
X001877Y016017D02*
X001877Y016099D01*
X000937Y016201D01*
X000937Y016405D01*
X001877Y016507D01*
X001877Y016589D01*
X000794Y016487D01*
X000775Y016483D01*
X000756Y016477D01*
X000739Y016467D01*
X000723Y016455D01*
X000710Y016440D01*
X000699Y016423D01*
X000692Y016405D01*
X000692Y016180D02*
X000699Y016162D01*
X000710Y016145D01*
X000723Y016130D01*
X000739Y016118D01*
X000756Y016108D01*
X000775Y016102D01*
X000794Y016098D01*
X000794Y016099D02*
X001877Y016017D01*
X000693Y016181D02*
X000684Y016218D01*
X000678Y016255D01*
X000676Y016293D01*
X000678Y016331D01*
X000684Y016368D01*
X000693Y016405D01*
X000855Y015670D02*
X000263Y015670D01*
X000263Y018694D01*
X000855Y018694D01*
X000693Y018183D02*
X000684Y018146D01*
X000678Y018109D01*
X000676Y018071D01*
X000678Y018033D01*
X000684Y017996D01*
X000693Y017959D01*
X000863Y019452D02*
X001170Y019912D01*
X001323Y019759D02*
X001477Y019912D01*
X001477Y019452D01*
X001630Y019452D02*
X001323Y019452D01*
X001170Y019452D02*
X000863Y019912D01*
X000263Y015670D02*
X000263Y015669D01*
X002797Y015588D02*
X002797Y015526D01*
X002797Y015588D02*
X002799Y015604D01*
X002803Y015619D01*
X002811Y015634D01*
X002821Y015646D01*
X002833Y015656D01*
X002848Y015664D01*
X002863Y015668D01*
X002879Y015670D01*
X005746Y015769D02*
X005746Y015999D01*
X005823Y016076D01*
X005976Y016076D01*
X006053Y015999D01*
X006053Y015769D01*
X006206Y015769D02*
X005746Y015769D01*
X006053Y015922D02*
X006206Y016076D01*
X006206Y016229D02*
X005899Y016536D01*
X005823Y016536D01*
X005746Y016459D01*
X005746Y016306D01*
X005823Y016229D01*
X006206Y016229D02*
X006206Y016536D01*
X006742Y016899D02*
X006742Y017129D01*
X006819Y017206D01*
X006972Y017206D01*
X007049Y017129D01*
X007049Y016899D01*
X007049Y017052D02*
X007202Y017206D01*
X007202Y017359D02*
X007202Y017666D01*
X007202Y017513D02*
X006742Y017513D01*
X006895Y017359D01*
X006742Y016899D02*
X007202Y016899D01*
X008516Y013816D02*
X008440Y013739D01*
X008440Y013586D01*
X008516Y013509D01*
X008516Y013356D02*
X008670Y013356D01*
X008746Y013279D01*
X008746Y013049D01*
X008730Y013064D02*
X008883Y013218D01*
X008746Y013202D02*
X008900Y013356D01*
X008883Y013371D02*
X008807Y013371D01*
X008500Y013678D01*
X008423Y013678D01*
X008423Y013371D01*
X008440Y013279D02*
X008516Y013356D01*
X008440Y013279D02*
X008440Y013049D01*
X008900Y013049D01*
X008883Y012911D02*
X008423Y012911D01*
X008423Y013141D01*
X008500Y013218D01*
X008653Y013218D01*
X008730Y013141D01*
X008730Y012911D01*
X008823Y013509D02*
X008900Y013586D01*
X008900Y013739D01*
X008823Y013816D01*
X008746Y013816D01*
X008670Y013739D01*
X008670Y013663D01*
X008670Y013739D02*
X008593Y013816D01*
X008516Y013816D01*
X007734Y013550D02*
X007734Y013397D01*
X007657Y013320D01*
X007504Y013320D02*
X007427Y013473D01*
X007427Y013550D01*
X007504Y013627D01*
X007657Y013627D01*
X007734Y013550D01*
X007504Y013320D02*
X007273Y013320D01*
X007273Y013627D01*
X007350Y013166D02*
X007504Y013166D01*
X007580Y013090D01*
X007580Y012859D01*
X007734Y012859D02*
X007273Y012859D01*
X007273Y013090D01*
X007350Y013166D01*
X007580Y013013D02*
X007734Y013166D01*
X009688Y011389D02*
X009688Y011312D01*
X009764Y011235D01*
X009918Y011235D01*
X009994Y011159D01*
X009994Y011082D01*
X009918Y011005D01*
X009764Y011005D01*
X009688Y011082D01*
X009688Y011389D02*
X009764Y011465D01*
X009918Y011465D01*
X009994Y011389D01*
X010148Y011389D02*
X010225Y011465D01*
X010378Y011465D01*
X010455Y011389D01*
X010455Y011312D01*
X010148Y011005D01*
X010455Y011005D01*
X010696Y011034D02*
X010696Y010958D01*
X010773Y010881D01*
X010926Y010881D01*
X011003Y010804D01*
X011003Y010727D01*
X010926Y010651D01*
X010773Y010651D01*
X010696Y010727D01*
X010696Y011034D02*
X010773Y011111D01*
X010926Y011111D01*
X011003Y011034D01*
X011156Y010958D02*
X011310Y011111D01*
X011310Y010651D01*
X011463Y010651D02*
X011156Y010651D01*
X007313Y007684D02*
X007313Y007531D01*
X007237Y007454D01*
X007083Y007454D01*
X007083Y007684D01*
X007160Y007761D01*
X007237Y007761D01*
X007313Y007684D01*
X007083Y007454D02*
X006930Y007607D01*
X006853Y007761D01*
X006930Y007301D02*
X007083Y007301D01*
X007160Y007224D01*
X007160Y006994D01*
X007160Y007147D02*
X007313Y007301D01*
X007313Y006994D02*
X006853Y006994D01*
X006853Y007224D01*
X006930Y007301D01*
X005203Y005755D02*
X005126Y005832D01*
X004973Y005832D01*
X004896Y005755D01*
X004743Y005832D02*
X004436Y005371D01*
X004743Y005371D02*
X004436Y005832D01*
X004896Y005371D02*
X005203Y005678D01*
X005203Y005755D01*
X005203Y005371D02*
X004896Y005371D01*
X006502Y004981D02*
X006620Y004981D01*
X006502Y004863D01*
X006581Y004902D02*
X006620Y004863D01*
X006620Y004469D01*
X006581Y004430D01*
X006620Y004469D02*
X006738Y004469D01*
X006738Y004351D02*
X006620Y004351D01*
X006502Y004469D01*
X006502Y004351D02*
X006620Y004351D01*
X006620Y004863D02*
X006738Y004863D01*
X006738Y004981D02*
X006620Y004981D01*
X005673Y003312D02*
X005443Y003082D01*
X005750Y003082D01*
X005673Y003312D02*
X005673Y002851D01*
X005290Y002851D02*
X004983Y003312D01*
X005290Y003312D02*
X004983Y002851D01*
X003002Y003029D02*
X002542Y003029D01*
X002542Y003259D01*
X002619Y003336D01*
X002772Y003336D01*
X002849Y003259D01*
X002849Y003029D01*
X002849Y003183D02*
X003002Y003336D01*
X002926Y003489D02*
X002849Y003489D01*
X002772Y003566D01*
X002772Y003720D01*
X002849Y003796D01*
X002926Y003796D01*
X003002Y003720D01*
X003002Y003566D01*
X002926Y003489D01*
X002772Y003566D02*
X002695Y003489D01*
X002619Y003489D01*
X002542Y003566D01*
X002542Y003720D01*
X002619Y003796D01*
X002695Y003796D01*
X002772Y003720D01*
X007049Y002461D02*
X007168Y002461D01*
X007049Y002343D01*
X007128Y002383D02*
X007168Y002343D01*
X007168Y001950D01*
X007128Y001910D01*
X007168Y001950D02*
X007286Y001950D01*
X007286Y001831D02*
X007168Y001831D01*
X007049Y001950D01*
X007049Y001831D02*
X007168Y001831D01*
X007168Y002343D02*
X007286Y002343D01*
X007286Y002461D02*
X007168Y002461D01*
X008562Y002879D02*
X008869Y003339D01*
X009022Y003339D02*
X009022Y003109D01*
X009175Y003186D01*
X009252Y003186D01*
X009329Y003109D01*
X009329Y002956D01*
X009252Y002879D01*
X009099Y002879D01*
X009022Y002956D01*
X008869Y002879D02*
X008562Y003339D01*
X009022Y003339D02*
X009329Y003339D01*
X010628Y002489D02*
X010746Y002489D01*
X010628Y002371D01*
X010707Y002410D02*
X010746Y002371D01*
X010746Y001977D01*
X010707Y001938D01*
X010746Y001977D02*
X010864Y001977D01*
X010864Y001859D02*
X010746Y001859D01*
X010628Y001977D01*
X010628Y001859D02*
X010746Y001859D01*
X010746Y002371D02*
X010864Y002371D01*
X010864Y002489D02*
X010746Y002489D01*
X012546Y002820D02*
X012853Y003280D01*
X013006Y003050D02*
X013236Y003050D01*
X013313Y002973D01*
X013313Y002897D01*
X013236Y002820D01*
X013083Y002820D01*
X013006Y002897D01*
X013006Y003050D01*
X013160Y003204D01*
X013313Y003280D01*
X012853Y002820D02*
X012546Y003280D01*
X014612Y002430D02*
X014731Y002430D01*
X014612Y002312D01*
X014691Y002351D02*
X014731Y002312D01*
X014731Y001918D01*
X014691Y001879D01*
X014731Y001918D02*
X014849Y001918D01*
X014849Y001800D02*
X014731Y001800D01*
X014612Y001918D01*
X014612Y001800D02*
X014731Y001800D01*
X014731Y002312D02*
X014849Y002312D01*
X014849Y002430D02*
X014731Y002430D01*
X004576Y008816D02*
X004116Y008816D01*
X004116Y009046D01*
X004193Y009123D01*
X004346Y009123D01*
X004423Y009046D01*
X004423Y008816D01*
X004423Y008970D02*
X004576Y009123D01*
X004346Y009277D02*
X004346Y009583D01*
X004116Y009507D02*
X004346Y009277D01*
X004576Y009507D02*
X004116Y009507D01*
D14*
X007657Y005902D02*
X007679Y005902D01*
X003344Y001198D02*
X003322Y001198D01*
X008444Y016883D02*
X008466Y016883D01*
X008442Y018717D02*
X008420Y018717D01*
X009598Y018709D02*
X009620Y018709D01*
X010609Y018709D02*
X010631Y018709D01*
D15*
X002494Y013298D02*
X002494Y012798D01*
X002244Y012548D01*
X002494Y012298D01*
X002494Y011798D01*
X002244Y011548D01*
X002494Y011298D01*
X002494Y010798D01*
X002244Y010548D01*
X002494Y010298D01*
X002494Y009798D01*
X002244Y009548D01*
X001744Y009548D01*
X001494Y009798D01*
X001494Y010298D01*
X001744Y010548D01*
X001494Y010798D01*
X001494Y011298D01*
X001744Y011548D01*
X001494Y011798D01*
X001494Y012298D01*
X001744Y012548D01*
X001494Y012798D01*
X001494Y013298D01*
X001744Y013548D01*
X002244Y013548D01*
X002494Y013298D01*
X002335Y008591D02*
X001835Y008591D01*
X001585Y008341D01*
X001585Y007841D01*
X001835Y007591D01*
X002335Y007591D01*
X002585Y007841D01*
X002585Y008341D01*
X002335Y008591D01*
X002335Y007591D02*
X002585Y007341D01*
X002585Y006841D01*
X002335Y006591D01*
X002585Y006341D01*
X002585Y005841D01*
X002335Y005591D01*
X001835Y005591D01*
X001585Y005841D01*
X001585Y006341D01*
X001835Y006591D01*
X001585Y006841D01*
X001585Y007341D01*
X001835Y007591D01*
X001835Y006591D02*
X002335Y006591D01*
X004888Y006496D02*
X004888Y007576D01*
X006848Y007576D02*
X006848Y007156D01*
X006848Y006916D01*
X006848Y006496D01*
X006848Y006916D02*
X006827Y006918D01*
X006807Y006923D01*
X006788Y006932D01*
X006771Y006944D01*
X006756Y006959D01*
X006744Y006976D01*
X006735Y006995D01*
X006730Y007015D01*
X006728Y007036D01*
X006730Y007057D01*
X006735Y007077D01*
X006744Y007096D01*
X006756Y007113D01*
X006771Y007128D01*
X006788Y007140D01*
X006807Y007149D01*
X006827Y007154D01*
X006848Y007156D01*
X011687Y007026D02*
X011937Y006776D01*
X011687Y006526D01*
X011687Y006026D01*
X011937Y005776D01*
X011687Y005526D01*
X011687Y005026D01*
X011937Y004776D01*
X011687Y004526D01*
X011687Y004026D01*
X011937Y003776D01*
X012437Y003776D01*
X012687Y004026D01*
X012687Y004526D01*
X012437Y004776D01*
X012687Y005026D01*
X012687Y005526D01*
X012437Y005776D01*
X012687Y006026D01*
X012687Y006526D01*
X012437Y006776D01*
X012687Y007026D01*
X012687Y007526D01*
X012437Y007776D01*
X011937Y007776D01*
X011687Y007526D01*
X011687Y007026D01*
D16*
X011512Y007099D02*
X011512Y007249D01*
X011437Y007324D01*
X011137Y007324D01*
X011062Y007249D01*
X011062Y007099D01*
X011137Y007024D01*
X011437Y007024D01*
X011512Y007099D01*
X011512Y006864D02*
X011062Y006864D01*
X011212Y006714D01*
X011062Y006564D01*
X011512Y006564D01*
X011587Y006404D02*
X011587Y006103D01*
X011512Y005793D02*
X011062Y005793D01*
X011062Y005643D02*
X011062Y005943D01*
X011137Y005483D02*
X011287Y005483D01*
X011362Y005408D01*
X011362Y005183D01*
X011362Y005333D02*
X011512Y005483D01*
X011512Y005183D02*
X011062Y005183D01*
X011062Y005408D01*
X011137Y005483D01*
X011212Y005022D02*
X011062Y004872D01*
X011212Y004722D01*
X011512Y004722D01*
X011287Y004722D02*
X011287Y005022D01*
X011212Y005022D02*
X011512Y005022D01*
X011062Y004562D02*
X011062Y004262D01*
X011062Y004412D02*
X011512Y004412D01*
X011437Y004102D02*
X011362Y004102D01*
X011287Y004027D01*
X011287Y003876D01*
X011212Y003801D01*
X011137Y003801D01*
X011062Y003876D01*
X011062Y004027D01*
X011137Y004102D01*
X011437Y004102D02*
X011512Y004027D01*
X011512Y003876D01*
X011437Y003801D01*
X011962Y003502D02*
X012112Y003351D01*
X011962Y003502D02*
X012412Y003502D01*
X012412Y003652D02*
X012412Y003351D01*
X011512Y007485D02*
X011062Y007485D01*
X011062Y007710D01*
X011137Y007785D01*
X011437Y007785D01*
X011512Y007710D01*
X011512Y007485D01*
X011437Y007945D02*
X011062Y007945D01*
X011062Y008245D02*
X011437Y008245D01*
X011512Y008170D01*
X011512Y008020D01*
X011437Y007945D01*
X011512Y008405D02*
X011062Y008405D01*
X011512Y008405D02*
X011512Y008706D01*
X011512Y008866D02*
X011512Y009166D01*
X011287Y009016D02*
X011287Y008866D01*
X011062Y008866D02*
X011512Y008866D01*
X011062Y008866D02*
X011062Y009166D01*
X011962Y008127D02*
X012187Y007901D01*
X012187Y008202D01*
X012412Y008127D02*
X011962Y008127D01*
X003194Y011731D02*
X003194Y012032D01*
X003119Y012192D02*
X002669Y012192D01*
X002669Y012417D01*
X002744Y012492D01*
X002894Y012492D01*
X002969Y012417D01*
X002969Y012192D01*
X002969Y012342D02*
X003119Y012492D01*
X003119Y012652D02*
X003119Y012952D01*
X003044Y013113D02*
X003119Y013188D01*
X003119Y013338D01*
X003044Y013413D01*
X002894Y013413D01*
X002894Y013263D01*
X002744Y013413D02*
X002669Y013338D01*
X002669Y013188D01*
X002744Y013113D01*
X003044Y013113D01*
X002894Y012802D02*
X002894Y012652D01*
X002669Y012652D02*
X003119Y012652D01*
X002669Y012652D02*
X002669Y012952D01*
X002219Y013563D02*
X002219Y013863D01*
X002219Y013713D02*
X001769Y013713D01*
X001919Y013563D01*
X002669Y011571D02*
X002969Y011571D01*
X003119Y011421D01*
X002969Y011271D01*
X002669Y011271D01*
X001994Y009313D02*
X001994Y009013D01*
X001769Y009238D01*
X002219Y009238D01*
X001340Y006807D02*
X001340Y006507D01*
X001340Y006657D02*
X000889Y006657D01*
X001040Y006507D01*
X000965Y006347D02*
X001115Y006347D01*
X001190Y006272D01*
X001190Y006047D01*
X001340Y006047D02*
X000889Y006047D01*
X000889Y006272D01*
X000965Y006347D01*
X000889Y005887D02*
X000889Y005736D01*
X000889Y005812D02*
X001265Y005812D01*
X001340Y005736D01*
X001340Y005661D01*
X001265Y005586D01*
D17*
X006882Y008008D02*
X007195Y008321D01*
X007039Y008321D02*
X007039Y008008D01*
X007195Y008008D02*
X006882Y008321D01*
X006882Y008164D02*
X007195Y008164D01*
M02*
