G75*
%MOIN*%
%OFA0B0*%
%FSLAX24Y24*%
%IPPOS*%
%LPD*%
%AMOC8*
5,1,8,0,0,1.08239X$1,22.5*
%
%ADD10C,0.0000*%
%ADD11C,0.0080*%
%ADD12C,0.0010*%
%ADD13C,0.0040*%
%ADD14C,0.0150*%
%ADD15C,0.0060*%
%ADD16C,0.0050*%
%ADD17C,0.0030*%
D10*
X000486Y001871D02*
X000486Y021556D01*
X018203Y021556D01*
X018203Y001871D01*
X000486Y001871D01*
X012455Y017619D02*
X012457Y017669D01*
X012463Y017719D01*
X012473Y017768D01*
X012487Y017816D01*
X012504Y017863D01*
X012525Y017908D01*
X012550Y017952D01*
X012578Y017993D01*
X012610Y018032D01*
X012644Y018069D01*
X012681Y018103D01*
X012721Y018133D01*
X012763Y018160D01*
X012807Y018184D01*
X012853Y018205D01*
X012900Y018221D01*
X012948Y018234D01*
X012998Y018243D01*
X013047Y018248D01*
X013098Y018249D01*
X013148Y018246D01*
X013197Y018239D01*
X013246Y018228D01*
X013294Y018213D01*
X013340Y018195D01*
X013385Y018173D01*
X013428Y018147D01*
X013469Y018118D01*
X013508Y018086D01*
X013544Y018051D01*
X013576Y018013D01*
X013606Y017973D01*
X013633Y017930D01*
X013656Y017886D01*
X013675Y017840D01*
X013691Y017792D01*
X013703Y017743D01*
X013711Y017694D01*
X013715Y017644D01*
X013715Y017594D01*
X013711Y017544D01*
X013703Y017495D01*
X013691Y017446D01*
X013675Y017398D01*
X013656Y017352D01*
X013633Y017308D01*
X013606Y017265D01*
X013576Y017225D01*
X013544Y017187D01*
X013508Y017152D01*
X013469Y017120D01*
X013428Y017091D01*
X013385Y017065D01*
X013340Y017043D01*
X013294Y017025D01*
X013246Y017010D01*
X013197Y016999D01*
X013148Y016992D01*
X013098Y016989D01*
X013047Y016990D01*
X012998Y016995D01*
X012948Y017004D01*
X012900Y017017D01*
X012853Y017033D01*
X012807Y017054D01*
X012763Y017078D01*
X012721Y017105D01*
X012681Y017135D01*
X012644Y017169D01*
X012610Y017206D01*
X012578Y017245D01*
X012550Y017286D01*
X012525Y017330D01*
X012504Y017375D01*
X012487Y017422D01*
X012473Y017470D01*
X012463Y017519D01*
X012457Y017569D01*
X012455Y017619D01*
X012455Y019982D02*
X012457Y020032D01*
X012463Y020082D01*
X012473Y020131D01*
X012487Y020179D01*
X012504Y020226D01*
X012525Y020271D01*
X012550Y020315D01*
X012578Y020356D01*
X012610Y020395D01*
X012644Y020432D01*
X012681Y020466D01*
X012721Y020496D01*
X012763Y020523D01*
X012807Y020547D01*
X012853Y020568D01*
X012900Y020584D01*
X012948Y020597D01*
X012998Y020606D01*
X013047Y020611D01*
X013098Y020612D01*
X013148Y020609D01*
X013197Y020602D01*
X013246Y020591D01*
X013294Y020576D01*
X013340Y020558D01*
X013385Y020536D01*
X013428Y020510D01*
X013469Y020481D01*
X013508Y020449D01*
X013544Y020414D01*
X013576Y020376D01*
X013606Y020336D01*
X013633Y020293D01*
X013656Y020249D01*
X013675Y020203D01*
X013691Y020155D01*
X013703Y020106D01*
X013711Y020057D01*
X013715Y020007D01*
X013715Y019957D01*
X013711Y019907D01*
X013703Y019858D01*
X013691Y019809D01*
X013675Y019761D01*
X013656Y019715D01*
X013633Y019671D01*
X013606Y019628D01*
X013576Y019588D01*
X013544Y019550D01*
X013508Y019515D01*
X013469Y019483D01*
X013428Y019454D01*
X013385Y019428D01*
X013340Y019406D01*
X013294Y019388D01*
X013246Y019373D01*
X013197Y019362D01*
X013148Y019355D01*
X013098Y019352D01*
X013047Y019353D01*
X012998Y019358D01*
X012948Y019367D01*
X012900Y019380D01*
X012853Y019396D01*
X012807Y019417D01*
X012763Y019441D01*
X012721Y019468D01*
X012681Y019498D01*
X012644Y019532D01*
X012610Y019569D01*
X012578Y019608D01*
X012550Y019649D01*
X012525Y019693D01*
X012504Y019738D01*
X012487Y019785D01*
X012473Y019833D01*
X012463Y019882D01*
X012457Y019932D01*
X012455Y019982D01*
X016392Y019982D02*
X016394Y020032D01*
X016400Y020082D01*
X016410Y020131D01*
X016424Y020179D01*
X016441Y020226D01*
X016462Y020271D01*
X016487Y020315D01*
X016515Y020356D01*
X016547Y020395D01*
X016581Y020432D01*
X016618Y020466D01*
X016658Y020496D01*
X016700Y020523D01*
X016744Y020547D01*
X016790Y020568D01*
X016837Y020584D01*
X016885Y020597D01*
X016935Y020606D01*
X016984Y020611D01*
X017035Y020612D01*
X017085Y020609D01*
X017134Y020602D01*
X017183Y020591D01*
X017231Y020576D01*
X017277Y020558D01*
X017322Y020536D01*
X017365Y020510D01*
X017406Y020481D01*
X017445Y020449D01*
X017481Y020414D01*
X017513Y020376D01*
X017543Y020336D01*
X017570Y020293D01*
X017593Y020249D01*
X017612Y020203D01*
X017628Y020155D01*
X017640Y020106D01*
X017648Y020057D01*
X017652Y020007D01*
X017652Y019957D01*
X017648Y019907D01*
X017640Y019858D01*
X017628Y019809D01*
X017612Y019761D01*
X017593Y019715D01*
X017570Y019671D01*
X017543Y019628D01*
X017513Y019588D01*
X017481Y019550D01*
X017445Y019515D01*
X017406Y019483D01*
X017365Y019454D01*
X017322Y019428D01*
X017277Y019406D01*
X017231Y019388D01*
X017183Y019373D01*
X017134Y019362D01*
X017085Y019355D01*
X017035Y019352D01*
X016984Y019353D01*
X016935Y019358D01*
X016885Y019367D01*
X016837Y019380D01*
X016790Y019396D01*
X016744Y019417D01*
X016700Y019441D01*
X016658Y019468D01*
X016618Y019498D01*
X016581Y019532D01*
X016547Y019569D01*
X016515Y019608D01*
X016487Y019649D01*
X016462Y019693D01*
X016441Y019738D01*
X016424Y019785D01*
X016410Y019833D01*
X016400Y019882D01*
X016394Y019932D01*
X016392Y019982D01*
X016392Y017619D02*
X016394Y017669D01*
X016400Y017719D01*
X016410Y017768D01*
X016424Y017816D01*
X016441Y017863D01*
X016462Y017908D01*
X016487Y017952D01*
X016515Y017993D01*
X016547Y018032D01*
X016581Y018069D01*
X016618Y018103D01*
X016658Y018133D01*
X016700Y018160D01*
X016744Y018184D01*
X016790Y018205D01*
X016837Y018221D01*
X016885Y018234D01*
X016935Y018243D01*
X016984Y018248D01*
X017035Y018249D01*
X017085Y018246D01*
X017134Y018239D01*
X017183Y018228D01*
X017231Y018213D01*
X017277Y018195D01*
X017322Y018173D01*
X017365Y018147D01*
X017406Y018118D01*
X017445Y018086D01*
X017481Y018051D01*
X017513Y018013D01*
X017543Y017973D01*
X017570Y017930D01*
X017593Y017886D01*
X017612Y017840D01*
X017628Y017792D01*
X017640Y017743D01*
X017648Y017694D01*
X017652Y017644D01*
X017652Y017594D01*
X017648Y017544D01*
X017640Y017495D01*
X017628Y017446D01*
X017612Y017398D01*
X017593Y017352D01*
X017570Y017308D01*
X017543Y017265D01*
X017513Y017225D01*
X017481Y017187D01*
X017445Y017152D01*
X017406Y017120D01*
X017365Y017091D01*
X017322Y017065D01*
X017277Y017043D01*
X017231Y017025D01*
X017183Y017010D01*
X017134Y016999D01*
X017085Y016992D01*
X017035Y016989D01*
X016984Y016990D01*
X016935Y016995D01*
X016885Y017004D01*
X016837Y017017D01*
X016790Y017033D01*
X016744Y017054D01*
X016700Y017078D01*
X016658Y017105D01*
X016618Y017135D01*
X016581Y017169D01*
X016547Y017206D01*
X016515Y017245D01*
X016487Y017286D01*
X016462Y017330D01*
X016441Y017375D01*
X016424Y017422D01*
X016410Y017470D01*
X016400Y017519D01*
X016394Y017569D01*
X016392Y017619D01*
X016392Y011714D02*
X016394Y011764D01*
X016400Y011814D01*
X016410Y011863D01*
X016424Y011911D01*
X016441Y011958D01*
X016462Y012003D01*
X016487Y012047D01*
X016515Y012088D01*
X016547Y012127D01*
X016581Y012164D01*
X016618Y012198D01*
X016658Y012228D01*
X016700Y012255D01*
X016744Y012279D01*
X016790Y012300D01*
X016837Y012316D01*
X016885Y012329D01*
X016935Y012338D01*
X016984Y012343D01*
X017035Y012344D01*
X017085Y012341D01*
X017134Y012334D01*
X017183Y012323D01*
X017231Y012308D01*
X017277Y012290D01*
X017322Y012268D01*
X017365Y012242D01*
X017406Y012213D01*
X017445Y012181D01*
X017481Y012146D01*
X017513Y012108D01*
X017543Y012068D01*
X017570Y012025D01*
X017593Y011981D01*
X017612Y011935D01*
X017628Y011887D01*
X017640Y011838D01*
X017648Y011789D01*
X017652Y011739D01*
X017652Y011689D01*
X017648Y011639D01*
X017640Y011590D01*
X017628Y011541D01*
X017612Y011493D01*
X017593Y011447D01*
X017570Y011403D01*
X017543Y011360D01*
X017513Y011320D01*
X017481Y011282D01*
X017445Y011247D01*
X017406Y011215D01*
X017365Y011186D01*
X017322Y011160D01*
X017277Y011138D01*
X017231Y011120D01*
X017183Y011105D01*
X017134Y011094D01*
X017085Y011087D01*
X017035Y011084D01*
X016984Y011085D01*
X016935Y011090D01*
X016885Y011099D01*
X016837Y011112D01*
X016790Y011128D01*
X016744Y011149D01*
X016700Y011173D01*
X016658Y011200D01*
X016618Y011230D01*
X016581Y011264D01*
X016547Y011301D01*
X016515Y011340D01*
X016487Y011381D01*
X016462Y011425D01*
X016441Y011470D01*
X016424Y011517D01*
X016410Y011565D01*
X016400Y011614D01*
X016394Y011664D01*
X016392Y011714D01*
X016392Y005808D02*
X016394Y005858D01*
X016400Y005908D01*
X016410Y005957D01*
X016424Y006005D01*
X016441Y006052D01*
X016462Y006097D01*
X016487Y006141D01*
X016515Y006182D01*
X016547Y006221D01*
X016581Y006258D01*
X016618Y006292D01*
X016658Y006322D01*
X016700Y006349D01*
X016744Y006373D01*
X016790Y006394D01*
X016837Y006410D01*
X016885Y006423D01*
X016935Y006432D01*
X016984Y006437D01*
X017035Y006438D01*
X017085Y006435D01*
X017134Y006428D01*
X017183Y006417D01*
X017231Y006402D01*
X017277Y006384D01*
X017322Y006362D01*
X017365Y006336D01*
X017406Y006307D01*
X017445Y006275D01*
X017481Y006240D01*
X017513Y006202D01*
X017543Y006162D01*
X017570Y006119D01*
X017593Y006075D01*
X017612Y006029D01*
X017628Y005981D01*
X017640Y005932D01*
X017648Y005883D01*
X017652Y005833D01*
X017652Y005783D01*
X017648Y005733D01*
X017640Y005684D01*
X017628Y005635D01*
X017612Y005587D01*
X017593Y005541D01*
X017570Y005497D01*
X017543Y005454D01*
X017513Y005414D01*
X017481Y005376D01*
X017445Y005341D01*
X017406Y005309D01*
X017365Y005280D01*
X017322Y005254D01*
X017277Y005232D01*
X017231Y005214D01*
X017183Y005199D01*
X017134Y005188D01*
X017085Y005181D01*
X017035Y005178D01*
X016984Y005179D01*
X016935Y005184D01*
X016885Y005193D01*
X016837Y005206D01*
X016790Y005222D01*
X016744Y005243D01*
X016700Y005267D01*
X016658Y005294D01*
X016618Y005324D01*
X016581Y005358D01*
X016547Y005395D01*
X016515Y005434D01*
X016487Y005475D01*
X016462Y005519D01*
X016441Y005564D01*
X016424Y005611D01*
X016410Y005659D01*
X016400Y005708D01*
X016394Y005758D01*
X016392Y005808D01*
X016392Y003446D02*
X016394Y003496D01*
X016400Y003546D01*
X016410Y003595D01*
X016424Y003643D01*
X016441Y003690D01*
X016462Y003735D01*
X016487Y003779D01*
X016515Y003820D01*
X016547Y003859D01*
X016581Y003896D01*
X016618Y003930D01*
X016658Y003960D01*
X016700Y003987D01*
X016744Y004011D01*
X016790Y004032D01*
X016837Y004048D01*
X016885Y004061D01*
X016935Y004070D01*
X016984Y004075D01*
X017035Y004076D01*
X017085Y004073D01*
X017134Y004066D01*
X017183Y004055D01*
X017231Y004040D01*
X017277Y004022D01*
X017322Y004000D01*
X017365Y003974D01*
X017406Y003945D01*
X017445Y003913D01*
X017481Y003878D01*
X017513Y003840D01*
X017543Y003800D01*
X017570Y003757D01*
X017593Y003713D01*
X017612Y003667D01*
X017628Y003619D01*
X017640Y003570D01*
X017648Y003521D01*
X017652Y003471D01*
X017652Y003421D01*
X017648Y003371D01*
X017640Y003322D01*
X017628Y003273D01*
X017612Y003225D01*
X017593Y003179D01*
X017570Y003135D01*
X017543Y003092D01*
X017513Y003052D01*
X017481Y003014D01*
X017445Y002979D01*
X017406Y002947D01*
X017365Y002918D01*
X017322Y002892D01*
X017277Y002870D01*
X017231Y002852D01*
X017183Y002837D01*
X017134Y002826D01*
X017085Y002819D01*
X017035Y002816D01*
X016984Y002817D01*
X016935Y002822D01*
X016885Y002831D01*
X016837Y002844D01*
X016790Y002860D01*
X016744Y002881D01*
X016700Y002905D01*
X016658Y002932D01*
X016618Y002962D01*
X016581Y002996D01*
X016547Y003033D01*
X016515Y003072D01*
X016487Y003113D01*
X016462Y003157D01*
X016441Y003202D01*
X016424Y003249D01*
X016410Y003297D01*
X016400Y003346D01*
X016394Y003396D01*
X016392Y003446D01*
X002416Y017946D02*
X002418Y017972D01*
X002424Y017998D01*
X002434Y018023D01*
X002447Y018046D01*
X002463Y018066D01*
X002483Y018084D01*
X002505Y018099D01*
X002528Y018111D01*
X002554Y018119D01*
X002580Y018123D01*
X002606Y018123D01*
X002632Y018119D01*
X002658Y018111D01*
X002682Y018099D01*
X002703Y018084D01*
X002723Y018066D01*
X002739Y018046D01*
X002752Y018023D01*
X002762Y017998D01*
X002768Y017972D01*
X002770Y017946D01*
X002768Y017920D01*
X002762Y017894D01*
X002752Y017869D01*
X002739Y017846D01*
X002723Y017826D01*
X002703Y017808D01*
X002681Y017793D01*
X002658Y017781D01*
X002632Y017773D01*
X002606Y017769D01*
X002580Y017769D01*
X002554Y017773D01*
X002528Y017781D01*
X002504Y017793D01*
X002483Y017808D01*
X002463Y017826D01*
X002447Y017846D01*
X002434Y017869D01*
X002424Y017894D01*
X002418Y017920D01*
X002416Y017946D01*
X002416Y019678D02*
X002418Y019704D01*
X002424Y019730D01*
X002434Y019755D01*
X002447Y019778D01*
X002463Y019798D01*
X002483Y019816D01*
X002505Y019831D01*
X002528Y019843D01*
X002554Y019851D01*
X002580Y019855D01*
X002606Y019855D01*
X002632Y019851D01*
X002658Y019843D01*
X002682Y019831D01*
X002703Y019816D01*
X002723Y019798D01*
X002739Y019778D01*
X002752Y019755D01*
X002762Y019730D01*
X002768Y019704D01*
X002770Y019678D01*
X002768Y019652D01*
X002762Y019626D01*
X002752Y019601D01*
X002739Y019578D01*
X002723Y019558D01*
X002703Y019540D01*
X002681Y019525D01*
X002658Y019513D01*
X002632Y019505D01*
X002606Y019501D01*
X002580Y019501D01*
X002554Y019505D01*
X002528Y019513D01*
X002504Y019525D01*
X002483Y019540D01*
X002463Y019558D01*
X002447Y019578D01*
X002434Y019601D01*
X002424Y019626D01*
X002418Y019652D01*
X002416Y019678D01*
D11*
X005780Y020351D02*
X006280Y020351D01*
X006280Y020951D02*
X005780Y020951D01*
X006809Y016671D02*
X006990Y016671D01*
X007082Y016549D01*
X007171Y016671D02*
X006990Y016671D01*
X006980Y016665D02*
X006904Y016549D01*
X007943Y016753D02*
X008124Y016753D01*
X008216Y016631D01*
X008305Y016753D02*
X008124Y016753D01*
X008114Y016747D02*
X008038Y016631D01*
X009416Y014450D02*
X011778Y014450D01*
X011778Y014253D01*
X011089Y014056D02*
X010124Y014056D01*
X010105Y013466D02*
X011089Y013466D01*
X011778Y013269D02*
X011778Y013072D01*
X009416Y013072D01*
X009416Y013269D01*
X009486Y012304D02*
X011849Y012304D01*
X011849Y012108D01*
X011160Y011911D02*
X010175Y011911D01*
X010175Y011320D02*
X011140Y011320D01*
X011849Y011123D02*
X011849Y010926D01*
X009486Y010926D01*
X009486Y011123D01*
X009486Y012108D02*
X009486Y012304D01*
X008299Y013539D02*
X005679Y013539D01*
X005540Y013399D01*
X005540Y010779D01*
X008299Y010779D01*
X008299Y013539D01*
X009416Y014253D02*
X009416Y014450D01*
X008399Y009987D02*
X007782Y009987D01*
X007658Y009863D01*
X007658Y009616D01*
X007782Y009493D01*
X008399Y009493D01*
X008276Y009232D02*
X008399Y009108D01*
X008399Y008861D01*
X008276Y008738D01*
X008152Y008738D01*
X007658Y009232D01*
X007658Y008738D01*
X006778Y006926D02*
X004053Y006926D01*
X004053Y005037D01*
X006778Y005037D01*
X006778Y006926D01*
X006817Y006612D02*
X006975Y006612D01*
X006975Y006454D01*
X006817Y006454D01*
X006817Y006257D02*
X006975Y006257D01*
X006975Y005706D01*
X006817Y005706D01*
X006817Y005509D02*
X006975Y005509D01*
X006975Y005352D01*
X006817Y005352D01*
X006463Y005194D02*
X004368Y005194D01*
X004368Y006769D01*
X006463Y006769D01*
X006463Y005194D01*
X007010Y004249D02*
X007010Y002675D01*
X004916Y002675D01*
X004916Y004249D01*
X007010Y004249D01*
X007325Y004407D02*
X004601Y004407D01*
X004601Y002517D01*
X007325Y002517D01*
X007325Y004407D01*
X007364Y004092D02*
X007522Y004092D01*
X007522Y003934D01*
X007364Y003934D01*
X007364Y003737D02*
X007522Y003737D01*
X007522Y003186D01*
X007364Y003186D01*
X007364Y002989D02*
X007522Y002989D01*
X007522Y002832D01*
X007364Y002832D01*
X007983Y002860D02*
X008140Y002860D01*
X008140Y003017D02*
X007983Y003017D01*
X007983Y002860D01*
X007983Y003214D02*
X008140Y003214D01*
X007983Y003214D02*
X007983Y003765D01*
X008140Y003765D01*
X008140Y003962D02*
X007983Y003962D01*
X007983Y004119D01*
X008140Y004119D01*
X008179Y004434D02*
X010904Y004434D01*
X010904Y002545D01*
X008179Y002545D01*
X008179Y004434D01*
X008494Y004277D02*
X010589Y004277D01*
X010589Y002702D01*
X008494Y002702D01*
X008494Y004277D01*
X010943Y004119D02*
X011101Y004119D01*
X011101Y003962D01*
X010943Y003962D01*
X010943Y003765D02*
X011101Y003765D01*
X011101Y003214D01*
X010943Y003214D01*
X010943Y003017D02*
X011101Y003017D01*
X011101Y002860D01*
X010943Y002860D01*
X011967Y002800D02*
X012124Y002800D01*
X011967Y002800D02*
X011967Y002958D01*
X012124Y002958D01*
X012124Y003155D02*
X011967Y003155D01*
X011967Y003706D01*
X012124Y003706D01*
X012124Y003903D02*
X011967Y003903D01*
X011967Y004060D01*
X012124Y004060D01*
X012479Y004218D02*
X014573Y004218D01*
X014573Y002643D01*
X012479Y002643D01*
X012479Y004218D01*
X012164Y004375D02*
X014888Y004375D01*
X014888Y002486D01*
X012164Y002486D01*
X012164Y004375D01*
X014927Y004060D02*
X015085Y004060D01*
X015085Y003903D01*
X014927Y003903D01*
X014927Y003706D02*
X015085Y003706D01*
X015085Y003155D01*
X014927Y003155D01*
X014927Y002958D02*
X015085Y002958D01*
X015085Y002800D01*
X014927Y002800D01*
X005420Y013609D02*
X005422Y013624D01*
X005427Y013638D01*
X005436Y013650D01*
X005448Y013660D01*
X005461Y013666D01*
X005476Y013669D01*
X005491Y013668D01*
X005506Y013663D01*
X005518Y013655D01*
X005529Y013644D01*
X005536Y013631D01*
X005540Y013617D01*
X005540Y013601D01*
X005536Y013587D01*
X005529Y013574D01*
X005518Y013563D01*
X005506Y013555D01*
X005491Y013550D01*
X005476Y013549D01*
X005461Y013552D01*
X005448Y013558D01*
X005436Y013568D01*
X005427Y013580D01*
X005422Y013594D01*
X005420Y013609D01*
X004250Y013887D02*
X004250Y013946D01*
X004250Y013887D02*
X003463Y013887D01*
X003463Y013946D01*
X003561Y012462D02*
X003742Y012462D01*
X003834Y012340D01*
X003923Y012462D02*
X003742Y012462D01*
X003732Y012456D02*
X003656Y012340D01*
X003463Y015600D02*
X003463Y015659D01*
X004250Y015659D01*
X004250Y015600D01*
X004014Y006612D02*
X003857Y006612D01*
X003857Y006454D01*
X004014Y006454D01*
X004014Y006257D02*
X003857Y006257D01*
X003857Y005706D01*
X004014Y005706D01*
X004014Y005509D02*
X003857Y005509D01*
X003857Y005352D01*
X004014Y005352D01*
X004404Y004092D02*
X004404Y003934D01*
X004561Y003934D01*
X004561Y004092D02*
X004404Y004092D01*
X004404Y003737D02*
X004404Y003186D01*
X004561Y003186D01*
X004561Y002989D02*
X004404Y002989D01*
X004404Y002832D01*
X004561Y002832D01*
X004561Y003737D02*
X004404Y003737D01*
X002699Y002836D02*
X000435Y002836D01*
X000435Y005001D01*
X002699Y005001D01*
X002699Y002836D01*
X000435Y002836D02*
X000140Y002836D01*
X000140Y005001D01*
X000435Y005001D01*
D12*
X002878Y002730D02*
X002903Y002680D01*
X002953Y002630D01*
X002953Y002705D01*
X002978Y002730D01*
X003003Y002730D01*
X003028Y002705D01*
X003028Y002655D01*
X003003Y002630D01*
X002953Y002630D01*
X003003Y002583D02*
X003028Y002558D01*
X003028Y002508D01*
X003003Y002483D01*
X002903Y002483D01*
X002878Y002508D01*
X002878Y002558D01*
X002903Y002583D01*
X007237Y007188D02*
X007338Y007188D01*
X007363Y007213D01*
X007363Y007263D01*
X007338Y007288D01*
X007338Y007335D02*
X007363Y007360D01*
X007363Y007410D01*
X007338Y007435D01*
X007287Y007435D01*
X007262Y007410D01*
X007262Y007385D01*
X007287Y007335D01*
X007212Y007335D01*
X007212Y007435D01*
X007237Y007288D02*
X007212Y007263D01*
X007212Y007213D01*
X007237Y007188D01*
X003462Y012050D02*
X003462Y012125D01*
X003437Y012150D01*
X003337Y012150D01*
X003312Y012125D01*
X003312Y012050D01*
X003462Y012050D01*
X003462Y012197D02*
X003462Y012297D01*
X003462Y012247D02*
X003312Y012247D01*
X003362Y012197D01*
X005675Y014189D02*
X005700Y014164D01*
X005750Y014164D01*
X005775Y014189D01*
X005775Y014314D01*
X005822Y014264D02*
X005872Y014314D01*
X005872Y014164D01*
X005822Y014164D02*
X005922Y014164D01*
X005675Y014189D02*
X005675Y014314D01*
X004602Y015321D02*
X004527Y015321D01*
X004477Y015371D01*
X004452Y015371D01*
X004502Y015418D02*
X004452Y015468D01*
X004602Y015468D01*
X004602Y015418D02*
X004602Y015518D01*
X004527Y015321D02*
X004477Y015271D01*
X004452Y015271D01*
X006560Y016259D02*
X006560Y016334D01*
X006585Y016359D01*
X006685Y016359D01*
X006710Y016334D01*
X006710Y016259D01*
X006560Y016259D01*
X006585Y016406D02*
X006560Y016431D01*
X006560Y016481D01*
X006585Y016506D01*
X006610Y016506D01*
X006710Y016406D01*
X006710Y016506D01*
X007694Y016514D02*
X007694Y016564D01*
X007719Y016589D01*
X007744Y016589D01*
X007769Y016564D01*
X007794Y016589D01*
X007819Y016589D01*
X007844Y016564D01*
X007844Y016514D01*
X007819Y016489D01*
X007819Y016441D02*
X007719Y016441D01*
X007694Y016416D01*
X007694Y016341D01*
X007844Y016341D01*
X007844Y016416D01*
X007819Y016441D01*
X007769Y016539D02*
X007769Y016564D01*
X007719Y016489D02*
X007694Y016514D01*
X008025Y018168D02*
X008125Y018168D01*
X008150Y018193D01*
X008150Y018243D01*
X008125Y018268D01*
X008150Y018315D02*
X008050Y018415D01*
X008025Y018415D01*
X008000Y018390D01*
X008000Y018340D01*
X008025Y018315D01*
X008025Y018268D02*
X008000Y018243D01*
X008000Y018193D01*
X008025Y018168D01*
X008150Y018315D02*
X008150Y018415D01*
X008761Y020408D02*
X008861Y020408D01*
X008886Y020433D01*
X008886Y020483D01*
X008861Y020508D01*
X008886Y020555D02*
X008886Y020655D01*
X008886Y020605D02*
X008736Y020605D01*
X008786Y020555D01*
X008761Y020508D02*
X008736Y020483D01*
X008736Y020433D01*
X008761Y020408D01*
X009913Y020425D02*
X009938Y020400D01*
X010038Y020400D01*
X010064Y020425D01*
X010064Y020475D01*
X010038Y020500D01*
X010038Y020548D02*
X010064Y020573D01*
X010064Y020623D01*
X010038Y020648D01*
X010013Y020648D01*
X009988Y020623D01*
X009988Y020598D01*
X009988Y020623D02*
X009963Y020648D01*
X009938Y020648D01*
X009913Y020623D01*
X009913Y020573D01*
X009938Y020548D01*
X009938Y020500D02*
X009913Y020475D01*
X009913Y020425D01*
X010925Y020425D02*
X010950Y020400D01*
X011050Y020400D01*
X011075Y020425D01*
X011075Y020475D01*
X011050Y020500D01*
X011000Y020548D02*
X011000Y020648D01*
X010925Y020623D02*
X011000Y020548D01*
X010950Y020500D02*
X010925Y020475D01*
X010925Y020425D01*
X010925Y020623D02*
X011075Y020623D01*
X005682Y021156D02*
X005582Y021156D01*
X005632Y021156D02*
X005632Y021306D01*
X005582Y021256D01*
X005535Y021306D02*
X005435Y021306D01*
X005435Y021156D01*
X005435Y021231D02*
X005485Y021231D01*
D13*
X003962Y019998D02*
X003962Y019609D01*
X003942Y019609D02*
X003206Y019609D01*
X003001Y019528D02*
X003001Y018097D01*
X003002Y018097D02*
X003000Y018081D01*
X002996Y018066D01*
X002988Y018051D01*
X002978Y018039D01*
X002966Y018029D01*
X002951Y018021D01*
X002936Y018017D01*
X002920Y018015D01*
X002920Y018016D02*
X002900Y018018D01*
X002881Y018024D01*
X002863Y018033D01*
X002848Y018046D01*
X002835Y018061D01*
X002826Y018079D01*
X002820Y018098D01*
X002818Y018118D01*
X002818Y018117D02*
X002818Y019507D01*
X002820Y019527D01*
X002826Y019546D01*
X002835Y019564D01*
X002848Y019579D01*
X002863Y019592D01*
X002881Y019601D01*
X002900Y019607D01*
X002920Y019609D01*
X002920Y019609D01*
X002920Y019610D02*
X002936Y019608D01*
X002951Y019604D01*
X002966Y019596D01*
X002978Y019586D01*
X002988Y019574D01*
X002996Y019559D01*
X003000Y019544D01*
X003002Y019528D01*
X002470Y019139D02*
X002470Y018485D01*
X002471Y018485D02*
X002468Y018467D01*
X002461Y018450D01*
X002452Y018435D01*
X002439Y018422D01*
X002424Y018413D01*
X002407Y018406D01*
X002389Y018403D01*
X002388Y018404D02*
X000794Y018322D01*
X000778Y018324D01*
X000763Y018328D01*
X000748Y018336D01*
X000736Y018346D01*
X000726Y018358D01*
X000718Y018373D01*
X000714Y018388D01*
X000712Y018404D01*
X000714Y018420D01*
X000718Y018435D01*
X000726Y018450D01*
X000736Y018462D01*
X000748Y018472D01*
X000763Y018480D01*
X000778Y018484D01*
X000794Y018486D01*
X000794Y018485D02*
X002143Y018567D01*
X002143Y019058D01*
X000794Y019139D01*
X000778Y019141D01*
X000763Y019145D01*
X000748Y019153D01*
X000736Y019163D01*
X000726Y019175D01*
X000718Y019190D01*
X000714Y019205D01*
X000712Y019221D01*
X000712Y019221D01*
X000714Y019237D01*
X000718Y019252D01*
X000726Y019267D01*
X000736Y019279D01*
X000748Y019289D01*
X000763Y019297D01*
X000778Y019301D01*
X000794Y019303D01*
X002388Y019221D01*
X002389Y019222D02*
X002407Y019219D01*
X002424Y019212D01*
X002439Y019203D01*
X002452Y019190D01*
X002461Y019175D01*
X002468Y019158D01*
X002471Y019140D01*
X001877Y019405D02*
X001877Y019487D01*
X000937Y019589D01*
X000937Y019793D01*
X001877Y019896D01*
X001877Y019977D01*
X000794Y019896D01*
X000775Y019892D01*
X000756Y019886D01*
X000739Y019876D01*
X000723Y019864D01*
X000710Y019849D01*
X000699Y019832D01*
X000692Y019814D01*
X000692Y019589D02*
X000699Y019571D01*
X000710Y019554D01*
X000723Y019539D01*
X000739Y019527D01*
X000756Y019517D01*
X000775Y019511D01*
X000794Y019507D01*
X001877Y019405D01*
X000693Y019589D02*
X000684Y019626D01*
X000678Y019663D01*
X000676Y019701D01*
X000678Y019739D01*
X000684Y019776D01*
X000693Y019813D01*
X000855Y020325D02*
X000263Y020325D01*
X000263Y017300D01*
X000855Y017300D01*
X000794Y017729D02*
X001877Y017647D01*
X001877Y017729D01*
X000937Y017831D01*
X000937Y018036D01*
X001877Y018138D01*
X001877Y018220D01*
X000794Y018117D01*
X000794Y018118D02*
X000775Y018114D01*
X000756Y018108D01*
X000739Y018098D01*
X000723Y018086D01*
X000710Y018071D01*
X000699Y018054D01*
X000692Y018036D01*
X000692Y017811D02*
X000699Y017793D01*
X000710Y017776D01*
X000723Y017761D01*
X000739Y017749D01*
X000756Y017739D01*
X000775Y017733D01*
X000794Y017729D01*
X000693Y017811D02*
X000684Y017848D01*
X000678Y017885D01*
X000676Y017923D01*
X000678Y017961D01*
X000684Y017998D01*
X000693Y018035D01*
X000263Y017300D02*
X000263Y017300D01*
X001970Y017300D02*
X002879Y017300D01*
X002863Y017298D01*
X002848Y017294D01*
X002833Y017286D01*
X002821Y017276D01*
X002811Y017264D01*
X002803Y017249D01*
X002799Y017234D01*
X002797Y017218D01*
X002797Y017157D01*
X003206Y018015D02*
X003942Y018015D01*
X003962Y018015D02*
X003962Y017627D01*
X003942Y017627D02*
X003799Y017627D01*
X005746Y017630D02*
X005746Y017399D01*
X006206Y017399D01*
X006053Y017399D02*
X006053Y017630D01*
X005976Y017706D01*
X005823Y017706D01*
X005746Y017630D01*
X005823Y017860D02*
X005746Y017936D01*
X005746Y018090D01*
X005823Y018167D01*
X005899Y018167D01*
X006206Y017860D01*
X006206Y018167D01*
X006206Y017706D02*
X006053Y017553D01*
X006742Y018529D02*
X006742Y018759D01*
X006819Y018836D01*
X006972Y018836D01*
X007049Y018759D01*
X007049Y018529D01*
X007202Y018529D02*
X006742Y018529D01*
X007049Y018683D02*
X007202Y018836D01*
X007202Y018990D02*
X007202Y019297D01*
X007202Y019143D02*
X006742Y019143D01*
X006895Y018990D01*
X003942Y019998D02*
X003799Y019998D01*
X002879Y020325D02*
X001970Y020325D01*
X001630Y021082D02*
X001323Y021082D01*
X001170Y021082D02*
X000863Y021543D01*
X001170Y021543D02*
X000863Y021082D01*
X001323Y021389D02*
X001477Y021543D01*
X001477Y021082D01*
X002797Y020468D02*
X002797Y020406D01*
X002799Y020390D01*
X002803Y020375D01*
X002811Y020360D01*
X002821Y020348D01*
X002833Y020338D01*
X002848Y020330D01*
X002863Y020326D01*
X002879Y020324D01*
X007273Y015257D02*
X007273Y014950D01*
X007504Y014950D01*
X007427Y015104D01*
X007427Y015180D01*
X007504Y015257D01*
X007657Y015257D01*
X007734Y015180D01*
X007734Y015027D01*
X007657Y014950D01*
X007734Y014797D02*
X007580Y014643D01*
X007580Y014720D02*
X007580Y014490D01*
X007734Y014490D02*
X007273Y014490D01*
X007273Y014720D01*
X007350Y014797D01*
X007504Y014797D01*
X007580Y014720D01*
X008423Y014771D02*
X008423Y014541D01*
X008883Y014541D01*
X008900Y014679D02*
X008440Y014679D01*
X008440Y014909D01*
X008516Y014986D01*
X008670Y014986D01*
X008746Y014909D01*
X008746Y014679D01*
X008730Y014695D02*
X008883Y014848D01*
X008746Y014833D02*
X008900Y014986D01*
X008883Y015001D02*
X008807Y015001D01*
X008500Y015308D01*
X008423Y015308D01*
X008423Y015001D01*
X008516Y015140D02*
X008440Y015216D01*
X008440Y015370D01*
X008516Y015446D01*
X008593Y015446D01*
X008670Y015370D01*
X008746Y015446D01*
X008823Y015446D01*
X008900Y015370D01*
X008900Y015216D01*
X008823Y015140D01*
X008670Y015293D02*
X008670Y015370D01*
X008653Y014848D02*
X008500Y014848D01*
X008423Y014771D01*
X008653Y014848D02*
X008730Y014771D01*
X008730Y014541D01*
X009764Y013096D02*
X009688Y013019D01*
X009688Y012942D01*
X009764Y012866D01*
X009918Y012866D01*
X009994Y012789D01*
X009994Y012712D01*
X009918Y012635D01*
X009764Y012635D01*
X009688Y012712D01*
X009764Y013096D02*
X009918Y013096D01*
X009994Y013019D01*
X010148Y013019D02*
X010225Y013096D01*
X010378Y013096D01*
X010455Y013019D01*
X010455Y012942D01*
X010148Y012635D01*
X010455Y012635D01*
X010696Y012665D02*
X010696Y012588D01*
X010773Y012511D01*
X010926Y012511D01*
X011003Y012435D01*
X011003Y012358D01*
X010926Y012281D01*
X010773Y012281D01*
X010696Y012358D01*
X010696Y012665D02*
X010773Y012742D01*
X010926Y012742D01*
X011003Y012665D01*
X011156Y012588D02*
X011310Y012742D01*
X011310Y012281D01*
X011463Y012281D02*
X011156Y012281D01*
X007313Y009315D02*
X007313Y009161D01*
X007237Y009084D01*
X007083Y009084D01*
X007083Y009315D01*
X007160Y009391D01*
X007237Y009391D01*
X007313Y009315D01*
X007083Y009084D02*
X006930Y009238D01*
X006853Y009391D01*
X006930Y008931D02*
X007083Y008931D01*
X007160Y008854D01*
X007160Y008624D01*
X007313Y008624D02*
X006853Y008624D01*
X006853Y008854D01*
X006930Y008931D01*
X007160Y008777D02*
X007313Y008931D01*
X006738Y006612D02*
X006620Y006612D01*
X006502Y006493D01*
X006581Y006533D02*
X006620Y006493D01*
X006620Y006100D01*
X006581Y006060D01*
X006620Y006100D02*
X006738Y006100D01*
X006738Y005982D02*
X006620Y005982D01*
X006502Y006100D01*
X006502Y005982D02*
X006620Y005982D01*
X006620Y006493D02*
X006738Y006493D01*
X006620Y006612D02*
X006502Y006612D01*
X005203Y007002D02*
X004896Y007002D01*
X005203Y007309D01*
X005203Y007385D01*
X005126Y007462D01*
X004973Y007462D01*
X004896Y007385D01*
X004743Y007462D02*
X004436Y007002D01*
X004743Y007002D02*
X004436Y007462D01*
X002926Y005427D02*
X003002Y005350D01*
X003002Y005197D01*
X002926Y005120D01*
X002849Y005120D01*
X002772Y005197D01*
X002772Y005350D01*
X002849Y005427D01*
X002926Y005427D01*
X002772Y005350D02*
X002695Y005427D01*
X002619Y005427D01*
X002542Y005350D01*
X002542Y005197D01*
X002619Y005120D01*
X002695Y005120D01*
X002772Y005197D01*
X002772Y004966D02*
X002619Y004966D01*
X002542Y004890D01*
X002542Y004659D01*
X003002Y004659D01*
X002849Y004659D02*
X002849Y004890D01*
X002772Y004966D01*
X002849Y004813D02*
X003002Y004966D01*
X004983Y004942D02*
X005290Y004482D01*
X005443Y004712D02*
X005750Y004712D01*
X005673Y004482D02*
X005673Y004942D01*
X005443Y004712D01*
X005290Y004942D02*
X004983Y004482D01*
X007049Y004092D02*
X007168Y004092D01*
X007049Y003974D01*
X007128Y004013D02*
X007168Y003974D01*
X007168Y003580D01*
X007128Y003541D01*
X007168Y003580D02*
X007286Y003580D01*
X007286Y003462D02*
X007168Y003462D01*
X007049Y003580D01*
X007049Y003462D02*
X007168Y003462D01*
X007168Y003974D02*
X007286Y003974D01*
X007286Y004092D02*
X007168Y004092D01*
X008562Y004509D02*
X008869Y004970D01*
X009022Y004970D02*
X009022Y004740D01*
X009175Y004816D01*
X009252Y004816D01*
X009329Y004740D01*
X009329Y004586D01*
X009252Y004509D01*
X009099Y004509D01*
X009022Y004586D01*
X008869Y004509D02*
X008562Y004970D01*
X009022Y004970D02*
X009329Y004970D01*
X010628Y004119D02*
X010746Y004119D01*
X010628Y004001D01*
X010707Y004041D02*
X010746Y004001D01*
X010746Y003608D01*
X010707Y003568D01*
X010746Y003608D02*
X010864Y003608D01*
X010864Y003489D02*
X010746Y003489D01*
X010628Y003608D01*
X010628Y003489D02*
X010746Y003489D01*
X010746Y004001D02*
X010864Y004001D01*
X010864Y004119D02*
X010746Y004119D01*
X012546Y004450D02*
X012853Y004911D01*
X013006Y004681D02*
X013236Y004681D01*
X013313Y004604D01*
X013313Y004527D01*
X013236Y004450D01*
X013083Y004450D01*
X013006Y004527D01*
X013006Y004681D01*
X013160Y004834D01*
X013313Y004911D01*
X012853Y004450D02*
X012546Y004911D01*
X014612Y004060D02*
X014731Y004060D01*
X014612Y003942D01*
X014691Y003982D02*
X014731Y003942D01*
X014731Y003549D01*
X014691Y003509D01*
X014731Y003549D02*
X014849Y003549D01*
X014849Y003430D02*
X014731Y003430D01*
X014612Y003549D01*
X014612Y003430D02*
X014731Y003430D01*
X014731Y003942D02*
X014849Y003942D01*
X014849Y004060D02*
X014731Y004060D01*
X004576Y010447D02*
X004116Y010447D01*
X004116Y010677D01*
X004193Y010753D01*
X004346Y010753D01*
X004423Y010677D01*
X004423Y010447D01*
X004423Y010600D02*
X004576Y010753D01*
X004346Y010907D02*
X004346Y011214D01*
X004116Y011137D02*
X004346Y010907D01*
X004576Y011137D02*
X004116Y011137D01*
D14*
X007657Y007533D02*
X007679Y007533D01*
X003344Y002828D02*
X003322Y002828D01*
X008444Y018513D02*
X008466Y018513D01*
X008442Y020348D02*
X008420Y020348D01*
X009598Y020340D02*
X009620Y020340D01*
X010609Y020340D02*
X010631Y020340D01*
D15*
X002494Y014928D02*
X002494Y014428D01*
X002244Y014178D01*
X002494Y013928D01*
X002494Y013428D01*
X002244Y013178D01*
X002494Y012928D01*
X002494Y012428D01*
X002244Y012178D01*
X002494Y011928D01*
X002494Y011428D01*
X002244Y011178D01*
X001744Y011178D01*
X001494Y011428D01*
X001494Y011928D01*
X001744Y012178D01*
X001494Y012428D01*
X001494Y012928D01*
X001744Y013178D01*
X001494Y013428D01*
X001494Y013928D01*
X001744Y014178D01*
X001494Y014428D01*
X001494Y014928D01*
X001744Y015178D01*
X002244Y015178D01*
X002494Y014928D01*
X002335Y010222D02*
X001835Y010222D01*
X001585Y009972D01*
X001585Y009472D01*
X001835Y009222D01*
X002335Y009222D01*
X002585Y009472D01*
X002585Y009972D01*
X002335Y010222D01*
X002335Y009222D02*
X002585Y008972D01*
X002585Y008472D01*
X002335Y008222D01*
X002585Y007972D01*
X002585Y007472D01*
X002335Y007222D01*
X001835Y007222D01*
X001585Y007472D01*
X001585Y007972D01*
X001835Y008222D01*
X001585Y008472D01*
X001585Y008972D01*
X001835Y009222D01*
X001835Y008222D02*
X002335Y008222D01*
X004888Y008127D02*
X004888Y009207D01*
X006848Y009207D02*
X006848Y008787D01*
X006848Y008547D01*
X006848Y008127D01*
X006848Y008547D02*
X006827Y008549D01*
X006807Y008554D01*
X006788Y008563D01*
X006771Y008575D01*
X006756Y008590D01*
X006744Y008607D01*
X006735Y008626D01*
X006730Y008646D01*
X006728Y008667D01*
X006730Y008688D01*
X006735Y008708D01*
X006744Y008727D01*
X006756Y008744D01*
X006771Y008759D01*
X006788Y008771D01*
X006807Y008780D01*
X006827Y008785D01*
X006848Y008787D01*
X011687Y008657D02*
X011937Y008407D01*
X011687Y008157D01*
X011687Y007657D01*
X011937Y007407D01*
X011687Y007157D01*
X011687Y006657D01*
X011937Y006407D01*
X011687Y006157D01*
X011687Y005657D01*
X011937Y005407D01*
X012437Y005407D01*
X012687Y005657D01*
X012687Y006157D01*
X012437Y006407D01*
X012687Y006657D01*
X012687Y007157D01*
X012437Y007407D01*
X012687Y007657D01*
X012687Y008157D01*
X012437Y008407D01*
X012687Y008657D01*
X012687Y009157D01*
X012437Y009407D01*
X011937Y009407D01*
X011687Y009157D01*
X011687Y008657D01*
D16*
X011512Y008730D02*
X011512Y008880D01*
X011437Y008955D01*
X011137Y008955D01*
X011062Y008880D01*
X011062Y008730D01*
X011137Y008655D01*
X011437Y008655D01*
X011512Y008730D01*
X011512Y008494D02*
X011062Y008494D01*
X011212Y008344D01*
X011062Y008194D01*
X011512Y008194D01*
X011587Y008034D02*
X011587Y007734D01*
X011512Y007423D02*
X011062Y007423D01*
X011062Y007273D02*
X011062Y007574D01*
X011137Y007113D02*
X011287Y007113D01*
X011362Y007038D01*
X011362Y006813D01*
X011362Y006963D02*
X011512Y007113D01*
X011512Y006813D02*
X011062Y006813D01*
X011062Y007038D01*
X011137Y007113D01*
X011212Y006653D02*
X011512Y006653D01*
X011287Y006653D02*
X011287Y006353D01*
X011212Y006353D02*
X011062Y006503D01*
X011212Y006653D01*
X011212Y006353D02*
X011512Y006353D01*
X011512Y006042D02*
X011062Y006042D01*
X011062Y005892D02*
X011062Y006192D01*
X011137Y005732D02*
X011062Y005657D01*
X011062Y005507D01*
X011137Y005432D01*
X011212Y005432D01*
X011287Y005507D01*
X011287Y005657D01*
X011362Y005732D01*
X011437Y005732D01*
X011512Y005657D01*
X011512Y005507D01*
X011437Y005432D01*
X011962Y005132D02*
X012112Y004982D01*
X011962Y005132D02*
X012412Y005132D01*
X012412Y004982D02*
X012412Y005282D01*
X011512Y009115D02*
X011062Y009115D01*
X011062Y009340D01*
X011137Y009415D01*
X011437Y009415D01*
X011512Y009340D01*
X011512Y009115D01*
X011437Y009575D02*
X011062Y009575D01*
X011062Y009876D02*
X011437Y009876D01*
X011512Y009801D01*
X011512Y009650D01*
X011437Y009575D01*
X011512Y010036D02*
X011062Y010036D01*
X011512Y010036D02*
X011512Y010336D01*
X011512Y010496D02*
X011512Y010796D01*
X011287Y010646D02*
X011287Y010496D01*
X011062Y010496D02*
X011062Y010796D01*
X011062Y010496D02*
X011512Y010496D01*
X011962Y009757D02*
X012187Y009532D01*
X012187Y009832D01*
X012412Y009757D02*
X011962Y009757D01*
X003194Y013362D02*
X003194Y013662D01*
X003119Y013822D02*
X002669Y013822D01*
X002669Y014047D01*
X002744Y014123D01*
X002894Y014123D01*
X002969Y014047D01*
X002969Y013822D01*
X002969Y013972D02*
X003119Y014123D01*
X003119Y014283D02*
X003119Y014583D01*
X003044Y014743D02*
X003119Y014818D01*
X003119Y014968D01*
X003044Y015043D01*
X002894Y015043D01*
X002894Y014893D01*
X002744Y014743D02*
X003044Y014743D01*
X002894Y014433D02*
X002894Y014283D01*
X002669Y014283D02*
X002669Y014583D01*
X002744Y014743D02*
X002669Y014818D01*
X002669Y014968D01*
X002744Y015043D01*
X002219Y015193D02*
X002219Y015493D01*
X002219Y015343D02*
X001769Y015343D01*
X001919Y015193D01*
X002669Y014283D02*
X003119Y014283D01*
X002969Y013202D02*
X002669Y013202D01*
X002669Y012901D02*
X002969Y012901D01*
X003119Y013052D01*
X002969Y013202D01*
X001994Y010943D02*
X001994Y010643D01*
X001769Y010868D01*
X002219Y010868D01*
X001340Y008438D02*
X001340Y008138D01*
X001340Y008288D02*
X000889Y008288D01*
X001040Y008138D01*
X000965Y007977D02*
X001115Y007977D01*
X001190Y007902D01*
X001190Y007677D01*
X001340Y007677D02*
X000889Y007677D01*
X000889Y007902D01*
X000965Y007977D01*
X000889Y007517D02*
X000889Y007367D01*
X000889Y007442D02*
X001265Y007442D01*
X001340Y007367D01*
X001340Y007292D01*
X001265Y007217D01*
D17*
X006882Y009638D02*
X007195Y009952D01*
X007039Y009952D02*
X007039Y009638D01*
X007195Y009638D02*
X006882Y009952D01*
X006882Y009795D02*
X007195Y009795D01*
M02*
