G75*
%MOIN*%
%OFA0B0*%
%FSLAX24Y24*%
%IPPOS*%
%LPD*%
%AMOC8*
5,1,8,0,0,1.08239X$1,22.5*
%
%ADD10C,0.0000*%
%ADD11R,0.0500X0.0220*%
%ADD12R,0.0220X0.0500*%
%ADD13R,0.0394X0.0709*%
%ADD14R,0.0433X0.0394*%
%ADD15R,0.0394X0.0433*%
%ADD16R,0.0984X0.0787*%
%ADD17R,0.1299X0.0787*%
%ADD18R,0.1220X0.0197*%
%ADD19R,0.0630X0.0157*%
%ADD20R,0.0197X0.0315*%
%ADD21R,0.0787X0.0630*%
%ADD22C,0.0118*%
%ADD23C,0.0520*%
%ADD24R,0.0600X0.0600*%
%ADD25C,0.0600*%
%ADD26R,0.0220X0.0780*%
%ADD27C,0.0356*%
%ADD28C,0.0197*%
%ADD29C,0.0079*%
%ADD30C,0.0276*%
%ADD31C,0.0238*%
D10*
X000486Y001871D02*
X000486Y021556D01*
X018203Y021556D01*
X018203Y001871D01*
X000486Y001871D01*
X012455Y017619D02*
X012457Y017669D01*
X012463Y017719D01*
X012473Y017768D01*
X012487Y017816D01*
X012504Y017863D01*
X012525Y017908D01*
X012550Y017952D01*
X012578Y017993D01*
X012610Y018032D01*
X012644Y018069D01*
X012681Y018103D01*
X012721Y018133D01*
X012763Y018160D01*
X012807Y018184D01*
X012853Y018205D01*
X012900Y018221D01*
X012948Y018234D01*
X012998Y018243D01*
X013047Y018248D01*
X013098Y018249D01*
X013148Y018246D01*
X013197Y018239D01*
X013246Y018228D01*
X013294Y018213D01*
X013340Y018195D01*
X013385Y018173D01*
X013428Y018147D01*
X013469Y018118D01*
X013508Y018086D01*
X013544Y018051D01*
X013576Y018013D01*
X013606Y017973D01*
X013633Y017930D01*
X013656Y017886D01*
X013675Y017840D01*
X013691Y017792D01*
X013703Y017743D01*
X013711Y017694D01*
X013715Y017644D01*
X013715Y017594D01*
X013711Y017544D01*
X013703Y017495D01*
X013691Y017446D01*
X013675Y017398D01*
X013656Y017352D01*
X013633Y017308D01*
X013606Y017265D01*
X013576Y017225D01*
X013544Y017187D01*
X013508Y017152D01*
X013469Y017120D01*
X013428Y017091D01*
X013385Y017065D01*
X013340Y017043D01*
X013294Y017025D01*
X013246Y017010D01*
X013197Y016999D01*
X013148Y016992D01*
X013098Y016989D01*
X013047Y016990D01*
X012998Y016995D01*
X012948Y017004D01*
X012900Y017017D01*
X012853Y017033D01*
X012807Y017054D01*
X012763Y017078D01*
X012721Y017105D01*
X012681Y017135D01*
X012644Y017169D01*
X012610Y017206D01*
X012578Y017245D01*
X012550Y017286D01*
X012525Y017330D01*
X012504Y017375D01*
X012487Y017422D01*
X012473Y017470D01*
X012463Y017519D01*
X012457Y017569D01*
X012455Y017619D01*
X012455Y019982D02*
X012457Y020032D01*
X012463Y020082D01*
X012473Y020131D01*
X012487Y020179D01*
X012504Y020226D01*
X012525Y020271D01*
X012550Y020315D01*
X012578Y020356D01*
X012610Y020395D01*
X012644Y020432D01*
X012681Y020466D01*
X012721Y020496D01*
X012763Y020523D01*
X012807Y020547D01*
X012853Y020568D01*
X012900Y020584D01*
X012948Y020597D01*
X012998Y020606D01*
X013047Y020611D01*
X013098Y020612D01*
X013148Y020609D01*
X013197Y020602D01*
X013246Y020591D01*
X013294Y020576D01*
X013340Y020558D01*
X013385Y020536D01*
X013428Y020510D01*
X013469Y020481D01*
X013508Y020449D01*
X013544Y020414D01*
X013576Y020376D01*
X013606Y020336D01*
X013633Y020293D01*
X013656Y020249D01*
X013675Y020203D01*
X013691Y020155D01*
X013703Y020106D01*
X013711Y020057D01*
X013715Y020007D01*
X013715Y019957D01*
X013711Y019907D01*
X013703Y019858D01*
X013691Y019809D01*
X013675Y019761D01*
X013656Y019715D01*
X013633Y019671D01*
X013606Y019628D01*
X013576Y019588D01*
X013544Y019550D01*
X013508Y019515D01*
X013469Y019483D01*
X013428Y019454D01*
X013385Y019428D01*
X013340Y019406D01*
X013294Y019388D01*
X013246Y019373D01*
X013197Y019362D01*
X013148Y019355D01*
X013098Y019352D01*
X013047Y019353D01*
X012998Y019358D01*
X012948Y019367D01*
X012900Y019380D01*
X012853Y019396D01*
X012807Y019417D01*
X012763Y019441D01*
X012721Y019468D01*
X012681Y019498D01*
X012644Y019532D01*
X012610Y019569D01*
X012578Y019608D01*
X012550Y019649D01*
X012525Y019693D01*
X012504Y019738D01*
X012487Y019785D01*
X012473Y019833D01*
X012463Y019882D01*
X012457Y019932D01*
X012455Y019982D01*
X016392Y019982D02*
X016394Y020032D01*
X016400Y020082D01*
X016410Y020131D01*
X016424Y020179D01*
X016441Y020226D01*
X016462Y020271D01*
X016487Y020315D01*
X016515Y020356D01*
X016547Y020395D01*
X016581Y020432D01*
X016618Y020466D01*
X016658Y020496D01*
X016700Y020523D01*
X016744Y020547D01*
X016790Y020568D01*
X016837Y020584D01*
X016885Y020597D01*
X016935Y020606D01*
X016984Y020611D01*
X017035Y020612D01*
X017085Y020609D01*
X017134Y020602D01*
X017183Y020591D01*
X017231Y020576D01*
X017277Y020558D01*
X017322Y020536D01*
X017365Y020510D01*
X017406Y020481D01*
X017445Y020449D01*
X017481Y020414D01*
X017513Y020376D01*
X017543Y020336D01*
X017570Y020293D01*
X017593Y020249D01*
X017612Y020203D01*
X017628Y020155D01*
X017640Y020106D01*
X017648Y020057D01*
X017652Y020007D01*
X017652Y019957D01*
X017648Y019907D01*
X017640Y019858D01*
X017628Y019809D01*
X017612Y019761D01*
X017593Y019715D01*
X017570Y019671D01*
X017543Y019628D01*
X017513Y019588D01*
X017481Y019550D01*
X017445Y019515D01*
X017406Y019483D01*
X017365Y019454D01*
X017322Y019428D01*
X017277Y019406D01*
X017231Y019388D01*
X017183Y019373D01*
X017134Y019362D01*
X017085Y019355D01*
X017035Y019352D01*
X016984Y019353D01*
X016935Y019358D01*
X016885Y019367D01*
X016837Y019380D01*
X016790Y019396D01*
X016744Y019417D01*
X016700Y019441D01*
X016658Y019468D01*
X016618Y019498D01*
X016581Y019532D01*
X016547Y019569D01*
X016515Y019608D01*
X016487Y019649D01*
X016462Y019693D01*
X016441Y019738D01*
X016424Y019785D01*
X016410Y019833D01*
X016400Y019882D01*
X016394Y019932D01*
X016392Y019982D01*
X016392Y017619D02*
X016394Y017669D01*
X016400Y017719D01*
X016410Y017768D01*
X016424Y017816D01*
X016441Y017863D01*
X016462Y017908D01*
X016487Y017952D01*
X016515Y017993D01*
X016547Y018032D01*
X016581Y018069D01*
X016618Y018103D01*
X016658Y018133D01*
X016700Y018160D01*
X016744Y018184D01*
X016790Y018205D01*
X016837Y018221D01*
X016885Y018234D01*
X016935Y018243D01*
X016984Y018248D01*
X017035Y018249D01*
X017085Y018246D01*
X017134Y018239D01*
X017183Y018228D01*
X017231Y018213D01*
X017277Y018195D01*
X017322Y018173D01*
X017365Y018147D01*
X017406Y018118D01*
X017445Y018086D01*
X017481Y018051D01*
X017513Y018013D01*
X017543Y017973D01*
X017570Y017930D01*
X017593Y017886D01*
X017612Y017840D01*
X017628Y017792D01*
X017640Y017743D01*
X017648Y017694D01*
X017652Y017644D01*
X017652Y017594D01*
X017648Y017544D01*
X017640Y017495D01*
X017628Y017446D01*
X017612Y017398D01*
X017593Y017352D01*
X017570Y017308D01*
X017543Y017265D01*
X017513Y017225D01*
X017481Y017187D01*
X017445Y017152D01*
X017406Y017120D01*
X017365Y017091D01*
X017322Y017065D01*
X017277Y017043D01*
X017231Y017025D01*
X017183Y017010D01*
X017134Y016999D01*
X017085Y016992D01*
X017035Y016989D01*
X016984Y016990D01*
X016935Y016995D01*
X016885Y017004D01*
X016837Y017017D01*
X016790Y017033D01*
X016744Y017054D01*
X016700Y017078D01*
X016658Y017105D01*
X016618Y017135D01*
X016581Y017169D01*
X016547Y017206D01*
X016515Y017245D01*
X016487Y017286D01*
X016462Y017330D01*
X016441Y017375D01*
X016424Y017422D01*
X016410Y017470D01*
X016400Y017519D01*
X016394Y017569D01*
X016392Y017619D01*
X016392Y011714D02*
X016394Y011764D01*
X016400Y011814D01*
X016410Y011863D01*
X016424Y011911D01*
X016441Y011958D01*
X016462Y012003D01*
X016487Y012047D01*
X016515Y012088D01*
X016547Y012127D01*
X016581Y012164D01*
X016618Y012198D01*
X016658Y012228D01*
X016700Y012255D01*
X016744Y012279D01*
X016790Y012300D01*
X016837Y012316D01*
X016885Y012329D01*
X016935Y012338D01*
X016984Y012343D01*
X017035Y012344D01*
X017085Y012341D01*
X017134Y012334D01*
X017183Y012323D01*
X017231Y012308D01*
X017277Y012290D01*
X017322Y012268D01*
X017365Y012242D01*
X017406Y012213D01*
X017445Y012181D01*
X017481Y012146D01*
X017513Y012108D01*
X017543Y012068D01*
X017570Y012025D01*
X017593Y011981D01*
X017612Y011935D01*
X017628Y011887D01*
X017640Y011838D01*
X017648Y011789D01*
X017652Y011739D01*
X017652Y011689D01*
X017648Y011639D01*
X017640Y011590D01*
X017628Y011541D01*
X017612Y011493D01*
X017593Y011447D01*
X017570Y011403D01*
X017543Y011360D01*
X017513Y011320D01*
X017481Y011282D01*
X017445Y011247D01*
X017406Y011215D01*
X017365Y011186D01*
X017322Y011160D01*
X017277Y011138D01*
X017231Y011120D01*
X017183Y011105D01*
X017134Y011094D01*
X017085Y011087D01*
X017035Y011084D01*
X016984Y011085D01*
X016935Y011090D01*
X016885Y011099D01*
X016837Y011112D01*
X016790Y011128D01*
X016744Y011149D01*
X016700Y011173D01*
X016658Y011200D01*
X016618Y011230D01*
X016581Y011264D01*
X016547Y011301D01*
X016515Y011340D01*
X016487Y011381D01*
X016462Y011425D01*
X016441Y011470D01*
X016424Y011517D01*
X016410Y011565D01*
X016400Y011614D01*
X016394Y011664D01*
X016392Y011714D01*
X016392Y005808D02*
X016394Y005858D01*
X016400Y005908D01*
X016410Y005957D01*
X016424Y006005D01*
X016441Y006052D01*
X016462Y006097D01*
X016487Y006141D01*
X016515Y006182D01*
X016547Y006221D01*
X016581Y006258D01*
X016618Y006292D01*
X016658Y006322D01*
X016700Y006349D01*
X016744Y006373D01*
X016790Y006394D01*
X016837Y006410D01*
X016885Y006423D01*
X016935Y006432D01*
X016984Y006437D01*
X017035Y006438D01*
X017085Y006435D01*
X017134Y006428D01*
X017183Y006417D01*
X017231Y006402D01*
X017277Y006384D01*
X017322Y006362D01*
X017365Y006336D01*
X017406Y006307D01*
X017445Y006275D01*
X017481Y006240D01*
X017513Y006202D01*
X017543Y006162D01*
X017570Y006119D01*
X017593Y006075D01*
X017612Y006029D01*
X017628Y005981D01*
X017640Y005932D01*
X017648Y005883D01*
X017652Y005833D01*
X017652Y005783D01*
X017648Y005733D01*
X017640Y005684D01*
X017628Y005635D01*
X017612Y005587D01*
X017593Y005541D01*
X017570Y005497D01*
X017543Y005454D01*
X017513Y005414D01*
X017481Y005376D01*
X017445Y005341D01*
X017406Y005309D01*
X017365Y005280D01*
X017322Y005254D01*
X017277Y005232D01*
X017231Y005214D01*
X017183Y005199D01*
X017134Y005188D01*
X017085Y005181D01*
X017035Y005178D01*
X016984Y005179D01*
X016935Y005184D01*
X016885Y005193D01*
X016837Y005206D01*
X016790Y005222D01*
X016744Y005243D01*
X016700Y005267D01*
X016658Y005294D01*
X016618Y005324D01*
X016581Y005358D01*
X016547Y005395D01*
X016515Y005434D01*
X016487Y005475D01*
X016462Y005519D01*
X016441Y005564D01*
X016424Y005611D01*
X016410Y005659D01*
X016400Y005708D01*
X016394Y005758D01*
X016392Y005808D01*
X016392Y003446D02*
X016394Y003496D01*
X016400Y003546D01*
X016410Y003595D01*
X016424Y003643D01*
X016441Y003690D01*
X016462Y003735D01*
X016487Y003779D01*
X016515Y003820D01*
X016547Y003859D01*
X016581Y003896D01*
X016618Y003930D01*
X016658Y003960D01*
X016700Y003987D01*
X016744Y004011D01*
X016790Y004032D01*
X016837Y004048D01*
X016885Y004061D01*
X016935Y004070D01*
X016984Y004075D01*
X017035Y004076D01*
X017085Y004073D01*
X017134Y004066D01*
X017183Y004055D01*
X017231Y004040D01*
X017277Y004022D01*
X017322Y004000D01*
X017365Y003974D01*
X017406Y003945D01*
X017445Y003913D01*
X017481Y003878D01*
X017513Y003840D01*
X017543Y003800D01*
X017570Y003757D01*
X017593Y003713D01*
X017612Y003667D01*
X017628Y003619D01*
X017640Y003570D01*
X017648Y003521D01*
X017652Y003471D01*
X017652Y003421D01*
X017648Y003371D01*
X017640Y003322D01*
X017628Y003273D01*
X017612Y003225D01*
X017593Y003179D01*
X017570Y003135D01*
X017543Y003092D01*
X017513Y003052D01*
X017481Y003014D01*
X017445Y002979D01*
X017406Y002947D01*
X017365Y002918D01*
X017322Y002892D01*
X017277Y002870D01*
X017231Y002852D01*
X017183Y002837D01*
X017134Y002826D01*
X017085Y002819D01*
X017035Y002816D01*
X016984Y002817D01*
X016935Y002822D01*
X016885Y002831D01*
X016837Y002844D01*
X016790Y002860D01*
X016744Y002881D01*
X016700Y002905D01*
X016658Y002932D01*
X016618Y002962D01*
X016581Y002996D01*
X016547Y003033D01*
X016515Y003072D01*
X016487Y003113D01*
X016462Y003157D01*
X016441Y003202D01*
X016424Y003249D01*
X016410Y003297D01*
X016400Y003346D01*
X016394Y003396D01*
X016392Y003446D01*
X002416Y017946D02*
X002418Y017972D01*
X002424Y017998D01*
X002434Y018023D01*
X002447Y018046D01*
X002463Y018066D01*
X002483Y018084D01*
X002505Y018099D01*
X002528Y018111D01*
X002554Y018119D01*
X002580Y018123D01*
X002606Y018123D01*
X002632Y018119D01*
X002658Y018111D01*
X002682Y018099D01*
X002703Y018084D01*
X002723Y018066D01*
X002739Y018046D01*
X002752Y018023D01*
X002762Y017998D01*
X002768Y017972D01*
X002770Y017946D01*
X002768Y017920D01*
X002762Y017894D01*
X002752Y017869D01*
X002739Y017846D01*
X002723Y017826D01*
X002703Y017808D01*
X002681Y017793D01*
X002658Y017781D01*
X002632Y017773D01*
X002606Y017769D01*
X002580Y017769D01*
X002554Y017773D01*
X002528Y017781D01*
X002504Y017793D01*
X002483Y017808D01*
X002463Y017826D01*
X002447Y017846D01*
X002434Y017869D01*
X002424Y017894D01*
X002418Y017920D01*
X002416Y017946D01*
X002416Y019678D02*
X002418Y019704D01*
X002424Y019730D01*
X002434Y019755D01*
X002447Y019778D01*
X002463Y019798D01*
X002483Y019816D01*
X002505Y019831D01*
X002528Y019843D01*
X002554Y019851D01*
X002580Y019855D01*
X002606Y019855D01*
X002632Y019851D01*
X002658Y019843D01*
X002682Y019831D01*
X002703Y019816D01*
X002723Y019798D01*
X002739Y019778D01*
X002752Y019755D01*
X002762Y019730D01*
X002768Y019704D01*
X002770Y019678D01*
X002768Y019652D01*
X002762Y019626D01*
X002752Y019601D01*
X002739Y019578D01*
X002723Y019558D01*
X002703Y019540D01*
X002681Y019525D01*
X002658Y019513D01*
X002632Y019505D01*
X002606Y019501D01*
X002580Y019501D01*
X002554Y019505D01*
X002528Y019513D01*
X002504Y019525D01*
X002483Y019540D01*
X002463Y019558D01*
X002447Y019578D01*
X002434Y019601D01*
X002424Y019626D01*
X002418Y019652D01*
X002416Y019678D01*
D11*
X005230Y013261D03*
X005230Y012946D03*
X005230Y012631D03*
X005230Y012316D03*
X005230Y012001D03*
X005230Y011686D03*
X005230Y011371D03*
X005230Y011056D03*
X008610Y011056D03*
X008610Y011371D03*
X008610Y011686D03*
X008610Y012001D03*
X008610Y012316D03*
X008610Y012631D03*
X008610Y012946D03*
X008610Y013261D03*
D12*
X008022Y013849D03*
X007707Y013849D03*
X007392Y013849D03*
X007077Y013849D03*
X006762Y013849D03*
X006447Y013849D03*
X006132Y013849D03*
X005817Y013849D03*
X005817Y010469D03*
X006132Y010469D03*
X006447Y010469D03*
X006762Y010469D03*
X007077Y010469D03*
X007392Y010469D03*
X007707Y010469D03*
X008022Y010469D03*
D13*
X006581Y020651D03*
X005479Y020651D03*
D14*
X006372Y019415D03*
X006372Y018745D03*
X005376Y018285D03*
X005376Y017615D03*
X006904Y015375D03*
X006904Y014706D03*
X008053Y014757D03*
X008053Y015426D03*
X009270Y015344D03*
X009270Y014675D03*
X007683Y009289D03*
X007683Y008619D03*
X003746Y010663D03*
X003746Y011332D03*
X003372Y005324D03*
X003372Y004655D03*
D15*
X003333Y003163D03*
X003333Y002493D03*
X007668Y007198D03*
X007668Y007867D03*
X008455Y018178D03*
X008455Y018848D03*
X008431Y020013D03*
X008431Y020682D03*
X009609Y020675D03*
X009609Y020005D03*
X010620Y020005D03*
X010620Y020675D03*
D16*
X001412Y020564D03*
X001412Y017060D03*
D17*
X003734Y017060D03*
X003734Y020564D03*
D18*
X003774Y019442D03*
X003774Y019127D03*
X003774Y018812D03*
X003774Y018497D03*
X003774Y018182D03*
D19*
X003857Y015363D03*
X003857Y014773D03*
X003857Y014182D03*
D20*
X004270Y014182D03*
X004270Y014773D03*
X004270Y015363D03*
X003443Y015363D03*
X003443Y014773D03*
X003443Y014182D03*
D21*
X009534Y013761D03*
X009605Y011615D03*
X011731Y011615D03*
X011660Y013761D03*
D22*
X011719Y013766D02*
X012556Y013766D01*
X012556Y013800D02*
X012556Y013675D01*
X012604Y013559D01*
X012693Y013470D01*
X012809Y013422D01*
X012935Y013422D01*
X013051Y013470D01*
X013140Y013559D01*
X013188Y013675D01*
X013188Y013800D01*
X013140Y013916D01*
X013051Y014005D01*
X012935Y014053D01*
X012809Y014053D01*
X012693Y014005D01*
X012604Y013916D01*
X012556Y013800D01*
X012590Y013882D02*
X012191Y013882D01*
X012191Y013820D02*
X012191Y014094D01*
X012182Y014129D01*
X012164Y014161D01*
X012138Y014186D01*
X012107Y014204D01*
X012072Y014214D01*
X011719Y014214D01*
X011719Y013820D01*
X012191Y013820D01*
X012191Y013702D02*
X011719Y013702D01*
X011719Y013820D01*
X011601Y013820D01*
X011601Y014214D01*
X011248Y014214D01*
X011213Y014204D01*
X011181Y014186D01*
X011156Y014161D01*
X011138Y014129D01*
X011128Y014094D01*
X011128Y013820D01*
X011601Y013820D01*
X011601Y013702D01*
X011719Y013702D01*
X011719Y013308D01*
X012072Y013308D01*
X012107Y013318D01*
X012138Y013336D01*
X012164Y013362D01*
X012182Y013393D01*
X012191Y013428D01*
X012191Y013702D01*
X012191Y013649D02*
X012567Y013649D01*
X012631Y013532D02*
X012191Y013532D01*
X012188Y013416D02*
X014116Y013416D01*
X013999Y013532D02*
X013114Y013532D01*
X013178Y013649D02*
X013883Y013649D01*
X013766Y013766D02*
X013188Y013766D01*
X013154Y013882D02*
X013649Y013882D01*
X013533Y013999D02*
X013058Y013999D01*
X013300Y014232D02*
X009853Y014232D01*
X009853Y014230D02*
X009853Y014311D01*
X009864Y014391D01*
X009853Y014406D01*
X009853Y014426D01*
X009796Y014483D01*
X009747Y014548D01*
X009728Y014550D01*
X009624Y014654D01*
X009624Y014928D01*
X009544Y015009D01*
X008996Y015009D01*
X008916Y014928D01*
X008916Y014421D01*
X008996Y014340D01*
X009271Y014340D01*
X009366Y014245D01*
X009361Y014214D01*
X009083Y014214D01*
X009002Y014133D01*
X009002Y013564D01*
X008936Y013497D01*
X008928Y013497D01*
X008917Y013509D01*
X008302Y013509D01*
X008222Y013428D01*
X008222Y010889D01*
X008302Y010809D01*
X008917Y010809D01*
X008997Y010889D01*
X008997Y012375D01*
X009233Y012375D01*
X009304Y012304D01*
X009420Y012256D01*
X009545Y012256D01*
X009661Y012304D01*
X009750Y012393D01*
X009798Y012509D01*
X009798Y012635D01*
X009751Y012749D01*
X010280Y012749D01*
X010288Y012741D01*
X010404Y012693D01*
X010530Y012693D01*
X010646Y012741D01*
X010735Y012830D01*
X010783Y012946D01*
X010783Y013072D01*
X010735Y013188D01*
X010646Y013277D01*
X010530Y013325D01*
X010404Y013325D01*
X010288Y013277D01*
X010199Y013188D01*
X010180Y013143D01*
X009250Y013143D01*
X009415Y013308D01*
X009984Y013308D01*
X010065Y013389D01*
X010065Y014133D01*
X009984Y014214D01*
X009838Y014214D01*
X009839Y014216D01*
X009853Y014230D01*
X009858Y014349D02*
X013183Y014349D01*
X013066Y014465D02*
X009813Y014465D01*
X009697Y014582D02*
X012950Y014582D01*
X012833Y014699D02*
X009624Y014699D01*
X009624Y014815D02*
X012716Y014815D01*
X012600Y014932D02*
X009621Y014932D01*
X009544Y015009D02*
X009624Y015090D01*
X009624Y015108D01*
X012424Y015108D01*
X014392Y013140D01*
X014392Y008191D01*
X012546Y006345D01*
X011800Y006345D01*
X011639Y006278D01*
X011516Y006155D01*
X011449Y005994D01*
X011449Y005908D01*
X011258Y005717D01*
X008482Y005696D01*
X008402Y005777D01*
X008286Y005825D01*
X008160Y005825D01*
X008044Y005777D01*
X007963Y005697D01*
X005995Y005715D01*
X005891Y005819D01*
X005745Y005879D01*
X005586Y005879D01*
X005440Y005819D01*
X005328Y005707D01*
X005268Y005561D01*
X005268Y005402D01*
X005328Y005256D01*
X005440Y005144D01*
X005469Y005133D01*
X005513Y004310D01*
X005488Y004299D01*
X005376Y004187D01*
X005373Y004182D01*
X004044Y004115D01*
X003952Y004115D01*
X003947Y004111D01*
X003940Y004110D01*
X003878Y004042D01*
X003353Y003517D01*
X003079Y003517D01*
X002998Y003436D01*
X002998Y002889D01*
X003061Y002826D01*
X003051Y002820D01*
X003026Y002795D01*
X003008Y002763D01*
X002998Y002728D01*
X002998Y002533D01*
X003294Y002533D01*
X003294Y002454D01*
X003372Y002454D01*
X003372Y002139D01*
X003548Y002139D01*
X003583Y002148D01*
X003614Y002167D01*
X003640Y002192D01*
X003658Y002224D01*
X003668Y002259D01*
X003668Y002454D01*
X003372Y002454D01*
X003372Y002533D01*
X003668Y002533D01*
X003668Y002728D01*
X003658Y002763D01*
X003640Y002795D01*
X003614Y002820D01*
X003604Y002826D01*
X003668Y002889D01*
X003668Y003163D01*
X004152Y003648D01*
X005402Y003710D01*
X005488Y003625D01*
X005634Y003564D01*
X005792Y003564D01*
X005938Y003625D01*
X006050Y003737D01*
X006375Y003737D01*
X006376Y003737D02*
X006488Y003625D01*
X006634Y003564D01*
X006792Y003564D01*
X006938Y003625D01*
X007050Y003737D01*
X008981Y003737D01*
X008954Y003764D02*
X009066Y003652D01*
X009212Y003592D01*
X009371Y003592D01*
X009517Y003652D01*
X009525Y003660D01*
X009813Y003373D01*
X009813Y003010D01*
X010189Y003010D01*
X010189Y003029D01*
X010174Y003105D01*
X010144Y003178D01*
X010125Y003206D01*
X010708Y003206D01*
X010847Y003344D01*
X012187Y004685D01*
X012878Y003994D01*
X012878Y003851D01*
X012939Y003705D01*
X013050Y003593D01*
X013197Y003533D01*
X013355Y003533D01*
X013501Y003593D01*
X013613Y003705D01*
X013674Y003851D01*
X013674Y004010D01*
X013613Y004156D01*
X013501Y004268D01*
X013355Y004328D01*
X013212Y004328D01*
X012423Y005117D01*
X012423Y005469D01*
X012574Y005469D01*
X012735Y005536D01*
X012858Y005659D01*
X012925Y005820D01*
X012925Y005994D01*
X012907Y006038D01*
X014864Y007995D01*
X014864Y013335D01*
X014726Y013474D01*
X012620Y015580D01*
X009624Y015580D01*
X009624Y015598D01*
X009544Y015678D01*
X009506Y015678D01*
X009506Y016092D01*
X009855Y016441D01*
X009955Y016441D01*
X010071Y016489D01*
X010160Y016578D01*
X010208Y016694D01*
X010208Y016820D01*
X010160Y016936D01*
X010071Y017025D01*
X009955Y017073D01*
X009829Y017073D01*
X009713Y017025D01*
X009624Y016936D01*
X009583Y016838D01*
X009034Y016288D01*
X009034Y015678D01*
X008996Y015678D01*
X008916Y015598D01*
X008916Y015090D01*
X008996Y015009D01*
X009544Y015009D01*
X009583Y015048D02*
X012483Y015048D01*
X012802Y015398D02*
X018044Y015398D01*
X018044Y015282D02*
X015098Y015282D01*
X015055Y015324D02*
X015144Y015235D01*
X015192Y015119D01*
X015192Y014994D01*
X015144Y014877D01*
X015055Y014789D01*
X014939Y014740D01*
X014813Y014740D01*
X014697Y014789D01*
X014608Y014877D01*
X014560Y014994D01*
X014560Y015119D01*
X014608Y015235D01*
X014697Y015324D01*
X014813Y015372D01*
X014939Y015372D01*
X015055Y015324D01*
X015173Y015165D02*
X018044Y015165D01*
X018044Y015048D02*
X017087Y015048D01*
X017063Y015072D02*
X017152Y014983D01*
X017200Y014867D01*
X017200Y014742D01*
X017152Y014625D01*
X017063Y014537D01*
X016947Y014489D01*
X016821Y014489D01*
X016705Y014537D01*
X016616Y014625D01*
X016568Y014742D01*
X016568Y014867D01*
X016616Y014983D01*
X016705Y015072D01*
X016821Y015120D01*
X016947Y015120D01*
X017063Y015072D01*
X017173Y014932D02*
X018044Y014932D01*
X018044Y014815D02*
X017200Y014815D01*
X017182Y014699D02*
X018044Y014699D01*
X018044Y014582D02*
X017108Y014582D01*
X016660Y014582D02*
X013618Y014582D01*
X013734Y014465D02*
X018044Y014465D01*
X018044Y014349D02*
X013851Y014349D01*
X013968Y014232D02*
X018044Y014232D01*
X018044Y014115D02*
X014084Y014115D01*
X014201Y013999D02*
X018044Y013999D01*
X018044Y013882D02*
X014318Y013882D01*
X014434Y013766D02*
X018044Y013766D01*
X018044Y013649D02*
X014551Y013649D01*
X014667Y013532D02*
X018044Y013532D01*
X018044Y013416D02*
X014784Y013416D01*
X014864Y013299D02*
X018044Y013299D01*
X018044Y013183D02*
X014864Y013183D01*
X014864Y013066D02*
X018044Y013066D01*
X018044Y012949D02*
X014864Y012949D01*
X014864Y012833D02*
X018044Y012833D01*
X018044Y012716D02*
X014864Y012716D01*
X014864Y012600D02*
X018044Y012600D01*
X018044Y012483D02*
X017227Y012483D01*
X017179Y012503D02*
X016865Y012503D01*
X016575Y012383D01*
X016353Y012161D01*
X016233Y011871D01*
X016233Y011557D01*
X016353Y011267D01*
X016575Y011045D01*
X016865Y010925D01*
X017179Y010925D01*
X017469Y011045D01*
X017691Y011267D01*
X017811Y011557D01*
X017811Y011871D01*
X017691Y012161D01*
X017469Y012383D01*
X017179Y012503D01*
X017485Y012366D02*
X018044Y012366D01*
X018044Y012250D02*
X017602Y012250D01*
X017702Y012133D02*
X018044Y012133D01*
X018044Y012016D02*
X017751Y012016D01*
X017799Y011900D02*
X018044Y011900D01*
X018044Y011783D02*
X017811Y011783D01*
X017811Y011667D02*
X018044Y011667D01*
X018044Y011550D02*
X017808Y011550D01*
X017760Y011433D02*
X018044Y011433D01*
X018044Y011317D02*
X017711Y011317D01*
X017624Y011200D02*
X018044Y011200D01*
X018044Y011084D02*
X017507Y011084D01*
X017280Y010967D02*
X018044Y010967D01*
X018044Y010850D02*
X014864Y010850D01*
X014864Y010734D02*
X018044Y010734D01*
X018044Y010617D02*
X015696Y010617D01*
X015660Y010632D02*
X015534Y010632D01*
X015418Y010584D01*
X015329Y010495D01*
X015281Y010379D01*
X015281Y010253D01*
X015329Y010137D01*
X015418Y010048D01*
X015534Y010000D01*
X015660Y010000D01*
X015776Y010048D01*
X015865Y010137D01*
X015913Y010253D01*
X015913Y010379D01*
X015865Y010495D01*
X015776Y010584D01*
X015660Y010632D01*
X015498Y010617D02*
X014864Y010617D01*
X014864Y010501D02*
X015334Y010501D01*
X015283Y010384D02*
X014864Y010384D01*
X014864Y010267D02*
X015281Y010267D01*
X015323Y010151D02*
X014864Y010151D01*
X014864Y010034D02*
X015452Y010034D01*
X015741Y010034D02*
X018044Y010034D01*
X018044Y009917D02*
X014864Y009917D01*
X014864Y009801D02*
X018044Y009801D01*
X018044Y009684D02*
X014864Y009684D01*
X014864Y009568D02*
X018044Y009568D01*
X018044Y009451D02*
X014864Y009451D01*
X014864Y009334D02*
X018044Y009334D01*
X018044Y009218D02*
X014864Y009218D01*
X014864Y009101D02*
X018044Y009101D01*
X018044Y008985D02*
X014864Y008985D01*
X014864Y008868D02*
X018044Y008868D01*
X018044Y008751D02*
X014864Y008751D01*
X014864Y008635D02*
X018044Y008635D01*
X018044Y008518D02*
X014864Y008518D01*
X014864Y008402D02*
X016771Y008402D01*
X016737Y008387D02*
X016648Y008298D01*
X016600Y008182D01*
X016600Y008057D01*
X016648Y007940D01*
X016737Y007852D01*
X016853Y007803D01*
X016978Y007803D01*
X017095Y007852D01*
X017183Y007940D01*
X017231Y008057D01*
X017231Y008182D01*
X017183Y008298D01*
X017095Y008387D01*
X016978Y008435D01*
X016853Y008435D01*
X016737Y008387D01*
X016642Y008285D02*
X014864Y008285D01*
X014864Y008168D02*
X016600Y008168D01*
X016602Y008052D02*
X014864Y008052D01*
X014804Y007935D02*
X016653Y007935D01*
X016817Y007818D02*
X014688Y007818D01*
X014571Y007702D02*
X018044Y007702D01*
X018044Y007818D02*
X017015Y007818D01*
X017178Y007935D02*
X018044Y007935D01*
X018044Y008052D02*
X017229Y008052D01*
X017231Y008168D02*
X018044Y008168D01*
X018044Y008285D02*
X017189Y008285D01*
X017060Y008402D02*
X018044Y008402D01*
X018044Y007585D02*
X014454Y007585D01*
X014338Y007469D02*
X018044Y007469D01*
X018044Y007352D02*
X014221Y007352D01*
X014105Y007235D02*
X018044Y007235D01*
X018044Y007119D02*
X013988Y007119D01*
X013871Y007002D02*
X018044Y007002D01*
X018044Y006886D02*
X013755Y006886D01*
X013638Y006769D02*
X015217Y006769D01*
X015175Y006727D02*
X015127Y006611D01*
X015127Y006486D01*
X015175Y006370D01*
X015264Y006281D01*
X015380Y006233D01*
X015506Y006233D01*
X015622Y006281D01*
X015711Y006370D01*
X015759Y006486D01*
X015759Y006611D01*
X015711Y006727D01*
X015622Y006816D01*
X015506Y006864D01*
X015380Y006864D01*
X015264Y006816D01*
X015175Y006727D01*
X015144Y006652D02*
X013522Y006652D01*
X013405Y006536D02*
X015127Y006536D01*
X015155Y006419D02*
X013288Y006419D01*
X013172Y006303D02*
X015242Y006303D01*
X015644Y006303D02*
X016400Y006303D01*
X016353Y006255D02*
X016233Y005965D01*
X016233Y005651D01*
X016353Y005361D01*
X016575Y005140D01*
X016865Y005019D01*
X017179Y005019D01*
X017469Y005140D01*
X017691Y005361D01*
X017811Y005651D01*
X017811Y005965D01*
X017691Y006255D01*
X017469Y006477D01*
X017179Y006597D01*
X016865Y006597D01*
X016575Y006477D01*
X016353Y006255D01*
X016324Y006186D02*
X013055Y006186D01*
X012938Y006069D02*
X016276Y006069D01*
X016233Y005953D02*
X012925Y005953D01*
X012925Y005836D02*
X016233Y005836D01*
X016233Y005720D02*
X012884Y005720D01*
X012802Y005603D02*
X016253Y005603D01*
X016301Y005486D02*
X012616Y005486D01*
X012423Y005370D02*
X016350Y005370D01*
X016461Y005253D02*
X012423Y005253D01*
X012423Y005136D02*
X016582Y005136D01*
X016864Y005020D02*
X012520Y005020D01*
X012637Y004903D02*
X018044Y004903D01*
X018044Y004787D02*
X016054Y004787D01*
X016037Y004794D02*
X015912Y004794D01*
X015796Y004745D01*
X015707Y004657D01*
X015659Y004540D01*
X015659Y004415D01*
X015707Y004299D01*
X015796Y004210D01*
X015912Y004162D01*
X016037Y004162D01*
X016154Y004210D01*
X016242Y004299D01*
X016291Y004415D01*
X016291Y004540D01*
X016242Y004657D01*
X016154Y004745D01*
X016037Y004794D01*
X015895Y004787D02*
X012754Y004787D01*
X012870Y004670D02*
X015720Y004670D01*
X015664Y004553D02*
X012987Y004553D01*
X013104Y004437D02*
X015659Y004437D01*
X015698Y004320D02*
X014374Y004320D01*
X014355Y004328D02*
X014197Y004328D01*
X014050Y004268D01*
X013939Y004156D01*
X013878Y004010D01*
X013878Y003851D01*
X013939Y003705D01*
X014050Y003593D01*
X014197Y003533D01*
X014355Y003533D01*
X014501Y003593D01*
X014613Y003705D01*
X014674Y003851D01*
X014674Y004010D01*
X014613Y004156D01*
X014501Y004268D01*
X014355Y004328D01*
X014177Y004320D02*
X013374Y004320D01*
X013565Y004204D02*
X013986Y004204D01*
X013910Y004087D02*
X013642Y004087D01*
X013674Y003970D02*
X013878Y003970D01*
X013878Y003854D02*
X013674Y003854D01*
X013626Y003737D02*
X013925Y003737D01*
X014023Y003621D02*
X013528Y003621D01*
X013660Y003313D02*
X013587Y003283D01*
X013522Y003239D01*
X013467Y003184D01*
X013423Y003119D01*
X013393Y003046D01*
X013378Y002970D01*
X013378Y002951D01*
X013755Y002951D01*
X013755Y002909D01*
X013797Y002909D01*
X013797Y002533D01*
X013815Y002533D01*
X013892Y002548D01*
X013964Y002578D01*
X014029Y002621D01*
X014085Y002677D01*
X014128Y002742D01*
X014158Y002814D01*
X014174Y002891D01*
X014174Y002909D01*
X013797Y002909D01*
X013797Y002951D01*
X014174Y002951D01*
X014174Y002970D01*
X014158Y003046D01*
X014128Y003119D01*
X014085Y003184D01*
X014029Y003239D01*
X013964Y003283D01*
X013892Y003313D01*
X013815Y003328D01*
X013797Y003328D01*
X013797Y002951D01*
X013755Y002951D01*
X013755Y003328D01*
X013737Y003328D01*
X013660Y003313D01*
X013569Y003271D02*
X012994Y003271D01*
X013001Y003268D02*
X012855Y003328D01*
X012697Y003328D01*
X012550Y003268D01*
X012439Y003156D01*
X012378Y003010D01*
X012378Y002851D01*
X012439Y002705D01*
X012550Y002593D01*
X012697Y002533D01*
X012855Y002533D01*
X013001Y002593D01*
X013113Y002705D01*
X013174Y002851D01*
X013174Y003010D01*
X013113Y003156D01*
X013001Y003268D01*
X013114Y003154D02*
X013447Y003154D01*
X013392Y003037D02*
X013162Y003037D01*
X013174Y002921D02*
X013755Y002921D01*
X013755Y002909D02*
X013378Y002909D01*
X013378Y002891D01*
X013393Y002814D01*
X013423Y002742D01*
X013467Y002677D01*
X013522Y002621D01*
X013587Y002578D01*
X013660Y002548D01*
X013737Y002533D01*
X013755Y002533D01*
X013755Y002909D01*
X013797Y002921D02*
X016431Y002921D01*
X016353Y002999D02*
X016575Y002777D01*
X016865Y002657D01*
X017179Y002657D01*
X017469Y002777D01*
X017691Y002999D01*
X017811Y003289D01*
X017811Y003603D01*
X017691Y003893D01*
X017469Y004115D01*
X017179Y004235D01*
X016865Y004235D01*
X016575Y004115D01*
X016353Y003893D01*
X016233Y003603D01*
X016233Y003289D01*
X016353Y002999D01*
X016337Y003037D02*
X014160Y003037D01*
X014105Y003154D02*
X016289Y003154D01*
X016241Y003271D02*
X013983Y003271D01*
X013797Y003271D02*
X013755Y003271D01*
X013755Y003154D02*
X013797Y003154D01*
X013797Y003037D02*
X013755Y003037D01*
X013755Y002804D02*
X013797Y002804D01*
X013797Y002688D02*
X013755Y002688D01*
X013755Y002571D02*
X013797Y002571D01*
X013948Y002571D02*
X018044Y002571D01*
X018044Y002454D02*
X003372Y002454D01*
X003294Y002454D02*
X003294Y002139D01*
X003118Y002139D01*
X003083Y002148D01*
X003051Y002167D01*
X003026Y002192D01*
X003008Y002224D01*
X002998Y002259D01*
X002998Y002454D01*
X003294Y002454D01*
X000646Y002454D01*
X000646Y002338D02*
X002998Y002338D01*
X003009Y002221D02*
X000646Y002221D01*
X000646Y002105D02*
X018044Y002105D01*
X018044Y002030D02*
X000646Y002030D01*
X000646Y021397D01*
X018044Y021397D01*
X018044Y002030D01*
X018044Y002221D02*
X003657Y002221D01*
X003668Y002338D02*
X018044Y002338D01*
X018044Y002688D02*
X017252Y002688D01*
X017496Y002804D02*
X018044Y002804D01*
X018044Y002921D02*
X017612Y002921D01*
X017707Y003037D02*
X018044Y003037D01*
X018044Y003154D02*
X017755Y003154D01*
X017803Y003271D02*
X018044Y003271D01*
X018044Y003387D02*
X017811Y003387D01*
X017811Y003504D02*
X018044Y003504D01*
X018044Y003621D02*
X017804Y003621D01*
X017755Y003737D02*
X018044Y003737D01*
X018044Y003854D02*
X017707Y003854D01*
X017613Y003970D02*
X018044Y003970D01*
X018044Y004087D02*
X017497Y004087D01*
X017255Y004204D02*
X018044Y004204D01*
X018044Y004320D02*
X016251Y004320D01*
X016291Y004437D02*
X018044Y004437D01*
X018044Y004553D02*
X016285Y004553D01*
X016229Y004670D02*
X018044Y004670D01*
X018044Y005020D02*
X017180Y005020D01*
X017461Y005136D02*
X018044Y005136D01*
X018044Y005253D02*
X017582Y005253D01*
X017694Y005370D02*
X018044Y005370D01*
X018044Y005486D02*
X017742Y005486D01*
X017791Y005603D02*
X018044Y005603D01*
X018044Y005720D02*
X017811Y005720D01*
X017811Y005836D02*
X018044Y005836D01*
X018044Y005953D02*
X017811Y005953D01*
X017768Y006069D02*
X018044Y006069D01*
X018044Y006186D02*
X017719Y006186D01*
X017643Y006303D02*
X018044Y006303D01*
X018044Y006419D02*
X017527Y006419D01*
X017327Y006536D02*
X018044Y006536D01*
X018044Y006652D02*
X015742Y006652D01*
X015759Y006536D02*
X016716Y006536D01*
X016517Y006419D02*
X015732Y006419D01*
X015669Y006769D02*
X018044Y006769D01*
X016789Y004204D02*
X016138Y004204D01*
X015811Y004204D02*
X014565Y004204D01*
X014642Y004087D02*
X016547Y004087D01*
X016430Y003970D02*
X014674Y003970D01*
X014674Y003854D02*
X016337Y003854D01*
X016288Y003737D02*
X014626Y003737D01*
X014528Y003621D02*
X016240Y003621D01*
X016233Y003504D02*
X011006Y003504D01*
X010890Y003387D02*
X016233Y003387D01*
X016548Y002804D02*
X014154Y002804D01*
X014092Y002688D02*
X016791Y002688D01*
X013604Y002571D02*
X012948Y002571D01*
X013096Y002688D02*
X013460Y002688D01*
X013398Y002804D02*
X013154Y002804D01*
X012604Y002571D02*
X006287Y002571D01*
X006252Y002564D02*
X006329Y002579D01*
X006401Y002609D01*
X006466Y002653D01*
X006522Y002708D01*
X006565Y002773D01*
X006595Y002846D01*
X006611Y002923D01*
X006611Y002941D01*
X006234Y002941D01*
X006234Y002983D01*
X006611Y002983D01*
X006611Y003001D01*
X006595Y003078D01*
X006565Y003150D01*
X006522Y003215D01*
X006466Y003271D01*
X006401Y003314D01*
X006329Y003344D01*
X006252Y003360D01*
X006234Y003360D01*
X006234Y002983D01*
X006192Y002983D01*
X006192Y003360D01*
X006174Y003360D01*
X006097Y003344D01*
X006024Y003314D01*
X005959Y003271D01*
X005904Y003215D01*
X005860Y003150D01*
X005830Y003078D01*
X005815Y003001D01*
X005815Y002983D01*
X006192Y002983D01*
X006192Y002941D01*
X006234Y002941D01*
X006234Y002564D01*
X006252Y002564D01*
X006234Y002571D02*
X006192Y002571D01*
X006192Y002564D02*
X006192Y002941D01*
X005815Y002941D01*
X005815Y002923D01*
X005830Y002846D01*
X005860Y002773D01*
X005904Y002708D01*
X005959Y002653D01*
X006024Y002609D01*
X006097Y002579D01*
X006174Y002564D01*
X006192Y002564D01*
X006139Y002571D02*
X005309Y002571D01*
X005292Y002564D02*
X005438Y002625D01*
X005550Y002737D01*
X005611Y002883D01*
X005611Y003041D01*
X005550Y003187D01*
X005438Y003299D01*
X005292Y003360D01*
X005134Y003360D01*
X004988Y003299D01*
X004876Y003187D01*
X004815Y003041D01*
X004815Y002883D01*
X004876Y002737D01*
X004988Y002625D01*
X005134Y002564D01*
X005292Y002564D01*
X005117Y002571D02*
X003668Y002571D01*
X003668Y002688D02*
X004925Y002688D01*
X004848Y002804D02*
X003630Y002804D01*
X003668Y002921D02*
X004815Y002921D01*
X004815Y003037D02*
X003668Y003037D01*
X003668Y003154D02*
X004862Y003154D01*
X004959Y003271D02*
X003775Y003271D01*
X003892Y003387D02*
X009798Y003387D01*
X009771Y003387D02*
X009752Y003387D01*
X009676Y003372D01*
X009603Y003342D01*
X009538Y003298D01*
X009483Y003243D01*
X009439Y003178D01*
X009409Y003105D01*
X009394Y003029D01*
X009394Y003010D01*
X009771Y003010D01*
X009771Y002969D01*
X009394Y002969D01*
X009394Y002950D01*
X009409Y002873D01*
X009439Y002801D01*
X009483Y002736D01*
X009538Y002680D01*
X009603Y002637D01*
X009676Y002607D01*
X009752Y002592D01*
X009771Y002592D01*
X009771Y002969D01*
X009813Y002969D01*
X009813Y003010D01*
X009771Y003010D01*
X009771Y003387D01*
X009771Y003271D02*
X009813Y003271D01*
X009813Y003154D02*
X009771Y003154D01*
X009771Y003037D02*
X009813Y003037D01*
X009813Y002969D02*
X010189Y002969D01*
X010189Y002950D01*
X010174Y002873D01*
X010144Y002801D01*
X010101Y002736D01*
X010045Y002680D01*
X009980Y002637D01*
X009908Y002607D01*
X009831Y002592D01*
X009813Y002592D01*
X009813Y002969D01*
X009813Y002921D02*
X009771Y002921D01*
X009771Y002804D02*
X009813Y002804D01*
X009813Y002688D02*
X009771Y002688D01*
X010052Y002688D02*
X012456Y002688D01*
X012398Y002804D02*
X010145Y002804D01*
X010184Y002921D02*
X012378Y002921D01*
X012390Y003037D02*
X010188Y003037D01*
X010154Y003154D02*
X012438Y003154D01*
X012558Y003271D02*
X010773Y003271D01*
X011123Y003621D02*
X013023Y003621D01*
X012925Y003737D02*
X011239Y003737D01*
X011356Y003854D02*
X012878Y003854D01*
X012878Y003970D02*
X011473Y003970D01*
X011589Y004087D02*
X012785Y004087D01*
X012669Y004204D02*
X011706Y004204D01*
X011822Y004320D02*
X012552Y004320D01*
X012435Y004437D02*
X011939Y004437D01*
X012056Y004553D02*
X012319Y004553D01*
X012202Y004670D02*
X012172Y004670D01*
X011854Y005020D02*
X011226Y005020D01*
X011243Y004978D02*
X011195Y005094D01*
X011106Y005182D01*
X010990Y005231D01*
X010865Y005231D01*
X010748Y005182D01*
X010660Y005094D01*
X010611Y004978D01*
X010611Y004852D01*
X010660Y004736D01*
X010748Y004647D01*
X010865Y004599D01*
X010990Y004599D01*
X011106Y004647D01*
X011195Y004736D01*
X011243Y004852D01*
X011243Y004978D01*
X011243Y004903D02*
X011737Y004903D01*
X011621Y004787D02*
X011216Y004787D01*
X011130Y004670D02*
X011504Y004670D01*
X011388Y004553D02*
X009943Y004553D01*
X010202Y004437D02*
X011271Y004437D01*
X011154Y004320D02*
X010523Y004320D01*
X010517Y004327D02*
X010371Y004387D01*
X010312Y004387D01*
X009104Y004932D01*
X009061Y005035D01*
X008972Y005123D01*
X008856Y005172D01*
X008731Y005172D01*
X008615Y005123D01*
X008526Y005035D01*
X008478Y004918D01*
X008478Y004793D01*
X008526Y004677D01*
X008615Y004588D01*
X008731Y004540D01*
X008856Y004540D01*
X008939Y004574D01*
X009354Y004387D01*
X009212Y004387D01*
X009066Y004327D01*
X008954Y004215D01*
X008894Y004069D01*
X008894Y003910D01*
X008954Y003764D01*
X008917Y003854D02*
X007099Y003854D01*
X007111Y003883D02*
X007050Y003737D01*
X007111Y003883D02*
X007111Y004041D01*
X007050Y004187D01*
X006938Y004299D01*
X006792Y004360D01*
X006634Y004360D01*
X006488Y004299D01*
X006376Y004187D01*
X006315Y004041D01*
X006315Y003883D01*
X006376Y003737D01*
X006327Y003854D02*
X006099Y003854D01*
X006111Y003883D02*
X006111Y004041D01*
X006050Y004187D01*
X005989Y004248D01*
X005944Y005101D01*
X005944Y005197D01*
X005989Y005242D01*
X008088Y005223D01*
X008160Y005193D01*
X008286Y005193D01*
X008357Y005223D01*
X011358Y005245D01*
X011455Y005245D01*
X011455Y005246D01*
X011456Y005246D01*
X011524Y005315D01*
X011714Y005505D01*
X011800Y005469D01*
X011951Y005469D01*
X011951Y005117D01*
X010650Y003816D01*
X010689Y003910D01*
X010689Y004069D01*
X010629Y004215D01*
X010517Y004327D01*
X010633Y004204D02*
X011038Y004204D01*
X010921Y004087D02*
X010682Y004087D01*
X010689Y003970D02*
X010805Y003970D01*
X010688Y003854D02*
X010666Y003854D01*
X010292Y003989D02*
X010292Y004180D01*
X008794Y004856D01*
X008941Y005136D02*
X010702Y005136D01*
X010629Y005020D02*
X009067Y005020D01*
X009167Y004903D02*
X010611Y004903D01*
X010639Y004787D02*
X009426Y004787D01*
X009684Y004670D02*
X010725Y004670D01*
X011152Y005136D02*
X011951Y005136D01*
X011951Y005253D02*
X011463Y005253D01*
X011579Y005370D02*
X011951Y005370D01*
X011758Y005486D02*
X011695Y005486D01*
X011377Y005836D02*
X005849Y005836D01*
X005990Y005720D02*
X007986Y005720D01*
X007757Y005953D02*
X009305Y005953D01*
X009331Y005926D02*
X009447Y005878D01*
X009573Y005878D01*
X009689Y005926D01*
X009778Y006015D01*
X009826Y006131D01*
X009826Y006257D01*
X009778Y006373D01*
X009689Y006462D01*
X009573Y006510D01*
X009447Y006510D01*
X009331Y006462D01*
X009260Y006391D01*
X007801Y006391D01*
X007730Y006462D01*
X007614Y006510D01*
X007489Y006510D01*
X007372Y006462D01*
X007284Y006373D01*
X007236Y006257D01*
X007236Y006131D01*
X007284Y006015D01*
X007372Y005926D01*
X007489Y005878D01*
X007614Y005878D01*
X007730Y005926D01*
X007801Y005997D01*
X009260Y005997D01*
X009331Y005926D01*
X009510Y006194D02*
X007551Y006194D01*
X007773Y006419D02*
X009288Y006419D01*
X009715Y005953D02*
X010185Y005953D01*
X010154Y005966D02*
X010270Y005918D01*
X010396Y005918D01*
X010512Y005966D01*
X010601Y006055D01*
X010649Y006171D01*
X010649Y006296D01*
X010601Y006413D01*
X010512Y006501D01*
X010396Y006549D01*
X010270Y006549D01*
X010154Y006501D01*
X010065Y006413D01*
X010017Y006296D01*
X010017Y006171D01*
X010065Y006055D01*
X010154Y005966D01*
X010059Y006069D02*
X009800Y006069D01*
X009826Y006186D02*
X010017Y006186D01*
X010020Y006303D02*
X009807Y006303D01*
X009732Y006419D02*
X010072Y006419D01*
X010237Y006536D02*
X006560Y006536D01*
X006563Y006521D02*
X006548Y006598D01*
X006518Y006670D01*
X006475Y006735D01*
X006419Y006791D01*
X006375Y006820D01*
X006430Y006820D01*
X006467Y006814D01*
X006478Y006787D01*
X006567Y006698D01*
X006683Y006650D01*
X006809Y006650D01*
X006925Y006698D01*
X007014Y006787D01*
X007062Y006903D01*
X007062Y007029D01*
X007014Y007145D01*
X006925Y007234D01*
X006866Y007258D01*
X006866Y007486D01*
X006934Y007486D01*
X006946Y007497D01*
X006961Y007499D01*
X007013Y007565D01*
X007080Y007631D01*
X007333Y007631D01*
X007333Y007594D01*
X007396Y007531D01*
X007386Y007525D01*
X007360Y007499D01*
X007342Y007468D01*
X007333Y007433D01*
X007333Y007237D01*
X007628Y007237D01*
X007628Y007159D01*
X007333Y007159D01*
X007333Y006963D01*
X007342Y006928D01*
X007360Y006897D01*
X007386Y006871D01*
X007418Y006853D01*
X007453Y006844D01*
X007628Y006844D01*
X007628Y007159D01*
X007707Y007159D01*
X007707Y007237D01*
X008002Y007237D01*
X008002Y007433D01*
X007993Y007468D01*
X007975Y007499D01*
X007949Y007525D01*
X007939Y007531D01*
X008002Y007594D01*
X008002Y007640D01*
X008057Y007637D01*
X008099Y007596D01*
X008215Y007548D01*
X008341Y007548D01*
X008457Y007596D01*
X008546Y007685D01*
X008592Y007797D01*
X008616Y007740D01*
X008705Y007651D01*
X008821Y007603D01*
X008947Y007603D01*
X009063Y007651D01*
X009152Y007740D01*
X009200Y007856D01*
X009200Y007981D01*
X009152Y008098D01*
X009080Y008169D01*
X009077Y009113D01*
X009088Y009128D01*
X009077Y009192D01*
X009077Y009257D01*
X009063Y009270D01*
X009034Y009433D01*
X009065Y009464D01*
X009113Y009580D01*
X009113Y009706D01*
X009065Y009822D01*
X008976Y009911D01*
X008860Y009959D01*
X008735Y009959D01*
X008654Y009926D01*
X008805Y010076D01*
X009279Y010296D01*
X009309Y010284D01*
X009435Y010284D01*
X009551Y010332D01*
X009640Y010421D01*
X009688Y010537D01*
X009688Y010663D01*
X009640Y010779D01*
X009551Y010868D01*
X009435Y010916D01*
X009309Y010916D01*
X009193Y010868D01*
X009104Y010779D01*
X009083Y010726D01*
X008615Y010509D01*
X008570Y010509D01*
X008530Y010470D01*
X008479Y010446D01*
X008464Y010403D01*
X008270Y010209D01*
X008270Y010776D01*
X008189Y010857D01*
X006644Y010857D01*
X006644Y011005D01*
X007319Y011005D01*
X007390Y010934D01*
X007506Y010886D01*
X007632Y010886D01*
X007748Y010934D01*
X007837Y011023D01*
X007885Y011139D01*
X007885Y011265D01*
X007837Y011381D01*
X007748Y011470D01*
X007734Y011476D01*
X007748Y011481D01*
X007837Y011570D01*
X007885Y011686D01*
X007885Y011812D01*
X007837Y011928D01*
X007748Y012017D01*
X007726Y012026D01*
X007799Y012056D01*
X007888Y012145D01*
X007936Y012261D01*
X007936Y012387D01*
X007888Y012503D01*
X007799Y012592D01*
X007785Y012598D01*
X007799Y012604D01*
X007888Y012692D01*
X007936Y012809D01*
X007936Y012934D01*
X007888Y013050D01*
X007799Y013139D01*
X007683Y013187D01*
X007638Y013187D01*
X007628Y013198D01*
X007628Y013461D01*
X008189Y013461D01*
X008270Y013542D01*
X008270Y013762D01*
X008290Y013782D01*
X008290Y014423D01*
X008327Y014423D01*
X008408Y014503D01*
X008408Y015011D01*
X008327Y015092D01*
X008408Y015173D01*
X008408Y015680D01*
X008349Y015739D01*
X008349Y016011D01*
X008459Y016122D01*
X008459Y016560D01*
X008344Y016676D01*
X007905Y016676D01*
X007790Y016560D01*
X007790Y016122D01*
X007876Y016035D01*
X007876Y015761D01*
X007780Y015761D01*
X007699Y015680D01*
X007699Y015173D01*
X007780Y015092D01*
X008327Y015092D01*
X007780Y015092D01*
X007699Y015011D01*
X007699Y014596D01*
X007348Y014596D01*
X007258Y014686D01*
X007258Y014960D01*
X007177Y015041D01*
X007258Y015121D01*
X007258Y015629D01*
X007227Y015661D01*
X007227Y015941D01*
X007325Y016039D01*
X007325Y016478D01*
X007210Y016593D01*
X006771Y016593D01*
X006656Y016478D01*
X006656Y016039D01*
X006754Y015941D01*
X006754Y015710D01*
X006630Y015710D01*
X006549Y015629D01*
X006549Y015121D01*
X006630Y015041D01*
X007177Y015041D01*
X006630Y015041D01*
X006549Y014960D01*
X006549Y014579D01*
X006501Y014627D01*
X006124Y015004D01*
X006124Y015850D01*
X006195Y015921D01*
X006243Y016037D01*
X006243Y016163D01*
X006195Y016279D01*
X006106Y016368D01*
X005990Y016416D01*
X005865Y016416D01*
X005748Y016368D01*
X005660Y016279D01*
X005611Y016163D01*
X005611Y016037D01*
X005660Y015921D01*
X005731Y015850D01*
X005731Y014841D01*
X006223Y014349D01*
X006223Y014237D01*
X005763Y014237D01*
X005644Y014356D01*
X005644Y015076D01*
X005506Y015214D01*
X004600Y016119D01*
X001782Y016119D01*
X001644Y015981D01*
X000935Y015272D01*
X000935Y009124D01*
X000917Y009087D01*
X000935Y009030D01*
X000935Y008970D01*
X000965Y008941D01*
X000978Y008901D01*
X001031Y008874D01*
X001074Y008832D01*
X001115Y008832D01*
X001347Y008715D01*
X001347Y008635D01*
X000646Y008635D01*
X000646Y008751D02*
X001275Y008751D01*
X001347Y008635D02*
X001414Y008474D01*
X001537Y008351D01*
X001698Y008284D01*
X002472Y008284D01*
X002633Y008351D01*
X002756Y008474D01*
X002823Y008635D01*
X004311Y008635D01*
X004327Y008651D02*
X004238Y008562D01*
X004190Y008446D01*
X004190Y008320D01*
X004238Y008204D01*
X004327Y008115D01*
X004443Y008067D01*
X004569Y008067D01*
X004685Y008115D01*
X004717Y008147D01*
X004884Y008147D01*
X004880Y008140D01*
X004871Y008105D01*
X004871Y007697D01*
X005118Y007697D01*
X005118Y007697D01*
X004871Y007697D01*
X004871Y007288D01*
X004880Y007253D01*
X004898Y007222D01*
X004906Y007214D01*
X004586Y007214D01*
X004471Y007099D01*
X004471Y005831D01*
X004440Y005819D01*
X004328Y005707D01*
X004268Y005561D01*
X004268Y005521D01*
X003727Y005521D01*
X003727Y005578D01*
X003646Y005659D01*
X003099Y005659D01*
X003018Y005578D01*
X003018Y005070D01*
X003099Y004989D01*
X003018Y004909D01*
X003018Y004401D01*
X003099Y004320D01*
X003646Y004320D01*
X005512Y004320D01*
X005506Y004437D02*
X004373Y004437D01*
X004331Y004395D02*
X004420Y004484D01*
X004468Y004600D01*
X004468Y004726D01*
X004420Y004842D01*
X004331Y004931D01*
X004215Y004979D01*
X004089Y004979D01*
X003973Y004931D01*
X003894Y004852D01*
X003727Y004852D01*
X003727Y004909D01*
X003646Y004989D01*
X003099Y004989D01*
X003646Y004989D01*
X003727Y005070D01*
X003727Y005127D01*
X004249Y005127D01*
X004349Y005027D01*
X004545Y005027D01*
X004602Y005084D01*
X004745Y005084D01*
X004891Y005144D01*
X005003Y005256D01*
X005063Y005402D01*
X005063Y005561D01*
X005003Y005707D01*
X004891Y005819D01*
X004864Y005830D01*
X004864Y006220D01*
X004940Y006144D01*
X005086Y006084D01*
X005245Y006084D01*
X005391Y006144D01*
X005503Y006256D01*
X005563Y006402D01*
X005563Y006561D01*
X005503Y006707D01*
X005391Y006819D01*
X005388Y006820D01*
X005700Y006820D01*
X005815Y006935D01*
X005815Y007199D01*
X005866Y007250D01*
X005866Y008144D01*
X005863Y008147D01*
X005874Y008147D01*
X005871Y008144D01*
X005871Y007250D01*
X005951Y007169D01*
X006017Y007169D01*
X006296Y006890D01*
X006328Y006845D01*
X006282Y006864D01*
X006205Y006879D01*
X006187Y006879D01*
X006187Y006503D01*
X006563Y006503D01*
X006563Y006521D01*
X006563Y006461D02*
X006187Y006461D01*
X006187Y006503D01*
X006145Y006503D01*
X006145Y006879D01*
X006126Y006879D01*
X006050Y006864D01*
X005977Y006834D01*
X005912Y006791D01*
X005857Y006735D01*
X005813Y006670D01*
X005783Y006598D01*
X005768Y006521D01*
X005768Y006503D01*
X006145Y006503D01*
X006145Y006461D01*
X006187Y006461D01*
X006187Y006084D01*
X006205Y006084D01*
X006282Y006099D01*
X006354Y006129D01*
X006419Y006173D01*
X006475Y006228D01*
X006518Y006293D01*
X006548Y006366D01*
X006563Y006442D01*
X006563Y006461D01*
X006559Y006419D02*
X007330Y006419D01*
X007254Y006303D02*
X006522Y006303D01*
X006433Y006186D02*
X007236Y006186D01*
X007261Y006069D02*
X004864Y006069D01*
X004864Y005953D02*
X007346Y005953D01*
X006815Y006652D02*
X011531Y006652D01*
X011513Y006677D02*
X011553Y006622D01*
X011602Y006573D01*
X011658Y006532D01*
X011719Y006501D01*
X011785Y006480D01*
X011853Y006469D01*
X012146Y006469D01*
X012146Y006866D01*
X011450Y006866D01*
X011460Y006804D01*
X011482Y006739D01*
X011513Y006677D01*
X011472Y006769D02*
X006996Y006769D01*
X007055Y006886D02*
X007372Y006886D01*
X007333Y007002D02*
X007062Y007002D01*
X007025Y007119D02*
X007333Y007119D01*
X007333Y007352D02*
X006866Y007352D01*
X006866Y007469D02*
X007343Y007469D01*
X007341Y007585D02*
X007034Y007585D01*
X006921Y007235D02*
X007628Y007235D01*
X007707Y007235D02*
X011597Y007235D01*
X011602Y007241D02*
X011553Y007192D01*
X011513Y007136D01*
X011482Y007075D01*
X011460Y007009D01*
X011450Y006948D01*
X012146Y006948D01*
X012146Y007345D01*
X011853Y007345D01*
X011785Y007334D01*
X011719Y007313D01*
X011658Y007281D01*
X011602Y007241D01*
X011504Y007119D02*
X008002Y007119D01*
X008002Y007159D02*
X007707Y007159D01*
X007707Y006844D01*
X007883Y006844D01*
X007918Y006853D01*
X007949Y006871D01*
X007975Y006897D01*
X007993Y006928D01*
X008002Y006963D01*
X008002Y007159D01*
X008002Y007002D02*
X011459Y007002D01*
X011639Y007536D02*
X011800Y007469D01*
X012574Y007469D01*
X012735Y007536D01*
X012858Y007659D01*
X012925Y007820D01*
X012925Y007886D01*
X013773Y008734D01*
X013888Y008849D01*
X013888Y011587D01*
X012968Y012507D01*
X012968Y012607D01*
X012920Y012724D01*
X012831Y012812D01*
X012715Y012860D01*
X012589Y012860D01*
X012473Y012812D01*
X012384Y012724D01*
X012336Y012607D01*
X012336Y012482D01*
X012384Y012366D01*
X012473Y012277D01*
X012589Y012229D01*
X012689Y012229D01*
X013494Y011424D01*
X013494Y009012D01*
X012748Y008265D01*
X012735Y008278D01*
X012574Y008345D01*
X011800Y008345D01*
X011639Y008278D01*
X011516Y008155D01*
X011449Y007994D01*
X011449Y007820D01*
X011516Y007659D01*
X011639Y007536D01*
X011590Y007585D02*
X009743Y007585D01*
X009768Y007596D02*
X009857Y007685D01*
X009905Y007801D01*
X009905Y007926D01*
X009857Y008042D01*
X009786Y008113D01*
X009786Y009687D01*
X009798Y009718D01*
X009798Y009844D01*
X009750Y009960D01*
X009661Y010049D01*
X009545Y010097D01*
X009420Y010097D01*
X009304Y010049D01*
X009215Y009960D01*
X009167Y009844D01*
X009167Y009718D01*
X009215Y009602D01*
X009304Y009513D01*
X009392Y009476D01*
X009392Y008113D01*
X009321Y008042D01*
X009273Y007926D01*
X009273Y007801D01*
X009321Y007685D01*
X009410Y007596D01*
X009526Y007548D01*
X009652Y007548D01*
X009768Y007596D01*
X009864Y007702D02*
X011498Y007702D01*
X011450Y007818D02*
X009905Y007818D01*
X009901Y007935D02*
X011449Y007935D01*
X011473Y008052D02*
X011153Y008052D01*
X011138Y008037D02*
X011227Y008125D01*
X011275Y008242D01*
X011275Y008367D01*
X011227Y008483D01*
X011138Y008572D01*
X011022Y008620D01*
X010896Y008620D01*
X010780Y008572D01*
X010691Y008483D01*
X010643Y008367D01*
X010643Y008242D01*
X010691Y008125D01*
X010780Y008037D01*
X010896Y007989D01*
X011022Y007989D01*
X011138Y008037D01*
X011244Y008168D02*
X011530Y008168D01*
X011656Y008285D02*
X011275Y008285D01*
X011261Y008402D02*
X012884Y008402D01*
X013001Y008518D02*
X012693Y008518D01*
X012735Y008536D02*
X012858Y008659D01*
X012925Y008820D01*
X012925Y008994D01*
X012858Y009155D01*
X012735Y009278D01*
X012574Y009345D01*
X012384Y009345D01*
X012384Y010106D01*
X012455Y010177D01*
X012503Y010293D01*
X012503Y010418D01*
X012455Y010535D01*
X012366Y010623D01*
X012250Y010672D01*
X012124Y010672D01*
X012008Y010623D01*
X011919Y010535D01*
X011871Y010418D01*
X011871Y010293D01*
X011919Y010177D01*
X011990Y010106D01*
X011990Y009345D01*
X011800Y009345D01*
X011639Y009278D01*
X011516Y009155D01*
X011449Y008994D01*
X011449Y008820D01*
X011516Y008659D01*
X011639Y008536D01*
X011800Y008469D01*
X012574Y008469D01*
X012735Y008536D01*
X012834Y008635D02*
X013117Y008635D01*
X013234Y008751D02*
X012897Y008751D01*
X012925Y008868D02*
X013350Y008868D01*
X013467Y008985D02*
X012925Y008985D01*
X012881Y009101D02*
X013494Y009101D01*
X013494Y009218D02*
X012795Y009218D01*
X012599Y009334D02*
X013494Y009334D01*
X013494Y009451D02*
X012384Y009451D01*
X012384Y009568D02*
X013494Y009568D01*
X013494Y009684D02*
X012384Y009684D01*
X012384Y009801D02*
X013494Y009801D01*
X013494Y009917D02*
X012384Y009917D01*
X012384Y010034D02*
X013494Y010034D01*
X013494Y010151D02*
X012429Y010151D01*
X012493Y010267D02*
X013494Y010267D01*
X013494Y010384D02*
X012503Y010384D01*
X012469Y010501D02*
X013494Y010501D01*
X013494Y010617D02*
X012372Y010617D01*
X012187Y010356D02*
X012187Y008907D01*
X011776Y009334D02*
X009786Y009334D01*
X009786Y009218D02*
X011579Y009218D01*
X011494Y009101D02*
X009786Y009101D01*
X009786Y008985D02*
X011449Y008985D01*
X011449Y008868D02*
X009786Y008868D01*
X009786Y008751D02*
X011478Y008751D01*
X011540Y008635D02*
X009786Y008635D01*
X009786Y008518D02*
X010726Y008518D01*
X010657Y008402D02*
X009786Y008402D01*
X009786Y008285D02*
X010643Y008285D01*
X010673Y008168D02*
X009786Y008168D01*
X009847Y008052D02*
X010765Y008052D01*
X011192Y008518D02*
X011681Y008518D01*
X012187Y007907D02*
X012668Y007907D01*
X013691Y008930D01*
X013691Y011505D01*
X012652Y012545D01*
X012782Y012833D02*
X014392Y012833D01*
X014392Y012949D02*
X010783Y012949D01*
X010783Y013066D02*
X014392Y013066D01*
X014349Y013183D02*
X010737Y013183D01*
X010592Y013299D02*
X014232Y013299D01*
X014392Y012716D02*
X012923Y012716D01*
X012968Y012600D02*
X014392Y012600D01*
X014392Y012483D02*
X012992Y012483D01*
X013108Y012366D02*
X014392Y012366D01*
X014392Y012250D02*
X013225Y012250D01*
X013342Y012133D02*
X014392Y012133D01*
X014392Y012016D02*
X013458Y012016D01*
X013575Y011900D02*
X014392Y011900D01*
X014392Y011783D02*
X013692Y011783D01*
X013808Y011667D02*
X014392Y011667D01*
X014392Y011550D02*
X013888Y011550D01*
X013888Y011433D02*
X014392Y011433D01*
X014392Y011317D02*
X013888Y011317D01*
X013888Y011200D02*
X014392Y011200D01*
X014392Y011084D02*
X013888Y011084D01*
X013888Y010967D02*
X014392Y010967D01*
X014392Y010850D02*
X013888Y010850D01*
X013888Y010734D02*
X014392Y010734D01*
X014392Y010617D02*
X013888Y010617D01*
X013888Y010501D02*
X014392Y010501D01*
X014392Y010384D02*
X013888Y010384D01*
X013888Y010267D02*
X014392Y010267D01*
X014392Y010151D02*
X013888Y010151D01*
X013888Y010034D02*
X014392Y010034D01*
X014392Y009917D02*
X013888Y009917D01*
X013888Y009801D02*
X014392Y009801D01*
X014392Y009684D02*
X013888Y009684D01*
X013888Y009568D02*
X014392Y009568D01*
X014392Y009451D02*
X013888Y009451D01*
X013888Y009334D02*
X014392Y009334D01*
X014392Y009218D02*
X013888Y009218D01*
X013888Y009101D02*
X014392Y009101D01*
X014392Y008985D02*
X013888Y008985D01*
X013888Y008868D02*
X014392Y008868D01*
X014392Y008751D02*
X013791Y008751D01*
X013674Y008635D02*
X014392Y008635D01*
X014392Y008518D02*
X013557Y008518D01*
X013441Y008402D02*
X014392Y008402D01*
X014392Y008285D02*
X013324Y008285D01*
X013207Y008168D02*
X014369Y008168D01*
X014253Y008052D02*
X013091Y008052D01*
X012974Y007935D02*
X014136Y007935D01*
X014020Y007818D02*
X012925Y007818D01*
X012876Y007702D02*
X013903Y007702D01*
X013786Y007585D02*
X012785Y007585D01*
X012655Y007313D02*
X012590Y007334D01*
X012522Y007345D01*
X012228Y007345D01*
X012228Y006948D01*
X012146Y006948D01*
X012146Y006866D01*
X012228Y006866D01*
X012228Y006469D01*
X012522Y006469D01*
X012590Y006480D01*
X012655Y006501D01*
X012717Y006532D01*
X012772Y006573D01*
X012821Y006622D01*
X012862Y006677D01*
X012893Y006739D01*
X012914Y006804D01*
X012924Y006866D01*
X012228Y006866D01*
X012228Y006948D01*
X012924Y006948D01*
X012914Y007009D01*
X012893Y007075D01*
X012862Y007136D01*
X012821Y007192D01*
X012772Y007241D01*
X012717Y007281D01*
X012655Y007313D01*
X012778Y007235D02*
X013436Y007235D01*
X013320Y007119D02*
X012871Y007119D01*
X012915Y007002D02*
X013203Y007002D01*
X013087Y006886D02*
X012228Y006886D01*
X012146Y006886D02*
X007963Y006886D01*
X007707Y006886D02*
X007628Y006886D01*
X007628Y007002D02*
X007707Y007002D01*
X007707Y007119D02*
X007628Y007119D01*
X008002Y007352D02*
X013553Y007352D01*
X013670Y007469D02*
X007992Y007469D01*
X007994Y007585D02*
X008124Y007585D01*
X008432Y007585D02*
X009435Y007585D01*
X009314Y007702D02*
X009114Y007702D01*
X009185Y007818D02*
X009273Y007818D01*
X009277Y007935D02*
X009200Y007935D01*
X009171Y008052D02*
X009330Y008052D01*
X009392Y008168D02*
X009081Y008168D01*
X009080Y008285D02*
X009392Y008285D01*
X009392Y008402D02*
X009079Y008402D01*
X009079Y008518D02*
X009392Y008518D01*
X009392Y008635D02*
X009079Y008635D01*
X009078Y008751D02*
X009392Y008751D01*
X009392Y008868D02*
X009078Y008868D01*
X009078Y008985D02*
X009392Y008985D01*
X009392Y009101D02*
X009077Y009101D01*
X009077Y009218D02*
X009392Y009218D01*
X009392Y009334D02*
X009052Y009334D01*
X009052Y009451D02*
X009392Y009451D01*
X009249Y009568D02*
X009108Y009568D01*
X009113Y009684D02*
X009181Y009684D01*
X009167Y009801D02*
X009074Y009801D01*
X008960Y009917D02*
X009197Y009917D01*
X009289Y010034D02*
X008763Y010034D01*
X008965Y010151D02*
X011945Y010151D01*
X011990Y010034D02*
X009676Y010034D01*
X009768Y009917D02*
X011990Y009917D01*
X011990Y009801D02*
X009798Y009801D01*
X009786Y009684D02*
X011990Y009684D01*
X011990Y009568D02*
X009786Y009568D01*
X009786Y009451D02*
X011990Y009451D01*
X011882Y010267D02*
X009217Y010267D01*
X009603Y010384D02*
X011346Y010384D01*
X011388Y010366D02*
X011272Y010415D01*
X011183Y010503D01*
X011135Y010620D01*
X011135Y010745D01*
X011183Y010861D01*
X011272Y010950D01*
X011388Y010998D01*
X011433Y010998D01*
X011470Y011036D01*
X011470Y011163D01*
X011280Y011163D01*
X011199Y011243D01*
X011199Y011987D01*
X011280Y012068D01*
X012181Y012068D01*
X012262Y011987D01*
X012262Y011243D01*
X012181Y011163D01*
X011943Y011163D01*
X011943Y010840D01*
X011767Y010664D01*
X011767Y010620D01*
X011719Y010503D01*
X011630Y010415D01*
X011514Y010366D01*
X011388Y010366D01*
X011556Y010384D02*
X011871Y010384D01*
X011905Y010501D02*
X011716Y010501D01*
X011766Y010617D02*
X012002Y010617D01*
X011836Y010734D02*
X013494Y010734D01*
X013494Y010850D02*
X011943Y010850D01*
X011943Y010967D02*
X013494Y010967D01*
X013494Y011084D02*
X011943Y011084D01*
X012219Y011200D02*
X013494Y011200D01*
X013494Y011317D02*
X012262Y011317D01*
X012262Y011433D02*
X013485Y011433D01*
X013368Y011550D02*
X012262Y011550D01*
X012262Y011667D02*
X013251Y011667D01*
X013135Y011783D02*
X012262Y011783D01*
X012262Y011900D02*
X013018Y011900D01*
X012902Y012016D02*
X012233Y012016D01*
X012384Y012366D02*
X009723Y012366D01*
X009787Y012483D02*
X012336Y012483D01*
X012336Y012600D02*
X009798Y012600D01*
X009765Y012716D02*
X010349Y012716D01*
X010585Y012716D02*
X012381Y012716D01*
X012522Y012833D02*
X010736Y012833D01*
X010467Y013009D02*
X010404Y012946D01*
X008610Y012946D01*
X008610Y012631D02*
X008669Y012572D01*
X009483Y012572D01*
X009242Y012366D02*
X008997Y012366D01*
X008997Y012250D02*
X012538Y012250D01*
X012785Y012133D02*
X008997Y012133D01*
X008997Y012016D02*
X009102Y012016D01*
X009101Y012015D02*
X009082Y011984D01*
X009073Y011949D01*
X009073Y011675D01*
X009546Y011675D01*
X009546Y012068D01*
X009193Y012068D01*
X009158Y012059D01*
X009126Y012041D01*
X009101Y012015D01*
X009073Y011900D02*
X008997Y011900D01*
X008997Y011783D02*
X009073Y011783D01*
X008997Y011667D02*
X009546Y011667D01*
X009546Y011675D02*
X009546Y011556D01*
X009664Y011556D01*
X009664Y011675D01*
X009546Y011675D01*
X009546Y011783D02*
X009664Y011783D01*
X009664Y011675D02*
X009664Y012068D01*
X010016Y012068D01*
X010051Y012059D01*
X010083Y012041D01*
X010109Y012015D01*
X010127Y011984D01*
X010136Y011949D01*
X010136Y011675D01*
X009664Y011675D01*
X009664Y011667D02*
X011199Y011667D01*
X011199Y011783D02*
X010136Y011783D01*
X010136Y011900D02*
X011199Y011900D01*
X011228Y012016D02*
X010107Y012016D01*
X009664Y012016D02*
X009546Y012016D01*
X009546Y011900D02*
X009664Y011900D01*
X009664Y011556D02*
X010136Y011556D01*
X010136Y011282D01*
X010127Y011247D01*
X010109Y011216D01*
X010083Y011190D01*
X010051Y011172D01*
X010016Y011163D01*
X009664Y011163D01*
X009664Y011556D01*
X009664Y011550D02*
X009546Y011550D01*
X009546Y011556D02*
X009546Y011163D01*
X009193Y011163D01*
X009158Y011172D01*
X009126Y011190D01*
X009101Y011216D01*
X009082Y011247D01*
X009073Y011282D01*
X009073Y011556D01*
X009546Y011556D01*
X009546Y011433D02*
X009664Y011433D01*
X009664Y011317D02*
X009546Y011317D01*
X009546Y011200D02*
X009664Y011200D01*
X009568Y010850D02*
X011179Y010850D01*
X011135Y010734D02*
X009659Y010734D01*
X009688Y010617D02*
X011136Y010617D01*
X011186Y010501D02*
X009673Y010501D01*
X009176Y010850D02*
X008958Y010850D01*
X008997Y010967D02*
X011313Y010967D01*
X011470Y011084D02*
X008997Y011084D01*
X008997Y011200D02*
X009116Y011200D01*
X009073Y011317D02*
X008997Y011317D01*
X008997Y011433D02*
X009073Y011433D01*
X009073Y011550D02*
X008997Y011550D01*
X009086Y010734D02*
X008270Y010734D01*
X008261Y010850D02*
X008195Y010850D01*
X008222Y010967D02*
X007781Y010967D01*
X007862Y011084D02*
X008222Y011084D01*
X008222Y011200D02*
X007885Y011200D01*
X007864Y011317D02*
X008222Y011317D01*
X008222Y011433D02*
X007785Y011433D01*
X007817Y011550D02*
X008222Y011550D01*
X008222Y011667D02*
X007877Y011667D01*
X007885Y011783D02*
X008222Y011783D01*
X008222Y011900D02*
X007849Y011900D01*
X007749Y012016D02*
X008222Y012016D01*
X008222Y012133D02*
X007876Y012133D01*
X007931Y012250D02*
X008222Y012250D01*
X008222Y012366D02*
X007936Y012366D01*
X007896Y012483D02*
X008222Y012483D01*
X008222Y012600D02*
X007790Y012600D01*
X007898Y012716D02*
X008222Y012716D01*
X008222Y012833D02*
X007936Y012833D01*
X007930Y012949D02*
X008222Y012949D01*
X008222Y013066D02*
X007872Y013066D01*
X007694Y013183D02*
X008222Y013183D01*
X008222Y013299D02*
X007628Y013299D01*
X007628Y013416D02*
X008222Y013416D01*
X008260Y013532D02*
X008971Y013532D01*
X009002Y013649D02*
X008270Y013649D01*
X008273Y013766D02*
X009002Y013766D01*
X009002Y013882D02*
X008290Y013882D01*
X008290Y013999D02*
X009002Y013999D01*
X009002Y014115D02*
X008290Y014115D01*
X008290Y014232D02*
X009364Y014232D01*
X008987Y014349D02*
X008290Y014349D01*
X008370Y014465D02*
X008916Y014465D01*
X008916Y014582D02*
X008408Y014582D01*
X008408Y014699D02*
X008916Y014699D01*
X008916Y014815D02*
X008408Y014815D01*
X008408Y014932D02*
X008919Y014932D01*
X008957Y015048D02*
X008370Y015048D01*
X008400Y015165D02*
X008916Y015165D01*
X008916Y015282D02*
X008408Y015282D01*
X008408Y015398D02*
X008916Y015398D01*
X008916Y015515D02*
X008408Y015515D01*
X008408Y015631D02*
X008949Y015631D01*
X009034Y015748D02*
X008349Y015748D01*
X008349Y015865D02*
X009034Y015865D01*
X009034Y015981D02*
X008349Y015981D01*
X008435Y016098D02*
X009034Y016098D01*
X009034Y016214D02*
X008459Y016214D01*
X008459Y016331D02*
X009077Y016331D01*
X009193Y016448D02*
X008459Y016448D01*
X008455Y016564D02*
X009310Y016564D01*
X009426Y016681D02*
X007276Y016681D01*
X007286Y016690D02*
X007312Y016735D01*
X007325Y016785D01*
X007325Y016910D01*
X007030Y016910D01*
X007030Y016988D01*
X007325Y016988D01*
X007325Y017113D01*
X007312Y017163D01*
X007286Y017208D01*
X007249Y017244D01*
X007204Y017270D01*
X007154Y017284D01*
X007030Y017284D01*
X007030Y016988D01*
X006951Y016988D01*
X006951Y016910D01*
X006656Y016910D01*
X006656Y016785D01*
X006669Y016735D01*
X006695Y016690D01*
X006732Y016654D01*
X006777Y016628D01*
X006827Y016614D01*
X006951Y016614D01*
X006951Y016910D01*
X007030Y016910D01*
X007030Y016614D01*
X007154Y016614D01*
X007204Y016628D01*
X007249Y016654D01*
X007286Y016690D01*
X007325Y016797D02*
X007815Y016797D01*
X007803Y016818D02*
X007829Y016773D01*
X007866Y016736D01*
X007910Y016710D01*
X007961Y016697D01*
X008085Y016697D01*
X008085Y016992D01*
X008164Y016992D01*
X008164Y017071D01*
X008459Y017071D01*
X008459Y017195D01*
X008445Y017245D01*
X008420Y017290D01*
X008383Y017327D01*
X008338Y017353D01*
X008288Y017366D01*
X008164Y017366D01*
X008164Y017071D01*
X008085Y017071D01*
X008085Y017366D01*
X007961Y017366D01*
X007910Y017353D01*
X007866Y017327D01*
X007829Y017290D01*
X007803Y017245D01*
X007790Y017195D01*
X007790Y017071D01*
X008085Y017071D01*
X008085Y016992D01*
X007790Y016992D01*
X007790Y016868D01*
X007803Y016818D01*
X007790Y016914D02*
X007030Y016914D01*
X007128Y016811D02*
X006852Y016811D01*
X006852Y017087D01*
X007128Y017087D01*
X007128Y016811D01*
X007128Y016928D02*
X006852Y016928D01*
X006852Y017045D02*
X007128Y017045D01*
X007030Y017031D02*
X006951Y017031D01*
X006951Y016988D02*
X006951Y017284D01*
X006827Y017284D01*
X006777Y017270D01*
X006732Y017244D01*
X006695Y017208D01*
X006669Y017163D01*
X006656Y017113D01*
X006656Y016988D01*
X006951Y016988D01*
X006951Y016914D02*
X004522Y016914D01*
X004522Y017001D02*
X003794Y017001D01*
X003794Y017119D01*
X004522Y017119D01*
X004522Y017472D01*
X004512Y017507D01*
X004494Y017539D01*
X004469Y017564D01*
X004437Y017582D01*
X004402Y017592D01*
X003794Y017592D01*
X003794Y017119D01*
X003675Y017119D01*
X003675Y017001D01*
X002947Y017001D01*
X002947Y016648D01*
X002956Y016613D01*
X002975Y016582D01*
X003000Y016556D01*
X003032Y016538D01*
X003067Y016529D01*
X003675Y016529D01*
X003675Y017001D01*
X003794Y017001D01*
X003794Y016529D01*
X004402Y016529D01*
X004437Y016538D01*
X004469Y016556D01*
X004494Y016582D01*
X004512Y016613D01*
X004522Y016648D01*
X004522Y017001D01*
X004522Y017147D02*
X006665Y017147D01*
X006656Y017031D02*
X003794Y017031D01*
X003794Y017147D02*
X003675Y017147D01*
X003675Y017119D02*
X003675Y017592D01*
X003067Y017592D01*
X003032Y017582D01*
X003000Y017564D01*
X002975Y017539D01*
X002956Y017507D01*
X002947Y017472D01*
X002947Y017119D01*
X003675Y017119D01*
X003675Y017031D02*
X001471Y017031D01*
X001471Y017001D02*
X001471Y017119D01*
X002042Y017119D01*
X002042Y017472D01*
X002032Y017507D01*
X002014Y017539D01*
X001988Y017564D01*
X001957Y017582D01*
X001922Y017592D01*
X001471Y017592D01*
X001471Y017119D01*
X001353Y017119D01*
X001353Y017001D01*
X001471Y017001D01*
X002042Y017001D01*
X002042Y016648D01*
X002032Y016613D01*
X002014Y016582D01*
X001988Y016556D01*
X001957Y016538D01*
X001922Y016529D01*
X001471Y016529D01*
X001471Y017001D01*
X001471Y016914D02*
X001353Y016914D01*
X001353Y017001D02*
X001353Y016529D01*
X000901Y016529D01*
X000866Y016538D01*
X000835Y016556D01*
X000809Y016582D01*
X000791Y016613D01*
X000782Y016648D01*
X000782Y017001D01*
X001353Y017001D01*
X001353Y017031D02*
X000646Y017031D01*
X000646Y017147D02*
X000782Y017147D01*
X000782Y017119D02*
X001353Y017119D01*
X001353Y017592D01*
X000901Y017592D01*
X000866Y017582D01*
X000835Y017564D01*
X000809Y017539D01*
X000791Y017507D01*
X000782Y017472D01*
X000782Y017119D01*
X000782Y017264D02*
X000646Y017264D01*
X000646Y017381D02*
X000782Y017381D01*
X000788Y017497D02*
X000646Y017497D01*
X000646Y017614D02*
X002517Y017614D01*
X002526Y017610D02*
X002660Y017610D01*
X002783Y017661D01*
X002878Y017756D01*
X002929Y017879D01*
X002929Y018013D01*
X002878Y018137D01*
X002783Y018231D01*
X002660Y018282D01*
X002526Y018282D01*
X002402Y018231D01*
X002308Y018137D01*
X002257Y018013D01*
X002257Y017879D01*
X002308Y017756D01*
X002402Y017661D01*
X002526Y017610D01*
X002669Y017614D02*
X005022Y017614D01*
X005022Y017730D02*
X002852Y017730D01*
X002916Y017847D02*
X005022Y017847D01*
X005022Y017869D02*
X005022Y017362D01*
X005103Y017281D01*
X005650Y017281D01*
X005687Y017318D01*
X005721Y017285D01*
X005837Y017237D01*
X005963Y017237D01*
X006079Y017285D01*
X006168Y017374D01*
X006216Y017490D01*
X006216Y017615D01*
X006168Y017731D01*
X006079Y017820D01*
X005963Y017868D01*
X005837Y017868D01*
X005731Y017824D01*
X005731Y017869D01*
X005650Y017950D01*
X005731Y018031D01*
X005731Y018539D01*
X005650Y018619D01*
X005493Y018619D01*
X005981Y019108D01*
X006071Y019108D01*
X006099Y019080D01*
X006646Y019080D01*
X006099Y019080D01*
X006018Y018999D01*
X006018Y018491D01*
X006099Y018411D01*
X006175Y018411D01*
X006175Y018038D01*
X006186Y018027D01*
X006186Y017927D01*
X006234Y017811D01*
X006323Y017722D01*
X006439Y017674D01*
X006565Y017674D01*
X006681Y017722D01*
X006770Y017811D01*
X006818Y017927D01*
X006818Y018052D01*
X006770Y018168D01*
X006681Y018257D01*
X006569Y018304D01*
X006569Y018411D01*
X006646Y018411D01*
X006727Y018491D01*
X006727Y018999D01*
X006646Y019080D01*
X006727Y019161D01*
X006727Y019669D01*
X006646Y019749D01*
X006099Y019749D01*
X006018Y019669D01*
X006018Y019501D01*
X005818Y019501D01*
X005703Y019386D01*
X005687Y019370D01*
X005724Y019458D01*
X005724Y019584D01*
X005676Y019700D01*
X005587Y019789D01*
X005471Y019837D01*
X005345Y019837D01*
X005229Y019789D01*
X005140Y019700D01*
X005092Y019584D01*
X005092Y019483D01*
X004932Y019324D01*
X004754Y019324D01*
X005576Y020147D01*
X005588Y020159D01*
X005733Y020159D01*
X005813Y020239D01*
X005813Y021062D01*
X005733Y021143D01*
X005225Y021143D01*
X005144Y021062D01*
X005144Y020383D01*
X004444Y019682D01*
X003680Y019682D01*
X003676Y019678D01*
X003107Y019678D01*
X003026Y019598D01*
X003026Y019287D01*
X003028Y019285D01*
X003026Y019283D01*
X003026Y018972D01*
X003028Y018970D01*
X003026Y018968D01*
X003026Y018657D01*
X003028Y018655D01*
X003026Y018653D01*
X003026Y018342D01*
X003035Y018333D01*
X003026Y018299D01*
X003026Y018182D01*
X003026Y018066D01*
X003035Y018031D01*
X003053Y017999D01*
X003079Y017974D01*
X003110Y017956D01*
X003145Y017946D01*
X003774Y017946D01*
X004402Y017946D01*
X004437Y017956D01*
X004469Y017974D01*
X004494Y017999D01*
X004512Y018031D01*
X004522Y018066D01*
X004522Y018074D01*
X004632Y018028D01*
X004758Y018028D01*
X004874Y018076D01*
X004945Y018147D01*
X005022Y018147D01*
X005022Y018031D01*
X005103Y017950D01*
X005650Y017950D01*
X005103Y017950D01*
X005022Y017869D01*
X005089Y017964D02*
X004451Y017964D01*
X004878Y018080D02*
X005022Y018080D01*
X005317Y018344D02*
X004695Y018344D01*
X005317Y018344D02*
X005376Y018285D01*
X005663Y017964D02*
X006186Y017964D01*
X006175Y018080D02*
X005731Y018080D01*
X005731Y018197D02*
X006175Y018197D01*
X006175Y018313D02*
X005731Y018313D01*
X005731Y018430D02*
X006079Y018430D01*
X006018Y018547D02*
X005723Y018547D01*
X005537Y018663D02*
X006018Y018663D01*
X006018Y018780D02*
X005654Y018780D01*
X005770Y018896D02*
X006018Y018896D01*
X006032Y019013D02*
X005887Y019013D01*
X005900Y019304D02*
X006262Y019304D01*
X006372Y019415D01*
X006727Y019363D02*
X006850Y019363D01*
X006850Y019480D02*
X006727Y019480D01*
X006727Y019596D02*
X006848Y019596D01*
X006850Y019594D02*
X006850Y018472D01*
X006830Y018422D01*
X006830Y018320D01*
X006869Y018226D01*
X006941Y018154D01*
X007035Y018115D01*
X007138Y018115D01*
X007232Y018154D01*
X007304Y018226D01*
X007343Y018320D01*
X007343Y018422D01*
X007323Y018472D01*
X007323Y019789D01*
X007184Y019928D01*
X006894Y020218D01*
X006916Y020239D01*
X006916Y021062D01*
X006835Y021143D01*
X006327Y021143D01*
X006246Y021062D01*
X006246Y020505D01*
X006190Y020449D01*
X006190Y020254D01*
X006850Y019594D01*
X006731Y019713D02*
X006682Y019713D01*
X006614Y019829D02*
X005489Y019829D01*
X005327Y019829D02*
X005259Y019829D01*
X005153Y019713D02*
X005142Y019713D01*
X005097Y019596D02*
X005026Y019596D01*
X005088Y019480D02*
X004909Y019480D01*
X004971Y019363D02*
X004792Y019363D01*
X005014Y019127D02*
X005408Y019521D01*
X005663Y019713D02*
X006062Y019713D01*
X006018Y019596D02*
X005719Y019596D01*
X005724Y019480D02*
X005797Y019480D01*
X005900Y019304D02*
X005408Y018812D01*
X003774Y018812D01*
X003774Y019127D02*
X005014Y019127D01*
X004474Y019713D02*
X002929Y019713D01*
X002929Y019745D02*
X002878Y019869D01*
X002783Y019963D01*
X002660Y020015D01*
X002526Y020015D01*
X002402Y019963D01*
X002308Y019869D01*
X002257Y019745D01*
X002257Y019612D01*
X002308Y019488D01*
X002402Y019393D01*
X002526Y019342D01*
X002660Y019342D01*
X002783Y019393D01*
X002878Y019488D01*
X002929Y019612D01*
X002929Y019745D01*
X002894Y019829D02*
X004591Y019829D01*
X004707Y019946D02*
X002801Y019946D01*
X002975Y020086D02*
X003000Y020060D01*
X003032Y020042D01*
X003067Y020033D01*
X003675Y020033D01*
X003675Y020505D01*
X002947Y020505D01*
X002947Y020152D01*
X002956Y020117D01*
X002975Y020086D01*
X002998Y020063D02*
X001991Y020063D01*
X001988Y020060D02*
X002014Y020086D01*
X002032Y020117D01*
X002042Y020152D01*
X002042Y020505D01*
X001471Y020505D01*
X001471Y020623D01*
X002042Y020623D01*
X002042Y020976D01*
X002032Y021011D01*
X002014Y021043D01*
X001988Y021068D01*
X001957Y021086D01*
X001922Y021096D01*
X001471Y021096D01*
X001471Y020623D01*
X001353Y020623D01*
X001353Y020505D01*
X001471Y020505D01*
X001471Y020033D01*
X001922Y020033D01*
X001957Y020042D01*
X001988Y020060D01*
X002042Y020179D02*
X002947Y020179D01*
X002947Y020296D02*
X002042Y020296D01*
X002042Y020412D02*
X002947Y020412D01*
X002947Y020623D02*
X003675Y020623D01*
X003675Y020505D01*
X003794Y020505D01*
X003794Y020623D01*
X004522Y020623D01*
X004522Y020976D01*
X004512Y021011D01*
X004494Y021043D01*
X004469Y021068D01*
X004437Y021086D01*
X004402Y021096D01*
X003794Y021096D01*
X003794Y020623D01*
X003675Y020623D01*
X003675Y021096D01*
X003067Y021096D01*
X003032Y021086D01*
X003000Y021068D01*
X002975Y021043D01*
X002956Y021011D01*
X002947Y020976D01*
X002947Y020623D01*
X002947Y020646D02*
X002042Y020646D01*
X002042Y020762D02*
X002208Y020762D01*
X002252Y020718D02*
X002369Y020670D01*
X002494Y020670D01*
X002610Y020718D01*
X002699Y020807D01*
X002747Y020923D01*
X002747Y021048D01*
X002699Y021164D01*
X002610Y021253D01*
X002494Y021301D01*
X002369Y021301D01*
X002252Y021253D01*
X002164Y021164D01*
X002115Y021048D01*
X002115Y020923D01*
X002164Y020807D01*
X002252Y020718D01*
X002134Y020879D02*
X002042Y020879D01*
X002036Y020995D02*
X002115Y020995D01*
X002142Y021112D02*
X000646Y021112D01*
X000646Y020995D02*
X000787Y020995D01*
X000791Y021011D02*
X000782Y020976D01*
X000782Y020623D01*
X001353Y020623D01*
X001353Y021096D01*
X000901Y021096D01*
X000866Y021086D01*
X000835Y021068D01*
X000809Y021043D01*
X000791Y021011D01*
X000782Y020879D02*
X000646Y020879D01*
X000646Y020762D02*
X000782Y020762D01*
X000782Y020646D02*
X000646Y020646D01*
X000646Y020529D02*
X001353Y020529D01*
X001353Y020505D02*
X000782Y020505D01*
X000782Y020152D01*
X000791Y020117D01*
X000809Y020086D01*
X000835Y020060D01*
X000866Y020042D01*
X000901Y020033D01*
X001353Y020033D01*
X001353Y020505D01*
X001353Y020412D02*
X001471Y020412D01*
X001471Y020296D02*
X001353Y020296D01*
X001353Y020179D02*
X001471Y020179D01*
X001471Y020063D02*
X001353Y020063D01*
X001471Y020529D02*
X003675Y020529D01*
X003675Y020412D02*
X003794Y020412D01*
X003794Y020505D02*
X003794Y020033D01*
X004402Y020033D01*
X004437Y020042D01*
X004469Y020060D01*
X004494Y020086D01*
X004512Y020117D01*
X004522Y020152D01*
X004522Y020505D01*
X003794Y020505D01*
X003794Y020529D02*
X005144Y020529D01*
X005144Y020412D02*
X004522Y020412D01*
X004522Y020296D02*
X005057Y020296D01*
X004941Y020179D02*
X004522Y020179D01*
X004471Y020063D02*
X004824Y020063D01*
X005375Y019946D02*
X006498Y019946D01*
X006381Y020063D02*
X005492Y020063D01*
X005753Y020179D02*
X006265Y020179D01*
X006190Y020296D02*
X005813Y020296D01*
X005813Y020412D02*
X006190Y020412D01*
X006246Y020529D02*
X005813Y020529D01*
X005813Y020646D02*
X006246Y020646D01*
X006246Y020762D02*
X005813Y020762D01*
X005813Y020879D02*
X006246Y020879D01*
X006246Y020995D02*
X005813Y020995D01*
X005763Y021112D02*
X006296Y021112D01*
X006866Y021112D02*
X018044Y021112D01*
X018044Y020995D02*
X010908Y020995D01*
X010874Y021029D02*
X010366Y021029D01*
X010286Y020948D01*
X010286Y020911D01*
X009943Y020911D01*
X009943Y020948D01*
X009862Y021029D01*
X009355Y021029D01*
X009274Y020948D01*
X009274Y020919D01*
X008766Y020919D01*
X008766Y020956D01*
X008685Y021037D01*
X008177Y021037D01*
X008097Y020956D01*
X008097Y020409D01*
X008160Y020346D01*
X008150Y020340D01*
X008124Y020314D01*
X008106Y020283D01*
X008097Y020248D01*
X008097Y020052D01*
X008392Y020052D01*
X008392Y019974D01*
X008097Y019974D01*
X008097Y019778D01*
X008106Y019743D01*
X008124Y019712D01*
X008150Y019686D01*
X008181Y019668D01*
X008216Y019659D01*
X008392Y019659D01*
X008392Y019974D01*
X008471Y019974D01*
X008471Y020052D01*
X008766Y020052D01*
X008766Y020248D01*
X008757Y020283D01*
X008738Y020314D01*
X008713Y020340D01*
X008703Y020346D01*
X008766Y020409D01*
X008766Y020446D01*
X009274Y020446D01*
X009274Y020401D01*
X009337Y020338D01*
X009327Y020332D01*
X009301Y020306D01*
X009283Y020275D01*
X009274Y020240D01*
X009274Y020045D01*
X009569Y020045D01*
X009569Y019966D01*
X009274Y019966D01*
X009274Y019771D01*
X009283Y019735D01*
X009301Y019704D01*
X009327Y019678D01*
X009358Y019660D01*
X009394Y019651D01*
X009569Y019651D01*
X009569Y019966D01*
X009648Y019966D01*
X009648Y020045D01*
X009943Y020045D01*
X009943Y020240D01*
X009934Y020275D01*
X009916Y020306D01*
X009890Y020332D01*
X009880Y020338D01*
X009943Y020401D01*
X009943Y020438D01*
X010286Y020438D01*
X010286Y020401D01*
X010349Y020338D01*
X010339Y020332D01*
X010313Y020306D01*
X010295Y020275D01*
X010286Y020240D01*
X010286Y020045D01*
X010581Y020045D01*
X010581Y019966D01*
X010286Y019966D01*
X010286Y019771D01*
X010295Y019735D01*
X010313Y019704D01*
X010339Y019678D01*
X010370Y019660D01*
X010405Y019651D01*
X010581Y019651D01*
X010581Y019966D01*
X010660Y019966D01*
X010660Y020045D01*
X010955Y020045D01*
X010955Y020240D01*
X010946Y020275D01*
X010927Y020306D01*
X010902Y020332D01*
X010892Y020338D01*
X010955Y020401D01*
X010955Y020462D01*
X011050Y020462D01*
X011321Y020191D01*
X011321Y018497D01*
X010854Y018030D01*
X010758Y018030D01*
X010642Y017982D01*
X010553Y017893D01*
X010505Y017777D01*
X010505Y017651D01*
X010553Y017535D01*
X010642Y017446D01*
X010758Y017398D01*
X010884Y017398D01*
X011000Y017446D01*
X011089Y017535D01*
X011132Y017640D01*
X011655Y018163D01*
X011794Y018301D01*
X011794Y020387D01*
X011384Y020796D01*
X011246Y020934D01*
X010955Y020934D01*
X010955Y020948D01*
X010874Y021029D01*
X011301Y020879D02*
X018044Y020879D01*
X018044Y020762D02*
X017199Y020762D01*
X017179Y020771D02*
X016865Y020771D01*
X016575Y020650D01*
X016353Y020429D01*
X016233Y020139D01*
X016233Y019825D01*
X016353Y019535D01*
X016575Y019313D01*
X016865Y019193D01*
X017179Y019193D01*
X017469Y019313D01*
X017691Y019535D01*
X017811Y019825D01*
X017811Y020139D01*
X017691Y020429D01*
X017469Y020650D01*
X017179Y020771D01*
X017474Y020646D02*
X018044Y020646D01*
X018044Y020529D02*
X017590Y020529D01*
X017697Y020412D02*
X018044Y020412D01*
X018044Y020296D02*
X017746Y020296D01*
X017794Y020179D02*
X018044Y020179D01*
X018044Y020063D02*
X017811Y020063D01*
X017811Y019946D02*
X018044Y019946D01*
X018044Y019829D02*
X017811Y019829D01*
X017765Y019713D02*
X018044Y019713D01*
X018044Y019596D02*
X017716Y019596D01*
X017636Y019480D02*
X018044Y019480D01*
X018044Y019363D02*
X017519Y019363D01*
X017308Y019246D02*
X018044Y019246D01*
X018044Y019130D02*
X011794Y019130D01*
X011794Y019246D02*
X012798Y019246D01*
X012928Y019193D02*
X013242Y019193D01*
X013532Y019313D01*
X013754Y019535D01*
X013874Y019825D01*
X013874Y020139D01*
X013754Y020429D01*
X013532Y020650D01*
X013242Y020771D01*
X012928Y020771D01*
X012638Y020650D01*
X012416Y020429D01*
X012296Y020139D01*
X012296Y019825D01*
X012416Y019535D01*
X012638Y019313D01*
X012928Y019193D01*
X012588Y019363D02*
X011794Y019363D01*
X011794Y019480D02*
X012471Y019480D01*
X012391Y019596D02*
X011794Y019596D01*
X011794Y019713D02*
X012342Y019713D01*
X012296Y019829D02*
X011794Y019829D01*
X011794Y019946D02*
X012296Y019946D01*
X012296Y020063D02*
X011794Y020063D01*
X011794Y020179D02*
X012313Y020179D01*
X012361Y020296D02*
X011794Y020296D01*
X011768Y020412D02*
X012409Y020412D01*
X012517Y020529D02*
X011651Y020529D01*
X011534Y020646D02*
X012633Y020646D01*
X012908Y020762D02*
X011418Y020762D01*
X011100Y020412D02*
X010955Y020412D01*
X010934Y020296D02*
X011216Y020296D01*
X011321Y020179D02*
X010955Y020179D01*
X010955Y020063D02*
X011321Y020063D01*
X011321Y019946D02*
X010955Y019946D01*
X010955Y019966D02*
X010660Y019966D01*
X010660Y019651D01*
X010835Y019651D01*
X010870Y019660D01*
X010902Y019678D01*
X010927Y019704D01*
X010946Y019735D01*
X010955Y019771D01*
X010955Y019966D01*
X010955Y019829D02*
X011321Y019829D01*
X011321Y019713D02*
X010932Y019713D01*
X010660Y019713D02*
X010581Y019713D01*
X010581Y019829D02*
X010660Y019829D01*
X010660Y019946D02*
X010581Y019946D01*
X010286Y019946D02*
X009943Y019946D01*
X009943Y019966D02*
X009648Y019966D01*
X009648Y019651D01*
X009823Y019651D01*
X009859Y019660D01*
X009890Y019678D01*
X009916Y019704D01*
X009934Y019735D01*
X009943Y019771D01*
X009943Y019966D01*
X009943Y020063D02*
X010286Y020063D01*
X010286Y020179D02*
X009943Y020179D01*
X009922Y020296D02*
X010307Y020296D01*
X010286Y020412D02*
X009943Y020412D01*
X009648Y019946D02*
X009569Y019946D01*
X009569Y019829D02*
X009648Y019829D01*
X009648Y019713D02*
X009569Y019713D01*
X009296Y019713D02*
X008739Y019713D01*
X008738Y019712D02*
X008757Y019743D01*
X008766Y019778D01*
X008766Y019974D01*
X008471Y019974D01*
X008471Y019659D01*
X008646Y019659D01*
X008681Y019668D01*
X008713Y019686D01*
X008738Y019712D01*
X008766Y019829D02*
X009274Y019829D01*
X009274Y019946D02*
X008766Y019946D01*
X008766Y020063D02*
X009274Y020063D01*
X009274Y020179D02*
X008766Y020179D01*
X008749Y020296D02*
X009295Y020296D01*
X009274Y020412D02*
X008766Y020412D01*
X008471Y019946D02*
X008392Y019946D01*
X008392Y019829D02*
X008471Y019829D01*
X008471Y019713D02*
X008392Y019713D01*
X008124Y019713D02*
X007323Y019713D01*
X007323Y019596D02*
X011321Y019596D01*
X011321Y019480D02*
X007323Y019480D01*
X007323Y019363D02*
X011321Y019363D01*
X011321Y019246D02*
X007323Y019246D01*
X007323Y019130D02*
X008137Y019130D01*
X008130Y019117D02*
X008120Y019082D01*
X008120Y018887D01*
X008416Y018887D01*
X008416Y019202D01*
X008240Y019202D01*
X008205Y019193D01*
X008174Y019175D01*
X008148Y019149D01*
X008130Y019117D01*
X008120Y019013D02*
X007323Y019013D01*
X007323Y018896D02*
X008120Y018896D01*
X008120Y018808D02*
X008120Y018613D01*
X008130Y018578D01*
X008148Y018547D01*
X007323Y018547D01*
X007323Y018663D02*
X008120Y018663D01*
X008120Y018780D02*
X007323Y018780D01*
X007340Y018430D02*
X008120Y018430D01*
X008120Y018452D02*
X008120Y017905D01*
X008201Y017824D01*
X008219Y017824D01*
X008219Y017549D01*
X008564Y017204D01*
X008564Y017159D01*
X008612Y017043D01*
X008701Y016954D01*
X008817Y016906D01*
X008943Y016906D01*
X009059Y016954D01*
X009148Y017043D01*
X009196Y017159D01*
X009196Y017285D01*
X009148Y017401D01*
X009059Y017490D01*
X008943Y017538D01*
X008898Y017538D01*
X008691Y017745D01*
X008691Y017824D01*
X008709Y017824D01*
X008790Y017905D01*
X008790Y018452D01*
X008726Y018515D01*
X008736Y018521D01*
X008762Y018547D01*
X009576Y018547D01*
X009576Y018505D02*
X009624Y018389D01*
X009713Y018300D01*
X009829Y018252D01*
X009955Y018252D01*
X010071Y018300D01*
X010160Y018389D01*
X010208Y018505D01*
X010208Y018631D01*
X010160Y018747D01*
X010071Y018836D01*
X009955Y018884D01*
X009829Y018884D01*
X009713Y018836D01*
X009624Y018747D01*
X009576Y018631D01*
X009576Y018505D01*
X009607Y018430D02*
X008790Y018430D01*
X008790Y018313D02*
X009700Y018313D01*
X009589Y018663D02*
X008790Y018663D01*
X008790Y018613D02*
X008790Y018808D01*
X008494Y018808D01*
X008494Y018887D01*
X008416Y018887D01*
X008416Y018808D01*
X008120Y018808D01*
X008416Y018896D02*
X008494Y018896D01*
X008494Y018887D02*
X008494Y019202D01*
X008670Y019202D01*
X008705Y019193D01*
X008736Y019175D01*
X008762Y019149D01*
X008780Y019117D01*
X008790Y019082D01*
X008790Y018887D01*
X008494Y018887D01*
X008494Y019013D02*
X008416Y019013D01*
X008416Y019130D02*
X008494Y019130D01*
X008773Y019130D02*
X011321Y019130D01*
X011321Y019013D02*
X008790Y019013D01*
X008790Y018896D02*
X011321Y018896D01*
X011321Y018780D02*
X010127Y018780D01*
X010195Y018663D02*
X011321Y018663D01*
X011321Y018547D02*
X010208Y018547D01*
X010177Y018430D02*
X011254Y018430D01*
X011138Y018313D02*
X010084Y018313D01*
X009657Y018780D02*
X008790Y018780D01*
X008790Y018613D02*
X008780Y018578D01*
X008762Y018547D01*
X008790Y018197D02*
X011021Y018197D01*
X010905Y018080D02*
X008790Y018080D01*
X008790Y017964D02*
X010624Y017964D01*
X010534Y017847D02*
X008732Y017847D01*
X008706Y017730D02*
X010505Y017730D01*
X010521Y017614D02*
X008822Y017614D01*
X009041Y017497D02*
X010591Y017497D01*
X011051Y017497D02*
X012296Y017497D01*
X012296Y017462D02*
X012416Y017172D01*
X012638Y016951D01*
X012928Y016830D01*
X013242Y016830D01*
X013532Y016951D01*
X013754Y017172D01*
X013874Y017462D01*
X013874Y017776D01*
X013754Y018066D01*
X013532Y018288D01*
X013242Y018408D01*
X012928Y018408D01*
X012638Y018288D01*
X012416Y018066D01*
X012296Y017776D01*
X012296Y017462D01*
X012330Y017381D02*
X009156Y017381D01*
X009196Y017264D02*
X012378Y017264D01*
X012441Y017147D02*
X009191Y017147D01*
X009136Y017031D02*
X009727Y017031D01*
X009615Y016914D02*
X008963Y016914D01*
X008797Y016914D02*
X008459Y016914D01*
X008459Y016868D02*
X008459Y016992D01*
X008164Y016992D01*
X008164Y016697D01*
X008288Y016697D01*
X008338Y016710D01*
X008383Y016736D01*
X008420Y016773D01*
X008445Y016818D01*
X008459Y016868D01*
X008434Y016797D02*
X009543Y016797D01*
X009745Y016331D02*
X011788Y016331D01*
X011790Y016334D02*
X011741Y016218D01*
X011741Y016092D01*
X011790Y015976D01*
X011878Y015887D01*
X011994Y015839D01*
X012120Y015839D01*
X012236Y015887D01*
X012325Y015976D01*
X012373Y016092D01*
X012373Y016218D01*
X012325Y016334D01*
X012236Y016423D01*
X012120Y016471D01*
X011994Y016471D01*
X011878Y016423D01*
X011790Y016334D01*
X011741Y016214D02*
X009628Y016214D01*
X009512Y016098D02*
X011741Y016098D01*
X011787Y015981D02*
X009506Y015981D01*
X009506Y015865D02*
X011932Y015865D01*
X012182Y015865D02*
X018044Y015865D01*
X018044Y015981D02*
X012327Y015981D01*
X012373Y016098D02*
X018044Y016098D01*
X018044Y016214D02*
X012373Y016214D01*
X012326Y016331D02*
X018044Y016331D01*
X018044Y016448D02*
X012176Y016448D01*
X011939Y016448D02*
X009970Y016448D01*
X010146Y016564D02*
X018044Y016564D01*
X018044Y016681D02*
X010202Y016681D01*
X010208Y016797D02*
X018044Y016797D01*
X018044Y016914D02*
X017381Y016914D01*
X017469Y016951D02*
X017179Y016830D01*
X016865Y016830D01*
X016575Y016951D01*
X016353Y017172D01*
X016233Y017462D01*
X016233Y017776D01*
X016353Y018066D01*
X016575Y018288D01*
X016865Y018408D01*
X017179Y018408D01*
X017469Y018288D01*
X017691Y018066D01*
X017811Y017776D01*
X017811Y017462D01*
X017691Y017172D01*
X017469Y016951D01*
X017549Y017031D02*
X018044Y017031D01*
X018044Y017147D02*
X017666Y017147D01*
X017729Y017264D02*
X018044Y017264D01*
X018044Y017381D02*
X017777Y017381D01*
X017811Y017497D02*
X018044Y017497D01*
X018044Y017614D02*
X017811Y017614D01*
X017811Y017730D02*
X018044Y017730D01*
X018044Y017847D02*
X017782Y017847D01*
X017733Y017964D02*
X018044Y017964D01*
X018044Y018080D02*
X017677Y018080D01*
X017560Y018197D02*
X018044Y018197D01*
X018044Y018313D02*
X017408Y018313D01*
X018044Y018430D02*
X011794Y018430D01*
X011794Y018313D02*
X012699Y018313D01*
X012547Y018197D02*
X011689Y018197D01*
X011573Y018080D02*
X012430Y018080D01*
X012373Y017964D02*
X011456Y017964D01*
X011339Y017847D02*
X012325Y017847D01*
X012296Y017730D02*
X011223Y017730D01*
X011122Y017614D02*
X012296Y017614D01*
X012558Y017031D02*
X010057Y017031D01*
X010169Y016914D02*
X012726Y016914D01*
X013444Y016914D02*
X016663Y016914D01*
X016495Y017031D02*
X015069Y017031D01*
X015113Y017074D02*
X015161Y017190D01*
X015161Y017316D01*
X015113Y017432D01*
X015024Y017521D01*
X014908Y017569D01*
X014782Y017569D01*
X014666Y017521D01*
X014577Y017432D01*
X014529Y017316D01*
X014529Y017190D01*
X014577Y017074D01*
X014666Y016985D01*
X014782Y016937D01*
X014908Y016937D01*
X015024Y016985D01*
X015113Y017074D01*
X015143Y017147D02*
X016378Y017147D01*
X016315Y017264D02*
X015161Y017264D01*
X015134Y017381D02*
X016267Y017381D01*
X016233Y017497D02*
X015048Y017497D01*
X014642Y017497D02*
X013874Y017497D01*
X013874Y017614D02*
X016233Y017614D01*
X016233Y017730D02*
X013874Y017730D01*
X013845Y017847D02*
X016262Y017847D01*
X016310Y017964D02*
X013796Y017964D01*
X013740Y018080D02*
X016367Y018080D01*
X016484Y018197D02*
X013623Y018197D01*
X013471Y018313D02*
X016636Y018313D01*
X016735Y019246D02*
X013371Y019246D01*
X013582Y019363D02*
X016525Y019363D01*
X016408Y019480D02*
X013699Y019480D01*
X013779Y019596D02*
X014690Y019596D01*
X014634Y019619D02*
X014750Y019571D01*
X014876Y019571D01*
X014992Y019619D01*
X015081Y019708D01*
X015129Y019824D01*
X015129Y019950D01*
X015081Y020066D01*
X014992Y020155D01*
X014876Y020203D01*
X014750Y020203D01*
X014634Y020155D01*
X014545Y020066D01*
X014497Y019950D01*
X014497Y019824D01*
X014545Y019708D01*
X014634Y019619D01*
X014544Y019713D02*
X013828Y019713D01*
X013874Y019829D02*
X014497Y019829D01*
X014497Y019946D02*
X013874Y019946D01*
X013874Y020063D02*
X014544Y020063D01*
X014693Y020179D02*
X013857Y020179D01*
X013809Y020296D02*
X016298Y020296D01*
X016346Y020412D02*
X013760Y020412D01*
X013653Y020529D02*
X016454Y020529D01*
X016570Y020646D02*
X013537Y020646D01*
X013262Y020762D02*
X016845Y020762D01*
X016250Y020179D02*
X014934Y020179D01*
X015082Y020063D02*
X016233Y020063D01*
X016233Y019946D02*
X015129Y019946D01*
X015129Y019829D02*
X016233Y019829D01*
X016279Y019713D02*
X015083Y019713D01*
X014936Y019596D02*
X016328Y019596D01*
X018044Y019013D02*
X011794Y019013D01*
X011794Y018896D02*
X018044Y018896D01*
X018044Y018780D02*
X011794Y018780D01*
X011794Y018663D02*
X018044Y018663D01*
X018044Y018547D02*
X011794Y018547D01*
X010308Y019713D02*
X009921Y019713D01*
X009943Y019829D02*
X010286Y019829D01*
X010333Y020995D02*
X009896Y020995D01*
X009321Y020995D02*
X008726Y020995D01*
X008136Y020995D02*
X006916Y020995D01*
X006916Y020879D02*
X008097Y020879D01*
X008097Y020762D02*
X007617Y020762D01*
X007652Y020727D02*
X007563Y020816D01*
X007447Y020864D01*
X007321Y020864D01*
X007205Y020816D01*
X007116Y020727D01*
X007068Y020611D01*
X007068Y020486D01*
X007116Y020370D01*
X007205Y020281D01*
X007321Y020233D01*
X007447Y020233D01*
X007563Y020281D01*
X007652Y020370D01*
X007700Y020486D01*
X007700Y020611D01*
X007652Y020727D01*
X007686Y020646D02*
X008097Y020646D01*
X008097Y020529D02*
X007700Y020529D01*
X007670Y020412D02*
X008097Y020412D01*
X008114Y020296D02*
X007578Y020296D01*
X007190Y020296D02*
X006916Y020296D01*
X006916Y020412D02*
X007099Y020412D01*
X007068Y020529D02*
X006916Y020529D01*
X006916Y020646D02*
X007082Y020646D01*
X007151Y020762D02*
X006916Y020762D01*
X006933Y020179D02*
X008097Y020179D01*
X008097Y020063D02*
X007049Y020063D01*
X007166Y019946D02*
X008097Y019946D01*
X008097Y019829D02*
X007283Y019829D01*
X006850Y019246D02*
X006727Y019246D01*
X006696Y019130D02*
X006850Y019130D01*
X006850Y019013D02*
X006713Y019013D01*
X006727Y018896D02*
X006850Y018896D01*
X006850Y018780D02*
X006727Y018780D01*
X006727Y018663D02*
X006850Y018663D01*
X006850Y018547D02*
X006727Y018547D01*
X006665Y018430D02*
X006833Y018430D01*
X006832Y018313D02*
X006569Y018313D01*
X006742Y018197D02*
X006898Y018197D01*
X006807Y018080D02*
X008120Y018080D01*
X008120Y017964D02*
X006818Y017964D01*
X006785Y017847D02*
X008178Y017847D01*
X008219Y017730D02*
X006690Y017730D01*
X006502Y017989D02*
X006372Y018119D01*
X006372Y018745D01*
X006219Y017847D02*
X006014Y017847D01*
X006168Y017730D02*
X006315Y017730D01*
X006216Y017614D02*
X008219Y017614D01*
X008271Y017497D02*
X006216Y017497D01*
X006171Y017381D02*
X008387Y017381D01*
X008435Y017264D02*
X008504Y017264D01*
X008459Y017147D02*
X008569Y017147D01*
X008624Y017031D02*
X008164Y017031D01*
X008262Y016894D02*
X007986Y016894D01*
X007986Y017170D01*
X008262Y017170D01*
X008262Y016894D01*
X008262Y017011D02*
X007986Y017011D01*
X007986Y017128D02*
X008262Y017128D01*
X008164Y017147D02*
X008085Y017147D01*
X008085Y017031D02*
X007325Y017031D01*
X007316Y017147D02*
X007790Y017147D01*
X007814Y017264D02*
X007215Y017264D01*
X007030Y017264D02*
X006951Y017264D01*
X006951Y017147D02*
X007030Y017147D01*
X006766Y017264D02*
X006029Y017264D01*
X005771Y017264D02*
X004522Y017264D01*
X004522Y017381D02*
X005022Y017381D01*
X005022Y017497D02*
X004515Y017497D01*
X004522Y016797D02*
X006656Y016797D01*
X006704Y016681D02*
X004522Y016681D01*
X004477Y016564D02*
X006742Y016564D01*
X006656Y016448D02*
X000646Y016448D01*
X000646Y016564D02*
X000827Y016564D01*
X000782Y016681D02*
X000646Y016681D01*
X000646Y016797D02*
X000782Y016797D01*
X000782Y016914D02*
X000646Y016914D01*
X000965Y016360D02*
X001081Y016408D01*
X001207Y016408D01*
X001323Y016360D01*
X001412Y016271D01*
X001460Y016155D01*
X001460Y016029D01*
X001412Y015913D01*
X001323Y015824D01*
X001207Y015776D01*
X001081Y015776D01*
X000965Y015824D01*
X000876Y015913D01*
X000828Y016029D01*
X000828Y016155D01*
X000876Y016271D01*
X000965Y016360D01*
X000936Y016331D02*
X000646Y016331D01*
X000646Y016214D02*
X000853Y016214D01*
X000828Y016098D02*
X000646Y016098D01*
X000646Y015981D02*
X000848Y015981D01*
X000924Y015865D02*
X000646Y015865D01*
X000646Y015748D02*
X001411Y015748D01*
X001363Y015865D02*
X001528Y015865D01*
X001440Y015981D02*
X001644Y015981D01*
X001761Y016098D02*
X001460Y016098D01*
X001435Y016214D02*
X004850Y016214D01*
X004860Y016239D02*
X004812Y016123D01*
X004812Y015997D01*
X004860Y015881D01*
X004949Y015793D01*
X005065Y015744D01*
X005191Y015744D01*
X005307Y015793D01*
X005396Y015881D01*
X005444Y015997D01*
X005444Y016123D01*
X005396Y016239D01*
X005307Y016328D01*
X005191Y016376D01*
X005065Y016376D01*
X004949Y016328D01*
X004860Y016239D01*
X004956Y016331D02*
X001351Y016331D01*
X001353Y016564D02*
X001471Y016564D01*
X001471Y016681D02*
X001353Y016681D01*
X001353Y016797D02*
X001471Y016797D01*
X001471Y017147D02*
X001353Y017147D01*
X001353Y017264D02*
X001471Y017264D01*
X001471Y017381D02*
X001353Y017381D01*
X001353Y017497D02*
X001471Y017497D01*
X002035Y017497D02*
X002954Y017497D01*
X002947Y017381D02*
X002042Y017381D01*
X002042Y017264D02*
X002947Y017264D01*
X002947Y017147D02*
X002042Y017147D01*
X002042Y016914D02*
X002947Y016914D01*
X002947Y016797D02*
X002042Y016797D01*
X002042Y016681D02*
X002947Y016681D01*
X002992Y016564D02*
X001996Y016564D01*
X001978Y015647D02*
X003276Y015647D01*
X003207Y015578D01*
X003207Y015149D01*
X003288Y015068D01*
X003207Y014987D01*
X003207Y014558D01*
X003288Y014478D01*
X003599Y014478D01*
X003288Y014478D01*
X003207Y014397D01*
X003207Y013968D01*
X003288Y013887D01*
X003599Y013887D01*
X003677Y013966D01*
X003739Y013966D01*
X003759Y013946D01*
X004053Y013946D01*
X004053Y013214D01*
X004192Y013076D01*
X004558Y012710D01*
X004842Y012710D01*
X004842Y012631D01*
X004842Y012503D01*
X004846Y012487D01*
X004842Y012483D01*
X004038Y012483D01*
X004038Y012482D02*
X004064Y012526D01*
X004077Y012577D01*
X004077Y012701D01*
X003782Y012701D01*
X003782Y012780D01*
X003703Y012780D01*
X003703Y013075D01*
X003579Y013075D01*
X003529Y013061D01*
X003484Y013036D01*
X003447Y012999D01*
X003421Y012954D01*
X003408Y012904D01*
X003408Y012780D01*
X003703Y012780D01*
X003703Y012701D01*
X003408Y012701D01*
X003408Y012577D01*
X003421Y012526D01*
X003447Y012482D01*
X003484Y012445D01*
X003529Y012419D01*
X003579Y012406D01*
X003703Y012406D01*
X003703Y012701D01*
X003782Y012701D01*
X003782Y012406D01*
X003906Y012406D01*
X003956Y012419D01*
X004001Y012445D01*
X004038Y012482D01*
X004077Y012600D02*
X004842Y012600D01*
X004842Y012631D02*
X005230Y012631D01*
X005230Y012631D01*
X005617Y012631D01*
X005617Y012552D01*
X005787Y012552D01*
X005790Y012553D01*
X005797Y012553D01*
X005855Y012571D01*
X005887Y012553D01*
X005915Y012553D01*
X005918Y012552D01*
X005927Y012552D01*
X005933Y012546D01*
X006032Y012505D01*
X006120Y012416D01*
X006169Y012300D01*
X006169Y012239D01*
X006453Y012467D01*
X006503Y012517D01*
X006515Y012517D01*
X006525Y012525D01*
X006595Y012517D01*
X007369Y012520D01*
X007441Y012592D01*
X007455Y012598D01*
X007441Y012604D01*
X007353Y012692D01*
X007304Y012809D01*
X007304Y012853D01*
X007294Y012863D01*
X007156Y013002D01*
X007156Y013461D01*
X007077Y013461D01*
X007077Y013849D01*
X007077Y013849D01*
X007077Y013461D01*
X006949Y013461D01*
X006943Y013462D01*
X006943Y013227D01*
X006828Y013112D01*
X006818Y013102D01*
X006818Y013057D01*
X006770Y012940D01*
X006681Y012852D01*
X006565Y012803D01*
X006439Y012803D01*
X006323Y012852D01*
X006234Y012940D01*
X006186Y013057D01*
X006186Y013182D01*
X006234Y013298D01*
X006323Y013387D01*
X006439Y013435D01*
X006549Y013435D01*
X006549Y013461D01*
X006053Y013461D01*
X006053Y013377D01*
X006132Y013298D01*
X006180Y013182D01*
X006180Y013057D01*
X006132Y012940D01*
X006043Y012852D01*
X005927Y012803D01*
X005802Y012803D01*
X005685Y012852D01*
X005617Y012920D01*
X005617Y012779D01*
X005613Y012775D01*
X005617Y012759D01*
X005617Y012631D01*
X005230Y012631D01*
X005230Y012631D01*
X004842Y012631D01*
X004842Y012483D02*
X004842Y012230D01*
X004306Y012230D01*
X004192Y012115D01*
X004077Y012001D01*
X004077Y012269D01*
X003962Y012384D01*
X003523Y012384D01*
X003408Y012269D01*
X003408Y011830D01*
X003506Y011732D01*
X003506Y011667D01*
X002732Y011667D01*
X002732Y011591D02*
X002732Y011766D01*
X002665Y011926D01*
X002542Y012050D01*
X002381Y012116D01*
X001607Y012116D01*
X001446Y012050D01*
X001408Y012011D01*
X001408Y012346D01*
X001409Y012345D01*
X001465Y012304D01*
X001526Y012273D01*
X001592Y012251D01*
X001660Y012241D01*
X001953Y012241D01*
X001953Y012637D01*
X002035Y012637D01*
X002035Y012241D01*
X002329Y012241D01*
X002397Y012251D01*
X002462Y012273D01*
X002524Y012304D01*
X002580Y012345D01*
X002628Y012393D01*
X002669Y012449D01*
X002700Y012510D01*
X002721Y012576D01*
X002731Y012637D01*
X002035Y012637D01*
X002035Y012719D01*
X002731Y012719D01*
X002721Y012781D01*
X002700Y012846D01*
X002669Y012908D01*
X002628Y012964D01*
X002580Y013012D01*
X002524Y013053D01*
X002462Y013084D01*
X002397Y013105D01*
X002329Y013116D01*
X002035Y013116D01*
X002035Y012719D01*
X001953Y012719D01*
X001953Y013116D01*
X001660Y013116D01*
X001592Y013105D01*
X001526Y013084D01*
X001465Y013053D01*
X001409Y013012D01*
X001408Y013011D01*
X001408Y013346D01*
X001446Y013307D01*
X001607Y013241D01*
X002381Y013241D01*
X002542Y013307D01*
X002665Y013430D01*
X002732Y013591D01*
X002732Y013766D01*
X004053Y013766D01*
X004053Y013882D02*
X002684Y013882D01*
X002665Y013926D02*
X002542Y014050D01*
X002381Y014116D01*
X001607Y014116D01*
X001446Y014050D01*
X001408Y014011D01*
X001408Y014346D01*
X001446Y014307D01*
X001607Y014241D01*
X002381Y014241D01*
X002542Y014307D01*
X002665Y014430D01*
X002732Y014591D01*
X002732Y014766D01*
X002665Y014926D01*
X002542Y015050D01*
X002381Y015116D01*
X001607Y015116D01*
X001446Y015050D01*
X001408Y015011D01*
X001408Y015077D01*
X001978Y015647D01*
X001962Y015631D02*
X003260Y015631D01*
X003207Y015515D02*
X001846Y015515D01*
X001729Y015398D02*
X003207Y015398D01*
X003207Y015282D02*
X001613Y015282D01*
X001496Y015165D02*
X003207Y015165D01*
X003288Y015068D02*
X003599Y015068D01*
X003288Y015068D01*
X003268Y015048D02*
X002544Y015048D01*
X002660Y014932D02*
X003207Y014932D01*
X003207Y014815D02*
X002712Y014815D01*
X002732Y014699D02*
X003207Y014699D01*
X003207Y014582D02*
X002728Y014582D01*
X002680Y014465D02*
X003275Y014465D01*
X003207Y014349D02*
X002584Y014349D01*
X002593Y013999D02*
X003207Y013999D01*
X003207Y014115D02*
X002383Y014115D01*
X002665Y013926D02*
X002732Y013766D01*
X002732Y013649D02*
X004053Y013649D01*
X004053Y013532D02*
X002708Y013532D01*
X002651Y013416D02*
X004053Y013416D01*
X004053Y013299D02*
X002523Y013299D01*
X002498Y013066D02*
X003545Y013066D01*
X003703Y013066D02*
X003782Y013066D01*
X003782Y013075D02*
X003906Y013075D01*
X003956Y013061D01*
X004001Y013036D01*
X004038Y012999D01*
X004064Y012954D01*
X004077Y012904D01*
X004077Y012780D01*
X003782Y012780D01*
X003782Y013075D01*
X003782Y012949D02*
X003703Y012949D01*
X003703Y012833D02*
X003782Y012833D01*
X003880Y012602D02*
X003604Y012602D01*
X003604Y012878D01*
X003880Y012878D01*
X003880Y012602D01*
X003880Y012719D02*
X003604Y012719D01*
X003604Y012836D02*
X003880Y012836D01*
X003782Y012716D02*
X004552Y012716D01*
X004435Y012833D02*
X004077Y012833D01*
X004065Y012949D02*
X004318Y012949D01*
X004202Y013066D02*
X003939Y013066D01*
X004085Y013183D02*
X001408Y013183D01*
X001408Y013299D02*
X001466Y013299D01*
X001491Y013066D02*
X001408Y013066D01*
X000935Y013066D02*
X000646Y013066D01*
X000646Y013183D02*
X000935Y013183D01*
X000935Y013299D02*
X000646Y013299D01*
X000646Y013416D02*
X000935Y013416D01*
X000935Y013532D02*
X000646Y013532D01*
X000646Y013649D02*
X000935Y013649D01*
X000935Y013766D02*
X000646Y013766D01*
X000646Y013882D02*
X000935Y013882D01*
X000935Y013999D02*
X000646Y013999D01*
X000646Y014115D02*
X000935Y014115D01*
X000935Y014232D02*
X000646Y014232D01*
X000646Y014349D02*
X000935Y014349D01*
X000935Y014465D02*
X000646Y014465D01*
X000646Y014582D02*
X000935Y014582D01*
X000935Y014699D02*
X000646Y014699D01*
X000646Y014815D02*
X000935Y014815D01*
X000935Y014932D02*
X000646Y014932D01*
X000646Y015048D02*
X000935Y015048D01*
X000935Y015165D02*
X000646Y015165D01*
X000646Y015282D02*
X000944Y015282D01*
X001061Y015398D02*
X000646Y015398D01*
X000646Y015515D02*
X001178Y015515D01*
X001294Y015631D02*
X000646Y015631D01*
X001408Y015048D02*
X001445Y015048D01*
X001408Y014232D02*
X003207Y014232D01*
X003599Y014478D02*
X003677Y014399D01*
X003739Y014399D01*
X003759Y014419D01*
X004055Y014419D01*
X004114Y014478D01*
X004425Y014478D01*
X004506Y014558D01*
X004506Y014876D01*
X004671Y014711D01*
X004671Y013264D01*
X004526Y013410D01*
X004526Y014280D01*
X004506Y014300D01*
X004506Y014397D01*
X004425Y014478D01*
X004114Y014478D01*
X004036Y014556D01*
X003857Y014556D01*
X003857Y014773D01*
X003857Y014773D01*
X003857Y014989D01*
X004036Y014989D01*
X004114Y015068D01*
X004314Y015068D01*
X004314Y015068D01*
X004114Y015068D01*
X004055Y015127D01*
X003759Y015127D01*
X003739Y015147D01*
X003677Y015147D01*
X003599Y015068D01*
X003677Y014989D01*
X003857Y014989D01*
X003857Y014773D01*
X003857Y014773D01*
X003857Y014556D01*
X003677Y014556D01*
X003599Y014478D01*
X003611Y014465D02*
X004102Y014465D01*
X003857Y014582D02*
X003857Y014582D01*
X003857Y014699D02*
X003857Y014699D01*
X003857Y014815D02*
X003857Y014815D01*
X003857Y014932D02*
X003857Y014932D01*
X003619Y015048D02*
X004095Y015048D01*
X004506Y014815D02*
X004567Y014815D01*
X004506Y014699D02*
X004671Y014699D01*
X004671Y014582D02*
X004506Y014582D01*
X004438Y014465D02*
X004671Y014465D01*
X004671Y014349D02*
X004506Y014349D01*
X004526Y014232D02*
X004671Y014232D01*
X004671Y014115D02*
X004526Y014115D01*
X004526Y013999D02*
X004671Y013999D01*
X004671Y013882D02*
X004526Y013882D01*
X004526Y013766D02*
X004671Y013766D01*
X004671Y013649D02*
X004526Y013649D01*
X004526Y013532D02*
X004671Y013532D01*
X004671Y013416D02*
X004526Y013416D01*
X004637Y013299D02*
X004671Y013299D01*
X004842Y012366D02*
X003980Y012366D01*
X004077Y012250D02*
X004842Y012250D01*
X004842Y011757D02*
X004526Y011757D01*
X004526Y010754D01*
X004337Y010565D01*
X004198Y010426D01*
X004101Y010426D01*
X004101Y010409D01*
X004020Y010328D01*
X003473Y010328D01*
X003392Y010409D01*
X003392Y010917D01*
X003473Y010997D01*
X004020Y010997D01*
X004053Y010964D01*
X004053Y011031D01*
X004020Y010997D01*
X003473Y010997D01*
X003392Y011078D01*
X003392Y011586D01*
X003473Y011667D01*
X003506Y011667D01*
X003455Y011783D02*
X002725Y011783D01*
X002676Y011900D02*
X003408Y011900D01*
X003408Y012016D02*
X002575Y012016D01*
X002601Y012366D02*
X003505Y012366D01*
X003446Y012483D02*
X002686Y012483D01*
X002725Y012600D02*
X003408Y012600D01*
X003408Y012833D02*
X002705Y012833D01*
X002639Y012949D02*
X003420Y012949D01*
X003703Y012716D02*
X002035Y012716D01*
X002035Y012600D02*
X001953Y012600D01*
X001953Y012483D02*
X002035Y012483D01*
X002035Y012366D02*
X001953Y012366D01*
X001953Y012250D02*
X002035Y012250D01*
X002386Y012250D02*
X003408Y012250D01*
X003408Y012133D02*
X001408Y012133D01*
X001408Y012016D02*
X001413Y012016D01*
X001408Y012250D02*
X001603Y012250D01*
X001953Y012833D02*
X002035Y012833D01*
X002035Y012949D02*
X001953Y012949D01*
X001953Y013066D02*
X002035Y013066D01*
X001605Y014115D02*
X001408Y014115D01*
X000935Y012949D02*
X000646Y012949D01*
X000646Y012833D02*
X000935Y012833D01*
X000935Y012716D02*
X000646Y012716D01*
X000646Y012600D02*
X000935Y012600D01*
X000935Y012483D02*
X000646Y012483D01*
X000646Y012366D02*
X000935Y012366D01*
X000935Y012250D02*
X000646Y012250D01*
X000646Y012133D02*
X000935Y012133D01*
X000935Y012016D02*
X000646Y012016D01*
X000646Y011900D02*
X000935Y011900D01*
X000935Y011783D02*
X000646Y011783D01*
X000646Y011667D02*
X000935Y011667D01*
X000935Y011550D02*
X000646Y011550D01*
X000646Y011433D02*
X000935Y011433D01*
X000935Y011317D02*
X000646Y011317D01*
X000646Y011200D02*
X000935Y011200D01*
X000935Y011084D02*
X000646Y011084D01*
X000646Y010967D02*
X000935Y010967D01*
X000935Y010850D02*
X000646Y010850D01*
X000646Y010734D02*
X000935Y010734D01*
X000935Y010617D02*
X000646Y010617D01*
X000646Y010501D02*
X000935Y010501D01*
X000935Y010384D02*
X000646Y010384D01*
X000646Y010267D02*
X000935Y010267D01*
X000935Y010151D02*
X000646Y010151D01*
X000646Y010034D02*
X000935Y010034D01*
X000935Y009917D02*
X000646Y009917D01*
X000646Y009801D02*
X000935Y009801D01*
X000935Y009684D02*
X000646Y009684D01*
X000646Y009568D02*
X000935Y009568D01*
X000935Y009451D02*
X000646Y009451D01*
X000646Y009334D02*
X000935Y009334D01*
X000935Y009218D02*
X000646Y009218D01*
X000646Y009101D02*
X000924Y009101D01*
X000935Y008985D02*
X000646Y008985D01*
X000646Y008868D02*
X001038Y008868D01*
X001395Y008518D02*
X000646Y008518D01*
X000646Y008402D02*
X001486Y008402D01*
X001695Y008285D02*
X000646Y008285D01*
X000646Y008168D02*
X004274Y008168D01*
X004205Y008285D02*
X002474Y008285D01*
X002472Y008160D02*
X001698Y008160D01*
X001537Y008093D01*
X001414Y007970D01*
X001347Y007809D01*
X001347Y007635D01*
X001414Y007474D01*
X001537Y007351D01*
X001698Y007284D01*
X002472Y007284D01*
X002633Y007351D01*
X002756Y007474D01*
X002823Y007635D01*
X002823Y007809D01*
X002756Y007970D01*
X002633Y008093D01*
X002472Y008160D01*
X002674Y008052D02*
X004871Y008052D01*
X004871Y007935D02*
X002770Y007935D01*
X002819Y007818D02*
X004871Y007818D01*
X004871Y007702D02*
X002823Y007702D01*
X002802Y007585D02*
X004871Y007585D01*
X004871Y007469D02*
X002751Y007469D01*
X002634Y007352D02*
X004871Y007352D01*
X004890Y007235D02*
X000646Y007235D01*
X000646Y007119D02*
X004491Y007119D01*
X004471Y007002D02*
X000646Y007002D01*
X000646Y006886D02*
X004471Y006886D01*
X004471Y006769D02*
X000646Y006769D01*
X000646Y006652D02*
X004471Y006652D01*
X004471Y006536D02*
X001973Y006536D01*
X001980Y006533D02*
X001864Y006581D01*
X001739Y006581D01*
X001622Y006533D01*
X001534Y006444D01*
X001486Y006328D01*
X001486Y006202D01*
X001534Y006086D01*
X001622Y005997D01*
X001739Y005949D01*
X001864Y005949D01*
X001980Y005997D01*
X002069Y006086D01*
X002117Y006202D01*
X002117Y006328D01*
X002069Y006444D01*
X001980Y006533D01*
X002080Y006419D02*
X002985Y006419D01*
X002947Y006381D02*
X002899Y006265D01*
X002899Y006139D01*
X002947Y006023D01*
X003036Y005934D01*
X003152Y005886D01*
X003278Y005886D01*
X003394Y005934D01*
X003483Y006023D01*
X003531Y006139D01*
X003531Y006265D01*
X003483Y006381D01*
X003394Y006470D01*
X003278Y006518D01*
X003152Y006518D01*
X003036Y006470D01*
X002947Y006381D01*
X002914Y006303D02*
X002117Y006303D01*
X002111Y006186D02*
X002899Y006186D01*
X002928Y006069D02*
X002052Y006069D01*
X001873Y005953D02*
X003017Y005953D01*
X003043Y005603D02*
X000646Y005603D01*
X000646Y005720D02*
X004341Y005720D01*
X004285Y005603D02*
X003702Y005603D01*
X003372Y005324D02*
X004508Y005324D01*
X004666Y005482D01*
X004668Y005482D01*
X004668Y007017D01*
X005618Y007017D01*
X005618Y007697D01*
X005371Y007702D02*
X005366Y007702D01*
X005366Y007697D02*
X005366Y008105D01*
X005357Y008140D01*
X005353Y008147D01*
X005374Y008147D01*
X005371Y008144D01*
X005371Y007250D01*
X005406Y007214D01*
X005330Y007214D01*
X005339Y007222D01*
X005357Y007253D01*
X005366Y007288D01*
X005366Y007697D01*
X005118Y007697D01*
X005118Y007697D01*
X005366Y007697D01*
X005366Y007585D02*
X005371Y007585D01*
X005366Y007469D02*
X005371Y007469D01*
X005366Y007352D02*
X005371Y007352D01*
X005385Y007235D02*
X005346Y007235D01*
X005441Y006769D02*
X005890Y006769D01*
X005806Y006652D02*
X005525Y006652D01*
X005563Y006536D02*
X005771Y006536D01*
X005768Y006461D02*
X005768Y006442D01*
X005783Y006366D01*
X005813Y006293D01*
X005857Y006228D01*
X005912Y006173D01*
X005977Y006129D01*
X006050Y006099D01*
X006126Y006084D01*
X006145Y006084D01*
X006145Y006461D01*
X005768Y006461D01*
X005772Y006419D02*
X005563Y006419D01*
X005522Y006303D02*
X005809Y006303D01*
X005899Y006186D02*
X005433Y006186D01*
X005482Y005836D02*
X004864Y005836D01*
X004990Y005720D02*
X005341Y005720D01*
X005285Y005603D02*
X005046Y005603D01*
X005063Y005486D02*
X005268Y005486D01*
X005281Y005370D02*
X005050Y005370D01*
X005000Y005253D02*
X005332Y005253D01*
X005459Y005136D02*
X004872Y005136D01*
X004442Y004787D02*
X005487Y004787D01*
X005481Y004903D02*
X004358Y004903D01*
X004468Y004670D02*
X005494Y004670D01*
X005500Y004553D02*
X004448Y004553D01*
X004331Y004395D02*
X004215Y004347D01*
X004089Y004347D01*
X003973Y004395D01*
X003910Y004458D01*
X003727Y004458D01*
X003727Y004401D01*
X003646Y004320D01*
X003727Y004437D02*
X003931Y004437D01*
X004144Y004655D02*
X004152Y004663D01*
X004144Y004655D02*
X003372Y004655D01*
X003018Y004670D02*
X001857Y004670D01*
X001857Y004784D02*
X001777Y004864D01*
X001062Y004864D01*
X000982Y004784D01*
X000982Y004069D01*
X001062Y003989D01*
X001777Y003989D01*
X001857Y004069D01*
X001857Y004784D01*
X001854Y004787D02*
X003018Y004787D01*
X003018Y004903D02*
X000646Y004903D01*
X000646Y004787D02*
X000985Y004787D01*
X000982Y004670D02*
X000646Y004670D01*
X000646Y004553D02*
X000982Y004553D01*
X000982Y004437D02*
X000646Y004437D01*
X000646Y004320D02*
X000982Y004320D01*
X000982Y004204D02*
X000646Y004204D01*
X000646Y004087D02*
X000982Y004087D01*
X001066Y003855D02*
X001035Y003837D01*
X001009Y003811D01*
X000991Y003780D01*
X000982Y003745D01*
X000982Y003467D01*
X001379Y003467D01*
X001379Y003864D01*
X001101Y003864D01*
X001066Y003855D01*
X001064Y003854D02*
X000646Y003854D01*
X000646Y003970D02*
X003806Y003970D01*
X003919Y004087D02*
X001857Y004087D01*
X001857Y004204D02*
X005392Y004204D01*
X005498Y003621D02*
X004125Y003621D01*
X004008Y003504D02*
X009681Y003504D01*
X009565Y003621D02*
X009440Y003621D01*
X009143Y003621D02*
X006928Y003621D01*
X007111Y003970D02*
X008894Y003970D01*
X008901Y004087D02*
X007092Y004087D01*
X007034Y004204D02*
X008950Y004204D01*
X009060Y004320D02*
X006887Y004320D01*
X006538Y004320D02*
X005985Y004320D01*
X005979Y004437D02*
X009244Y004437D01*
X008985Y004553D02*
X008889Y004553D01*
X008698Y004553D02*
X007974Y004553D01*
X007998Y004578D02*
X008046Y004694D01*
X008046Y004820D01*
X007998Y004936D01*
X007909Y005025D01*
X007793Y005073D01*
X007668Y005073D01*
X007552Y005025D01*
X007463Y004936D01*
X007415Y004820D01*
X007415Y004694D01*
X007463Y004578D01*
X007552Y004489D01*
X007668Y004441D01*
X007793Y004441D01*
X007909Y004489D01*
X007998Y004578D01*
X008036Y004670D02*
X008532Y004670D01*
X008480Y004787D02*
X008046Y004787D01*
X008012Y004903D02*
X008478Y004903D01*
X008520Y005020D02*
X007915Y005020D01*
X007546Y005020D02*
X005948Y005020D01*
X005944Y005136D02*
X008646Y005136D01*
X008459Y005720D02*
X011261Y005720D01*
X011449Y005953D02*
X010480Y005953D01*
X010607Y006069D02*
X011481Y006069D01*
X011547Y006186D02*
X010649Y006186D01*
X010646Y006303D02*
X011699Y006303D01*
X011653Y006536D02*
X010429Y006536D01*
X010594Y006419D02*
X012620Y006419D01*
X012721Y006536D02*
X012737Y006536D01*
X012844Y006652D02*
X012853Y006652D01*
X012903Y006769D02*
X012970Y006769D01*
X012228Y006769D02*
X012146Y006769D01*
X012146Y006652D02*
X012228Y006652D01*
X012228Y006536D02*
X012146Y006536D01*
X012146Y007002D02*
X012228Y007002D01*
X012228Y007119D02*
X012146Y007119D01*
X012146Y007235D02*
X012228Y007235D01*
X012718Y008285D02*
X012767Y008285D01*
X014864Y010967D02*
X016763Y010967D01*
X016536Y011084D02*
X014864Y011084D01*
X014864Y011200D02*
X016420Y011200D01*
X016332Y011317D02*
X014864Y011317D01*
X014864Y011433D02*
X016284Y011433D01*
X016236Y011550D02*
X014864Y011550D01*
X014864Y011667D02*
X016233Y011667D01*
X016233Y011783D02*
X014864Y011783D01*
X014864Y011900D02*
X016245Y011900D01*
X016293Y012016D02*
X014864Y012016D01*
X014864Y012133D02*
X016342Y012133D01*
X016442Y012250D02*
X014864Y012250D01*
X014864Y012366D02*
X016559Y012366D01*
X016817Y012483D02*
X014864Y012483D01*
X013416Y014115D02*
X012185Y014115D01*
X012191Y013999D02*
X012687Y013999D01*
X013385Y014815D02*
X014671Y014815D01*
X014586Y014932D02*
X013268Y014932D01*
X013151Y015048D02*
X014560Y015048D01*
X014579Y015165D02*
X013035Y015165D01*
X012918Y015282D02*
X014655Y015282D01*
X015192Y015048D02*
X016681Y015048D01*
X016595Y014932D02*
X015167Y014932D01*
X015082Y014815D02*
X016568Y014815D01*
X016586Y014699D02*
X013501Y014699D01*
X012685Y015515D02*
X018044Y015515D01*
X018044Y015631D02*
X009591Y015631D01*
X009506Y015748D02*
X018044Y015748D01*
X014620Y017031D02*
X013612Y017031D01*
X013729Y017147D02*
X014547Y017147D01*
X014529Y017264D02*
X013792Y017264D01*
X013840Y017381D02*
X014556Y017381D01*
X011719Y014115D02*
X011601Y014115D01*
X011601Y013999D02*
X011719Y013999D01*
X011719Y013882D02*
X011601Y013882D01*
X011601Y013766D02*
X010065Y013766D01*
X010065Y013882D02*
X011128Y013882D01*
X011128Y013999D02*
X010065Y013999D01*
X010065Y014115D02*
X011134Y014115D01*
X011128Y013702D02*
X011128Y013428D01*
X011138Y013393D01*
X011156Y013362D01*
X011181Y013336D01*
X011213Y013318D01*
X011248Y013308D01*
X011601Y013308D01*
X011601Y013702D01*
X011128Y013702D01*
X011128Y013649D02*
X010065Y013649D01*
X010065Y013532D02*
X011128Y013532D01*
X011131Y013416D02*
X010065Y013416D01*
X010197Y013183D02*
X009289Y013183D01*
X009406Y013299D02*
X010341Y013299D01*
X011601Y013416D02*
X011719Y013416D01*
X011719Y013532D02*
X011601Y013532D01*
X011601Y013649D02*
X011719Y013649D01*
X011199Y011550D02*
X010136Y011550D01*
X010136Y011433D02*
X011199Y011433D01*
X011199Y011317D02*
X010136Y011317D01*
X010093Y011200D02*
X011242Y011200D01*
X009589Y009675D02*
X009483Y009781D01*
X009589Y009675D02*
X009589Y007863D01*
X008884Y007919D02*
X008880Y009175D01*
X008797Y009643D01*
X008328Y010267D02*
X008270Y010267D01*
X008270Y010384D02*
X008444Y010384D01*
X008561Y010501D02*
X008270Y010501D01*
X008270Y010617D02*
X008848Y010617D01*
X007569Y011202D02*
X006475Y011202D01*
X006447Y011175D01*
X006447Y010469D01*
X006132Y010469D02*
X006132Y009637D01*
X006118Y009637D01*
X005809Y010182D02*
X005817Y010190D01*
X005817Y010469D01*
X005809Y010182D02*
X005238Y010182D01*
X005124Y010068D01*
X005124Y009643D01*
X005118Y009637D01*
X004750Y010025D02*
X004750Y009072D01*
X005026Y008797D01*
X006557Y008797D01*
X006636Y008875D01*
X006636Y009461D01*
X006618Y009637D01*
X006644Y010967D02*
X007357Y010967D01*
X007569Y011749D02*
X006526Y011749D01*
X006038Y011371D01*
X005230Y011371D01*
X005230Y011686D02*
X005293Y011749D01*
X005872Y011749D01*
X006585Y012320D01*
X007620Y012324D01*
X007451Y012600D02*
X005617Y012600D01*
X005617Y012716D02*
X007343Y012716D01*
X007304Y012833D02*
X006636Y012833D01*
X006774Y012949D02*
X007208Y012949D01*
X007156Y013066D02*
X006818Y013066D01*
X006899Y013183D02*
X007156Y013183D01*
X007156Y013299D02*
X006943Y013299D01*
X006943Y013416D02*
X007156Y013416D01*
X007077Y013532D02*
X007077Y013532D01*
X007077Y013649D02*
X007077Y013649D01*
X007077Y013766D02*
X007077Y013766D01*
X006762Y013849D02*
X006746Y013833D01*
X006746Y013308D01*
X006557Y013119D01*
X006502Y013119D01*
X006392Y013416D02*
X006053Y013416D01*
X006131Y013299D02*
X006235Y013299D01*
X006186Y013183D02*
X006180Y013183D01*
X006180Y013066D02*
X006186Y013066D01*
X006231Y012949D02*
X006136Y012949D01*
X005998Y012833D02*
X006369Y012833D01*
X006469Y012483D02*
X006054Y012483D01*
X006141Y012366D02*
X006328Y012366D01*
X006182Y012250D02*
X006169Y012250D01*
X005731Y012833D02*
X005617Y012833D01*
X006447Y013849D02*
X006420Y013876D01*
X006420Y014430D01*
X005927Y014923D01*
X005927Y016100D01*
X005712Y016331D02*
X005300Y016331D01*
X005406Y016214D02*
X005633Y016214D01*
X005611Y016098D02*
X005444Y016098D01*
X005437Y015981D02*
X005635Y015981D01*
X005716Y015865D02*
X005379Y015865D01*
X005200Y015748D02*
X005731Y015748D01*
X005731Y015631D02*
X005088Y015631D01*
X005057Y015748D02*
X004971Y015748D01*
X004877Y015865D02*
X004855Y015865D01*
X004819Y015981D02*
X004738Y015981D01*
X004812Y016098D02*
X004622Y016098D01*
X005205Y015515D02*
X005731Y015515D01*
X005731Y015398D02*
X005321Y015398D01*
X005438Y015282D02*
X005731Y015282D01*
X005731Y015165D02*
X005554Y015165D01*
X005644Y015048D02*
X005731Y015048D01*
X005731Y014932D02*
X005644Y014932D01*
X005644Y014815D02*
X005756Y014815D01*
X005644Y014699D02*
X005873Y014699D01*
X005990Y014582D02*
X005644Y014582D01*
X005644Y014465D02*
X006106Y014465D01*
X006223Y014349D02*
X005651Y014349D01*
X006197Y014932D02*
X006549Y014932D01*
X006549Y014815D02*
X006313Y014815D01*
X006430Y014699D02*
X006549Y014699D01*
X006546Y014582D02*
X006549Y014582D01*
X006622Y015048D02*
X006124Y015048D01*
X006124Y015165D02*
X006549Y015165D01*
X006549Y015282D02*
X006124Y015282D01*
X006124Y015398D02*
X006549Y015398D01*
X006549Y015515D02*
X006124Y015515D01*
X006124Y015631D02*
X006552Y015631D01*
X006754Y015748D02*
X006124Y015748D01*
X006139Y015865D02*
X006754Y015865D01*
X006714Y015981D02*
X006220Y015981D01*
X006243Y016098D02*
X006656Y016098D01*
X006656Y016214D02*
X006222Y016214D01*
X006143Y016331D02*
X006656Y016331D01*
X006852Y016120D02*
X007128Y016120D01*
X006852Y016120D02*
X006852Y016396D01*
X007128Y016396D01*
X007128Y016120D01*
X007128Y016237D02*
X006852Y016237D01*
X006852Y016354D02*
X007128Y016354D01*
X007325Y016331D02*
X007790Y016331D01*
X007790Y016214D02*
X007325Y016214D01*
X007325Y016098D02*
X007813Y016098D01*
X007876Y015981D02*
X007267Y015981D01*
X007227Y015865D02*
X007876Y015865D01*
X007767Y015748D02*
X007227Y015748D01*
X007256Y015631D02*
X007699Y015631D01*
X007699Y015515D02*
X007258Y015515D01*
X007258Y015398D02*
X007699Y015398D01*
X007699Y015282D02*
X007258Y015282D01*
X007258Y015165D02*
X007707Y015165D01*
X007736Y015048D02*
X007185Y015048D01*
X007258Y014932D02*
X007699Y014932D01*
X007699Y014815D02*
X007258Y014815D01*
X007258Y014699D02*
X007699Y014699D01*
X008112Y016072D02*
X008124Y016084D01*
X008124Y016341D01*
X008262Y016203D02*
X007986Y016203D01*
X007986Y016479D01*
X008262Y016479D01*
X008262Y016203D01*
X008262Y016320D02*
X007986Y016320D01*
X007986Y016437D02*
X008262Y016437D01*
X008164Y016797D02*
X008085Y016797D01*
X008085Y016914D02*
X008164Y016914D01*
X008164Y017264D02*
X008085Y017264D01*
X007794Y016564D02*
X007238Y016564D01*
X007325Y016448D02*
X007790Y016448D01*
X007030Y016681D02*
X006951Y016681D01*
X006951Y016797D02*
X007030Y016797D01*
X005900Y017552D02*
X005837Y017615D01*
X005376Y017615D01*
X005731Y017847D02*
X005785Y017847D01*
X007275Y018197D02*
X008120Y018197D01*
X008120Y018313D02*
X007340Y018313D01*
X008120Y018452D02*
X008183Y018515D01*
X008174Y018521D01*
X008148Y018547D01*
X005144Y020646D02*
X004522Y020646D01*
X004522Y020762D02*
X005144Y020762D01*
X005144Y020879D02*
X004522Y020879D01*
X004517Y020995D02*
X005144Y020995D01*
X005194Y021112D02*
X002721Y021112D01*
X002747Y020995D02*
X002952Y020995D01*
X002947Y020879D02*
X002729Y020879D01*
X002655Y020762D02*
X002947Y020762D01*
X002635Y021229D02*
X018044Y021229D01*
X018044Y021345D02*
X000646Y021345D01*
X000646Y021229D02*
X002228Y021229D01*
X001471Y020995D02*
X001353Y020995D01*
X001353Y020879D02*
X001471Y020879D01*
X001471Y020762D02*
X001353Y020762D01*
X001353Y020646D02*
X001471Y020646D01*
X000782Y020412D02*
X000646Y020412D01*
X000646Y020296D02*
X000782Y020296D01*
X000782Y020179D02*
X000646Y020179D01*
X000646Y020063D02*
X000833Y020063D01*
X000646Y019946D02*
X002385Y019946D01*
X002291Y019829D02*
X000646Y019829D01*
X000646Y019713D02*
X002257Y019713D01*
X002263Y019596D02*
X000646Y019596D01*
X000646Y019480D02*
X002316Y019480D01*
X002476Y019363D02*
X000646Y019363D01*
X000646Y019246D02*
X003026Y019246D01*
X003026Y019130D02*
X000646Y019130D01*
X000646Y019013D02*
X003026Y019013D01*
X003026Y018896D02*
X000646Y018896D01*
X000646Y018780D02*
X003026Y018780D01*
X003026Y018663D02*
X000646Y018663D01*
X000646Y018547D02*
X003026Y018547D01*
X003026Y018430D02*
X000646Y018430D01*
X000646Y018313D02*
X003030Y018313D01*
X003026Y018197D02*
X002818Y018197D01*
X002901Y018080D02*
X003026Y018080D01*
X003026Y018182D02*
X003774Y018182D01*
X003774Y017946D01*
X003774Y018182D01*
X003774Y018182D01*
X003774Y018182D01*
X003026Y018182D01*
X003096Y017964D02*
X002929Y017964D01*
X002368Y018197D02*
X000646Y018197D01*
X000646Y018080D02*
X002284Y018080D01*
X002257Y017964D02*
X000646Y017964D01*
X000646Y017847D02*
X002270Y017847D01*
X002333Y017730D02*
X000646Y017730D01*
X002710Y019363D02*
X003026Y019363D01*
X003026Y019480D02*
X002869Y019480D01*
X002923Y019596D02*
X003026Y019596D01*
X003675Y020063D02*
X003794Y020063D01*
X003794Y020179D02*
X003675Y020179D01*
X003675Y020296D02*
X003794Y020296D01*
X003794Y020646D02*
X003675Y020646D01*
X003675Y020762D02*
X003794Y020762D01*
X003794Y020879D02*
X003675Y020879D01*
X003675Y020995D02*
X003794Y020995D01*
X003774Y018080D02*
X003774Y018080D01*
X003774Y017964D02*
X003774Y017964D01*
X003794Y017497D02*
X003675Y017497D01*
X003675Y017381D02*
X003794Y017381D01*
X003794Y017264D02*
X003675Y017264D01*
X003675Y016914D02*
X003794Y016914D01*
X003794Y016797D02*
X003675Y016797D01*
X003675Y016681D02*
X003794Y016681D01*
X003794Y016564D02*
X003675Y016564D01*
X003703Y012600D02*
X003782Y012600D01*
X003782Y012483D02*
X003703Y012483D01*
X003604Y011912D02*
X003880Y011912D01*
X003604Y011912D02*
X003604Y012188D01*
X003880Y012188D01*
X003880Y011912D01*
X003880Y012029D02*
X003604Y012029D01*
X003604Y012146D02*
X003880Y012146D01*
X004077Y012133D02*
X004209Y012133D01*
X004093Y012016D02*
X004077Y012016D01*
X004526Y011667D02*
X004842Y011667D01*
X004842Y011757D02*
X004842Y010889D01*
X004922Y010809D01*
X005033Y010809D01*
X005033Y010586D01*
X004669Y010222D01*
X004553Y010106D01*
X004553Y008991D01*
X004829Y008715D01*
X004925Y008619D01*
X004717Y008619D01*
X004685Y008651D01*
X004569Y008699D01*
X004443Y008699D01*
X004327Y008651D01*
X004220Y008518D02*
X002774Y008518D01*
X002823Y008635D02*
X002823Y008809D01*
X002756Y008970D01*
X002633Y009093D01*
X002472Y009160D01*
X001698Y009160D01*
X001598Y009118D01*
X001596Y009119D01*
X001511Y009163D01*
X001509Y009163D01*
X001408Y009214D01*
X001408Y009488D01*
X001414Y009474D01*
X001537Y009351D01*
X001698Y009284D01*
X002472Y009284D01*
X002633Y009351D01*
X002756Y009474D01*
X002823Y009635D01*
X002823Y009809D01*
X002756Y009970D01*
X002633Y010093D01*
X002472Y010160D01*
X002231Y010160D01*
X002231Y011241D01*
X002381Y011241D01*
X002542Y011307D01*
X002665Y011430D01*
X002732Y011591D01*
X002715Y011550D02*
X003392Y011550D01*
X003392Y011433D02*
X002667Y011433D01*
X002552Y011317D02*
X003392Y011317D01*
X003392Y011200D02*
X002231Y011200D01*
X002231Y011084D02*
X003392Y011084D01*
X003442Y010967D02*
X002231Y010967D01*
X002231Y010850D02*
X003392Y010850D01*
X003392Y010734D02*
X002231Y010734D01*
X002231Y010617D02*
X003392Y010617D01*
X003392Y010501D02*
X002231Y010501D01*
X002231Y010384D02*
X003417Y010384D01*
X003599Y009797D02*
X003715Y009845D01*
X003841Y009845D01*
X003957Y009797D01*
X004046Y009708D01*
X004094Y009592D01*
X004094Y009466D01*
X004046Y009350D01*
X003957Y009261D01*
X003841Y009213D01*
X003715Y009213D01*
X003599Y009261D01*
X003510Y009350D01*
X003462Y009466D01*
X003462Y009592D01*
X003510Y009708D01*
X003599Y009797D01*
X003609Y009801D02*
X002823Y009801D01*
X002823Y009684D02*
X003500Y009684D01*
X003462Y009568D02*
X002795Y009568D01*
X002733Y009451D02*
X003468Y009451D01*
X003525Y009334D02*
X002594Y009334D01*
X002613Y009101D02*
X004553Y009101D01*
X004559Y008985D02*
X002741Y008985D01*
X002798Y008868D02*
X004676Y008868D01*
X004793Y008751D02*
X002823Y008751D01*
X002684Y008402D02*
X004190Y008402D01*
X004701Y008635D02*
X004909Y008635D01*
X004553Y009218D02*
X003852Y009218D01*
X003703Y009218D02*
X001408Y009218D01*
X001408Y009334D02*
X001576Y009334D01*
X001436Y009451D02*
X001408Y009451D01*
X002231Y010267D02*
X004714Y010267D01*
X004598Y010151D02*
X002493Y010151D01*
X002692Y010034D02*
X004553Y010034D01*
X004553Y009917D02*
X002778Y009917D01*
X003947Y009801D02*
X004553Y009801D01*
X004553Y009684D02*
X004055Y009684D01*
X004094Y009568D02*
X004553Y009568D01*
X004553Y009451D02*
X004088Y009451D01*
X004030Y009334D02*
X004553Y009334D01*
X004750Y010025D02*
X005230Y010504D01*
X005230Y011056D01*
X005033Y010734D02*
X004506Y010734D01*
X004526Y010850D02*
X004881Y010850D01*
X004842Y010967D02*
X004526Y010967D01*
X004526Y011084D02*
X004842Y011084D01*
X004842Y011200D02*
X004526Y011200D01*
X004526Y011317D02*
X004842Y011317D01*
X004842Y011433D02*
X004526Y011433D01*
X004526Y011550D02*
X004842Y011550D01*
X005033Y010617D02*
X004389Y010617D01*
X004273Y010501D02*
X004947Y010501D01*
X004831Y010384D02*
X004076Y010384D01*
X004050Y010967D02*
X004053Y010967D01*
X005366Y008052D02*
X005371Y008052D01*
X005366Y007935D02*
X005371Y007935D01*
X005366Y007818D02*
X005371Y007818D01*
X005866Y007818D02*
X005871Y007818D01*
X005866Y007702D02*
X005871Y007702D01*
X005866Y007585D02*
X005871Y007585D01*
X005866Y007469D02*
X005871Y007469D01*
X005866Y007352D02*
X005871Y007352D01*
X005885Y007235D02*
X005852Y007235D01*
X005815Y007119D02*
X006067Y007119D01*
X006184Y007002D02*
X005815Y007002D01*
X005765Y006886D02*
X006299Y006886D01*
X006187Y006769D02*
X006145Y006769D01*
X006145Y006652D02*
X006187Y006652D01*
X006187Y006536D02*
X006145Y006536D01*
X006145Y006419D02*
X006187Y006419D01*
X006187Y006303D02*
X006145Y006303D01*
X006145Y006186D02*
X006187Y006186D01*
X006525Y006652D02*
X006678Y006652D01*
X006496Y006769D02*
X006441Y006769D01*
X006447Y007017D02*
X006118Y007346D01*
X006118Y007697D01*
X006093Y007371D02*
X006118Y007346D01*
X006447Y007017D02*
X006746Y006966D01*
X005871Y007935D02*
X005866Y007935D01*
X005866Y008052D02*
X005871Y008052D01*
X004471Y006419D02*
X003444Y006419D01*
X003515Y006303D02*
X004471Y006303D01*
X004471Y006186D02*
X003531Y006186D01*
X003502Y006069D02*
X004471Y006069D01*
X004471Y005953D02*
X003412Y005953D01*
X003018Y005486D02*
X000646Y005486D01*
X000646Y005370D02*
X003018Y005370D01*
X003018Y005253D02*
X000646Y005253D01*
X000646Y005136D02*
X003018Y005136D01*
X003068Y005020D02*
X000646Y005020D01*
X000646Y005836D02*
X004471Y005836D01*
X004864Y006186D02*
X004899Y006186D01*
X005475Y005020D02*
X003676Y005020D01*
X003727Y004903D02*
X003946Y004903D01*
X003018Y004553D02*
X001857Y004553D01*
X001857Y004437D02*
X003018Y004437D01*
X003099Y004320D02*
X001857Y004320D01*
X001738Y003864D02*
X001460Y003864D01*
X001460Y003467D01*
X001379Y003467D01*
X001379Y003386D01*
X000982Y003386D01*
X000982Y003108D01*
X000991Y003073D01*
X001009Y003042D01*
X001035Y003016D01*
X001066Y002998D01*
X001101Y002989D01*
X001379Y002989D01*
X001379Y003386D01*
X001460Y003386D01*
X001460Y002989D01*
X001738Y002989D01*
X001773Y002998D01*
X001804Y003016D01*
X001830Y003042D01*
X001848Y003073D01*
X001857Y003108D01*
X001857Y003386D01*
X001460Y003386D01*
X001460Y003467D01*
X001857Y003467D01*
X001857Y003745D01*
X001848Y003780D01*
X001830Y003811D01*
X001804Y003837D01*
X001773Y003855D01*
X001738Y003864D01*
X001775Y003854D02*
X003690Y003854D01*
X003573Y003737D02*
X001857Y003737D01*
X001857Y003621D02*
X003457Y003621D01*
X003066Y003504D02*
X001857Y003504D01*
X001857Y003271D02*
X002998Y003271D01*
X002998Y003387D02*
X001460Y003387D01*
X001379Y003387D02*
X000646Y003387D01*
X000646Y003271D02*
X000982Y003271D01*
X000982Y003154D02*
X000646Y003154D01*
X000646Y003037D02*
X001014Y003037D01*
X001379Y003037D02*
X001460Y003037D01*
X001460Y003154D02*
X001379Y003154D01*
X001379Y003271D02*
X001460Y003271D01*
X001460Y003504D02*
X001379Y003504D01*
X001379Y003621D02*
X001460Y003621D01*
X001460Y003737D02*
X001379Y003737D01*
X001379Y003854D02*
X001460Y003854D01*
X000982Y003737D02*
X000646Y003737D01*
X000646Y003621D02*
X000982Y003621D01*
X000982Y003504D02*
X000646Y003504D01*
X000646Y002921D02*
X002998Y002921D01*
X002998Y003037D02*
X001825Y003037D01*
X001857Y003154D02*
X002998Y003154D01*
X003035Y002804D02*
X000646Y002804D01*
X000646Y002688D02*
X002998Y002688D01*
X002998Y002571D02*
X000646Y002571D01*
X003294Y002338D02*
X003372Y002338D01*
X003372Y002221D02*
X003294Y002221D01*
X005501Y002688D02*
X005925Y002688D01*
X005848Y002804D02*
X005578Y002804D01*
X005611Y002921D02*
X005815Y002921D01*
X005822Y003037D02*
X005611Y003037D01*
X005564Y003154D02*
X005863Y003154D01*
X005959Y003271D02*
X005467Y003271D01*
X005928Y003621D02*
X006498Y003621D01*
X006467Y003271D02*
X008510Y003271D01*
X008454Y003215D02*
X008394Y003069D01*
X008394Y002910D01*
X008454Y002764D01*
X008566Y002652D01*
X008712Y002592D01*
X008871Y002592D01*
X009017Y002652D01*
X009129Y002764D01*
X009189Y002910D01*
X009189Y003069D01*
X009129Y003215D01*
X009017Y003327D01*
X008871Y003387D01*
X008712Y003387D01*
X008566Y003327D01*
X008454Y003215D01*
X008429Y003154D02*
X006563Y003154D01*
X006603Y003037D02*
X008394Y003037D01*
X008394Y002921D02*
X006610Y002921D01*
X006578Y002804D02*
X008438Y002804D01*
X008531Y002688D02*
X006501Y002688D01*
X006234Y002688D02*
X006192Y002688D01*
X006192Y002804D02*
X006234Y002804D01*
X006234Y002921D02*
X006192Y002921D01*
X006192Y003037D02*
X006234Y003037D01*
X006234Y003154D02*
X006192Y003154D01*
X006192Y003271D02*
X006234Y003271D01*
X006050Y003737D02*
X006111Y003883D01*
X006111Y003970D02*
X006315Y003970D01*
X006334Y004087D02*
X006092Y004087D01*
X006034Y004204D02*
X006392Y004204D01*
X005973Y004553D02*
X007488Y004553D01*
X007425Y004670D02*
X005967Y004670D01*
X005960Y004787D02*
X007415Y004787D01*
X007449Y004903D02*
X005954Y004903D01*
X008553Y007702D02*
X008654Y007702D01*
X009073Y003271D02*
X009510Y003271D01*
X009429Y003154D02*
X009154Y003154D01*
X009189Y003037D02*
X009396Y003037D01*
X009400Y002921D02*
X009189Y002921D01*
X009145Y002804D02*
X009438Y002804D01*
X009531Y002688D02*
X009052Y002688D01*
X015870Y010151D02*
X018044Y010151D01*
X018044Y010267D02*
X015913Y010267D01*
X015911Y010384D02*
X018044Y010384D01*
X018044Y010501D02*
X015859Y010501D01*
X001730Y005953D02*
X000646Y005953D01*
X000646Y006069D02*
X001550Y006069D01*
X001492Y006186D02*
X000646Y006186D01*
X000646Y006303D02*
X001486Y006303D01*
X001523Y006419D02*
X000646Y006419D01*
X000646Y006536D02*
X001629Y006536D01*
X001535Y007352D02*
X000646Y007352D01*
X000646Y007469D02*
X001419Y007469D01*
X001368Y007585D02*
X000646Y007585D01*
X000646Y007702D02*
X001347Y007702D01*
X001351Y007818D02*
X000646Y007818D01*
X000646Y007935D02*
X001399Y007935D01*
X001496Y008052D02*
X000646Y008052D01*
D23*
X004666Y005482D03*
X005166Y006482D03*
X005666Y005482D03*
X006166Y006482D03*
X005713Y003962D03*
X006713Y003962D03*
X006213Y002962D03*
X005213Y002962D03*
X008792Y002989D03*
X009292Y003989D03*
X009792Y002989D03*
X010292Y003989D03*
X012776Y002930D03*
X013276Y003930D03*
X014276Y003930D03*
X013776Y002930D03*
D24*
X001420Y003426D03*
X001420Y004426D03*
D25*
X001785Y007722D02*
X002385Y007722D01*
X002385Y008722D02*
X001785Y008722D01*
X001785Y009722D02*
X002385Y009722D01*
X002294Y011678D02*
X001694Y011678D01*
X001694Y012678D02*
X002294Y012678D01*
X002294Y013678D02*
X001694Y013678D01*
X001694Y014678D02*
X002294Y014678D01*
X011887Y008907D02*
X012487Y008907D01*
X012487Y007907D02*
X011887Y007907D01*
X011887Y006907D02*
X012487Y006907D01*
X012487Y005907D02*
X011887Y005907D01*
D26*
X006618Y007697D03*
X006118Y007697D03*
X005618Y007697D03*
X005118Y007697D03*
X005118Y009637D03*
X005618Y009637D03*
X006118Y009637D03*
X006618Y009637D03*
D27*
X007569Y011202D03*
X007569Y011749D03*
X007620Y012324D03*
X007620Y012871D03*
X006502Y013119D03*
X005864Y013119D03*
X005853Y012237D03*
X003778Y009529D03*
X004506Y008383D03*
X003215Y006202D03*
X004152Y004663D03*
X001801Y006265D03*
X006746Y006966D03*
X007551Y006194D03*
X008223Y005509D03*
X008794Y004856D03*
X007731Y004757D03*
X009510Y006194D03*
X010333Y006234D03*
X010927Y004915D03*
X009589Y007863D03*
X008884Y007919D03*
X008278Y007863D03*
X008797Y009643D03*
X009483Y009781D03*
X009372Y010600D03*
X009483Y012572D03*
X010467Y013009D03*
X012652Y012545D03*
X012872Y013737D03*
X014876Y015056D03*
X016884Y014804D03*
X014845Y017253D03*
X014813Y019887D03*
X012057Y016155D03*
X010821Y017714D03*
X009892Y018568D03*
X008880Y017222D03*
X009892Y016757D03*
X006502Y017989D03*
X005900Y017552D03*
X004695Y018344D03*
X005408Y019521D03*
X007384Y020549D03*
X005927Y016100D03*
X005128Y016060D03*
X002892Y016403D03*
X002754Y015253D03*
X001144Y016092D03*
X002431Y020986D03*
X011451Y010682D03*
X012187Y010356D03*
X010959Y008304D03*
X015443Y006549D03*
X016916Y008119D03*
X015597Y010316D03*
X015975Y004478D03*
D28*
X013776Y002930D02*
X013378Y002442D01*
X009849Y002442D01*
X009849Y002932D01*
X009792Y002989D01*
X010077Y003442D02*
X009553Y003966D01*
X009292Y003989D01*
X010077Y003442D02*
X010610Y003442D01*
X012187Y005019D01*
X012187Y005907D01*
X011782Y005907D01*
X011357Y005482D01*
X008223Y005458D01*
X008223Y005509D01*
X008223Y005458D02*
X005666Y005482D01*
X005688Y005463D01*
X005766Y003989D01*
X005713Y003962D02*
X004049Y003879D01*
X003333Y003163D01*
X003317Y003659D02*
X002766Y003659D01*
X002534Y003426D01*
X001420Y003426D01*
X002353Y002493D01*
X003333Y002493D01*
X003384Y002442D01*
X006203Y002442D01*
X009849Y002442D01*
X012187Y005019D02*
X013276Y003930D01*
X012366Y005831D02*
X014628Y008093D01*
X014628Y013237D01*
X012522Y015344D01*
X009270Y015344D01*
X009270Y016190D01*
X009837Y016757D01*
X009892Y016757D01*
X008880Y017222D02*
X008455Y017647D01*
X008455Y018178D01*
X008372Y018765D02*
X008455Y018848D01*
X008455Y019989D01*
X008471Y020005D01*
X009609Y020005D01*
X010620Y020005D01*
X010620Y020675D02*
X010644Y020698D01*
X011148Y020698D01*
X011557Y020289D01*
X011557Y018399D01*
X010872Y017714D01*
X010821Y017714D01*
X008455Y019989D02*
X008431Y020013D01*
X008431Y020682D02*
X009601Y020682D01*
X009609Y020675D01*
X010620Y020675D01*
X008372Y018765D02*
X008049Y018765D01*
X007908Y018623D01*
X007908Y017655D01*
X008124Y017438D01*
X008124Y017032D01*
X007073Y017032D01*
X006990Y016949D01*
X003914Y016949D01*
X003846Y016949D01*
X003734Y017060D01*
X001815Y017060D01*
X001806Y017051D01*
X001806Y020351D01*
X001919Y020464D01*
X003448Y020464D01*
X003778Y019446D02*
X004542Y019446D01*
X005479Y020383D01*
X005479Y020651D01*
X006426Y020351D02*
X007086Y019691D01*
X007086Y018371D01*
X006990Y016258D02*
X006990Y015462D01*
X006904Y015375D01*
X006904Y014706D02*
X007250Y014360D01*
X007707Y014360D01*
X007707Y013849D01*
X007392Y013849D02*
X007392Y013100D01*
X007620Y012871D01*
X007069Y012974D02*
X006727Y012631D01*
X005230Y012631D01*
X004351Y012631D01*
X003742Y012740D01*
X003734Y012748D01*
X003734Y013230D01*
X002947Y014017D01*
X002947Y014741D01*
X002975Y014769D01*
X003853Y014769D01*
X003857Y014773D01*
X003857Y015363D02*
X004353Y015363D01*
X004908Y014808D01*
X004908Y013261D01*
X005230Y013261D01*
X005230Y012946D02*
X004656Y012946D01*
X004290Y013312D01*
X004290Y014182D01*
X003857Y014182D01*
X002947Y014741D02*
X002947Y014769D01*
X002754Y014962D01*
X002754Y015253D01*
X001880Y015883D02*
X004502Y015883D01*
X005408Y014978D01*
X005408Y014258D01*
X005817Y013849D01*
X005817Y013119D01*
X005864Y013119D01*
X005817Y013849D02*
X006132Y013849D01*
X007069Y013841D02*
X007069Y012974D01*
X007069Y013841D02*
X007077Y013849D01*
X008022Y013849D02*
X008053Y013880D01*
X008053Y014757D01*
X008053Y015426D02*
X008112Y015486D01*
X008112Y016072D01*
X009270Y014675D02*
X009616Y014328D01*
X009534Y013761D01*
X009034Y013261D01*
X008610Y013261D01*
X009726Y011771D02*
X009949Y011771D01*
X010443Y012265D01*
X010880Y012265D01*
X011660Y013045D01*
X011660Y013761D01*
X011706Y011771D02*
X011706Y010938D01*
X011451Y010682D01*
X010109Y010729D02*
X010109Y006907D01*
X012187Y006907D01*
X010109Y006907D02*
X007991Y006907D01*
X007746Y007151D01*
X007668Y007198D02*
X007656Y007198D01*
X006912Y006454D01*
X006193Y006454D01*
X006166Y006482D01*
X005658Y005974D01*
X005423Y005974D01*
X005195Y005745D01*
X005195Y004608D01*
X004853Y004265D01*
X003923Y004265D01*
X003317Y003659D01*
X002561Y004606D02*
X001420Y003464D01*
X001420Y003426D01*
X002561Y004606D02*
X002561Y006521D01*
X002947Y006907D01*
X002947Y007697D01*
X005118Y007697D01*
X004506Y008383D02*
X006313Y008383D01*
X006616Y008080D01*
X006616Y007699D01*
X006618Y007697D01*
X006664Y007742D01*
X006618Y007697D02*
X006837Y007722D01*
X006982Y007867D01*
X007668Y007867D01*
X007691Y007891D01*
X007691Y008612D01*
X007683Y008619D01*
X007683Y009289D02*
X007077Y009895D01*
X007077Y010469D01*
X007683Y009289D02*
X008668Y010273D01*
X009372Y010600D01*
X009605Y011233D02*
X009605Y011615D01*
X009605Y011233D02*
X010109Y010729D01*
X008278Y007863D02*
X007691Y007891D01*
X004666Y005482D02*
X004447Y005263D01*
X002947Y007697D02*
X002947Y012517D01*
X003170Y012740D01*
X003742Y012740D01*
X003742Y012050D02*
X003742Y011336D01*
X003746Y011332D01*
X003746Y010663D02*
X004101Y010663D01*
X004290Y010852D01*
X004290Y011879D01*
X004404Y011993D01*
X005222Y011993D01*
X005230Y012001D01*
X005230Y012316D02*
X005829Y012316D01*
X005853Y012237D01*
X002947Y012517D02*
X002786Y012678D01*
X001994Y012678D01*
X001994Y011678D02*
X001994Y009812D01*
X002085Y009722D01*
X001489Y008908D02*
X001171Y009068D01*
X001171Y015175D01*
X001880Y015883D01*
X002892Y016403D02*
X003540Y017051D01*
X003786Y017051D01*
X003914Y016949D02*
X003790Y016824D01*
X003790Y018167D01*
X003774Y018182D01*
X003774Y019442D02*
X003778Y019446D01*
X001489Y008908D02*
X001846Y008723D01*
X002085Y008722D01*
X006213Y002962D02*
X006122Y002523D01*
X006203Y002442D01*
D29*
X005766Y003851D02*
X005713Y003962D01*
X005766Y003989D02*
X005766Y005171D01*
X005766Y003989D02*
X005766Y003851D01*
X007746Y007151D02*
X007668Y007198D01*
X007746Y009131D02*
X007683Y009289D01*
X005817Y010469D02*
X005766Y010451D01*
X003766Y011987D02*
X003742Y012050D01*
X005766Y013751D02*
X005817Y013849D01*
X003786Y017051D02*
X003734Y017060D01*
X003126Y017051D01*
X001806Y017051D02*
X001412Y017060D01*
X001806Y020351D02*
X001412Y020564D01*
X003126Y020351D02*
X003448Y020464D01*
X003734Y020564D01*
X006426Y020351D02*
X006581Y020651D01*
X009726Y011771D02*
X009605Y011615D01*
X011706Y011771D02*
X011731Y011615D01*
X012187Y005907D02*
X012366Y005831D01*
D30*
X006118Y009637D02*
X005618Y009637D01*
D31*
X007086Y018371D03*
M02*
