G75*
%MOIN*%
%OFA0B0*%
%FSLAX24Y24*%
%IPPOS*%
%LPD*%
%AMOC8*
5,1,8,0,0,1.08239X$1,22.5*
%
%ADD10C,0.0000*%
%ADD11C,0.0060*%
%ADD12C,0.0520*%
%ADD13R,0.0600X0.0600*%
%ADD14C,0.0600*%
%ADD15C,0.0356*%
%ADD16C,0.0118*%
%ADD17C,0.0197*%
%ADD18C,0.0079*%
%ADD19C,0.0238*%
D10*
X000486Y000241D02*
X000486Y019926D01*
X018203Y019926D01*
X018203Y000241D01*
X000486Y000241D01*
X012455Y015989D02*
X012457Y016039D01*
X012463Y016089D01*
X012473Y016138D01*
X012487Y016186D01*
X012504Y016233D01*
X012525Y016278D01*
X012550Y016322D01*
X012578Y016363D01*
X012610Y016402D01*
X012644Y016439D01*
X012681Y016473D01*
X012721Y016503D01*
X012763Y016530D01*
X012807Y016554D01*
X012853Y016575D01*
X012900Y016591D01*
X012948Y016604D01*
X012998Y016613D01*
X013047Y016618D01*
X013098Y016619D01*
X013148Y016616D01*
X013197Y016609D01*
X013246Y016598D01*
X013294Y016583D01*
X013340Y016565D01*
X013385Y016543D01*
X013428Y016517D01*
X013469Y016488D01*
X013508Y016456D01*
X013544Y016421D01*
X013576Y016383D01*
X013606Y016343D01*
X013633Y016300D01*
X013656Y016256D01*
X013675Y016210D01*
X013691Y016162D01*
X013703Y016113D01*
X013711Y016064D01*
X013715Y016014D01*
X013715Y015964D01*
X013711Y015914D01*
X013703Y015865D01*
X013691Y015816D01*
X013675Y015768D01*
X013656Y015722D01*
X013633Y015678D01*
X013606Y015635D01*
X013576Y015595D01*
X013544Y015557D01*
X013508Y015522D01*
X013469Y015490D01*
X013428Y015461D01*
X013385Y015435D01*
X013340Y015413D01*
X013294Y015395D01*
X013246Y015380D01*
X013197Y015369D01*
X013148Y015362D01*
X013098Y015359D01*
X013047Y015360D01*
X012998Y015365D01*
X012948Y015374D01*
X012900Y015387D01*
X012853Y015403D01*
X012807Y015424D01*
X012763Y015448D01*
X012721Y015475D01*
X012681Y015505D01*
X012644Y015539D01*
X012610Y015576D01*
X012578Y015615D01*
X012550Y015656D01*
X012525Y015700D01*
X012504Y015745D01*
X012487Y015792D01*
X012473Y015840D01*
X012463Y015889D01*
X012457Y015939D01*
X012455Y015989D01*
X012455Y018351D02*
X012457Y018401D01*
X012463Y018451D01*
X012473Y018500D01*
X012487Y018548D01*
X012504Y018595D01*
X012525Y018640D01*
X012550Y018684D01*
X012578Y018725D01*
X012610Y018764D01*
X012644Y018801D01*
X012681Y018835D01*
X012721Y018865D01*
X012763Y018892D01*
X012807Y018916D01*
X012853Y018937D01*
X012900Y018953D01*
X012948Y018966D01*
X012998Y018975D01*
X013047Y018980D01*
X013098Y018981D01*
X013148Y018978D01*
X013197Y018971D01*
X013246Y018960D01*
X013294Y018945D01*
X013340Y018927D01*
X013385Y018905D01*
X013428Y018879D01*
X013469Y018850D01*
X013508Y018818D01*
X013544Y018783D01*
X013576Y018745D01*
X013606Y018705D01*
X013633Y018662D01*
X013656Y018618D01*
X013675Y018572D01*
X013691Y018524D01*
X013703Y018475D01*
X013711Y018426D01*
X013715Y018376D01*
X013715Y018326D01*
X013711Y018276D01*
X013703Y018227D01*
X013691Y018178D01*
X013675Y018130D01*
X013656Y018084D01*
X013633Y018040D01*
X013606Y017997D01*
X013576Y017957D01*
X013544Y017919D01*
X013508Y017884D01*
X013469Y017852D01*
X013428Y017823D01*
X013385Y017797D01*
X013340Y017775D01*
X013294Y017757D01*
X013246Y017742D01*
X013197Y017731D01*
X013148Y017724D01*
X013098Y017721D01*
X013047Y017722D01*
X012998Y017727D01*
X012948Y017736D01*
X012900Y017749D01*
X012853Y017765D01*
X012807Y017786D01*
X012763Y017810D01*
X012721Y017837D01*
X012681Y017867D01*
X012644Y017901D01*
X012610Y017938D01*
X012578Y017977D01*
X012550Y018018D01*
X012525Y018062D01*
X012504Y018107D01*
X012487Y018154D01*
X012473Y018202D01*
X012463Y018251D01*
X012457Y018301D01*
X012455Y018351D01*
X016392Y018351D02*
X016394Y018401D01*
X016400Y018451D01*
X016410Y018500D01*
X016424Y018548D01*
X016441Y018595D01*
X016462Y018640D01*
X016487Y018684D01*
X016515Y018725D01*
X016547Y018764D01*
X016581Y018801D01*
X016618Y018835D01*
X016658Y018865D01*
X016700Y018892D01*
X016744Y018916D01*
X016790Y018937D01*
X016837Y018953D01*
X016885Y018966D01*
X016935Y018975D01*
X016984Y018980D01*
X017035Y018981D01*
X017085Y018978D01*
X017134Y018971D01*
X017183Y018960D01*
X017231Y018945D01*
X017277Y018927D01*
X017322Y018905D01*
X017365Y018879D01*
X017406Y018850D01*
X017445Y018818D01*
X017481Y018783D01*
X017513Y018745D01*
X017543Y018705D01*
X017570Y018662D01*
X017593Y018618D01*
X017612Y018572D01*
X017628Y018524D01*
X017640Y018475D01*
X017648Y018426D01*
X017652Y018376D01*
X017652Y018326D01*
X017648Y018276D01*
X017640Y018227D01*
X017628Y018178D01*
X017612Y018130D01*
X017593Y018084D01*
X017570Y018040D01*
X017543Y017997D01*
X017513Y017957D01*
X017481Y017919D01*
X017445Y017884D01*
X017406Y017852D01*
X017365Y017823D01*
X017322Y017797D01*
X017277Y017775D01*
X017231Y017757D01*
X017183Y017742D01*
X017134Y017731D01*
X017085Y017724D01*
X017035Y017721D01*
X016984Y017722D01*
X016935Y017727D01*
X016885Y017736D01*
X016837Y017749D01*
X016790Y017765D01*
X016744Y017786D01*
X016700Y017810D01*
X016658Y017837D01*
X016618Y017867D01*
X016581Y017901D01*
X016547Y017938D01*
X016515Y017977D01*
X016487Y018018D01*
X016462Y018062D01*
X016441Y018107D01*
X016424Y018154D01*
X016410Y018202D01*
X016400Y018251D01*
X016394Y018301D01*
X016392Y018351D01*
X016392Y015989D02*
X016394Y016039D01*
X016400Y016089D01*
X016410Y016138D01*
X016424Y016186D01*
X016441Y016233D01*
X016462Y016278D01*
X016487Y016322D01*
X016515Y016363D01*
X016547Y016402D01*
X016581Y016439D01*
X016618Y016473D01*
X016658Y016503D01*
X016700Y016530D01*
X016744Y016554D01*
X016790Y016575D01*
X016837Y016591D01*
X016885Y016604D01*
X016935Y016613D01*
X016984Y016618D01*
X017035Y016619D01*
X017085Y016616D01*
X017134Y016609D01*
X017183Y016598D01*
X017231Y016583D01*
X017277Y016565D01*
X017322Y016543D01*
X017365Y016517D01*
X017406Y016488D01*
X017445Y016456D01*
X017481Y016421D01*
X017513Y016383D01*
X017543Y016343D01*
X017570Y016300D01*
X017593Y016256D01*
X017612Y016210D01*
X017628Y016162D01*
X017640Y016113D01*
X017648Y016064D01*
X017652Y016014D01*
X017652Y015964D01*
X017648Y015914D01*
X017640Y015865D01*
X017628Y015816D01*
X017612Y015768D01*
X017593Y015722D01*
X017570Y015678D01*
X017543Y015635D01*
X017513Y015595D01*
X017481Y015557D01*
X017445Y015522D01*
X017406Y015490D01*
X017365Y015461D01*
X017322Y015435D01*
X017277Y015413D01*
X017231Y015395D01*
X017183Y015380D01*
X017134Y015369D01*
X017085Y015362D01*
X017035Y015359D01*
X016984Y015360D01*
X016935Y015365D01*
X016885Y015374D01*
X016837Y015387D01*
X016790Y015403D01*
X016744Y015424D01*
X016700Y015448D01*
X016658Y015475D01*
X016618Y015505D01*
X016581Y015539D01*
X016547Y015576D01*
X016515Y015615D01*
X016487Y015656D01*
X016462Y015700D01*
X016441Y015745D01*
X016424Y015792D01*
X016410Y015840D01*
X016400Y015889D01*
X016394Y015939D01*
X016392Y015989D01*
X016392Y010083D02*
X016394Y010133D01*
X016400Y010183D01*
X016410Y010232D01*
X016424Y010280D01*
X016441Y010327D01*
X016462Y010372D01*
X016487Y010416D01*
X016515Y010457D01*
X016547Y010496D01*
X016581Y010533D01*
X016618Y010567D01*
X016658Y010597D01*
X016700Y010624D01*
X016744Y010648D01*
X016790Y010669D01*
X016837Y010685D01*
X016885Y010698D01*
X016935Y010707D01*
X016984Y010712D01*
X017035Y010713D01*
X017085Y010710D01*
X017134Y010703D01*
X017183Y010692D01*
X017231Y010677D01*
X017277Y010659D01*
X017322Y010637D01*
X017365Y010611D01*
X017406Y010582D01*
X017445Y010550D01*
X017481Y010515D01*
X017513Y010477D01*
X017543Y010437D01*
X017570Y010394D01*
X017593Y010350D01*
X017612Y010304D01*
X017628Y010256D01*
X017640Y010207D01*
X017648Y010158D01*
X017652Y010108D01*
X017652Y010058D01*
X017648Y010008D01*
X017640Y009959D01*
X017628Y009910D01*
X017612Y009862D01*
X017593Y009816D01*
X017570Y009772D01*
X017543Y009729D01*
X017513Y009689D01*
X017481Y009651D01*
X017445Y009616D01*
X017406Y009584D01*
X017365Y009555D01*
X017322Y009529D01*
X017277Y009507D01*
X017231Y009489D01*
X017183Y009474D01*
X017134Y009463D01*
X017085Y009456D01*
X017035Y009453D01*
X016984Y009454D01*
X016935Y009459D01*
X016885Y009468D01*
X016837Y009481D01*
X016790Y009497D01*
X016744Y009518D01*
X016700Y009542D01*
X016658Y009569D01*
X016618Y009599D01*
X016581Y009633D01*
X016547Y009670D01*
X016515Y009709D01*
X016487Y009750D01*
X016462Y009794D01*
X016441Y009839D01*
X016424Y009886D01*
X016410Y009934D01*
X016400Y009983D01*
X016394Y010033D01*
X016392Y010083D01*
X016392Y004178D02*
X016394Y004228D01*
X016400Y004278D01*
X016410Y004327D01*
X016424Y004375D01*
X016441Y004422D01*
X016462Y004467D01*
X016487Y004511D01*
X016515Y004552D01*
X016547Y004591D01*
X016581Y004628D01*
X016618Y004662D01*
X016658Y004692D01*
X016700Y004719D01*
X016744Y004743D01*
X016790Y004764D01*
X016837Y004780D01*
X016885Y004793D01*
X016935Y004802D01*
X016984Y004807D01*
X017035Y004808D01*
X017085Y004805D01*
X017134Y004798D01*
X017183Y004787D01*
X017231Y004772D01*
X017277Y004754D01*
X017322Y004732D01*
X017365Y004706D01*
X017406Y004677D01*
X017445Y004645D01*
X017481Y004610D01*
X017513Y004572D01*
X017543Y004532D01*
X017570Y004489D01*
X017593Y004445D01*
X017612Y004399D01*
X017628Y004351D01*
X017640Y004302D01*
X017648Y004253D01*
X017652Y004203D01*
X017652Y004153D01*
X017648Y004103D01*
X017640Y004054D01*
X017628Y004005D01*
X017612Y003957D01*
X017593Y003911D01*
X017570Y003867D01*
X017543Y003824D01*
X017513Y003784D01*
X017481Y003746D01*
X017445Y003711D01*
X017406Y003679D01*
X017365Y003650D01*
X017322Y003624D01*
X017277Y003602D01*
X017231Y003584D01*
X017183Y003569D01*
X017134Y003558D01*
X017085Y003551D01*
X017035Y003548D01*
X016984Y003549D01*
X016935Y003554D01*
X016885Y003563D01*
X016837Y003576D01*
X016790Y003592D01*
X016744Y003613D01*
X016700Y003637D01*
X016658Y003664D01*
X016618Y003694D01*
X016581Y003728D01*
X016547Y003765D01*
X016515Y003804D01*
X016487Y003845D01*
X016462Y003889D01*
X016441Y003934D01*
X016424Y003981D01*
X016410Y004029D01*
X016400Y004078D01*
X016394Y004128D01*
X016392Y004178D01*
X016392Y001816D02*
X016394Y001866D01*
X016400Y001916D01*
X016410Y001965D01*
X016424Y002013D01*
X016441Y002060D01*
X016462Y002105D01*
X016487Y002149D01*
X016515Y002190D01*
X016547Y002229D01*
X016581Y002266D01*
X016618Y002300D01*
X016658Y002330D01*
X016700Y002357D01*
X016744Y002381D01*
X016790Y002402D01*
X016837Y002418D01*
X016885Y002431D01*
X016935Y002440D01*
X016984Y002445D01*
X017035Y002446D01*
X017085Y002443D01*
X017134Y002436D01*
X017183Y002425D01*
X017231Y002410D01*
X017277Y002392D01*
X017322Y002370D01*
X017365Y002344D01*
X017406Y002315D01*
X017445Y002283D01*
X017481Y002248D01*
X017513Y002210D01*
X017543Y002170D01*
X017570Y002127D01*
X017593Y002083D01*
X017612Y002037D01*
X017628Y001989D01*
X017640Y001940D01*
X017648Y001891D01*
X017652Y001841D01*
X017652Y001791D01*
X017648Y001741D01*
X017640Y001692D01*
X017628Y001643D01*
X017612Y001595D01*
X017593Y001549D01*
X017570Y001505D01*
X017543Y001462D01*
X017513Y001422D01*
X017481Y001384D01*
X017445Y001349D01*
X017406Y001317D01*
X017365Y001288D01*
X017322Y001262D01*
X017277Y001240D01*
X017231Y001222D01*
X017183Y001207D01*
X017134Y001196D01*
X017085Y001189D01*
X017035Y001186D01*
X016984Y001187D01*
X016935Y001192D01*
X016885Y001201D01*
X016837Y001214D01*
X016790Y001230D01*
X016744Y001251D01*
X016700Y001275D01*
X016658Y001302D01*
X016618Y001332D01*
X016581Y001366D01*
X016547Y001403D01*
X016515Y001442D01*
X016487Y001483D01*
X016462Y001527D01*
X016441Y001572D01*
X016424Y001619D01*
X016410Y001667D01*
X016400Y001716D01*
X016394Y001766D01*
X016392Y001816D01*
X002416Y016316D02*
X002418Y016342D01*
X002424Y016368D01*
X002434Y016393D01*
X002447Y016416D01*
X002463Y016436D01*
X002483Y016454D01*
X002505Y016469D01*
X002528Y016481D01*
X002554Y016489D01*
X002580Y016493D01*
X002606Y016493D01*
X002632Y016489D01*
X002658Y016481D01*
X002682Y016469D01*
X002703Y016454D01*
X002723Y016436D01*
X002739Y016416D01*
X002752Y016393D01*
X002762Y016368D01*
X002768Y016342D01*
X002770Y016316D01*
X002768Y016290D01*
X002762Y016264D01*
X002752Y016239D01*
X002739Y016216D01*
X002723Y016196D01*
X002703Y016178D01*
X002681Y016163D01*
X002658Y016151D01*
X002632Y016143D01*
X002606Y016139D01*
X002580Y016139D01*
X002554Y016143D01*
X002528Y016151D01*
X002504Y016163D01*
X002483Y016178D01*
X002463Y016196D01*
X002447Y016216D01*
X002434Y016239D01*
X002424Y016264D01*
X002418Y016290D01*
X002416Y016316D01*
X002416Y018048D02*
X002418Y018074D01*
X002424Y018100D01*
X002434Y018125D01*
X002447Y018148D01*
X002463Y018168D01*
X002483Y018186D01*
X002505Y018201D01*
X002528Y018213D01*
X002554Y018221D01*
X002580Y018225D01*
X002606Y018225D01*
X002632Y018221D01*
X002658Y018213D01*
X002682Y018201D01*
X002703Y018186D01*
X002723Y018168D01*
X002739Y018148D01*
X002752Y018125D01*
X002762Y018100D01*
X002768Y018074D01*
X002770Y018048D01*
X002768Y018022D01*
X002762Y017996D01*
X002752Y017971D01*
X002739Y017948D01*
X002723Y017928D01*
X002703Y017910D01*
X002681Y017895D01*
X002658Y017883D01*
X002632Y017875D01*
X002606Y017871D01*
X002580Y017871D01*
X002554Y017875D01*
X002528Y017883D01*
X002504Y017895D01*
X002483Y017910D01*
X002463Y017928D01*
X002447Y017948D01*
X002434Y017971D01*
X002424Y017996D01*
X002418Y018022D01*
X002416Y018048D01*
D11*
X015414Y017963D02*
X015521Y017856D01*
X015948Y018284D01*
X015521Y018284D01*
X015414Y018177D01*
X015414Y017963D01*
X015521Y017856D02*
X015948Y017856D01*
X016055Y017963D01*
X016055Y018177D01*
X015948Y018284D01*
X015521Y018501D02*
X015521Y018608D01*
X015414Y018608D01*
X015414Y018501D01*
X015521Y018501D01*
X015414Y018823D02*
X015414Y019250D01*
X015414Y019037D02*
X016055Y019037D01*
X015841Y018823D01*
X015628Y017639D02*
X016055Y017639D01*
X016055Y017212D02*
X015628Y017212D01*
X015414Y017425D01*
X015628Y017639D01*
X015521Y016350D02*
X015734Y016350D01*
X015841Y016243D01*
X015841Y016030D01*
X015734Y015923D01*
X015521Y015923D01*
X015414Y016030D01*
X015414Y016243D01*
X015521Y016350D01*
X015414Y015705D02*
X015734Y015705D01*
X015841Y015599D01*
X015734Y015492D01*
X015414Y015492D01*
X015414Y015278D02*
X015841Y015278D01*
X015841Y015385D01*
X015734Y015492D01*
X015841Y015061D02*
X015414Y015061D01*
X015414Y014740D01*
X015521Y014634D01*
X015841Y014634D01*
X015948Y014416D02*
X016055Y014309D01*
X016055Y014096D01*
X015948Y013989D01*
X015841Y013989D01*
X015734Y014096D01*
X015734Y014309D01*
X015628Y014416D01*
X015521Y014416D01*
X015414Y014309D01*
X015414Y014096D01*
X015521Y013989D01*
X015414Y013128D02*
X015414Y012915D01*
X015414Y013022D02*
X015841Y013022D01*
X015841Y012915D01*
X016055Y013022D02*
X016161Y013022D01*
X015841Y012591D02*
X015734Y012697D01*
X015414Y012697D01*
X015414Y012270D02*
X015841Y012270D01*
X015841Y012591D01*
X015841Y011947D02*
X015414Y011947D01*
X015414Y011841D02*
X015414Y012054D01*
X015414Y011623D02*
X016055Y011623D01*
X015841Y011410D01*
X016055Y011196D01*
X015414Y011196D01*
X015841Y011841D02*
X015841Y011947D01*
X016055Y011947D02*
X016161Y011947D01*
D12*
X014276Y002300D03*
X013276Y002300D03*
X013776Y001300D03*
X012776Y001300D03*
X010292Y002359D03*
X009792Y001359D03*
X009292Y002359D03*
X008792Y001359D03*
X006713Y002331D03*
X005713Y002331D03*
X006213Y001331D03*
X005213Y001331D03*
X005666Y003851D03*
X004666Y003851D03*
X005166Y004851D03*
X006166Y004851D03*
D13*
X001420Y002796D03*
X001420Y001796D03*
D14*
X001785Y006091D02*
X002385Y006091D01*
X002385Y007091D02*
X001785Y007091D01*
X001785Y008091D02*
X002385Y008091D01*
X002294Y010048D02*
X001694Y010048D01*
X001694Y011048D02*
X002294Y011048D01*
X002294Y012048D02*
X001694Y012048D01*
X001694Y013048D02*
X002294Y013048D01*
X011887Y007276D02*
X012487Y007276D01*
X012487Y006276D02*
X011887Y006276D01*
X011887Y005276D02*
X012487Y005276D01*
X012487Y004276D02*
X011887Y004276D01*
D15*
X010927Y003284D03*
X010333Y004603D03*
X009510Y004564D03*
X008223Y003879D03*
X007551Y004564D03*
X006746Y005335D03*
X008278Y006233D03*
X008884Y006288D03*
X009589Y006233D03*
X010959Y006674D03*
X009483Y008150D03*
X008797Y008013D03*
X009372Y008969D03*
X007569Y009572D03*
X007569Y010119D03*
X007620Y010694D03*
X007620Y011241D03*
X006502Y011489D03*
X005864Y011489D03*
X005853Y010607D03*
X003778Y007898D03*
X004506Y006753D03*
X003215Y004572D03*
X004152Y003032D03*
X001801Y004635D03*
X007731Y003127D03*
X008794Y003225D03*
X012187Y008725D03*
X011451Y009052D03*
X012652Y010914D03*
X012872Y012107D03*
X014876Y013213D03*
X016884Y013174D03*
X014845Y015623D03*
X014813Y018257D03*
X012057Y014524D03*
X010821Y016083D03*
X009892Y016938D03*
X008880Y015591D03*
X009892Y015127D03*
X006502Y016359D03*
X005900Y015922D03*
X004695Y016713D03*
X005408Y017891D03*
X007384Y018918D03*
X005927Y014469D03*
X005128Y014430D03*
X002892Y014772D03*
X002754Y013623D03*
X001144Y014461D03*
X002431Y019355D03*
X009483Y010942D03*
X010467Y011379D03*
X015597Y008686D03*
X016916Y006489D03*
X015443Y004918D03*
X015975Y002847D03*
D16*
X016251Y002690D02*
X018044Y002690D01*
X018044Y002806D02*
X016291Y002806D01*
X016291Y002784D02*
X016242Y002668D01*
X016154Y002579D01*
X016037Y002531D01*
X015912Y002531D01*
X015796Y002579D01*
X015707Y002668D01*
X015659Y002784D01*
X015659Y002910D01*
X015707Y003026D01*
X015796Y003115D01*
X015912Y003163D01*
X016037Y003163D01*
X016154Y003115D01*
X016242Y003026D01*
X016291Y002910D01*
X016291Y002784D01*
X016285Y002923D02*
X018044Y002923D01*
X018044Y003040D02*
X016229Y003040D01*
X016054Y003156D02*
X018044Y003156D01*
X018044Y003273D02*
X014473Y003273D01*
X014473Y003389D02*
X016864Y003389D01*
X016865Y003389D02*
X017179Y003389D01*
X017469Y003509D01*
X017691Y003731D01*
X017811Y004021D01*
X017811Y004335D01*
X017691Y004625D01*
X017469Y004847D01*
X017179Y004967D01*
X016865Y004967D01*
X016575Y004847D01*
X016353Y004625D01*
X016233Y004335D01*
X016233Y004021D01*
X016353Y003731D01*
X016575Y003509D01*
X016865Y003389D01*
X016582Y003506D02*
X014473Y003506D01*
X014473Y003623D02*
X016461Y003623D01*
X016350Y003739D02*
X014473Y003739D01*
X014473Y003856D02*
X016301Y003856D01*
X016253Y003972D02*
X014473Y003972D01*
X014473Y004089D02*
X016233Y004089D01*
X016233Y004206D02*
X014473Y004206D01*
X014473Y004322D02*
X016233Y004322D01*
X016276Y004439D02*
X014473Y004439D01*
X014473Y004556D02*
X016324Y004556D01*
X016400Y004672D02*
X015644Y004672D01*
X015622Y004650D02*
X015711Y004739D01*
X015759Y004855D01*
X015759Y004981D01*
X015711Y005097D01*
X015622Y005186D01*
X015506Y005234D01*
X015380Y005234D01*
X015264Y005186D01*
X015175Y005097D01*
X015127Y004981D01*
X015127Y004855D01*
X015175Y004739D01*
X015264Y004650D01*
X015380Y004602D01*
X015506Y004602D01*
X015622Y004650D01*
X015732Y004789D02*
X016517Y004789D01*
X016716Y004905D02*
X015759Y004905D01*
X015742Y005022D02*
X018044Y005022D01*
X018044Y005139D02*
X015669Y005139D01*
X015242Y004672D02*
X014473Y004672D01*
X014473Y004789D02*
X015155Y004789D01*
X015127Y004905D02*
X014473Y004905D01*
X014473Y005022D02*
X015144Y005022D01*
X015217Y005139D02*
X014473Y005139D01*
X014473Y005255D02*
X018044Y005255D01*
X018044Y005372D02*
X014473Y005372D01*
X014473Y005488D02*
X018044Y005488D01*
X018044Y005605D02*
X014473Y005605D01*
X014473Y005722D02*
X018044Y005722D01*
X018044Y005838D02*
X014473Y005838D01*
X014473Y005955D02*
X018044Y005955D01*
X018044Y006071D02*
X014473Y006071D01*
X014473Y006188D02*
X016817Y006188D01*
X016853Y006173D02*
X016978Y006173D01*
X017095Y006221D01*
X017183Y006310D01*
X017231Y006426D01*
X017231Y006552D01*
X017183Y006668D01*
X017095Y006757D01*
X016978Y006805D01*
X016853Y006805D01*
X016737Y006757D01*
X016648Y006668D01*
X016600Y006552D01*
X016600Y006426D01*
X016648Y006310D01*
X016737Y006221D01*
X016853Y006173D01*
X017015Y006188D02*
X018044Y006188D01*
X018044Y006305D02*
X017178Y006305D01*
X017229Y006421D02*
X018044Y006421D01*
X018044Y006538D02*
X017231Y006538D01*
X017189Y006655D02*
X018044Y006655D01*
X018044Y006771D02*
X017060Y006771D01*
X016771Y006771D02*
X014473Y006771D01*
X014473Y006828D02*
X013014Y008287D01*
X012899Y008402D01*
X010932Y008402D01*
X009562Y007032D01*
X008308Y007032D01*
X007766Y007574D01*
X007766Y009322D01*
X007837Y009393D01*
X007885Y009509D01*
X007885Y009518D01*
X007893Y009510D01*
X007943Y008660D01*
X007947Y008580D01*
X007948Y008579D01*
X007948Y008577D01*
X008008Y008524D01*
X008486Y008087D01*
X008482Y008075D01*
X008482Y007950D01*
X008530Y007834D01*
X008619Y007745D01*
X008735Y007697D01*
X008860Y007697D01*
X008976Y007745D01*
X009065Y007834D01*
X009113Y007950D01*
X009113Y008075D01*
X009065Y008192D01*
X008976Y008280D01*
X008860Y008329D01*
X008806Y008329D01*
X008332Y008762D01*
X008282Y009600D01*
X008282Y009675D01*
X008277Y009681D01*
X008277Y009688D01*
X008220Y009738D01*
X007885Y010079D01*
X007885Y010182D01*
X007837Y010298D01*
X007748Y010387D01*
X007726Y010396D01*
X007799Y010426D01*
X007870Y010497D01*
X008007Y010497D01*
X008490Y010014D01*
X008490Y008778D01*
X008606Y008662D01*
X009167Y008101D01*
X009167Y008088D01*
X009215Y007971D01*
X009304Y007883D01*
X009420Y007834D01*
X009545Y007834D01*
X009661Y007883D01*
X009750Y007971D01*
X009798Y008088D01*
X009798Y008213D01*
X009750Y008329D01*
X009661Y008418D01*
X009545Y008466D01*
X009420Y008466D01*
X009376Y008448D01*
X008884Y008941D01*
X008884Y010177D01*
X008286Y010775D01*
X008170Y010891D01*
X007870Y010891D01*
X007799Y010962D01*
X007785Y010967D01*
X007799Y010973D01*
X007888Y011062D01*
X007936Y011178D01*
X007936Y011223D01*
X009116Y012403D01*
X009116Y015381D01*
X009148Y015412D01*
X009196Y015529D01*
X009196Y015654D01*
X009148Y015770D01*
X009059Y015859D01*
X008943Y015907D01*
X008817Y015907D01*
X008701Y015859D01*
X008612Y015770D01*
X008564Y015654D01*
X008564Y015529D01*
X008612Y015412D01*
X008644Y015381D01*
X008644Y012599D01*
X007602Y011557D01*
X007557Y011557D01*
X007441Y011509D01*
X007353Y011420D01*
X007323Y011348D01*
X007323Y016640D01*
X007343Y016690D01*
X007343Y016792D01*
X007304Y016886D01*
X007232Y016959D01*
X007138Y016998D01*
X007035Y016998D01*
X006941Y016959D01*
X006869Y016886D01*
X006830Y016792D01*
X006830Y016690D01*
X006850Y016640D01*
X006850Y007010D01*
X006790Y006949D01*
X006790Y006902D01*
X006291Y006403D01*
X002678Y006417D01*
X002633Y006462D01*
X002472Y006529D01*
X001698Y006529D01*
X001537Y006462D01*
X001414Y006339D01*
X001347Y006178D01*
X001347Y006004D01*
X001414Y005843D01*
X001537Y005720D01*
X001698Y005654D01*
X002472Y005654D01*
X002633Y005720D01*
X002756Y005843D01*
X002798Y005944D01*
X006290Y005930D01*
X006387Y005930D01*
X006485Y005930D01*
X006486Y005930D01*
X006555Y005999D01*
X006624Y006067D01*
X006624Y006068D01*
X007124Y006568D01*
X007262Y006706D01*
X007262Y006753D01*
X007323Y006814D01*
X007323Y009371D01*
X007372Y009322D01*
X007372Y007411D01*
X007488Y007296D01*
X008145Y006639D01*
X009725Y006639D01*
X009841Y006754D01*
X011096Y008009D01*
X012736Y008009D01*
X014079Y006665D01*
X014079Y002649D01*
X014050Y002637D01*
X013939Y002525D01*
X013878Y002379D01*
X013878Y002221D01*
X013939Y002075D01*
X014050Y001963D01*
X014197Y001902D01*
X014355Y001902D01*
X014501Y001963D01*
X014613Y002075D01*
X014674Y002221D01*
X014674Y002379D01*
X014613Y002525D01*
X014501Y002637D01*
X014473Y002649D01*
X014473Y006828D01*
X014413Y006888D02*
X018044Y006888D01*
X018044Y007004D02*
X014297Y007004D01*
X014180Y007121D02*
X018044Y007121D01*
X018044Y007238D02*
X014063Y007238D01*
X013947Y007354D02*
X018044Y007354D01*
X018044Y007471D02*
X013830Y007471D01*
X013714Y007587D02*
X018044Y007587D01*
X018044Y007704D02*
X013597Y007704D01*
X013480Y007821D02*
X018044Y007821D01*
X018044Y007937D02*
X013364Y007937D01*
X013247Y008054D02*
X018044Y008054D01*
X018044Y008170D02*
X013131Y008170D01*
X013014Y008287D02*
X018044Y008287D01*
X018044Y008404D02*
X015741Y008404D01*
X015776Y008418D02*
X015865Y008507D01*
X015913Y008623D01*
X015913Y008749D01*
X015865Y008865D01*
X015776Y008954D01*
X015660Y009002D01*
X015534Y009002D01*
X015418Y008954D01*
X015329Y008865D01*
X015281Y008749D01*
X015281Y008623D01*
X015329Y008507D01*
X015418Y008418D01*
X015534Y008370D01*
X015660Y008370D01*
X015776Y008418D01*
X015870Y008520D02*
X018044Y008520D01*
X018044Y008637D02*
X015913Y008637D01*
X015911Y008754D02*
X018044Y008754D01*
X018044Y008870D02*
X015859Y008870D01*
X015696Y008987D02*
X018044Y008987D01*
X018044Y009103D02*
X012857Y009103D01*
X012976Y009220D02*
X018044Y009220D01*
X018044Y009337D02*
X017280Y009337D01*
X017179Y009294D02*
X017469Y009415D01*
X017691Y009637D01*
X017811Y009927D01*
X017811Y010240D01*
X017691Y010530D01*
X017469Y010752D01*
X017179Y010872D01*
X016865Y010872D01*
X016575Y010752D01*
X016353Y010530D01*
X016233Y010240D01*
X016233Y009927D01*
X016353Y009637D01*
X016575Y009415D01*
X016865Y009294D01*
X017179Y009294D01*
X017507Y009453D02*
X018044Y009453D01*
X018044Y009570D02*
X017624Y009570D01*
X017711Y009686D02*
X018044Y009686D01*
X018044Y009803D02*
X017760Y009803D01*
X017808Y009920D02*
X018044Y009920D01*
X018044Y010036D02*
X017811Y010036D01*
X017811Y010153D02*
X018044Y010153D01*
X018044Y010269D02*
X017799Y010269D01*
X017751Y010386D02*
X018044Y010386D01*
X018044Y010503D02*
X017702Y010503D01*
X017602Y010619D02*
X018044Y010619D01*
X018044Y010736D02*
X017485Y010736D01*
X017227Y010852D02*
X018044Y010852D01*
X018044Y010969D02*
X016455Y010969D01*
X016455Y010924D02*
X016455Y015440D01*
X016575Y015320D01*
X016865Y015200D01*
X017179Y015200D01*
X017469Y015320D01*
X017691Y015542D01*
X017811Y015832D01*
X017811Y016146D01*
X017691Y016436D01*
X017469Y016658D01*
X017179Y016778D01*
X016865Y016778D01*
X016575Y016658D01*
X016455Y016538D01*
X016455Y017802D01*
X016575Y017682D01*
X016865Y017562D01*
X017179Y017562D01*
X017469Y017682D01*
X017691Y017904D01*
X017811Y018194D01*
X017811Y018508D01*
X017691Y018798D01*
X017469Y019020D01*
X017179Y019140D01*
X016865Y019140D01*
X016575Y019020D01*
X016353Y018798D01*
X016273Y018604D01*
X015142Y018604D01*
X015124Y018602D01*
X015106Y018597D01*
X015090Y018590D01*
X015074Y018581D01*
X015060Y018570D01*
X015047Y018557D01*
X015036Y018543D01*
X015027Y018527D01*
X015020Y018511D01*
X015017Y018500D01*
X014992Y018525D01*
X014876Y018573D01*
X014750Y018573D01*
X014634Y018525D01*
X014545Y018436D01*
X014497Y018320D01*
X014497Y018194D01*
X014545Y018078D01*
X014634Y017989D01*
X014750Y017941D01*
X014876Y017941D01*
X014992Y017989D01*
X015013Y018010D01*
X015013Y015895D01*
X014908Y015939D01*
X014782Y015939D01*
X014666Y015891D01*
X014577Y015802D01*
X014529Y015686D01*
X014529Y015560D01*
X014577Y015444D01*
X014666Y015355D01*
X014782Y015307D01*
X014908Y015307D01*
X015013Y015351D01*
X015013Y013499D01*
X014939Y013529D01*
X014813Y013529D01*
X014697Y013481D01*
X014608Y013392D01*
X014560Y013276D01*
X014560Y013151D01*
X014608Y013034D01*
X014697Y012946D01*
X014813Y012897D01*
X014939Y012897D01*
X015013Y012928D01*
X015013Y010924D01*
X015015Y010906D01*
X015020Y010888D01*
X015027Y010872D01*
X015036Y010856D01*
X015047Y010842D01*
X015060Y010829D01*
X015074Y010818D01*
X015090Y010809D01*
X015106Y010802D01*
X015124Y010797D01*
X015142Y010795D01*
X016326Y010795D01*
X016344Y010797D01*
X016362Y010802D01*
X016379Y010809D01*
X016394Y010818D01*
X016408Y010829D01*
X016421Y010842D01*
X016432Y010856D01*
X016441Y010872D01*
X016448Y010888D01*
X016453Y010906D01*
X016455Y010924D01*
X016429Y010852D02*
X016817Y010852D01*
X016559Y010736D02*
X013464Y010736D01*
X013479Y010709D02*
X013061Y011459D01*
X013060Y011490D01*
X013022Y011527D01*
X012997Y011573D01*
X012966Y011582D01*
X012944Y011604D01*
X012891Y011603D01*
X012840Y011618D01*
X012812Y011603D01*
X010714Y011578D01*
X010646Y011647D01*
X010530Y011695D01*
X010404Y011695D01*
X010288Y011647D01*
X010199Y011558D01*
X010151Y011442D01*
X010151Y011316D01*
X010199Y011200D01*
X010288Y011111D01*
X009754Y011111D01*
X009750Y011121D01*
X009661Y011210D01*
X009545Y011258D01*
X009420Y011258D01*
X009304Y011210D01*
X009215Y011121D01*
X009167Y011005D01*
X009167Y010879D01*
X009215Y010763D01*
X009304Y010674D01*
X009420Y010626D01*
X009545Y010626D01*
X009661Y010674D01*
X009705Y010717D01*
X012402Y010717D01*
X012473Y010646D01*
X012589Y010598D01*
X012715Y010598D01*
X012831Y010646D01*
X012920Y010735D01*
X012960Y010832D01*
X013125Y010535D01*
X013135Y009925D01*
X012229Y009041D01*
X012124Y009041D01*
X012008Y008993D01*
X011919Y008904D01*
X011871Y008788D01*
X011871Y008662D01*
X011919Y008546D01*
X012008Y008457D01*
X012124Y008409D01*
X012250Y008409D01*
X012366Y008457D01*
X012455Y008546D01*
X012503Y008662D01*
X012503Y008758D01*
X013414Y009648D01*
X013418Y009648D01*
X013472Y009704D01*
X013529Y009759D01*
X013529Y009763D01*
X013531Y009765D01*
X013530Y009844D01*
X013531Y009922D01*
X013528Y009925D01*
X013518Y010562D01*
X013533Y010612D01*
X013517Y010640D01*
X013517Y010672D01*
X013479Y010709D01*
X013529Y010619D02*
X016442Y010619D01*
X016342Y010503D02*
X013519Y010503D01*
X013521Y010386D02*
X016293Y010386D01*
X016245Y010269D02*
X013523Y010269D01*
X013525Y010153D02*
X016233Y010153D01*
X016233Y010036D02*
X013527Y010036D01*
X013531Y009920D02*
X016236Y009920D01*
X016284Y009803D02*
X013530Y009803D01*
X013455Y009686D02*
X016332Y009686D01*
X016420Y009570D02*
X013334Y009570D01*
X013215Y009453D02*
X016536Y009453D01*
X016763Y009337D02*
X013096Y009337D01*
X012890Y009686D02*
X008884Y009686D01*
X008884Y009570D02*
X012771Y009570D01*
X012651Y009453D02*
X008884Y009453D01*
X008884Y009337D02*
X011313Y009337D01*
X011272Y009320D02*
X011240Y009288D01*
X009853Y009288D01*
X009831Y009303D01*
X009758Y009288D01*
X009684Y009288D01*
X009665Y009269D01*
X009536Y009243D01*
X009435Y009285D01*
X009309Y009285D01*
X009193Y009237D01*
X009104Y009148D01*
X009056Y009032D01*
X009056Y008906D01*
X009104Y008790D01*
X009193Y008701D01*
X009309Y008653D01*
X009435Y008653D01*
X009551Y008701D01*
X009630Y008780D01*
X009805Y008816D01*
X011240Y008816D01*
X011272Y008784D01*
X011388Y008736D01*
X011514Y008736D01*
X011630Y008784D01*
X011719Y008873D01*
X011767Y008989D01*
X011767Y009115D01*
X011719Y009231D01*
X011630Y009320D01*
X011514Y009368D01*
X011388Y009368D01*
X011272Y009320D01*
X011589Y009337D02*
X012532Y009337D01*
X012412Y009220D02*
X011723Y009220D01*
X011767Y009103D02*
X012293Y009103D01*
X012002Y008987D02*
X011766Y008987D01*
X011716Y008870D02*
X011905Y008870D01*
X011871Y008754D02*
X011556Y008754D01*
X011346Y008754D02*
X009603Y008754D01*
X009676Y008404D02*
X015452Y008404D01*
X015323Y008520D02*
X012429Y008520D01*
X012493Y008637D02*
X015281Y008637D01*
X015283Y008754D02*
X012503Y008754D01*
X012618Y008870D02*
X015334Y008870D01*
X015498Y008987D02*
X012737Y008987D01*
X012187Y008725D02*
X013333Y009843D01*
X013321Y010587D01*
X012864Y011406D01*
X010467Y011379D01*
X010592Y011669D02*
X015013Y011669D01*
X015013Y011785D02*
X008499Y011785D01*
X008382Y011669D02*
X010341Y011669D01*
X010197Y011552D02*
X008266Y011552D01*
X008149Y011436D02*
X010151Y011436D01*
X010151Y011319D02*
X008032Y011319D01*
X007936Y011202D02*
X009296Y011202D01*
X009200Y011086D02*
X007898Y011086D01*
X007790Y010969D02*
X009167Y010969D01*
X009178Y010852D02*
X008208Y010852D01*
X008325Y010736D02*
X009242Y010736D01*
X009483Y010942D02*
X009510Y010914D01*
X012652Y010914D01*
X012765Y010619D02*
X013078Y010619D01*
X013126Y010503D02*
X008558Y010503D01*
X008442Y010619D02*
X012538Y010619D01*
X012920Y010736D02*
X013013Y010736D01*
X013127Y010386D02*
X008675Y010386D01*
X008791Y010269D02*
X013129Y010269D01*
X013131Y010153D02*
X008884Y010153D01*
X008884Y010036D02*
X013133Y010036D01*
X013129Y009920D02*
X008884Y009920D01*
X008884Y009803D02*
X013010Y009803D01*
X013399Y010852D02*
X015039Y010852D01*
X015013Y010969D02*
X013334Y010969D01*
X013269Y011086D02*
X015013Y011086D01*
X015013Y011202D02*
X013204Y011202D01*
X013139Y011319D02*
X015013Y011319D01*
X015013Y011436D02*
X013073Y011436D01*
X013008Y011552D02*
X015013Y011552D01*
X015013Y011902D02*
X013114Y011902D01*
X013140Y011928D02*
X013051Y011839D01*
X012935Y011791D01*
X012809Y011791D01*
X012693Y011839D01*
X012604Y011928D01*
X012556Y012044D01*
X012556Y012170D01*
X012604Y012286D01*
X012693Y012375D01*
X012809Y012423D01*
X012935Y012423D01*
X013051Y012375D01*
X013140Y012286D01*
X013188Y012170D01*
X013188Y012044D01*
X013140Y011928D01*
X013178Y012019D02*
X015013Y012019D01*
X015013Y012135D02*
X013188Y012135D01*
X013154Y012252D02*
X015013Y012252D01*
X015013Y012368D02*
X013058Y012368D01*
X012687Y012368D02*
X009082Y012368D01*
X009116Y012485D02*
X015013Y012485D01*
X015013Y012602D02*
X009116Y012602D01*
X009116Y012718D02*
X015013Y012718D01*
X015013Y012835D02*
X009116Y012835D01*
X009116Y012951D02*
X014691Y012951D01*
X014594Y013068D02*
X009116Y013068D01*
X009116Y013185D02*
X014560Y013185D01*
X014571Y013301D02*
X009116Y013301D01*
X009116Y013418D02*
X014634Y013418D01*
X015013Y013535D02*
X009116Y013535D01*
X009116Y013651D02*
X015013Y013651D01*
X015013Y013768D02*
X009116Y013768D01*
X009116Y013884D02*
X015013Y013884D01*
X015013Y014001D02*
X009116Y014001D01*
X009116Y014118D02*
X015013Y014118D01*
X015013Y014234D02*
X012182Y014234D01*
X012236Y014257D02*
X012325Y014345D01*
X012373Y014462D01*
X012373Y014587D01*
X012325Y014703D01*
X012236Y014792D01*
X012120Y014840D01*
X011994Y014840D01*
X011878Y014792D01*
X011790Y014703D01*
X011741Y014587D01*
X011741Y014462D01*
X011790Y014345D01*
X011878Y014257D01*
X011994Y014209D01*
X012120Y014209D01*
X012236Y014257D01*
X012327Y014351D02*
X015013Y014351D01*
X015013Y014467D02*
X012373Y014467D01*
X012373Y014584D02*
X015013Y014584D01*
X015013Y014701D02*
X012326Y014701D01*
X012176Y014817D02*
X015013Y014817D01*
X015013Y014934D02*
X010146Y014934D01*
X010160Y014948D02*
X010208Y015064D01*
X010208Y015136D01*
X010839Y015768D01*
X010884Y015768D01*
X011000Y015816D01*
X011089Y015905D01*
X011137Y016021D01*
X011137Y016146D01*
X011089Y016262D01*
X011000Y016351D01*
X010884Y016399D01*
X010758Y016399D01*
X010642Y016351D01*
X010553Y016262D01*
X010505Y016146D01*
X010505Y016102D01*
X009846Y015443D01*
X009829Y015443D01*
X009713Y015395D01*
X009624Y015306D01*
X009576Y015190D01*
X009576Y015064D01*
X009624Y014948D01*
X009713Y014859D01*
X009829Y014811D01*
X009955Y014811D01*
X010071Y014859D01*
X010160Y014948D01*
X010202Y015050D02*
X015013Y015050D01*
X015013Y015167D02*
X010239Y015167D01*
X010355Y015284D02*
X012726Y015284D01*
X012638Y015320D02*
X012928Y015200D01*
X013242Y015200D01*
X013532Y015320D01*
X013754Y015542D01*
X013874Y015832D01*
X013874Y016146D01*
X013754Y016436D01*
X013532Y016658D01*
X013242Y016778D01*
X012928Y016778D01*
X012638Y016658D01*
X012416Y016436D01*
X012296Y016146D01*
X012296Y015832D01*
X012416Y015542D01*
X012638Y015320D01*
X012558Y015400D02*
X010472Y015400D01*
X010589Y015517D02*
X012441Y015517D01*
X012378Y015634D02*
X010705Y015634D01*
X010822Y015750D02*
X012330Y015750D01*
X012296Y015867D02*
X011051Y015867D01*
X011122Y015983D02*
X012296Y015983D01*
X012296Y016100D02*
X011137Y016100D01*
X011108Y016217D02*
X012325Y016217D01*
X012373Y016333D02*
X011018Y016333D01*
X010624Y016333D02*
X007323Y016333D01*
X007323Y016217D02*
X010534Y016217D01*
X010504Y016100D02*
X007323Y016100D01*
X007323Y015983D02*
X010387Y015983D01*
X010270Y015867D02*
X009041Y015867D01*
X009156Y015750D02*
X010154Y015750D01*
X010037Y015634D02*
X009196Y015634D01*
X009191Y015517D02*
X009920Y015517D01*
X009727Y015400D02*
X009136Y015400D01*
X009116Y015284D02*
X009615Y015284D01*
X009576Y015167D02*
X009116Y015167D01*
X009116Y015050D02*
X009582Y015050D01*
X009638Y014934D02*
X009116Y014934D01*
X009116Y014817D02*
X009814Y014817D01*
X009970Y014817D02*
X011939Y014817D01*
X011788Y014701D02*
X009116Y014701D01*
X009116Y014584D02*
X011741Y014584D01*
X011741Y014467D02*
X009116Y014467D01*
X009116Y014351D02*
X011787Y014351D01*
X011932Y014234D02*
X009116Y014234D01*
X008644Y014234D02*
X007323Y014234D01*
X007323Y014118D02*
X008644Y014118D01*
X008644Y014001D02*
X007323Y014001D01*
X007323Y013884D02*
X008644Y013884D01*
X008644Y013768D02*
X007323Y013768D01*
X007323Y013651D02*
X008644Y013651D01*
X008644Y013535D02*
X007323Y013535D01*
X007323Y013418D02*
X008644Y013418D01*
X008644Y013301D02*
X007323Y013301D01*
X007323Y013185D02*
X008644Y013185D01*
X008644Y013068D02*
X007323Y013068D01*
X007323Y012951D02*
X008644Y012951D01*
X008644Y012835D02*
X007323Y012835D01*
X007323Y012718D02*
X008644Y012718D01*
X008644Y012602D02*
X007323Y012602D01*
X007323Y012485D02*
X008530Y012485D01*
X008414Y012368D02*
X007323Y012368D01*
X007323Y012252D02*
X008297Y012252D01*
X008181Y012135D02*
X007323Y012135D01*
X007323Y012019D02*
X008064Y012019D01*
X007947Y011902D02*
X007323Y011902D01*
X007323Y011785D02*
X007831Y011785D01*
X007714Y011669D02*
X007323Y011669D01*
X007323Y011552D02*
X007546Y011552D01*
X007368Y011436D02*
X007323Y011436D01*
X006850Y011436D02*
X006818Y011436D01*
X006818Y011426D02*
X006818Y011552D01*
X006850Y011552D01*
X006818Y011552D02*
X006770Y011668D01*
X006699Y011739D01*
X006699Y016109D01*
X006770Y016180D01*
X006818Y016296D01*
X006818Y016422D01*
X006770Y016538D01*
X006681Y016627D01*
X006565Y016675D01*
X006439Y016675D01*
X006323Y016627D01*
X006234Y016538D01*
X006186Y016422D01*
X006186Y016296D01*
X006234Y016180D01*
X006305Y016109D01*
X006305Y011739D01*
X006234Y011668D01*
X006186Y011552D01*
X006186Y011426D01*
X006234Y011310D01*
X006323Y011221D01*
X006439Y011173D01*
X006565Y011173D01*
X006681Y011221D01*
X006770Y011310D01*
X006818Y011426D01*
X006850Y011319D02*
X006774Y011319D01*
X006850Y011202D02*
X006636Y011202D01*
X006850Y011086D02*
X006095Y011086D01*
X006097Y011202D02*
X006369Y011202D01*
X006231Y011319D02*
X006136Y011319D01*
X006132Y011310D02*
X006180Y011426D01*
X006180Y011552D01*
X006186Y011552D01*
X006180Y011552D02*
X006132Y011668D01*
X006043Y011757D01*
X005927Y011805D01*
X005802Y011805D01*
X005685Y011757D01*
X005597Y011668D01*
X005549Y011552D01*
X001439Y011552D01*
X001491Y011436D02*
X001322Y011436D01*
X001313Y011427D02*
X001529Y011643D01*
X001607Y011610D01*
X002381Y011610D01*
X002542Y011677D01*
X002665Y011800D01*
X002732Y011961D01*
X002732Y012135D01*
X002665Y012296D01*
X002542Y012419D01*
X002381Y012486D01*
X001607Y012486D01*
X001446Y012419D01*
X001323Y012296D01*
X001257Y012135D01*
X000646Y012135D01*
X000646Y012019D02*
X001237Y012019D01*
X001257Y012038D02*
X000841Y011622D01*
X000841Y002853D01*
X000910Y002783D01*
X000982Y002712D01*
X000982Y002439D01*
X001062Y002358D01*
X001777Y002358D01*
X001857Y002439D01*
X001857Y003153D01*
X001777Y003234D01*
X001313Y003234D01*
X001313Y009824D01*
X001323Y009800D01*
X001446Y009677D01*
X001607Y009610D01*
X002381Y009610D01*
X002542Y009677D01*
X002665Y009800D01*
X002732Y009961D01*
X002732Y010135D01*
X002665Y010296D01*
X002542Y010419D01*
X002381Y010486D01*
X001607Y010486D01*
X001446Y010419D01*
X001323Y010296D01*
X001313Y010272D01*
X001313Y010832D01*
X001320Y010819D01*
X001360Y010763D01*
X001409Y010714D01*
X001465Y010674D01*
X001526Y010642D01*
X001592Y010621D01*
X001660Y010610D01*
X001953Y010610D01*
X001953Y011007D01*
X002035Y011007D01*
X002035Y010610D01*
X002329Y010610D01*
X002397Y010621D01*
X002462Y010642D01*
X002524Y010674D01*
X002580Y010714D01*
X002628Y010763D01*
X002669Y010819D01*
X002700Y010880D01*
X002721Y010946D01*
X002731Y011007D01*
X002035Y011007D01*
X002035Y011089D01*
X001953Y011089D01*
X001953Y011486D01*
X001660Y011486D01*
X001592Y011475D01*
X001526Y011454D01*
X001465Y011422D01*
X001409Y011382D01*
X001360Y011333D01*
X001320Y011277D01*
X001313Y011264D01*
X001313Y011427D01*
X001313Y011319D02*
X001350Y011319D01*
X001004Y011785D02*
X000646Y011785D01*
X000646Y011669D02*
X000887Y011669D01*
X000841Y011552D02*
X000646Y011552D01*
X000646Y011436D02*
X000841Y011436D01*
X000841Y011319D02*
X000646Y011319D01*
X000646Y011202D02*
X000841Y011202D01*
X000841Y011086D02*
X000646Y011086D01*
X000646Y010969D02*
X000841Y010969D01*
X000841Y010852D02*
X000646Y010852D01*
X000646Y010736D02*
X000841Y010736D01*
X000841Y010619D02*
X000646Y010619D01*
X000646Y010503D02*
X000841Y010503D01*
X000841Y010386D02*
X000646Y010386D01*
X000646Y010269D02*
X000841Y010269D01*
X000841Y010153D02*
X000646Y010153D01*
X000646Y010036D02*
X000841Y010036D01*
X000841Y009920D02*
X000646Y009920D01*
X000646Y009803D02*
X000841Y009803D01*
X000841Y009686D02*
X000646Y009686D01*
X000646Y009570D02*
X000841Y009570D01*
X000841Y009453D02*
X000646Y009453D01*
X000646Y009337D02*
X000841Y009337D01*
X000841Y009220D02*
X000646Y009220D01*
X000646Y009103D02*
X000841Y009103D01*
X000841Y008987D02*
X000646Y008987D01*
X000646Y008870D02*
X000841Y008870D01*
X000841Y008754D02*
X000646Y008754D01*
X000646Y008637D02*
X000841Y008637D01*
X000841Y008520D02*
X000646Y008520D01*
X000646Y008404D02*
X000841Y008404D01*
X000841Y008287D02*
X000646Y008287D01*
X000646Y008170D02*
X000841Y008170D01*
X000841Y008054D02*
X000646Y008054D01*
X000646Y007937D02*
X000841Y007937D01*
X000841Y007821D02*
X000646Y007821D01*
X000646Y007704D02*
X000841Y007704D01*
X000841Y007587D02*
X000646Y007587D01*
X000646Y007471D02*
X000841Y007471D01*
X000841Y007354D02*
X000646Y007354D01*
X000646Y007238D02*
X000841Y007238D01*
X000841Y007121D02*
X000646Y007121D01*
X000646Y007004D02*
X000841Y007004D01*
X000841Y006888D02*
X000646Y006888D01*
X000646Y006771D02*
X000841Y006771D01*
X000841Y006655D02*
X000646Y006655D01*
X000646Y006538D02*
X000841Y006538D01*
X000841Y006421D02*
X000646Y006421D01*
X000646Y006305D02*
X000841Y006305D01*
X000841Y006188D02*
X000646Y006188D01*
X000646Y006071D02*
X000841Y006071D01*
X000841Y005955D02*
X000646Y005955D01*
X000646Y005838D02*
X000841Y005838D01*
X000841Y005722D02*
X000646Y005722D01*
X000646Y005605D02*
X000841Y005605D01*
X000841Y005488D02*
X000646Y005488D01*
X000646Y005372D02*
X000841Y005372D01*
X000841Y005255D02*
X000646Y005255D01*
X000646Y005139D02*
X000841Y005139D01*
X000841Y005022D02*
X000646Y005022D01*
X000646Y004905D02*
X000841Y004905D01*
X000841Y004789D02*
X000646Y004789D01*
X000646Y004672D02*
X000841Y004672D01*
X000841Y004556D02*
X000646Y004556D01*
X000646Y004439D02*
X000841Y004439D01*
X000841Y004322D02*
X000646Y004322D01*
X000646Y004206D02*
X000841Y004206D01*
X000841Y004089D02*
X000646Y004089D01*
X000646Y003972D02*
X000841Y003972D01*
X000841Y003856D02*
X000646Y003856D01*
X000646Y003739D02*
X000841Y003739D01*
X000841Y003623D02*
X000646Y003623D01*
X000646Y003506D02*
X000841Y003506D01*
X000841Y003389D02*
X000646Y003389D01*
X000646Y003273D02*
X000841Y003273D01*
X000841Y003156D02*
X000646Y003156D01*
X000646Y003040D02*
X000841Y003040D01*
X000841Y002923D02*
X000646Y002923D01*
X000646Y002806D02*
X000887Y002806D01*
X000982Y002690D02*
X000646Y002690D01*
X000646Y002573D02*
X000982Y002573D01*
X000982Y002457D02*
X000646Y002457D01*
X000646Y002340D02*
X005315Y002340D01*
X005315Y002411D02*
X005315Y002252D01*
X005376Y002106D01*
X005488Y001994D01*
X005634Y001934D01*
X005792Y001934D01*
X005938Y001994D01*
X006050Y002106D01*
X006111Y002252D01*
X006111Y002411D01*
X006050Y002557D01*
X005938Y002669D01*
X005792Y002729D01*
X005634Y002729D01*
X005488Y002669D01*
X005376Y002557D01*
X005315Y002411D01*
X005334Y002457D02*
X001857Y002457D01*
X001857Y002573D02*
X005392Y002573D01*
X005538Y002690D02*
X001857Y002690D01*
X001857Y002806D02*
X003931Y002806D01*
X003973Y002764D02*
X004089Y002716D01*
X004215Y002716D01*
X004331Y002764D01*
X004402Y002835D01*
X005159Y002835D01*
X005241Y002918D01*
X005357Y003033D01*
X005357Y003598D01*
X005440Y003514D01*
X005586Y003453D01*
X005745Y003453D01*
X005891Y003514D01*
X006003Y003626D01*
X006063Y003772D01*
X006063Y003930D01*
X006003Y004077D01*
X005891Y004188D01*
X005745Y004249D01*
X005586Y004249D01*
X005440Y004188D01*
X005357Y004105D01*
X005357Y004500D01*
X005391Y004514D01*
X005503Y004626D01*
X005563Y004772D01*
X005563Y004930D01*
X005552Y004959D01*
X005731Y005139D01*
X005890Y005139D01*
X005857Y005105D01*
X005813Y005040D01*
X005783Y004967D01*
X005768Y004890D01*
X005768Y004872D01*
X006145Y004872D01*
X006145Y004830D01*
X006187Y004830D01*
X006187Y004872D01*
X006563Y004872D01*
X006563Y004890D01*
X006548Y004967D01*
X006518Y005040D01*
X006475Y005105D01*
X006441Y005139D01*
X006496Y005139D01*
X006567Y005068D01*
X006683Y005020D01*
X006809Y005020D01*
X006925Y005068D01*
X007014Y005156D01*
X007062Y005273D01*
X007062Y005398D01*
X007014Y005514D01*
X006925Y005603D01*
X006809Y005651D01*
X006683Y005651D01*
X006567Y005603D01*
X006496Y005532D01*
X005568Y005532D01*
X005453Y005417D01*
X005273Y005237D01*
X005245Y005249D01*
X005086Y005249D01*
X004940Y005188D01*
X004828Y005077D01*
X004768Y004930D01*
X004768Y004772D01*
X004828Y004626D01*
X004940Y004514D01*
X004963Y004505D01*
X004963Y004117D01*
X004891Y004188D01*
X004745Y004249D01*
X004586Y004249D01*
X004440Y004188D01*
X004328Y004077D01*
X004268Y003930D01*
X004268Y003772D01*
X004328Y003626D01*
X004440Y003514D01*
X004586Y003453D01*
X004745Y003453D01*
X004891Y003514D01*
X004963Y003586D01*
X004963Y003229D01*
X004402Y003229D01*
X004331Y003300D01*
X004215Y003348D01*
X004089Y003348D01*
X003973Y003300D01*
X003884Y003211D01*
X003836Y003095D01*
X003836Y002969D01*
X003884Y002853D01*
X003973Y002764D01*
X003855Y002923D02*
X001857Y002923D01*
X001857Y003040D02*
X003836Y003040D01*
X003861Y003156D02*
X001854Y003156D01*
X001313Y003273D02*
X003946Y003273D01*
X004152Y003032D02*
X005077Y003032D01*
X005160Y003115D01*
X005160Y004845D01*
X005166Y004851D01*
X005650Y005335D01*
X006746Y005335D01*
X006664Y005331D01*
X006572Y005605D02*
X001313Y005605D01*
X001313Y005488D02*
X005524Y005488D01*
X005408Y005372D02*
X001313Y005372D01*
X001313Y005255D02*
X005291Y005255D01*
X005615Y005022D02*
X005806Y005022D01*
X005771Y004905D02*
X005563Y004905D01*
X005563Y004789D02*
X005772Y004789D01*
X005768Y004812D02*
X005783Y004735D01*
X005813Y004663D01*
X005857Y004598D01*
X005912Y004542D01*
X005977Y004499D01*
X006050Y004469D01*
X006126Y004453D01*
X006145Y004453D01*
X006145Y004830D01*
X005768Y004830D01*
X005768Y004812D01*
X005809Y004672D02*
X005522Y004672D01*
X005433Y004556D02*
X005899Y004556D01*
X006145Y004556D02*
X006187Y004556D01*
X006187Y004453D02*
X006205Y004453D01*
X006282Y004469D01*
X006354Y004499D01*
X006419Y004542D01*
X006475Y004598D01*
X006518Y004663D01*
X006548Y004735D01*
X006563Y004812D01*
X006563Y004830D01*
X006187Y004830D01*
X006187Y004453D01*
X006187Y004672D02*
X006145Y004672D01*
X006145Y004789D02*
X006187Y004789D01*
X006433Y004556D02*
X007236Y004556D01*
X007236Y004501D02*
X007279Y004397D01*
X006652Y002729D01*
X006634Y002729D01*
X006488Y002669D01*
X006376Y002557D01*
X006315Y002411D01*
X006315Y002252D01*
X006376Y002106D01*
X006488Y001994D01*
X006634Y001934D01*
X006792Y001934D01*
X006938Y001994D01*
X007050Y002106D01*
X007111Y002252D01*
X007111Y002411D01*
X007050Y002557D01*
X007019Y002588D01*
X007648Y004262D01*
X007730Y004296D01*
X007819Y004385D01*
X007867Y004501D01*
X007867Y004627D01*
X007819Y004743D01*
X007730Y004832D01*
X007614Y004880D01*
X007489Y004880D01*
X007372Y004832D01*
X007284Y004743D01*
X007236Y004627D01*
X007236Y004501D01*
X007261Y004439D02*
X005357Y004439D01*
X005357Y004322D02*
X007250Y004322D01*
X007207Y004206D02*
X005849Y004206D01*
X005990Y004089D02*
X007163Y004089D01*
X007119Y003972D02*
X006046Y003972D01*
X006063Y003856D02*
X007075Y003856D01*
X007031Y003739D02*
X006050Y003739D01*
X006000Y003623D02*
X006988Y003623D01*
X006944Y003506D02*
X005872Y003506D01*
X005459Y003506D02*
X005357Y003506D01*
X005357Y003389D02*
X006900Y003389D01*
X006856Y003273D02*
X005357Y003273D01*
X005357Y003156D02*
X006812Y003156D01*
X006769Y003040D02*
X005357Y003040D01*
X005246Y002923D02*
X006725Y002923D01*
X006681Y002806D02*
X004373Y002806D01*
X004358Y003273D02*
X004963Y003273D01*
X004963Y003389D02*
X001313Y003389D01*
X001313Y003506D02*
X004459Y003506D01*
X004332Y003623D02*
X001313Y003623D01*
X001313Y003739D02*
X004281Y003739D01*
X004268Y003856D02*
X001313Y003856D01*
X001313Y003972D02*
X004285Y003972D01*
X004341Y004089D02*
X001313Y004089D01*
X001313Y004206D02*
X004482Y004206D01*
X004849Y004206D02*
X004963Y004206D01*
X004963Y004322D02*
X003412Y004322D01*
X003394Y004304D02*
X003483Y004393D01*
X003531Y004509D01*
X003531Y004634D01*
X003483Y004751D01*
X003394Y004839D01*
X003278Y004888D01*
X003152Y004888D01*
X003036Y004839D01*
X002947Y004751D01*
X002899Y004634D01*
X002899Y004509D01*
X002947Y004393D01*
X003036Y004304D01*
X003152Y004256D01*
X003278Y004256D01*
X003394Y004304D01*
X003502Y004439D02*
X004963Y004439D01*
X004899Y004556D02*
X003531Y004556D01*
X003515Y004672D02*
X004809Y004672D01*
X004768Y004789D02*
X003444Y004789D01*
X002985Y004789D02*
X002080Y004789D01*
X002069Y004814D02*
X001980Y004902D01*
X001864Y004951D01*
X001739Y004951D01*
X001622Y004902D01*
X001534Y004814D01*
X001486Y004697D01*
X001486Y004572D01*
X001534Y004456D01*
X001622Y004367D01*
X001739Y004319D01*
X001864Y004319D01*
X001980Y004367D01*
X002069Y004456D01*
X002117Y004572D01*
X002117Y004697D01*
X002069Y004814D01*
X001973Y004905D02*
X004768Y004905D01*
X004806Y005022D02*
X001313Y005022D01*
X001313Y005139D02*
X004890Y005139D01*
X005357Y004206D02*
X005482Y004206D01*
X004963Y003506D02*
X004872Y003506D01*
X005887Y002690D02*
X006538Y002690D01*
X006392Y002573D02*
X006034Y002573D01*
X006092Y002457D02*
X006334Y002457D01*
X006315Y002340D02*
X006111Y002340D01*
X006099Y002223D02*
X006327Y002223D01*
X006375Y002107D02*
X006050Y002107D01*
X005928Y001990D02*
X006498Y001990D01*
X006401Y001684D02*
X006329Y001714D01*
X006252Y001729D01*
X006234Y001729D01*
X006234Y001352D01*
X006611Y001352D01*
X006611Y001371D01*
X006595Y001448D01*
X006565Y001520D01*
X006522Y001585D01*
X006466Y001640D01*
X006401Y001684D01*
X006467Y001640D02*
X008510Y001640D01*
X008566Y001696D02*
X008454Y001584D01*
X008394Y001438D01*
X008394Y001280D01*
X008454Y001134D01*
X008566Y001022D01*
X008712Y000961D01*
X008871Y000961D01*
X009017Y001022D01*
X009129Y001134D01*
X009189Y001280D01*
X009189Y001438D01*
X009129Y001584D01*
X009017Y001696D01*
X008871Y001757D01*
X008712Y001757D01*
X008566Y001696D01*
X008429Y001524D02*
X006563Y001524D01*
X006603Y001407D02*
X008394Y001407D01*
X008394Y001290D02*
X006610Y001290D01*
X006611Y001292D02*
X006595Y001215D01*
X006565Y001143D01*
X006522Y001078D01*
X006466Y001023D01*
X006401Y000979D01*
X006329Y000949D01*
X006252Y000934D01*
X006234Y000934D01*
X006234Y001311D01*
X006234Y001352D01*
X006192Y001352D01*
X006192Y001311D01*
X005815Y001311D01*
X005815Y001292D01*
X005830Y001215D01*
X005860Y001143D01*
X005904Y001078D01*
X005959Y001023D01*
X006024Y000979D01*
X006097Y000949D01*
X006174Y000934D01*
X006192Y000934D01*
X006192Y001311D01*
X006234Y001311D01*
X006611Y001311D01*
X006611Y001292D01*
X006578Y001174D02*
X008438Y001174D01*
X008531Y001057D02*
X006501Y001057D01*
X006287Y000941D02*
X012604Y000941D01*
X012550Y000963D02*
X012697Y000902D01*
X012855Y000902D01*
X013001Y000963D01*
X013113Y001075D01*
X013174Y001221D01*
X013174Y001379D01*
X013113Y001525D01*
X013001Y001637D01*
X012855Y001698D01*
X012697Y001698D01*
X012550Y001637D01*
X012439Y001525D01*
X012378Y001379D01*
X012378Y001221D01*
X012439Y001075D01*
X012550Y000963D01*
X012456Y001057D02*
X010052Y001057D01*
X010045Y001050D02*
X010101Y001105D01*
X010144Y001171D01*
X010174Y001243D01*
X010189Y001320D01*
X010189Y001338D01*
X009813Y001338D01*
X009813Y001380D01*
X010189Y001380D01*
X010189Y001398D01*
X010174Y001475D01*
X010144Y001547D01*
X010101Y001613D01*
X010045Y001668D01*
X009980Y001712D01*
X009908Y001742D01*
X009831Y001757D01*
X009813Y001757D01*
X009813Y001380D01*
X009771Y001380D01*
X009771Y001757D01*
X009752Y001757D01*
X009676Y001742D01*
X009603Y001712D01*
X009538Y001668D01*
X009483Y001613D01*
X009439Y001547D01*
X009409Y001475D01*
X009394Y001398D01*
X009394Y001380D01*
X009771Y001380D01*
X009771Y001338D01*
X009813Y001338D01*
X009813Y000961D01*
X009831Y000961D01*
X009908Y000977D01*
X009980Y001007D01*
X010045Y001050D01*
X010145Y001174D02*
X012398Y001174D01*
X012378Y001290D02*
X010184Y001290D01*
X010188Y001407D02*
X012390Y001407D01*
X012438Y001524D02*
X010154Y001524D01*
X010073Y001640D02*
X012558Y001640D01*
X012994Y001640D02*
X013569Y001640D01*
X013587Y001653D02*
X013522Y001609D01*
X013467Y001554D01*
X013423Y001488D01*
X013393Y001416D01*
X013378Y001339D01*
X013378Y001321D01*
X013755Y001321D01*
X013755Y001698D01*
X013737Y001698D01*
X013660Y001683D01*
X013587Y001653D01*
X013755Y001640D02*
X013797Y001640D01*
X013797Y001698D02*
X013815Y001698D01*
X013892Y001683D01*
X013964Y001653D01*
X014029Y001609D01*
X014085Y001554D01*
X014128Y001488D01*
X014158Y001416D01*
X014174Y001339D01*
X014174Y001321D01*
X013797Y001321D01*
X013797Y001279D01*
X014174Y001279D01*
X014174Y001261D01*
X014158Y001184D01*
X014128Y001112D01*
X014085Y001046D01*
X014029Y000991D01*
X013964Y000947D01*
X013892Y000917D01*
X013815Y000902D01*
X013797Y000902D01*
X013797Y001279D01*
X013755Y001279D01*
X013755Y000902D01*
X013737Y000902D01*
X013660Y000917D01*
X013587Y000947D01*
X013522Y000991D01*
X013467Y001046D01*
X013423Y001112D01*
X013393Y001184D01*
X013378Y001261D01*
X013378Y001279D01*
X013755Y001279D01*
X013755Y001321D01*
X013797Y001321D01*
X013797Y001698D01*
X013797Y001524D02*
X013755Y001524D01*
X013755Y001407D02*
X013797Y001407D01*
X013797Y001290D02*
X016431Y001290D01*
X016353Y001369D02*
X016575Y001147D01*
X016865Y001027D01*
X017179Y001027D01*
X017469Y001147D01*
X017691Y001369D01*
X017811Y001659D01*
X017811Y001973D01*
X017691Y002263D01*
X017469Y002485D01*
X017179Y002605D01*
X016865Y002605D01*
X016575Y002485D01*
X016353Y002263D01*
X016233Y001973D01*
X016233Y001659D01*
X016353Y001369D01*
X016337Y001407D02*
X014160Y001407D01*
X014105Y001524D02*
X016289Y001524D01*
X016241Y001640D02*
X013983Y001640D01*
X014023Y001990D02*
X013528Y001990D01*
X013501Y001963D02*
X013613Y002075D01*
X013674Y002221D01*
X013674Y002379D01*
X013613Y002525D01*
X013501Y002637D01*
X013355Y002698D01*
X013197Y002698D01*
X013050Y002637D01*
X012939Y002525D01*
X012878Y002379D01*
X012878Y002221D01*
X012939Y002075D01*
X013050Y001963D01*
X013197Y001902D01*
X013355Y001902D01*
X013501Y001963D01*
X013626Y002107D02*
X013925Y002107D01*
X013878Y002223D02*
X013674Y002223D01*
X013674Y002340D02*
X013878Y002340D01*
X013910Y002457D02*
X013642Y002457D01*
X013565Y002573D02*
X013986Y002573D01*
X014079Y002690D02*
X013374Y002690D01*
X013177Y002690D02*
X010523Y002690D01*
X010517Y002696D02*
X010371Y002757D01*
X010212Y002757D01*
X010066Y002696D01*
X009954Y002584D01*
X009894Y002438D01*
X009894Y002280D01*
X009954Y002134D01*
X010066Y002022D01*
X010212Y001961D01*
X010371Y001961D01*
X010517Y002022D01*
X010629Y002134D01*
X010689Y002280D01*
X010689Y002438D01*
X010629Y002584D01*
X010517Y002696D01*
X010633Y002573D02*
X012986Y002573D01*
X012910Y002457D02*
X010682Y002457D01*
X010689Y002340D02*
X012878Y002340D01*
X012878Y002223D02*
X010666Y002223D01*
X010602Y002107D02*
X012925Y002107D01*
X013023Y001990D02*
X010440Y001990D01*
X010143Y001990D02*
X009440Y001990D01*
X009371Y001961D02*
X009517Y002022D01*
X009629Y002134D01*
X009689Y002280D01*
X009689Y002438D01*
X009629Y002584D01*
X009517Y002696D01*
X009371Y002757D01*
X009212Y002757D01*
X009066Y002696D01*
X008954Y002584D01*
X008894Y002438D01*
X008894Y002280D01*
X008954Y002134D01*
X009066Y002022D01*
X009212Y001961D01*
X009371Y001961D01*
X009602Y002107D02*
X009981Y002107D01*
X009917Y002223D02*
X009666Y002223D01*
X009689Y002340D02*
X009894Y002340D01*
X009901Y002457D02*
X009682Y002457D01*
X009633Y002573D02*
X009950Y002573D01*
X010060Y002690D02*
X009523Y002690D01*
X009060Y002690D02*
X007058Y002690D01*
X007034Y002573D02*
X008950Y002573D01*
X008901Y002457D02*
X007092Y002457D01*
X007111Y002340D02*
X008894Y002340D01*
X008917Y002223D02*
X007099Y002223D01*
X007050Y002107D02*
X008981Y002107D01*
X009143Y001990D02*
X006928Y001990D01*
X006713Y002331D02*
X007551Y004564D01*
X007773Y004789D02*
X007986Y004789D01*
X007983Y004695D01*
X007986Y004692D01*
X007986Y004089D01*
X007583Y004089D01*
X007540Y003972D02*
X007920Y003972D01*
X007907Y003942D02*
X007907Y003816D01*
X007955Y003700D01*
X008044Y003611D01*
X008160Y003563D01*
X008286Y003563D01*
X008402Y003611D01*
X008490Y003700D01*
X008539Y003816D01*
X008539Y003942D01*
X008490Y004058D01*
X008459Y004089D01*
X008612Y004089D01*
X008610Y003972D02*
X008526Y003972D01*
X008539Y003856D02*
X008608Y003856D01*
X008606Y003739D02*
X008507Y003739D01*
X008413Y003623D02*
X008604Y003623D01*
X008602Y003506D02*
X007364Y003506D01*
X007321Y003389D02*
X007546Y003389D01*
X007552Y003395D02*
X007463Y003306D01*
X007415Y003190D01*
X007415Y003064D01*
X007463Y002948D01*
X007552Y002859D01*
X007668Y002811D01*
X007793Y002811D01*
X007909Y002859D01*
X007998Y002948D01*
X008046Y003064D01*
X008046Y003190D01*
X007998Y003306D01*
X007909Y003395D01*
X007793Y003443D01*
X007668Y003443D01*
X007552Y003395D01*
X007449Y003273D02*
X007277Y003273D01*
X007233Y003156D02*
X007415Y003156D01*
X007425Y003040D02*
X007189Y003040D01*
X007145Y002923D02*
X007488Y002923D01*
X007102Y002806D02*
X014079Y002806D01*
X014079Y002923D02*
X008889Y002923D01*
X008856Y002909D02*
X008972Y002957D01*
X009061Y003046D01*
X009109Y003162D01*
X009109Y003288D01*
X009061Y003404D01*
X008995Y003471D01*
X009040Y006011D01*
X009063Y006020D01*
X009152Y006109D01*
X009200Y006225D01*
X009200Y006351D01*
X009152Y006467D01*
X009063Y006556D01*
X008947Y006604D01*
X008821Y006604D01*
X008705Y006556D01*
X008616Y006467D01*
X008570Y006354D01*
X008546Y006412D01*
X008457Y006501D01*
X008341Y006549D01*
X008215Y006549D01*
X008099Y006501D01*
X008010Y006412D01*
X007962Y006296D01*
X007962Y006170D01*
X008010Y006054D01*
X008034Y006030D01*
X007990Y004886D01*
X007986Y004882D01*
X007986Y004789D01*
X007991Y004905D02*
X006560Y004905D01*
X006559Y004789D02*
X007330Y004789D01*
X007254Y004672D02*
X006522Y004672D01*
X006525Y005022D02*
X006678Y005022D01*
X006815Y005022D02*
X007995Y005022D01*
X008000Y005139D02*
X006996Y005139D01*
X007055Y005255D02*
X008004Y005255D01*
X008009Y005372D02*
X007062Y005372D01*
X007025Y005488D02*
X008013Y005488D01*
X008018Y005605D02*
X006921Y005605D01*
X006511Y005955D02*
X008031Y005955D01*
X008026Y005838D02*
X002751Y005838D01*
X002634Y005722D02*
X008022Y005722D01*
X008003Y006071D02*
X006627Y006071D01*
X006744Y006188D02*
X007962Y006188D01*
X007966Y006305D02*
X006861Y006305D01*
X006977Y006421D02*
X008019Y006421D01*
X008188Y006538D02*
X007094Y006538D01*
X007210Y006655D02*
X008129Y006655D01*
X008013Y006771D02*
X007280Y006771D01*
X007323Y006888D02*
X007896Y006888D01*
X007779Y007004D02*
X007323Y007004D01*
X007323Y007121D02*
X007663Y007121D01*
X007546Y007238D02*
X007323Y007238D01*
X007323Y007354D02*
X007429Y007354D01*
X007372Y007471D02*
X007323Y007471D01*
X007323Y007587D02*
X007372Y007587D01*
X007372Y007704D02*
X007323Y007704D01*
X007323Y007821D02*
X007372Y007821D01*
X007372Y007937D02*
X007323Y007937D01*
X007323Y008054D02*
X007372Y008054D01*
X007372Y008170D02*
X007323Y008170D01*
X007323Y008287D02*
X007372Y008287D01*
X007372Y008404D02*
X007323Y008404D01*
X007323Y008520D02*
X007372Y008520D01*
X007372Y008637D02*
X007323Y008637D01*
X007323Y008754D02*
X007372Y008754D01*
X007372Y008870D02*
X007323Y008870D01*
X007323Y008987D02*
X007372Y008987D01*
X007372Y009103D02*
X007323Y009103D01*
X007323Y009220D02*
X007372Y009220D01*
X007357Y009337D02*
X007323Y009337D01*
X007569Y009572D02*
X007569Y007493D01*
X008227Y006835D01*
X009644Y006835D01*
X011014Y008206D01*
X012817Y008206D01*
X014276Y006747D01*
X014276Y002300D01*
X014642Y002457D02*
X016547Y002457D01*
X016430Y002340D02*
X014674Y002340D01*
X014674Y002223D02*
X016337Y002223D01*
X016288Y002107D02*
X014626Y002107D01*
X014528Y001990D02*
X016240Y001990D01*
X016233Y001873D02*
X001857Y001873D01*
X001857Y001837D02*
X001857Y002114D01*
X001848Y002149D01*
X001830Y002181D01*
X001804Y002206D01*
X001773Y002224D01*
X001738Y002234D01*
X001460Y002234D01*
X001460Y001837D01*
X001379Y001837D01*
X001379Y002234D01*
X001101Y002234D01*
X001066Y002224D01*
X001035Y002206D01*
X001009Y002181D01*
X000991Y002149D01*
X000982Y002114D01*
X000982Y001837D01*
X001379Y001837D01*
X001379Y001755D01*
X001460Y001755D01*
X001460Y001358D01*
X001738Y001358D01*
X001773Y001368D01*
X001804Y001386D01*
X001830Y001411D01*
X001848Y001443D01*
X001857Y001478D01*
X001857Y001755D01*
X001460Y001755D01*
X001460Y001837D01*
X001857Y001837D01*
X001857Y001990D02*
X005498Y001990D01*
X005375Y002107D02*
X001857Y002107D01*
X001775Y002223D02*
X005327Y002223D01*
X005292Y001729D02*
X005134Y001729D01*
X004988Y001669D01*
X004876Y001557D01*
X004815Y001411D01*
X004815Y001252D01*
X004876Y001106D01*
X004988Y000994D01*
X005134Y000934D01*
X005292Y000934D01*
X005438Y000994D01*
X005550Y001106D01*
X005611Y001252D01*
X005611Y001411D01*
X005550Y001557D01*
X005438Y001669D01*
X005292Y001729D01*
X005467Y001640D02*
X005959Y001640D01*
X005904Y001585D01*
X005860Y001520D01*
X005830Y001448D01*
X005815Y001371D01*
X005815Y001352D01*
X006192Y001352D01*
X006192Y001729D01*
X006174Y001729D01*
X006097Y001714D01*
X006024Y001684D01*
X005959Y001640D01*
X005863Y001524D02*
X005564Y001524D01*
X005611Y001407D02*
X005822Y001407D01*
X005815Y001290D02*
X005611Y001290D01*
X005578Y001174D02*
X005848Y001174D01*
X005925Y001057D02*
X005501Y001057D01*
X005309Y000941D02*
X006139Y000941D01*
X006192Y000941D02*
X006234Y000941D01*
X006234Y001057D02*
X006192Y001057D01*
X006192Y001174D02*
X006234Y001174D01*
X006234Y001290D02*
X006192Y001290D01*
X006192Y001407D02*
X006234Y001407D01*
X006234Y001524D02*
X006192Y001524D01*
X006192Y001640D02*
X006234Y001640D01*
X004959Y001640D02*
X001857Y001640D01*
X001857Y001524D02*
X004862Y001524D01*
X004815Y001407D02*
X001825Y001407D01*
X001460Y001407D02*
X001379Y001407D01*
X001379Y001358D02*
X001379Y001755D01*
X000982Y001755D01*
X000982Y001478D01*
X000991Y001443D01*
X001009Y001411D01*
X001035Y001386D01*
X001066Y001368D01*
X001101Y001358D01*
X001379Y001358D01*
X001379Y001524D02*
X001460Y001524D01*
X001460Y001640D02*
X001379Y001640D01*
X001379Y001757D02*
X000646Y001757D01*
X000646Y001873D02*
X000982Y001873D01*
X000982Y001990D02*
X000646Y001990D01*
X000646Y002107D02*
X000982Y002107D01*
X001064Y002223D02*
X000646Y002223D01*
X000646Y001640D02*
X000982Y001640D01*
X000982Y001524D02*
X000646Y001524D01*
X000646Y001407D02*
X001014Y001407D01*
X000646Y001290D02*
X004815Y001290D01*
X004848Y001174D02*
X000646Y001174D01*
X000646Y001057D02*
X004925Y001057D01*
X005117Y000941D02*
X000646Y000941D01*
X000646Y000824D02*
X018044Y000824D01*
X018044Y000941D02*
X013948Y000941D01*
X013797Y000941D02*
X013755Y000941D01*
X013755Y001057D02*
X013797Y001057D01*
X013797Y001174D02*
X013755Y001174D01*
X013755Y001290D02*
X013174Y001290D01*
X013162Y001407D02*
X013392Y001407D01*
X013447Y001524D02*
X013114Y001524D01*
X013154Y001174D02*
X013398Y001174D01*
X013460Y001057D02*
X013096Y001057D01*
X012948Y000941D02*
X013604Y000941D01*
X014092Y001057D02*
X016791Y001057D01*
X016548Y001174D02*
X014154Y001174D01*
X014565Y002573D02*
X015811Y002573D01*
X015698Y002690D02*
X014473Y002690D01*
X014473Y002806D02*
X015659Y002806D01*
X015664Y002923D02*
X014473Y002923D01*
X014473Y003040D02*
X015720Y003040D01*
X015895Y003156D02*
X014473Y003156D01*
X014079Y003156D02*
X011216Y003156D01*
X011195Y003105D02*
X011243Y003221D01*
X011243Y003347D01*
X011195Y003463D01*
X011106Y003552D01*
X010990Y003600D01*
X010865Y003600D01*
X010748Y003552D01*
X010660Y003463D01*
X010611Y003347D01*
X010611Y003221D01*
X010660Y003105D01*
X010748Y003016D01*
X010865Y002968D01*
X010990Y002968D01*
X011106Y003016D01*
X011195Y003105D01*
X011130Y003040D02*
X014079Y003040D01*
X014079Y003273D02*
X011243Y003273D01*
X011226Y003389D02*
X014079Y003389D01*
X014079Y003506D02*
X011152Y003506D01*
X010702Y003506D02*
X008995Y003506D01*
X008998Y003623D02*
X014079Y003623D01*
X014079Y003739D02*
X009000Y003739D01*
X009002Y003856D02*
X011758Y003856D01*
X011800Y003839D02*
X011639Y003905D01*
X011516Y004028D01*
X011449Y004189D01*
X011449Y004363D01*
X011516Y004524D01*
X011639Y004648D01*
X011800Y004714D01*
X012574Y004714D01*
X012735Y004648D01*
X012858Y004524D01*
X012925Y004363D01*
X012925Y004189D01*
X012858Y004028D01*
X012735Y003905D01*
X012574Y003839D01*
X011800Y003839D01*
X011572Y003972D02*
X009004Y003972D01*
X009006Y004089D02*
X011491Y004089D01*
X011449Y004206D02*
X009008Y004206D01*
X009010Y004322D02*
X009305Y004322D01*
X009331Y004296D02*
X009447Y004248D01*
X009573Y004248D01*
X009689Y004296D01*
X009778Y004385D01*
X009826Y004501D01*
X009826Y004627D01*
X009778Y004743D01*
X009707Y004814D01*
X009707Y005940D01*
X009768Y005965D01*
X009857Y006054D01*
X009905Y006170D01*
X009905Y006296D01*
X009857Y006412D01*
X009768Y006501D01*
X009652Y006549D01*
X009526Y006549D01*
X009410Y006501D01*
X009321Y006412D01*
X009273Y006296D01*
X009273Y006170D01*
X009313Y006073D01*
X009313Y004814D01*
X009242Y004743D01*
X009194Y004627D01*
X009194Y004501D01*
X009242Y004385D01*
X009331Y004296D01*
X009220Y004439D02*
X009012Y004439D01*
X009014Y004556D02*
X009194Y004556D01*
X009213Y004672D02*
X009016Y004672D01*
X009019Y004789D02*
X009288Y004789D01*
X009313Y004905D02*
X009021Y004905D01*
X009023Y005022D02*
X009313Y005022D01*
X009313Y005139D02*
X009025Y005139D01*
X009027Y005255D02*
X009313Y005255D01*
X009313Y005372D02*
X009029Y005372D01*
X009031Y005488D02*
X009313Y005488D01*
X009313Y005605D02*
X009033Y005605D01*
X009035Y005722D02*
X009313Y005722D01*
X009313Y005838D02*
X009037Y005838D01*
X009039Y005955D02*
X009313Y005955D01*
X009313Y006071D02*
X009114Y006071D01*
X009185Y006188D02*
X009273Y006188D01*
X009277Y006305D02*
X009200Y006305D01*
X009171Y006421D02*
X009330Y006421D01*
X009499Y006538D02*
X009081Y006538D01*
X008884Y006288D02*
X008849Y006292D01*
X008794Y003225D01*
X008698Y002923D02*
X007974Y002923D01*
X008036Y003040D02*
X008532Y003040D01*
X008526Y003046D02*
X008615Y002957D01*
X008731Y002909D01*
X008856Y002909D01*
X009055Y003040D02*
X010725Y003040D01*
X010639Y003156D02*
X009107Y003156D01*
X009109Y003273D02*
X010611Y003273D01*
X010629Y003389D02*
X009067Y003389D01*
X008601Y003480D02*
X008526Y003404D01*
X008478Y003288D01*
X008478Y003162D01*
X008526Y003046D01*
X008480Y003156D02*
X008046Y003156D01*
X008012Y003273D02*
X008478Y003273D01*
X008520Y003389D02*
X007915Y003389D01*
X008032Y003623D02*
X007408Y003623D01*
X007452Y003739D02*
X007939Y003739D01*
X007907Y003856D02*
X007496Y003856D01*
X007627Y004206D02*
X007986Y004206D01*
X007986Y004322D02*
X007757Y004322D01*
X007842Y004439D02*
X007986Y004439D01*
X007986Y004556D02*
X007867Y004556D01*
X007848Y004672D02*
X007986Y004672D01*
X008459Y004672D02*
X008623Y004672D01*
X008621Y004556D02*
X008459Y004556D01*
X008459Y004439D02*
X008618Y004439D01*
X008616Y004322D02*
X008459Y004322D01*
X008459Y004206D02*
X008614Y004206D01*
X008459Y004089D02*
X008459Y004780D01*
X008506Y006014D01*
X008546Y006054D01*
X008592Y006167D01*
X008616Y006109D01*
X008648Y006078D01*
X008601Y003480D01*
X007907Y003942D02*
X007955Y004058D01*
X007986Y004089D01*
X008459Y004789D02*
X008625Y004789D01*
X008627Y004905D02*
X008464Y004905D01*
X008468Y005022D02*
X008629Y005022D01*
X008631Y005139D02*
X008473Y005139D01*
X008477Y005255D02*
X008633Y005255D01*
X008635Y005372D02*
X008481Y005372D01*
X008486Y005488D02*
X008637Y005488D01*
X008639Y005605D02*
X008490Y005605D01*
X008495Y005722D02*
X008642Y005722D01*
X008644Y005838D02*
X008499Y005838D01*
X008504Y005955D02*
X008646Y005955D01*
X008648Y006071D02*
X008553Y006071D01*
X008536Y006421D02*
X008597Y006421D01*
X008687Y006538D02*
X008367Y006538D01*
X008219Y007121D02*
X009651Y007121D01*
X009768Y007238D02*
X008103Y007238D01*
X007986Y007354D02*
X009884Y007354D01*
X010001Y007471D02*
X007870Y007471D01*
X007766Y007587D02*
X010118Y007587D01*
X010234Y007704D02*
X008878Y007704D01*
X008717Y007704D02*
X007766Y007704D01*
X007766Y007821D02*
X008543Y007821D01*
X008487Y007937D02*
X007766Y007937D01*
X007766Y008054D02*
X008482Y008054D01*
X008395Y008170D02*
X007766Y008170D01*
X007766Y008287D02*
X008267Y008287D01*
X008140Y008404D02*
X007766Y008404D01*
X007766Y008520D02*
X008012Y008520D01*
X007944Y008637D02*
X007766Y008637D01*
X007766Y008754D02*
X007938Y008754D01*
X007931Y008870D02*
X007766Y008870D01*
X007766Y008987D02*
X007924Y008987D01*
X007917Y009103D02*
X007766Y009103D01*
X007766Y009220D02*
X007910Y009220D01*
X007903Y009337D02*
X007781Y009337D01*
X007862Y009453D02*
X007896Y009453D01*
X008085Y009595D02*
X007569Y010119D01*
X007849Y010269D02*
X008235Y010269D01*
X008351Y010153D02*
X007885Y010153D01*
X007927Y010036D02*
X008468Y010036D01*
X008490Y009920D02*
X008042Y009920D01*
X008157Y009803D02*
X008490Y009803D01*
X008490Y009686D02*
X008277Y009686D01*
X008284Y009570D02*
X008490Y009570D01*
X008490Y009453D02*
X008291Y009453D01*
X008297Y009337D02*
X008490Y009337D01*
X008490Y009220D02*
X008304Y009220D01*
X008311Y009103D02*
X008490Y009103D01*
X008490Y008987D02*
X008318Y008987D01*
X008325Y008870D02*
X008490Y008870D01*
X008514Y008754D02*
X008341Y008754D01*
X008468Y008637D02*
X008631Y008637D01*
X008596Y008520D02*
X008748Y008520D01*
X008723Y008404D02*
X008864Y008404D01*
X008960Y008287D02*
X008981Y008287D01*
X009074Y008170D02*
X009097Y008170D01*
X009113Y008054D02*
X009181Y008054D01*
X009249Y007937D02*
X009108Y007937D01*
X009052Y007821D02*
X010351Y007821D01*
X010467Y007937D02*
X009716Y007937D01*
X009784Y008054D02*
X010584Y008054D01*
X010701Y008170D02*
X009798Y008170D01*
X009768Y008287D02*
X010817Y008287D01*
X011024Y007937D02*
X012807Y007937D01*
X012924Y007821D02*
X010908Y007821D01*
X010791Y007704D02*
X011776Y007704D01*
X011800Y007714D02*
X011639Y007648D01*
X011516Y007524D01*
X011449Y007363D01*
X011449Y007189D01*
X011516Y007028D01*
X011639Y006905D01*
X011800Y006839D01*
X012574Y006839D01*
X012735Y006905D01*
X012858Y007028D01*
X012925Y007189D01*
X012925Y007363D01*
X012858Y007524D01*
X012735Y007648D01*
X012574Y007714D01*
X011800Y007714D01*
X011579Y007587D02*
X010674Y007587D01*
X010558Y007471D02*
X011494Y007471D01*
X011449Y007354D02*
X010441Y007354D01*
X010324Y007238D02*
X011449Y007238D01*
X011478Y007121D02*
X010208Y007121D01*
X010091Y007004D02*
X011540Y007004D01*
X011681Y006888D02*
X011192Y006888D01*
X011227Y006853D02*
X011138Y006942D01*
X011022Y006990D01*
X010896Y006990D01*
X010780Y006942D01*
X010691Y006853D01*
X010643Y006737D01*
X010643Y006611D01*
X010691Y006495D01*
X010780Y006406D01*
X010896Y006358D01*
X011022Y006358D01*
X011138Y006406D01*
X011227Y006495D01*
X011275Y006611D01*
X011275Y006737D01*
X011227Y006853D01*
X011261Y006771D02*
X013973Y006771D01*
X014079Y006655D02*
X012718Y006655D01*
X012735Y006648D02*
X012574Y006714D01*
X011800Y006714D01*
X011639Y006648D01*
X011516Y006524D01*
X011449Y006363D01*
X011449Y006189D01*
X011516Y006028D01*
X011639Y005905D01*
X011800Y005839D01*
X012574Y005839D01*
X012735Y005905D01*
X012858Y006028D01*
X012925Y006189D01*
X012925Y006363D01*
X012858Y006524D01*
X012735Y006648D01*
X012845Y006538D02*
X014079Y006538D01*
X014079Y006421D02*
X012901Y006421D01*
X012925Y006305D02*
X014079Y006305D01*
X014079Y006188D02*
X012925Y006188D01*
X012876Y006071D02*
X014079Y006071D01*
X014079Y005955D02*
X012785Y005955D01*
X012655Y005682D02*
X012590Y005703D01*
X012522Y005714D01*
X012228Y005714D01*
X012228Y005317D01*
X012924Y005317D01*
X012914Y005379D01*
X012893Y005444D01*
X012862Y005506D01*
X012821Y005562D01*
X012772Y005610D01*
X012717Y005651D01*
X012655Y005682D01*
X012778Y005605D02*
X014079Y005605D01*
X014079Y005488D02*
X012871Y005488D01*
X012915Y005372D02*
X014079Y005372D01*
X014079Y005255D02*
X012228Y005255D01*
X012228Y005235D02*
X012228Y005317D01*
X012146Y005317D01*
X012146Y005235D01*
X012228Y005235D01*
X012228Y004839D01*
X012522Y004839D01*
X012590Y004849D01*
X012655Y004871D01*
X012717Y004902D01*
X012772Y004942D01*
X012821Y004991D01*
X012862Y005047D01*
X012893Y005108D01*
X012914Y005174D01*
X012924Y005235D01*
X012228Y005235D01*
X012146Y005235D02*
X012146Y004839D01*
X011853Y004839D01*
X011785Y004849D01*
X011719Y004871D01*
X011658Y004902D01*
X011602Y004942D01*
X011553Y004991D01*
X011513Y005047D01*
X011482Y005108D01*
X011460Y005174D01*
X011450Y005235D01*
X012146Y005235D01*
X012146Y005255D02*
X009707Y005255D01*
X009707Y005139D02*
X011472Y005139D01*
X011531Y005022D02*
X009707Y005022D01*
X009707Y004905D02*
X010237Y004905D01*
X010270Y004919D02*
X010154Y004871D01*
X010065Y004782D01*
X010017Y004666D01*
X010017Y004540D01*
X010065Y004424D01*
X010154Y004335D01*
X010270Y004287D01*
X010396Y004287D01*
X010512Y004335D01*
X010601Y004424D01*
X010649Y004540D01*
X010649Y004666D01*
X010601Y004782D01*
X010512Y004871D01*
X010396Y004919D01*
X010270Y004919D01*
X010429Y004905D02*
X011653Y004905D01*
X011699Y004672D02*
X010646Y004672D01*
X010649Y004556D02*
X011547Y004556D01*
X011481Y004439D02*
X010607Y004439D01*
X010480Y004322D02*
X011449Y004322D01*
X012146Y004905D02*
X012228Y004905D01*
X012228Y005022D02*
X012146Y005022D01*
X012146Y005139D02*
X012228Y005139D01*
X012146Y005317D02*
X011450Y005317D01*
X011460Y005379D01*
X011482Y005444D01*
X011513Y005506D01*
X011553Y005562D01*
X011602Y005610D01*
X011658Y005651D01*
X011719Y005682D01*
X011785Y005703D01*
X011853Y005714D01*
X012146Y005714D01*
X012146Y005317D01*
X012146Y005372D02*
X012228Y005372D01*
X012228Y005488D02*
X012146Y005488D01*
X012146Y005605D02*
X012228Y005605D01*
X011597Y005605D02*
X009707Y005605D01*
X009707Y005488D02*
X011504Y005488D01*
X011459Y005372D02*
X009707Y005372D01*
X009707Y005722D02*
X014079Y005722D01*
X014079Y005838D02*
X009707Y005838D01*
X009743Y005955D02*
X011590Y005955D01*
X011498Y006071D02*
X009864Y006071D01*
X009905Y006188D02*
X011450Y006188D01*
X011449Y006305D02*
X009901Y006305D01*
X009847Y006421D02*
X010765Y006421D01*
X010673Y006538D02*
X009678Y006538D01*
X009741Y006655D02*
X010643Y006655D01*
X010657Y006771D02*
X009858Y006771D01*
X009975Y006888D02*
X010726Y006888D01*
X011275Y006655D02*
X011656Y006655D01*
X011530Y006538D02*
X011244Y006538D01*
X011153Y006421D02*
X011473Y006421D01*
X012693Y006888D02*
X013857Y006888D01*
X013740Y007004D02*
X012834Y007004D01*
X012897Y007121D02*
X013623Y007121D01*
X013507Y007238D02*
X012925Y007238D01*
X012925Y007354D02*
X013390Y007354D01*
X013273Y007471D02*
X012881Y007471D01*
X012795Y007587D02*
X013157Y007587D01*
X013040Y007704D02*
X012599Y007704D01*
X011945Y008520D02*
X009304Y008520D01*
X009188Y008637D02*
X011882Y008637D01*
X009589Y006233D02*
X009510Y006154D01*
X009510Y004564D01*
X009715Y004322D02*
X010185Y004322D01*
X010059Y004439D02*
X009800Y004439D01*
X009826Y004556D02*
X010017Y004556D01*
X010020Y004672D02*
X009807Y004672D01*
X009732Y004789D02*
X010072Y004789D01*
X010594Y004789D02*
X014079Y004789D01*
X014079Y004905D02*
X012721Y004905D01*
X012844Y005022D02*
X014079Y005022D01*
X014079Y005139D02*
X012903Y005139D01*
X012676Y004672D02*
X014079Y004672D01*
X014079Y004556D02*
X012827Y004556D01*
X012894Y004439D02*
X014079Y004439D01*
X014079Y004322D02*
X012925Y004322D01*
X012925Y004206D02*
X014079Y004206D01*
X014079Y004089D02*
X012884Y004089D01*
X012802Y003972D02*
X014079Y003972D01*
X014079Y003856D02*
X012616Y003856D01*
X014473Y006305D02*
X016653Y006305D01*
X016602Y006421D02*
X014473Y006421D01*
X014473Y006538D02*
X016600Y006538D01*
X016642Y006655D02*
X014473Y006655D01*
X017327Y004905D02*
X018044Y004905D01*
X018044Y004789D02*
X017527Y004789D01*
X017643Y004672D02*
X018044Y004672D01*
X018044Y004556D02*
X017719Y004556D01*
X017768Y004439D02*
X018044Y004439D01*
X018044Y004322D02*
X017811Y004322D01*
X017811Y004206D02*
X018044Y004206D01*
X018044Y004089D02*
X017811Y004089D01*
X017791Y003972D02*
X018044Y003972D01*
X018044Y003856D02*
X017742Y003856D01*
X017694Y003739D02*
X018044Y003739D01*
X018044Y003623D02*
X017582Y003623D01*
X017461Y003506D02*
X018044Y003506D01*
X018044Y003389D02*
X017180Y003389D01*
X017255Y002573D02*
X018044Y002573D01*
X018044Y002457D02*
X017497Y002457D01*
X017613Y002340D02*
X018044Y002340D01*
X018044Y002223D02*
X017707Y002223D01*
X017755Y002107D02*
X018044Y002107D01*
X018044Y001990D02*
X017804Y001990D01*
X017811Y001873D02*
X018044Y001873D01*
X018044Y001757D02*
X017811Y001757D01*
X017803Y001640D02*
X018044Y001640D01*
X018044Y001524D02*
X017755Y001524D01*
X017707Y001407D02*
X018044Y001407D01*
X018044Y001290D02*
X017612Y001290D01*
X017496Y001174D02*
X018044Y001174D01*
X018044Y001057D02*
X017252Y001057D01*
X018044Y000707D02*
X000646Y000707D01*
X000646Y000591D02*
X018044Y000591D01*
X018044Y000474D02*
X000646Y000474D01*
X000646Y000400D02*
X000646Y019767D01*
X018044Y019767D01*
X018044Y000400D01*
X000646Y000400D01*
X001460Y001757D02*
X016233Y001757D01*
X016138Y002573D02*
X016789Y002573D01*
X009813Y001640D02*
X009771Y001640D01*
X009771Y001524D02*
X009813Y001524D01*
X009813Y001407D02*
X009771Y001407D01*
X009771Y001338D02*
X009394Y001338D01*
X009394Y001320D01*
X009409Y001243D01*
X009439Y001171D01*
X009483Y001105D01*
X009538Y001050D01*
X009603Y001007D01*
X009676Y000977D01*
X009752Y000961D01*
X009771Y000961D01*
X009771Y001338D01*
X009771Y001290D02*
X009813Y001290D01*
X009813Y001174D02*
X009771Y001174D01*
X009771Y001057D02*
X009813Y001057D01*
X009531Y001057D02*
X009052Y001057D01*
X009145Y001174D02*
X009438Y001174D01*
X009400Y001290D02*
X009189Y001290D01*
X009189Y001407D02*
X009396Y001407D01*
X009429Y001524D02*
X009154Y001524D01*
X009073Y001640D02*
X009510Y001640D01*
X006485Y005930D02*
X006485Y005930D01*
X006290Y005930D02*
X006290Y005930D01*
X006309Y006421D02*
X002674Y006421D01*
X002237Y006605D02*
X003479Y006605D01*
X004277Y006536D01*
X004327Y006485D01*
X004443Y006437D01*
X004569Y006437D01*
X004685Y006485D01*
X004774Y006574D01*
X004822Y006690D01*
X004822Y006816D01*
X004774Y006932D01*
X004685Y007021D01*
X004569Y007069D01*
X004443Y007069D01*
X004327Y007021D01*
X004313Y007007D01*
X003595Y007069D01*
X003587Y007077D01*
X003499Y007077D01*
X003412Y007085D01*
X003403Y007077D01*
X002823Y007077D01*
X002823Y007178D01*
X002756Y007339D01*
X002633Y007462D01*
X002472Y007529D01*
X001698Y007529D01*
X001537Y007462D01*
X001414Y007339D01*
X001347Y007178D01*
X001347Y007004D01*
X001414Y006843D01*
X001537Y006720D01*
X001698Y006654D01*
X002189Y006654D01*
X002237Y006605D01*
X001695Y006655D02*
X001313Y006655D01*
X001313Y006771D02*
X001486Y006771D01*
X001395Y006888D02*
X001313Y006888D01*
X001313Y007004D02*
X001347Y007004D01*
X001347Y007121D02*
X001313Y007121D01*
X001313Y007238D02*
X001372Y007238D01*
X001429Y007354D02*
X001313Y007354D01*
X001313Y007471D02*
X001557Y007471D01*
X001698Y007654D02*
X001537Y007720D01*
X001414Y007843D01*
X001347Y008004D01*
X001347Y008178D01*
X001414Y008339D01*
X001537Y008462D01*
X001698Y008529D01*
X002472Y008529D01*
X002633Y008462D01*
X002756Y008339D01*
X002823Y008178D01*
X002823Y008004D01*
X002756Y007843D01*
X002633Y007720D01*
X002472Y007654D01*
X001698Y007654D01*
X001576Y007704D02*
X001313Y007704D01*
X001313Y007587D02*
X003703Y007587D01*
X003715Y007583D02*
X003841Y007583D01*
X003957Y007631D01*
X004046Y007719D01*
X004094Y007836D01*
X004094Y007961D01*
X004046Y008077D01*
X003957Y008166D01*
X003841Y008214D01*
X003715Y008214D01*
X003599Y008166D01*
X003510Y008077D01*
X003462Y007961D01*
X003462Y007836D01*
X003510Y007719D01*
X003599Y007631D01*
X003715Y007583D01*
X003852Y007587D02*
X006850Y007587D01*
X006850Y007471D02*
X002613Y007471D01*
X002741Y007354D02*
X006850Y007354D01*
X006850Y007238D02*
X002798Y007238D01*
X002823Y007121D02*
X006850Y007121D01*
X006845Y007004D02*
X004701Y007004D01*
X004792Y006888D02*
X006776Y006888D01*
X006659Y006771D02*
X004822Y006771D01*
X004807Y006655D02*
X006542Y006655D01*
X006426Y006538D02*
X004738Y006538D01*
X004249Y006538D02*
X001313Y006538D01*
X001313Y006421D02*
X001496Y006421D01*
X001399Y006305D02*
X001313Y006305D01*
X001313Y006188D02*
X001351Y006188D01*
X001347Y006071D02*
X001313Y006071D01*
X001313Y005955D02*
X001368Y005955D01*
X001419Y005838D02*
X001313Y005838D01*
X001313Y005722D02*
X001535Y005722D01*
X001629Y004905D02*
X001313Y004905D01*
X001313Y004789D02*
X001523Y004789D01*
X001486Y004672D02*
X001313Y004672D01*
X001313Y004556D02*
X001492Y004556D01*
X001550Y004439D02*
X001313Y004439D01*
X001313Y004322D02*
X001730Y004322D01*
X001873Y004322D02*
X003017Y004322D01*
X002928Y004439D02*
X002052Y004439D01*
X002111Y004556D02*
X002899Y004556D01*
X002914Y004672D02*
X002117Y004672D01*
X001460Y002223D02*
X001379Y002223D01*
X001379Y002107D02*
X001460Y002107D01*
X001460Y001990D02*
X001379Y001990D01*
X001379Y001873D02*
X001460Y001873D01*
X002594Y007704D02*
X003525Y007704D01*
X003468Y007821D02*
X002733Y007821D01*
X002795Y007937D02*
X003462Y007937D01*
X003500Y008054D02*
X002823Y008054D01*
X002823Y008170D02*
X003609Y008170D01*
X003947Y008170D02*
X006850Y008170D01*
X006850Y008054D02*
X004055Y008054D01*
X004094Y007937D02*
X006850Y007937D01*
X006850Y007821D02*
X004088Y007821D01*
X004030Y007704D02*
X006850Y007704D01*
X006850Y008287D02*
X002778Y008287D01*
X002692Y008404D02*
X006850Y008404D01*
X006850Y008520D02*
X002493Y008520D01*
X001676Y008520D02*
X001313Y008520D01*
X001313Y008404D02*
X001478Y008404D01*
X001392Y008287D02*
X001313Y008287D01*
X001313Y008170D02*
X001347Y008170D01*
X001347Y008054D02*
X001313Y008054D01*
X001313Y007937D02*
X001375Y007937D01*
X001313Y007821D02*
X001436Y007821D01*
X001313Y008637D02*
X006850Y008637D01*
X006850Y008754D02*
X001313Y008754D01*
X001313Y008870D02*
X006850Y008870D01*
X006850Y008987D02*
X001313Y008987D01*
X001313Y009103D02*
X006850Y009103D01*
X006850Y009220D02*
X001313Y009220D01*
X001313Y009337D02*
X006850Y009337D01*
X006850Y009453D02*
X001313Y009453D01*
X001313Y009570D02*
X006850Y009570D01*
X006850Y009686D02*
X002552Y009686D01*
X002667Y009803D02*
X006850Y009803D01*
X006850Y009920D02*
X002715Y009920D01*
X002732Y010036D02*
X006850Y010036D01*
X006850Y010153D02*
X002725Y010153D01*
X002676Y010269D02*
X006850Y010269D01*
X006850Y010386D02*
X006078Y010386D01*
X006120Y010428D02*
X006169Y010544D01*
X006169Y010670D01*
X006120Y010786D01*
X006092Y010815D01*
X006098Y011276D01*
X006132Y011310D01*
X006180Y011436D02*
X006186Y011436D01*
X006235Y011669D02*
X006131Y011669D01*
X005974Y011785D02*
X006305Y011785D01*
X006305Y011902D02*
X002708Y011902D01*
X002732Y012019D02*
X006305Y012019D01*
X006305Y012135D02*
X002732Y012135D01*
X002684Y012252D02*
X006305Y012252D01*
X006305Y012368D02*
X002593Y012368D01*
X002542Y012677D02*
X002665Y012800D01*
X002732Y012961D01*
X002732Y013135D01*
X002665Y013296D01*
X002542Y013419D01*
X002381Y013486D01*
X001607Y013486D01*
X001446Y013419D01*
X001323Y013296D01*
X001257Y013135D01*
X001257Y012961D01*
X001323Y012800D01*
X001446Y012677D01*
X001607Y012610D01*
X002381Y012610D01*
X002542Y012677D01*
X002584Y012718D02*
X006305Y012718D01*
X006305Y012602D02*
X000646Y012602D01*
X000646Y012718D02*
X001405Y012718D01*
X001309Y012835D02*
X000646Y012835D01*
X000646Y012951D02*
X001260Y012951D01*
X001257Y013068D02*
X000646Y013068D01*
X000646Y013185D02*
X001277Y013185D01*
X001328Y013301D02*
X000646Y013301D01*
X000646Y013418D02*
X001445Y013418D01*
X001207Y014146D02*
X001081Y014146D01*
X000965Y014194D01*
X000876Y014282D01*
X000828Y014399D01*
X000828Y014524D01*
X000876Y014640D01*
X000965Y014729D01*
X001081Y014777D01*
X001207Y014777D01*
X001323Y014729D01*
X001412Y014640D01*
X001460Y014524D01*
X001460Y014399D01*
X001412Y014282D01*
X001323Y014194D01*
X001207Y014146D01*
X001363Y014234D02*
X004877Y014234D01*
X004860Y014251D02*
X004949Y014162D01*
X005065Y014114D01*
X005191Y014114D01*
X005307Y014162D01*
X005396Y014251D01*
X005444Y014367D01*
X005444Y014493D01*
X005396Y014609D01*
X005307Y014698D01*
X005191Y014746D01*
X005065Y014746D01*
X004949Y014698D01*
X004860Y014609D01*
X004812Y014493D01*
X004812Y014367D01*
X004860Y014251D01*
X004819Y014351D02*
X001440Y014351D01*
X001460Y014467D02*
X004812Y014467D01*
X004850Y014584D02*
X001435Y014584D01*
X001351Y014701D02*
X004956Y014701D01*
X005300Y014701D02*
X005703Y014701D01*
X005703Y014692D02*
X005660Y014648D01*
X005611Y014532D01*
X005611Y014406D01*
X005660Y014290D01*
X005748Y014201D01*
X005865Y014153D01*
X005990Y014153D01*
X006106Y014201D01*
X006195Y014290D01*
X006243Y014406D01*
X006243Y014532D01*
X006195Y014648D01*
X006106Y014737D01*
X006097Y014741D01*
X006097Y015672D01*
X006168Y015743D01*
X006216Y015859D01*
X006216Y015985D01*
X006168Y016101D01*
X006079Y016190D01*
X005963Y016238D01*
X005837Y016238D01*
X005721Y016190D01*
X005632Y016101D01*
X005584Y015985D01*
X005584Y015859D01*
X005632Y015743D01*
X005703Y015672D01*
X005703Y014692D01*
X005703Y014817D02*
X000646Y014817D01*
X000646Y014701D02*
X000936Y014701D01*
X000853Y014584D02*
X000646Y014584D01*
X000646Y014467D02*
X000828Y014467D01*
X000848Y014351D02*
X000646Y014351D01*
X000646Y014234D02*
X000924Y014234D01*
X000646Y014118D02*
X005057Y014118D01*
X005200Y014118D02*
X006305Y014118D01*
X006305Y014234D02*
X006139Y014234D01*
X006220Y014351D02*
X006305Y014351D01*
X006305Y014467D02*
X006243Y014467D01*
X006222Y014584D02*
X006305Y014584D01*
X006305Y014701D02*
X006143Y014701D01*
X006097Y014817D02*
X006305Y014817D01*
X006305Y014934D02*
X006097Y014934D01*
X006097Y015050D02*
X006305Y015050D01*
X006305Y015167D02*
X006097Y015167D01*
X006097Y015284D02*
X006305Y015284D01*
X006305Y015400D02*
X006097Y015400D01*
X006097Y015517D02*
X006305Y015517D01*
X006305Y015634D02*
X006097Y015634D01*
X006171Y015750D02*
X006305Y015750D01*
X006305Y015867D02*
X006216Y015867D01*
X006216Y015983D02*
X006305Y015983D01*
X006305Y016100D02*
X006168Y016100D01*
X006219Y016217D02*
X006014Y016217D01*
X006186Y016333D02*
X002929Y016333D01*
X002929Y016383D02*
X002929Y016249D01*
X002878Y016125D01*
X002783Y016031D01*
X002660Y015980D01*
X002526Y015980D01*
X002402Y016031D01*
X002308Y016125D01*
X002257Y016249D01*
X002257Y016383D01*
X002308Y016506D01*
X002402Y016601D01*
X002526Y016652D01*
X002660Y016652D01*
X002783Y016601D01*
X002878Y016506D01*
X002929Y016383D01*
X002901Y016450D02*
X004512Y016450D01*
X004516Y016446D02*
X004632Y016397D01*
X004758Y016397D01*
X004874Y016446D01*
X004963Y016534D01*
X005011Y016651D01*
X005011Y016751D01*
X005489Y017229D01*
X005605Y017344D01*
X005605Y017641D01*
X005676Y017712D01*
X005724Y017828D01*
X005724Y017953D01*
X005676Y018069D01*
X005587Y018158D01*
X005471Y018206D01*
X005345Y018206D01*
X005229Y018158D01*
X005140Y018069D01*
X005092Y017953D01*
X005092Y017828D01*
X005140Y017712D01*
X005211Y017641D01*
X005211Y017508D01*
X004733Y017029D01*
X004632Y017029D01*
X004516Y016981D01*
X004427Y016892D01*
X004379Y016776D01*
X004379Y016651D01*
X004427Y016534D01*
X004516Y016446D01*
X004414Y016566D02*
X002818Y016566D01*
X002916Y016217D02*
X005785Y016217D01*
X005632Y016100D02*
X002852Y016100D01*
X002669Y015983D02*
X005584Y015983D01*
X005584Y015867D02*
X000646Y015867D01*
X000646Y015983D02*
X002517Y015983D01*
X002333Y016100D02*
X000646Y016100D01*
X000646Y016217D02*
X002270Y016217D01*
X002257Y016333D02*
X000646Y016333D01*
X000646Y016450D02*
X002284Y016450D01*
X002368Y016566D02*
X000646Y016566D01*
X000646Y016683D02*
X004379Y016683D01*
X004389Y016800D02*
X000646Y016800D01*
X000646Y016916D02*
X004451Y016916D01*
X004736Y017033D02*
X000646Y017033D01*
X000646Y017149D02*
X004853Y017149D01*
X004969Y017266D02*
X000646Y017266D01*
X000646Y017383D02*
X005086Y017383D01*
X005203Y017499D02*
X000646Y017499D01*
X000646Y017616D02*
X005211Y017616D01*
X005131Y017733D02*
X002710Y017733D01*
X002660Y017712D02*
X002783Y017763D01*
X002878Y017858D01*
X002929Y017981D01*
X002929Y018115D01*
X002878Y018238D01*
X002783Y018333D01*
X002660Y018384D01*
X002526Y018384D01*
X002402Y018333D01*
X002308Y018238D01*
X002257Y018115D01*
X002257Y017981D01*
X002308Y017858D01*
X002402Y017763D01*
X002526Y017712D01*
X002660Y017712D01*
X002476Y017733D02*
X000646Y017733D01*
X000646Y017849D02*
X002316Y017849D01*
X002263Y017966D02*
X000646Y017966D01*
X000646Y018082D02*
X002257Y018082D01*
X002291Y018199D02*
X000646Y018199D01*
X000646Y018316D02*
X002385Y018316D01*
X002801Y018316D02*
X012296Y018316D01*
X012296Y018432D02*
X000646Y018432D01*
X000646Y018549D02*
X012313Y018549D01*
X012296Y018508D02*
X012296Y018194D01*
X012416Y017904D01*
X012638Y017682D01*
X012928Y017562D01*
X013242Y017562D01*
X013532Y017682D01*
X013754Y017904D01*
X013874Y018194D01*
X013874Y018508D01*
X013754Y018798D01*
X013532Y019020D01*
X013242Y019140D01*
X012928Y019140D01*
X012638Y019020D01*
X012416Y018798D01*
X012296Y018508D01*
X012361Y018665D02*
X007578Y018665D01*
X007563Y018650D02*
X007652Y018739D01*
X007700Y018855D01*
X007700Y018981D01*
X007652Y019097D01*
X007563Y019186D01*
X007447Y019234D01*
X007321Y019234D01*
X007205Y019186D01*
X007116Y019097D01*
X007068Y018981D01*
X007068Y018855D01*
X007116Y018739D01*
X007205Y018650D01*
X007321Y018602D01*
X007447Y018602D01*
X007563Y018650D01*
X007670Y018782D02*
X012409Y018782D01*
X012517Y018899D02*
X007700Y018899D01*
X007686Y019015D02*
X012633Y019015D01*
X012908Y019132D02*
X007617Y019132D01*
X007190Y018665D02*
X000646Y018665D01*
X000646Y018782D02*
X007099Y018782D01*
X007068Y018899D02*
X000646Y018899D01*
X000646Y019015D02*
X007082Y019015D01*
X007151Y019132D02*
X002655Y019132D01*
X002699Y019176D02*
X002747Y019292D01*
X002747Y019418D01*
X002699Y019534D01*
X002610Y019623D01*
X002494Y019671D01*
X002369Y019671D01*
X002252Y019623D01*
X002164Y019534D01*
X002115Y019418D01*
X002115Y019292D01*
X002164Y019176D01*
X002252Y019087D01*
X002369Y019039D01*
X002494Y019039D01*
X002610Y019087D01*
X002699Y019176D01*
X002729Y019248D02*
X018044Y019248D01*
X018044Y019132D02*
X017199Y019132D01*
X017474Y019015D02*
X018044Y019015D01*
X018044Y018899D02*
X017590Y018899D01*
X017697Y018782D02*
X018044Y018782D01*
X018044Y018665D02*
X017746Y018665D01*
X017794Y018549D02*
X018044Y018549D01*
X018044Y018432D02*
X017811Y018432D01*
X017811Y018316D02*
X018044Y018316D01*
X018044Y018199D02*
X017811Y018199D01*
X017765Y018082D02*
X018044Y018082D01*
X018044Y017966D02*
X017716Y017966D01*
X017636Y017849D02*
X018044Y017849D01*
X018044Y017733D02*
X017519Y017733D01*
X017308Y017616D02*
X018044Y017616D01*
X018044Y017499D02*
X016455Y017499D01*
X016455Y017383D02*
X018044Y017383D01*
X018044Y017266D02*
X016455Y017266D01*
X016455Y017149D02*
X018044Y017149D01*
X018044Y017033D02*
X016455Y017033D01*
X016455Y016916D02*
X018044Y016916D01*
X018044Y016800D02*
X016455Y016800D01*
X016455Y016683D02*
X016636Y016683D01*
X016484Y016566D02*
X016455Y016566D01*
X017408Y016683D02*
X018044Y016683D01*
X018044Y016566D02*
X017560Y016566D01*
X017677Y016450D02*
X018044Y016450D01*
X018044Y016333D02*
X017733Y016333D01*
X017782Y016217D02*
X018044Y016217D01*
X018044Y016100D02*
X017811Y016100D01*
X017811Y015983D02*
X018044Y015983D01*
X018044Y015867D02*
X017811Y015867D01*
X017777Y015750D02*
X018044Y015750D01*
X018044Y015634D02*
X017729Y015634D01*
X017666Y015517D02*
X018044Y015517D01*
X018044Y015400D02*
X017549Y015400D01*
X017381Y015284D02*
X018044Y015284D01*
X018044Y015167D02*
X016455Y015167D01*
X016455Y015050D02*
X018044Y015050D01*
X018044Y014934D02*
X016455Y014934D01*
X016455Y014817D02*
X018044Y014817D01*
X018044Y014701D02*
X016455Y014701D01*
X016455Y014584D02*
X018044Y014584D01*
X018044Y014467D02*
X016455Y014467D01*
X016455Y014351D02*
X018044Y014351D01*
X018044Y014234D02*
X016455Y014234D01*
X016455Y014118D02*
X018044Y014118D01*
X018044Y014001D02*
X016455Y014001D01*
X016455Y013884D02*
X018044Y013884D01*
X018044Y013768D02*
X016455Y013768D01*
X016455Y013651D02*
X018044Y013651D01*
X018044Y013535D02*
X016455Y013535D01*
X016455Y013418D02*
X016681Y013418D01*
X016705Y013442D02*
X016616Y013353D01*
X016568Y013237D01*
X016568Y013111D01*
X016616Y012995D01*
X016705Y012906D01*
X016821Y012858D01*
X016947Y012858D01*
X017063Y012906D01*
X017152Y012995D01*
X017200Y013111D01*
X017200Y013237D01*
X017152Y013353D01*
X017063Y013442D01*
X016947Y013490D01*
X016821Y013490D01*
X016705Y013442D01*
X016595Y013301D02*
X016455Y013301D01*
X016455Y013185D02*
X016568Y013185D01*
X016586Y013068D02*
X016455Y013068D01*
X016455Y012951D02*
X016660Y012951D01*
X016455Y012835D02*
X018044Y012835D01*
X018044Y012951D02*
X017108Y012951D01*
X017182Y013068D02*
X018044Y013068D01*
X018044Y013185D02*
X017200Y013185D01*
X017173Y013301D02*
X018044Y013301D01*
X018044Y013418D02*
X017087Y013418D01*
X016455Y012718D02*
X018044Y012718D01*
X018044Y012602D02*
X016455Y012602D01*
X016455Y012485D02*
X018044Y012485D01*
X018044Y012368D02*
X016455Y012368D01*
X016455Y012252D02*
X018044Y012252D01*
X018044Y012135D02*
X016455Y012135D01*
X016455Y012019D02*
X018044Y012019D01*
X018044Y011902D02*
X016455Y011902D01*
X016455Y011785D02*
X018044Y011785D01*
X018044Y011669D02*
X016455Y011669D01*
X016455Y011552D02*
X018044Y011552D01*
X018044Y011436D02*
X016455Y011436D01*
X016455Y011319D02*
X018044Y011319D01*
X018044Y011202D02*
X016455Y011202D01*
X016455Y011086D02*
X018044Y011086D01*
X016663Y015284D02*
X016455Y015284D01*
X016455Y015400D02*
X016495Y015400D01*
X015013Y015284D02*
X013444Y015284D01*
X013612Y015400D02*
X014620Y015400D01*
X014547Y015517D02*
X013729Y015517D01*
X013792Y015634D02*
X014529Y015634D01*
X014556Y015750D02*
X013840Y015750D01*
X013874Y015867D02*
X014642Y015867D01*
X015013Y015983D02*
X013874Y015983D01*
X013874Y016100D02*
X015013Y016100D01*
X015013Y016217D02*
X013845Y016217D01*
X013796Y016333D02*
X015013Y016333D01*
X015013Y016450D02*
X013740Y016450D01*
X013623Y016566D02*
X015013Y016566D01*
X015013Y016683D02*
X013471Y016683D01*
X012699Y016683D02*
X010084Y016683D01*
X010071Y016670D02*
X010160Y016759D01*
X010208Y016875D01*
X010208Y017001D01*
X010160Y017117D01*
X010071Y017206D01*
X009955Y017254D01*
X009829Y017254D01*
X009713Y017206D01*
X009624Y017117D01*
X009576Y017001D01*
X009576Y016875D01*
X009624Y016759D01*
X009713Y016670D01*
X009829Y016622D01*
X009955Y016622D01*
X010071Y016670D01*
X010177Y016800D02*
X015013Y016800D01*
X015013Y016916D02*
X010208Y016916D01*
X010195Y017033D02*
X015013Y017033D01*
X015013Y017149D02*
X010127Y017149D01*
X009657Y017149D02*
X005410Y017149D01*
X005489Y017229D02*
X005489Y017229D01*
X005526Y017266D02*
X015013Y017266D01*
X015013Y017383D02*
X005605Y017383D01*
X005605Y017499D02*
X015013Y017499D01*
X015013Y017616D02*
X013371Y017616D01*
X013582Y017733D02*
X015013Y017733D01*
X015013Y017849D02*
X013699Y017849D01*
X013779Y017966D02*
X014690Y017966D01*
X014544Y018082D02*
X013828Y018082D01*
X013874Y018199D02*
X014497Y018199D01*
X014497Y018316D02*
X013874Y018316D01*
X013874Y018432D02*
X014544Y018432D01*
X014693Y018549D02*
X013857Y018549D01*
X013809Y018665D02*
X016298Y018665D01*
X016346Y018782D02*
X013760Y018782D01*
X013653Y018899D02*
X016454Y018899D01*
X016570Y019015D02*
X013537Y019015D01*
X013262Y019132D02*
X016845Y019132D01*
X018044Y019365D02*
X002747Y019365D01*
X002721Y019482D02*
X018044Y019482D01*
X018044Y019598D02*
X002635Y019598D01*
X002228Y019598D02*
X000646Y019598D01*
X000646Y019482D02*
X002142Y019482D01*
X002115Y019365D02*
X000646Y019365D01*
X000646Y019248D02*
X002134Y019248D01*
X002208Y019132D02*
X000646Y019132D01*
X000646Y019715D02*
X018044Y019715D01*
X016735Y017616D02*
X016455Y017616D01*
X016455Y017733D02*
X016525Y017733D01*
X015013Y017966D02*
X014936Y017966D01*
X014934Y018549D02*
X015040Y018549D01*
X012798Y017616D02*
X005605Y017616D01*
X005684Y017733D02*
X012588Y017733D01*
X012471Y017849D02*
X005724Y017849D01*
X005719Y017966D02*
X012391Y017966D01*
X012342Y018082D02*
X005663Y018082D01*
X005489Y018199D02*
X012296Y018199D01*
X012547Y016566D02*
X007323Y016566D01*
X007323Y016450D02*
X012430Y016450D01*
X009700Y016683D02*
X007340Y016683D01*
X007340Y016800D02*
X009607Y016800D01*
X009576Y016916D02*
X007274Y016916D01*
X006899Y016916D02*
X005176Y016916D01*
X005060Y016800D02*
X006833Y016800D01*
X006832Y016683D02*
X005011Y016683D01*
X004976Y016566D02*
X006263Y016566D01*
X006198Y016450D02*
X004878Y016450D01*
X004695Y016713D02*
X005408Y017426D01*
X005408Y017891D01*
X005153Y018082D02*
X002929Y018082D01*
X002923Y017966D02*
X005097Y017966D01*
X005092Y017849D02*
X002869Y017849D01*
X002894Y018199D02*
X005327Y018199D01*
X005293Y017033D02*
X009589Y017033D01*
X008720Y015867D02*
X007323Y015867D01*
X007323Y015750D02*
X008604Y015750D01*
X008564Y015634D02*
X007323Y015634D01*
X007323Y015517D02*
X008569Y015517D01*
X008624Y015400D02*
X007323Y015400D01*
X007323Y015284D02*
X008644Y015284D01*
X008644Y015167D02*
X007323Y015167D01*
X007323Y015050D02*
X008644Y015050D01*
X008644Y014934D02*
X007323Y014934D01*
X007323Y014817D02*
X008644Y014817D01*
X008644Y014701D02*
X007323Y014701D01*
X007323Y014584D02*
X008644Y014584D01*
X008644Y014467D02*
X007323Y014467D01*
X007323Y014351D02*
X008644Y014351D01*
X006850Y014351D02*
X006699Y014351D01*
X006699Y014467D02*
X006850Y014467D01*
X006850Y014584D02*
X006699Y014584D01*
X006699Y014701D02*
X006850Y014701D01*
X006850Y014817D02*
X006699Y014817D01*
X006699Y014934D02*
X006850Y014934D01*
X006850Y015050D02*
X006699Y015050D01*
X006699Y015167D02*
X006850Y015167D01*
X006850Y015284D02*
X006699Y015284D01*
X006699Y015400D02*
X006850Y015400D01*
X006850Y015517D02*
X006699Y015517D01*
X006699Y015634D02*
X006850Y015634D01*
X006850Y015750D02*
X006699Y015750D01*
X006699Y015867D02*
X006850Y015867D01*
X006850Y015983D02*
X006699Y015983D01*
X006699Y016100D02*
X006850Y016100D01*
X006850Y016217D02*
X006785Y016217D01*
X006818Y016333D02*
X006850Y016333D01*
X006850Y016450D02*
X006807Y016450D01*
X006850Y016566D02*
X006742Y016566D01*
X006502Y016359D02*
X006502Y011489D01*
X006769Y011669D02*
X006850Y011669D01*
X006850Y011785D02*
X006699Y011785D01*
X006699Y011902D02*
X006850Y011902D01*
X006850Y012019D02*
X006699Y012019D01*
X006699Y012135D02*
X006850Y012135D01*
X006850Y012252D02*
X006699Y012252D01*
X006699Y012368D02*
X006850Y012368D01*
X006850Y012485D02*
X006699Y012485D01*
X006699Y012602D02*
X006850Y012602D01*
X006850Y012718D02*
X006699Y012718D01*
X006699Y012835D02*
X006850Y012835D01*
X006850Y012951D02*
X006699Y012951D01*
X006699Y013068D02*
X006850Y013068D01*
X006850Y013185D02*
X006699Y013185D01*
X006699Y013301D02*
X006850Y013301D01*
X006850Y013418D02*
X006699Y013418D01*
X006699Y013535D02*
X006850Y013535D01*
X006850Y013651D02*
X006699Y013651D01*
X006699Y013768D02*
X006850Y013768D01*
X006850Y013884D02*
X006699Y013884D01*
X006699Y014001D02*
X006850Y014001D01*
X006850Y014118D02*
X006699Y014118D01*
X006699Y014234D02*
X006850Y014234D01*
X006305Y014001D02*
X000646Y014001D01*
X000646Y013884D02*
X006305Y013884D01*
X006305Y013768D02*
X000646Y013768D01*
X000646Y013651D02*
X006305Y013651D01*
X006305Y013535D02*
X000646Y013535D01*
X000646Y012485D02*
X001605Y012485D01*
X001396Y012368D02*
X000646Y012368D01*
X000646Y012252D02*
X001305Y012252D01*
X001257Y012135D02*
X001257Y012038D01*
X001121Y011902D02*
X000646Y011902D01*
X001313Y010736D02*
X001387Y010736D01*
X001313Y010619D02*
X001603Y010619D01*
X001413Y010386D02*
X001313Y010386D01*
X001313Y010503D02*
X005554Y010503D01*
X005537Y010544D02*
X005585Y010428D01*
X005674Y010339D01*
X005790Y010291D01*
X005915Y010291D01*
X006032Y010339D01*
X006120Y010428D01*
X006151Y010503D02*
X006850Y010503D01*
X006850Y010619D02*
X006169Y010619D01*
X006141Y010736D02*
X006850Y010736D01*
X006850Y010852D02*
X006092Y010852D01*
X006094Y010969D02*
X006850Y010969D01*
X007620Y010694D02*
X008089Y010694D01*
X008687Y010095D01*
X008687Y008859D01*
X009396Y008150D01*
X009483Y008150D01*
X008825Y008044D02*
X008140Y008670D01*
X008085Y009595D01*
X008118Y010386D02*
X007749Y010386D01*
X008884Y009220D02*
X009176Y009220D01*
X009086Y009103D02*
X008884Y009103D01*
X008884Y008987D02*
X009056Y008987D01*
X009071Y008870D02*
X008955Y008870D01*
X009071Y008754D02*
X009141Y008754D01*
X008825Y008044D02*
X008797Y008013D01*
X009669Y011202D02*
X010198Y011202D01*
X008965Y012252D02*
X012590Y012252D01*
X012556Y012135D02*
X008849Y012135D01*
X008732Y012019D02*
X012567Y012019D01*
X012631Y011902D02*
X008615Y011902D01*
X006305Y012485D02*
X002383Y012485D01*
X002680Y012835D02*
X006305Y012835D01*
X006305Y012951D02*
X002728Y012951D01*
X002732Y013068D02*
X006305Y013068D01*
X006305Y013185D02*
X002712Y013185D01*
X002660Y013301D02*
X006305Y013301D01*
X006305Y013418D02*
X002544Y013418D01*
X002651Y011785D02*
X005754Y011785D01*
X005597Y011669D02*
X002523Y011669D01*
X002462Y011454D02*
X002397Y011475D01*
X002329Y011486D01*
X002035Y011486D01*
X002035Y011089D01*
X002731Y011089D01*
X002721Y011151D01*
X002700Y011216D01*
X002669Y011277D01*
X002628Y011333D01*
X002580Y011382D01*
X002524Y011422D01*
X002462Y011454D01*
X002498Y011436D02*
X005549Y011436D01*
X005549Y011426D02*
X005597Y011310D01*
X005625Y011281D01*
X005619Y010820D01*
X005585Y010786D01*
X005537Y010670D01*
X005537Y010544D01*
X005537Y010619D02*
X002386Y010619D01*
X002035Y010619D02*
X001953Y010619D01*
X001953Y010736D02*
X002035Y010736D01*
X002035Y010852D02*
X001953Y010852D01*
X001953Y010969D02*
X002035Y010969D01*
X002035Y011086D02*
X005623Y011086D01*
X005624Y011202D02*
X002705Y011202D01*
X002639Y011319D02*
X005593Y011319D01*
X005549Y011426D02*
X005549Y011552D01*
X005621Y010969D02*
X002725Y010969D01*
X002686Y010852D02*
X005620Y010852D01*
X005564Y010736D02*
X002601Y010736D01*
X002575Y010386D02*
X005627Y010386D01*
X002035Y011202D02*
X001953Y011202D01*
X001953Y011319D02*
X002035Y011319D01*
X002035Y011436D02*
X001953Y011436D01*
X001322Y009803D02*
X001313Y009803D01*
X001313Y009686D02*
X001437Y009686D01*
X005379Y014234D02*
X005716Y014234D01*
X005635Y014351D02*
X005437Y014351D01*
X005444Y014467D02*
X005611Y014467D01*
X005633Y014584D02*
X005406Y014584D01*
X005703Y014934D02*
X000646Y014934D01*
X000646Y015050D02*
X005703Y015050D01*
X005703Y015167D02*
X000646Y015167D01*
X000646Y015284D02*
X005703Y015284D01*
X005703Y015400D02*
X000646Y015400D01*
X000646Y015517D02*
X005703Y015517D01*
X005703Y015634D02*
X000646Y015634D01*
X000646Y015750D02*
X005629Y015750D01*
X005900Y015922D02*
X005900Y014497D01*
X005927Y014469D01*
D17*
X007086Y016741D02*
X007086Y006912D01*
X007026Y006851D01*
X007026Y006804D01*
X006388Y006166D01*
X002466Y006182D01*
X002466Y006181D01*
X002174Y006181D01*
X002085Y006091D01*
X002335Y006841D02*
X002085Y007091D01*
X002335Y006841D02*
X003489Y006841D01*
X004506Y006753D01*
X005853Y010607D02*
X005864Y011489D01*
X007620Y011241D02*
X008880Y012501D01*
X008880Y015591D01*
X009892Y015154D02*
X009892Y015127D01*
X009892Y015154D02*
X010821Y016083D01*
X011451Y009052D02*
X009782Y009052D01*
X009372Y008969D01*
X008278Y006233D02*
X008223Y004784D01*
X008223Y003879D01*
X001420Y002796D02*
X001335Y002881D01*
X001146Y002881D01*
X001077Y002950D01*
X001077Y011524D01*
X001601Y012048D01*
X001994Y012048D01*
X002754Y013623D02*
X002892Y013761D01*
X002892Y014772D01*
D18*
X001806Y012121D02*
X001994Y012048D01*
D19*
X007086Y016741D03*
M02*
