G75*
%MOIN*%
%OFA0B0*%
%FSLAX24Y24*%
%IPPOS*%
%LPD*%
%AMOC8*
5,1,8,0,0,1.08239X$1,22.5*
%
%ADD10C,0.0000*%
%ADD11R,0.0500X0.0220*%
%ADD12R,0.0220X0.0500*%
%ADD13R,0.0394X0.0709*%
%ADD14R,0.0433X0.0394*%
%ADD15R,0.0394X0.0433*%
%ADD16R,0.0984X0.0787*%
%ADD17R,0.1299X0.0787*%
%ADD18R,0.1220X0.0197*%
%ADD19R,0.0630X0.0157*%
%ADD20R,0.0197X0.0315*%
%ADD21R,0.0787X0.0630*%
%ADD22C,0.0118*%
%ADD23C,0.0520*%
%ADD24R,0.0600X0.0600*%
%ADD25C,0.0600*%
%ADD26R,0.0220X0.0780*%
%ADD27C,0.0356*%
%ADD28C,0.0197*%
%ADD29C,0.0079*%
%ADD30C,0.0276*%
%ADD31C,0.0238*%
D10*
X000486Y000241D02*
X000486Y019926D01*
X018203Y019926D01*
X018203Y000241D01*
X000486Y000241D01*
X012455Y015989D02*
X012457Y016039D01*
X012463Y016089D01*
X012473Y016138D01*
X012487Y016186D01*
X012504Y016233D01*
X012525Y016278D01*
X012550Y016322D01*
X012578Y016363D01*
X012610Y016402D01*
X012644Y016439D01*
X012681Y016473D01*
X012721Y016503D01*
X012763Y016530D01*
X012807Y016554D01*
X012853Y016575D01*
X012900Y016591D01*
X012948Y016604D01*
X012998Y016613D01*
X013047Y016618D01*
X013098Y016619D01*
X013148Y016616D01*
X013197Y016609D01*
X013246Y016598D01*
X013294Y016583D01*
X013340Y016565D01*
X013385Y016543D01*
X013428Y016517D01*
X013469Y016488D01*
X013508Y016456D01*
X013544Y016421D01*
X013576Y016383D01*
X013606Y016343D01*
X013633Y016300D01*
X013656Y016256D01*
X013675Y016210D01*
X013691Y016162D01*
X013703Y016113D01*
X013711Y016064D01*
X013715Y016014D01*
X013715Y015964D01*
X013711Y015914D01*
X013703Y015865D01*
X013691Y015816D01*
X013675Y015768D01*
X013656Y015722D01*
X013633Y015678D01*
X013606Y015635D01*
X013576Y015595D01*
X013544Y015557D01*
X013508Y015522D01*
X013469Y015490D01*
X013428Y015461D01*
X013385Y015435D01*
X013340Y015413D01*
X013294Y015395D01*
X013246Y015380D01*
X013197Y015369D01*
X013148Y015362D01*
X013098Y015359D01*
X013047Y015360D01*
X012998Y015365D01*
X012948Y015374D01*
X012900Y015387D01*
X012853Y015403D01*
X012807Y015424D01*
X012763Y015448D01*
X012721Y015475D01*
X012681Y015505D01*
X012644Y015539D01*
X012610Y015576D01*
X012578Y015615D01*
X012550Y015656D01*
X012525Y015700D01*
X012504Y015745D01*
X012487Y015792D01*
X012473Y015840D01*
X012463Y015889D01*
X012457Y015939D01*
X012455Y015989D01*
X012455Y018351D02*
X012457Y018401D01*
X012463Y018451D01*
X012473Y018500D01*
X012487Y018548D01*
X012504Y018595D01*
X012525Y018640D01*
X012550Y018684D01*
X012578Y018725D01*
X012610Y018764D01*
X012644Y018801D01*
X012681Y018835D01*
X012721Y018865D01*
X012763Y018892D01*
X012807Y018916D01*
X012853Y018937D01*
X012900Y018953D01*
X012948Y018966D01*
X012998Y018975D01*
X013047Y018980D01*
X013098Y018981D01*
X013148Y018978D01*
X013197Y018971D01*
X013246Y018960D01*
X013294Y018945D01*
X013340Y018927D01*
X013385Y018905D01*
X013428Y018879D01*
X013469Y018850D01*
X013508Y018818D01*
X013544Y018783D01*
X013576Y018745D01*
X013606Y018705D01*
X013633Y018662D01*
X013656Y018618D01*
X013675Y018572D01*
X013691Y018524D01*
X013703Y018475D01*
X013711Y018426D01*
X013715Y018376D01*
X013715Y018326D01*
X013711Y018276D01*
X013703Y018227D01*
X013691Y018178D01*
X013675Y018130D01*
X013656Y018084D01*
X013633Y018040D01*
X013606Y017997D01*
X013576Y017957D01*
X013544Y017919D01*
X013508Y017884D01*
X013469Y017852D01*
X013428Y017823D01*
X013385Y017797D01*
X013340Y017775D01*
X013294Y017757D01*
X013246Y017742D01*
X013197Y017731D01*
X013148Y017724D01*
X013098Y017721D01*
X013047Y017722D01*
X012998Y017727D01*
X012948Y017736D01*
X012900Y017749D01*
X012853Y017765D01*
X012807Y017786D01*
X012763Y017810D01*
X012721Y017837D01*
X012681Y017867D01*
X012644Y017901D01*
X012610Y017938D01*
X012578Y017977D01*
X012550Y018018D01*
X012525Y018062D01*
X012504Y018107D01*
X012487Y018154D01*
X012473Y018202D01*
X012463Y018251D01*
X012457Y018301D01*
X012455Y018351D01*
X016392Y018351D02*
X016394Y018401D01*
X016400Y018451D01*
X016410Y018500D01*
X016424Y018548D01*
X016441Y018595D01*
X016462Y018640D01*
X016487Y018684D01*
X016515Y018725D01*
X016547Y018764D01*
X016581Y018801D01*
X016618Y018835D01*
X016658Y018865D01*
X016700Y018892D01*
X016744Y018916D01*
X016790Y018937D01*
X016837Y018953D01*
X016885Y018966D01*
X016935Y018975D01*
X016984Y018980D01*
X017035Y018981D01*
X017085Y018978D01*
X017134Y018971D01*
X017183Y018960D01*
X017231Y018945D01*
X017277Y018927D01*
X017322Y018905D01*
X017365Y018879D01*
X017406Y018850D01*
X017445Y018818D01*
X017481Y018783D01*
X017513Y018745D01*
X017543Y018705D01*
X017570Y018662D01*
X017593Y018618D01*
X017612Y018572D01*
X017628Y018524D01*
X017640Y018475D01*
X017648Y018426D01*
X017652Y018376D01*
X017652Y018326D01*
X017648Y018276D01*
X017640Y018227D01*
X017628Y018178D01*
X017612Y018130D01*
X017593Y018084D01*
X017570Y018040D01*
X017543Y017997D01*
X017513Y017957D01*
X017481Y017919D01*
X017445Y017884D01*
X017406Y017852D01*
X017365Y017823D01*
X017322Y017797D01*
X017277Y017775D01*
X017231Y017757D01*
X017183Y017742D01*
X017134Y017731D01*
X017085Y017724D01*
X017035Y017721D01*
X016984Y017722D01*
X016935Y017727D01*
X016885Y017736D01*
X016837Y017749D01*
X016790Y017765D01*
X016744Y017786D01*
X016700Y017810D01*
X016658Y017837D01*
X016618Y017867D01*
X016581Y017901D01*
X016547Y017938D01*
X016515Y017977D01*
X016487Y018018D01*
X016462Y018062D01*
X016441Y018107D01*
X016424Y018154D01*
X016410Y018202D01*
X016400Y018251D01*
X016394Y018301D01*
X016392Y018351D01*
X016392Y015989D02*
X016394Y016039D01*
X016400Y016089D01*
X016410Y016138D01*
X016424Y016186D01*
X016441Y016233D01*
X016462Y016278D01*
X016487Y016322D01*
X016515Y016363D01*
X016547Y016402D01*
X016581Y016439D01*
X016618Y016473D01*
X016658Y016503D01*
X016700Y016530D01*
X016744Y016554D01*
X016790Y016575D01*
X016837Y016591D01*
X016885Y016604D01*
X016935Y016613D01*
X016984Y016618D01*
X017035Y016619D01*
X017085Y016616D01*
X017134Y016609D01*
X017183Y016598D01*
X017231Y016583D01*
X017277Y016565D01*
X017322Y016543D01*
X017365Y016517D01*
X017406Y016488D01*
X017445Y016456D01*
X017481Y016421D01*
X017513Y016383D01*
X017543Y016343D01*
X017570Y016300D01*
X017593Y016256D01*
X017612Y016210D01*
X017628Y016162D01*
X017640Y016113D01*
X017648Y016064D01*
X017652Y016014D01*
X017652Y015964D01*
X017648Y015914D01*
X017640Y015865D01*
X017628Y015816D01*
X017612Y015768D01*
X017593Y015722D01*
X017570Y015678D01*
X017543Y015635D01*
X017513Y015595D01*
X017481Y015557D01*
X017445Y015522D01*
X017406Y015490D01*
X017365Y015461D01*
X017322Y015435D01*
X017277Y015413D01*
X017231Y015395D01*
X017183Y015380D01*
X017134Y015369D01*
X017085Y015362D01*
X017035Y015359D01*
X016984Y015360D01*
X016935Y015365D01*
X016885Y015374D01*
X016837Y015387D01*
X016790Y015403D01*
X016744Y015424D01*
X016700Y015448D01*
X016658Y015475D01*
X016618Y015505D01*
X016581Y015539D01*
X016547Y015576D01*
X016515Y015615D01*
X016487Y015656D01*
X016462Y015700D01*
X016441Y015745D01*
X016424Y015792D01*
X016410Y015840D01*
X016400Y015889D01*
X016394Y015939D01*
X016392Y015989D01*
X016392Y010083D02*
X016394Y010133D01*
X016400Y010183D01*
X016410Y010232D01*
X016424Y010280D01*
X016441Y010327D01*
X016462Y010372D01*
X016487Y010416D01*
X016515Y010457D01*
X016547Y010496D01*
X016581Y010533D01*
X016618Y010567D01*
X016658Y010597D01*
X016700Y010624D01*
X016744Y010648D01*
X016790Y010669D01*
X016837Y010685D01*
X016885Y010698D01*
X016935Y010707D01*
X016984Y010712D01*
X017035Y010713D01*
X017085Y010710D01*
X017134Y010703D01*
X017183Y010692D01*
X017231Y010677D01*
X017277Y010659D01*
X017322Y010637D01*
X017365Y010611D01*
X017406Y010582D01*
X017445Y010550D01*
X017481Y010515D01*
X017513Y010477D01*
X017543Y010437D01*
X017570Y010394D01*
X017593Y010350D01*
X017612Y010304D01*
X017628Y010256D01*
X017640Y010207D01*
X017648Y010158D01*
X017652Y010108D01*
X017652Y010058D01*
X017648Y010008D01*
X017640Y009959D01*
X017628Y009910D01*
X017612Y009862D01*
X017593Y009816D01*
X017570Y009772D01*
X017543Y009729D01*
X017513Y009689D01*
X017481Y009651D01*
X017445Y009616D01*
X017406Y009584D01*
X017365Y009555D01*
X017322Y009529D01*
X017277Y009507D01*
X017231Y009489D01*
X017183Y009474D01*
X017134Y009463D01*
X017085Y009456D01*
X017035Y009453D01*
X016984Y009454D01*
X016935Y009459D01*
X016885Y009468D01*
X016837Y009481D01*
X016790Y009497D01*
X016744Y009518D01*
X016700Y009542D01*
X016658Y009569D01*
X016618Y009599D01*
X016581Y009633D01*
X016547Y009670D01*
X016515Y009709D01*
X016487Y009750D01*
X016462Y009794D01*
X016441Y009839D01*
X016424Y009886D01*
X016410Y009934D01*
X016400Y009983D01*
X016394Y010033D01*
X016392Y010083D01*
X016392Y004178D02*
X016394Y004228D01*
X016400Y004278D01*
X016410Y004327D01*
X016424Y004375D01*
X016441Y004422D01*
X016462Y004467D01*
X016487Y004511D01*
X016515Y004552D01*
X016547Y004591D01*
X016581Y004628D01*
X016618Y004662D01*
X016658Y004692D01*
X016700Y004719D01*
X016744Y004743D01*
X016790Y004764D01*
X016837Y004780D01*
X016885Y004793D01*
X016935Y004802D01*
X016984Y004807D01*
X017035Y004808D01*
X017085Y004805D01*
X017134Y004798D01*
X017183Y004787D01*
X017231Y004772D01*
X017277Y004754D01*
X017322Y004732D01*
X017365Y004706D01*
X017406Y004677D01*
X017445Y004645D01*
X017481Y004610D01*
X017513Y004572D01*
X017543Y004532D01*
X017570Y004489D01*
X017593Y004445D01*
X017612Y004399D01*
X017628Y004351D01*
X017640Y004302D01*
X017648Y004253D01*
X017652Y004203D01*
X017652Y004153D01*
X017648Y004103D01*
X017640Y004054D01*
X017628Y004005D01*
X017612Y003957D01*
X017593Y003911D01*
X017570Y003867D01*
X017543Y003824D01*
X017513Y003784D01*
X017481Y003746D01*
X017445Y003711D01*
X017406Y003679D01*
X017365Y003650D01*
X017322Y003624D01*
X017277Y003602D01*
X017231Y003584D01*
X017183Y003569D01*
X017134Y003558D01*
X017085Y003551D01*
X017035Y003548D01*
X016984Y003549D01*
X016935Y003554D01*
X016885Y003563D01*
X016837Y003576D01*
X016790Y003592D01*
X016744Y003613D01*
X016700Y003637D01*
X016658Y003664D01*
X016618Y003694D01*
X016581Y003728D01*
X016547Y003765D01*
X016515Y003804D01*
X016487Y003845D01*
X016462Y003889D01*
X016441Y003934D01*
X016424Y003981D01*
X016410Y004029D01*
X016400Y004078D01*
X016394Y004128D01*
X016392Y004178D01*
X016392Y001816D02*
X016394Y001866D01*
X016400Y001916D01*
X016410Y001965D01*
X016424Y002013D01*
X016441Y002060D01*
X016462Y002105D01*
X016487Y002149D01*
X016515Y002190D01*
X016547Y002229D01*
X016581Y002266D01*
X016618Y002300D01*
X016658Y002330D01*
X016700Y002357D01*
X016744Y002381D01*
X016790Y002402D01*
X016837Y002418D01*
X016885Y002431D01*
X016935Y002440D01*
X016984Y002445D01*
X017035Y002446D01*
X017085Y002443D01*
X017134Y002436D01*
X017183Y002425D01*
X017231Y002410D01*
X017277Y002392D01*
X017322Y002370D01*
X017365Y002344D01*
X017406Y002315D01*
X017445Y002283D01*
X017481Y002248D01*
X017513Y002210D01*
X017543Y002170D01*
X017570Y002127D01*
X017593Y002083D01*
X017612Y002037D01*
X017628Y001989D01*
X017640Y001940D01*
X017648Y001891D01*
X017652Y001841D01*
X017652Y001791D01*
X017648Y001741D01*
X017640Y001692D01*
X017628Y001643D01*
X017612Y001595D01*
X017593Y001549D01*
X017570Y001505D01*
X017543Y001462D01*
X017513Y001422D01*
X017481Y001384D01*
X017445Y001349D01*
X017406Y001317D01*
X017365Y001288D01*
X017322Y001262D01*
X017277Y001240D01*
X017231Y001222D01*
X017183Y001207D01*
X017134Y001196D01*
X017085Y001189D01*
X017035Y001186D01*
X016984Y001187D01*
X016935Y001192D01*
X016885Y001201D01*
X016837Y001214D01*
X016790Y001230D01*
X016744Y001251D01*
X016700Y001275D01*
X016658Y001302D01*
X016618Y001332D01*
X016581Y001366D01*
X016547Y001403D01*
X016515Y001442D01*
X016487Y001483D01*
X016462Y001527D01*
X016441Y001572D01*
X016424Y001619D01*
X016410Y001667D01*
X016400Y001716D01*
X016394Y001766D01*
X016392Y001816D01*
X002416Y016316D02*
X002418Y016342D01*
X002424Y016368D01*
X002434Y016393D01*
X002447Y016416D01*
X002463Y016436D01*
X002483Y016454D01*
X002505Y016469D01*
X002528Y016481D01*
X002554Y016489D01*
X002580Y016493D01*
X002606Y016493D01*
X002632Y016489D01*
X002658Y016481D01*
X002682Y016469D01*
X002703Y016454D01*
X002723Y016436D01*
X002739Y016416D01*
X002752Y016393D01*
X002762Y016368D01*
X002768Y016342D01*
X002770Y016316D01*
X002768Y016290D01*
X002762Y016264D01*
X002752Y016239D01*
X002739Y016216D01*
X002723Y016196D01*
X002703Y016178D01*
X002681Y016163D01*
X002658Y016151D01*
X002632Y016143D01*
X002606Y016139D01*
X002580Y016139D01*
X002554Y016143D01*
X002528Y016151D01*
X002504Y016163D01*
X002483Y016178D01*
X002463Y016196D01*
X002447Y016216D01*
X002434Y016239D01*
X002424Y016264D01*
X002418Y016290D01*
X002416Y016316D01*
X002416Y018048D02*
X002418Y018074D01*
X002424Y018100D01*
X002434Y018125D01*
X002447Y018148D01*
X002463Y018168D01*
X002483Y018186D01*
X002505Y018201D01*
X002528Y018213D01*
X002554Y018221D01*
X002580Y018225D01*
X002606Y018225D01*
X002632Y018221D01*
X002658Y018213D01*
X002682Y018201D01*
X002703Y018186D01*
X002723Y018168D01*
X002739Y018148D01*
X002752Y018125D01*
X002762Y018100D01*
X002768Y018074D01*
X002770Y018048D01*
X002768Y018022D01*
X002762Y017996D01*
X002752Y017971D01*
X002739Y017948D01*
X002723Y017928D01*
X002703Y017910D01*
X002681Y017895D01*
X002658Y017883D01*
X002632Y017875D01*
X002606Y017871D01*
X002580Y017871D01*
X002554Y017875D01*
X002528Y017883D01*
X002504Y017895D01*
X002483Y017910D01*
X002463Y017928D01*
X002447Y017948D01*
X002434Y017971D01*
X002424Y017996D01*
X002418Y018022D01*
X002416Y018048D01*
D11*
X005230Y011631D03*
X005230Y011316D03*
X005230Y011001D03*
X005230Y010686D03*
X005230Y010371D03*
X005230Y010056D03*
X005230Y009741D03*
X005230Y009426D03*
X008610Y009426D03*
X008610Y009741D03*
X008610Y010056D03*
X008610Y010371D03*
X008610Y010686D03*
X008610Y011001D03*
X008610Y011316D03*
X008610Y011631D03*
D12*
X008022Y012218D03*
X007707Y012218D03*
X007392Y012218D03*
X007077Y012218D03*
X006762Y012218D03*
X006447Y012218D03*
X006132Y012218D03*
X005817Y012218D03*
X005817Y008838D03*
X006132Y008838D03*
X006447Y008838D03*
X006762Y008838D03*
X007077Y008838D03*
X007392Y008838D03*
X007707Y008838D03*
X008022Y008838D03*
D13*
X006581Y019020D03*
X005479Y019020D03*
D14*
X006372Y017784D03*
X006372Y017115D03*
X005376Y016654D03*
X005376Y015985D03*
X006904Y013745D03*
X006904Y013076D03*
X008053Y013127D03*
X008053Y013796D03*
X009270Y013713D03*
X009270Y013044D03*
X007683Y007658D03*
X007683Y006989D03*
X003746Y009032D03*
X003746Y009702D03*
X003372Y003694D03*
X003372Y003024D03*
D15*
X003333Y001532D03*
X003333Y000863D03*
X007668Y005568D03*
X007668Y006237D03*
X008455Y016548D03*
X008455Y017217D03*
X008431Y018383D03*
X008431Y019052D03*
X009609Y019044D03*
X009609Y018375D03*
X010620Y018375D03*
X010620Y019044D03*
D16*
X001412Y018934D03*
X001412Y015430D03*
D17*
X003734Y015430D03*
X003734Y018934D03*
D18*
X003774Y017812D03*
X003774Y017497D03*
X003774Y017182D03*
X003774Y016867D03*
X003774Y016552D03*
D19*
X003857Y013733D03*
X003857Y013143D03*
X003857Y012552D03*
D20*
X004270Y012552D03*
X004270Y013143D03*
X004270Y013733D03*
X003443Y013733D03*
X003443Y013143D03*
X003443Y012552D03*
D21*
X009534Y012131D03*
X009605Y009985D03*
X011731Y009985D03*
X011660Y012131D03*
D22*
X011719Y012135D02*
X012556Y012135D01*
X012556Y012170D02*
X012556Y012044D01*
X012604Y011928D01*
X012693Y011839D01*
X012809Y011791D01*
X012935Y011791D01*
X013051Y011839D01*
X013140Y011928D01*
X013188Y012044D01*
X013188Y012170D01*
X013140Y012286D01*
X013051Y012375D01*
X012935Y012423D01*
X012809Y012423D01*
X012693Y012375D01*
X012604Y012286D01*
X012556Y012170D01*
X012590Y012252D02*
X012191Y012252D01*
X012191Y012190D02*
X012191Y012464D01*
X012182Y012499D01*
X012164Y012530D01*
X012138Y012556D01*
X012107Y012574D01*
X012072Y012583D01*
X011719Y012583D01*
X011719Y012190D01*
X011601Y012190D01*
X011601Y012583D01*
X011248Y012583D01*
X011213Y012574D01*
X011181Y012556D01*
X011156Y012530D01*
X011138Y012499D01*
X011128Y012464D01*
X011128Y012190D01*
X011601Y012190D01*
X011601Y012072D01*
X011128Y012072D01*
X011128Y011798D01*
X011138Y011763D01*
X011156Y011731D01*
X011181Y011705D01*
X011213Y011687D01*
X011248Y011678D01*
X011601Y011678D01*
X011601Y012072D01*
X011719Y012072D01*
X011719Y012190D01*
X012191Y012190D01*
X012191Y012072D02*
X011719Y012072D01*
X011719Y011678D01*
X012072Y011678D01*
X012107Y011687D01*
X012138Y011705D01*
X012164Y011731D01*
X012182Y011763D01*
X012191Y011798D01*
X012191Y012072D01*
X012191Y012019D02*
X012567Y012019D01*
X012631Y011902D02*
X012191Y011902D01*
X012188Y011785D02*
X014116Y011785D01*
X014232Y011669D02*
X010592Y011669D01*
X010646Y011647D02*
X010530Y011695D01*
X010404Y011695D01*
X010288Y011647D01*
X010199Y011558D01*
X010180Y011513D01*
X009250Y011513D01*
X009415Y011678D01*
X009984Y011678D01*
X010065Y011759D01*
X010065Y012503D01*
X009984Y012583D01*
X009838Y012583D01*
X009839Y012586D01*
X009853Y012600D01*
X009853Y012681D01*
X009864Y012760D01*
X009853Y012776D01*
X009853Y012795D01*
X009796Y012853D01*
X009747Y012917D01*
X009728Y012920D01*
X009624Y013024D01*
X009624Y013298D01*
X009544Y013379D01*
X009624Y013459D01*
X009624Y013477D01*
X012424Y013477D01*
X014392Y011509D01*
X014392Y006561D01*
X012546Y004714D01*
X011800Y004714D01*
X011639Y004648D01*
X011516Y004524D01*
X011449Y004363D01*
X011449Y004278D01*
X011258Y004087D01*
X008482Y004066D01*
X008402Y004147D01*
X008286Y004195D01*
X008160Y004195D01*
X008044Y004147D01*
X007963Y004066D01*
X005995Y004084D01*
X005891Y004188D01*
X005745Y004249D01*
X005586Y004249D01*
X005440Y004188D01*
X005328Y004077D01*
X005268Y003930D01*
X005268Y003772D01*
X005328Y003626D01*
X005440Y003514D01*
X005469Y003502D01*
X005513Y002679D01*
X005488Y002669D01*
X005376Y002557D01*
X005373Y002551D01*
X004044Y002485D01*
X003952Y002485D01*
X003947Y002480D01*
X003940Y002480D01*
X003878Y002412D01*
X003353Y001887D01*
X003079Y001887D01*
X002998Y001806D01*
X002998Y001259D01*
X003061Y001196D01*
X003051Y001190D01*
X003026Y001164D01*
X003008Y001133D01*
X002998Y001098D01*
X002998Y000902D01*
X003294Y000902D01*
X003294Y000824D01*
X000646Y000824D01*
X000646Y000941D02*
X002998Y000941D01*
X002998Y001057D02*
X000646Y001057D01*
X000646Y001174D02*
X003035Y001174D01*
X002998Y001290D02*
X000646Y001290D01*
X000646Y001407D02*
X001014Y001407D01*
X001009Y001411D02*
X001035Y001386D01*
X001066Y001368D01*
X001101Y001358D01*
X001379Y001358D01*
X001379Y001755D01*
X001460Y001755D01*
X001460Y001358D01*
X001738Y001358D01*
X001773Y001368D01*
X001804Y001386D01*
X001830Y001411D01*
X001848Y001443D01*
X001857Y001478D01*
X001857Y001755D01*
X001460Y001755D01*
X001460Y001837D01*
X001379Y001837D01*
X001379Y002234D01*
X001101Y002234D01*
X001066Y002224D01*
X001035Y002206D01*
X001009Y002181D01*
X000991Y002149D01*
X000982Y002114D01*
X000982Y001837D01*
X001379Y001837D01*
X001379Y001755D01*
X000982Y001755D01*
X000982Y001478D01*
X000991Y001443D01*
X001009Y001411D01*
X000982Y001524D02*
X000646Y001524D01*
X000646Y001640D02*
X000982Y001640D01*
X000982Y001873D02*
X000646Y001873D01*
X000646Y001757D02*
X001379Y001757D01*
X001460Y001757D02*
X002998Y001757D01*
X002998Y001640D02*
X001857Y001640D01*
X001857Y001524D02*
X002998Y001524D01*
X002998Y001407D02*
X001825Y001407D01*
X001460Y001407D02*
X001379Y001407D01*
X001379Y001524D02*
X001460Y001524D01*
X001460Y001640D02*
X001379Y001640D01*
X001460Y001837D02*
X001857Y001837D01*
X001857Y002114D01*
X001848Y002149D01*
X001830Y002181D01*
X001804Y002206D01*
X001773Y002224D01*
X001738Y002234D01*
X001460Y002234D01*
X001460Y001837D01*
X001460Y001873D02*
X001379Y001873D01*
X001379Y001990D02*
X001460Y001990D01*
X001460Y002107D02*
X001379Y002107D01*
X001379Y002223D02*
X001460Y002223D01*
X001775Y002223D02*
X003690Y002223D01*
X003573Y002107D02*
X001857Y002107D01*
X001857Y001990D02*
X003457Y001990D01*
X003066Y001873D02*
X001857Y001873D01*
X001777Y002358D02*
X001857Y002439D01*
X001857Y003153D01*
X001777Y003234D01*
X001062Y003234D01*
X000982Y003153D01*
X000982Y002439D01*
X001062Y002358D01*
X001777Y002358D01*
X001857Y002457D02*
X003919Y002457D01*
X003806Y002340D02*
X000646Y002340D01*
X000646Y002457D02*
X000982Y002457D01*
X000982Y002573D02*
X000646Y002573D01*
X000646Y002690D02*
X000982Y002690D01*
X000982Y002806D02*
X000646Y002806D01*
X000646Y002923D02*
X000982Y002923D01*
X000982Y003040D02*
X000646Y003040D01*
X000646Y003156D02*
X000985Y003156D01*
X000646Y003273D02*
X003018Y003273D01*
X003018Y003278D02*
X003018Y002770D01*
X003099Y002690D01*
X001857Y002690D01*
X001857Y002806D02*
X003018Y002806D01*
X003018Y002923D02*
X001857Y002923D01*
X001857Y003040D02*
X003018Y003040D01*
X003018Y003156D02*
X001854Y003156D01*
X001857Y002573D02*
X005392Y002573D01*
X005512Y002690D02*
X003646Y002690D01*
X003727Y002770D01*
X003727Y002828D01*
X003910Y002828D01*
X003973Y002764D01*
X004089Y002716D01*
X004215Y002716D01*
X004331Y002764D01*
X004420Y002853D01*
X004468Y002969D01*
X004468Y003095D01*
X004420Y003211D01*
X004331Y003300D01*
X004215Y003348D01*
X004089Y003348D01*
X003973Y003300D01*
X003894Y003221D01*
X003727Y003221D01*
X003727Y003278D01*
X003646Y003359D01*
X003099Y003359D01*
X003018Y003278D01*
X003099Y003359D02*
X003646Y003359D01*
X003727Y003440D01*
X003727Y003497D01*
X004249Y003497D01*
X004349Y003396D01*
X004545Y003396D01*
X004602Y003453D01*
X004745Y003453D01*
X004891Y003514D01*
X005003Y003626D01*
X005063Y003772D01*
X005063Y003930D01*
X005003Y004077D01*
X004891Y004188D01*
X004864Y004199D01*
X004864Y004590D01*
X004940Y004514D01*
X005086Y004453D01*
X005245Y004453D01*
X005391Y004514D01*
X005503Y004626D01*
X005563Y004772D01*
X005563Y004930D01*
X005503Y005077D01*
X005391Y005188D01*
X005388Y005190D01*
X005700Y005190D01*
X005815Y005305D01*
X005815Y005568D01*
X005866Y005619D01*
X005866Y006513D01*
X005863Y006517D01*
X005874Y006517D01*
X005871Y006513D01*
X005871Y005619D01*
X005951Y005538D01*
X006017Y005538D01*
X006296Y005259D01*
X006328Y005215D01*
X006282Y005234D01*
X006205Y005249D01*
X006187Y005249D01*
X006187Y004872D01*
X006563Y004872D01*
X006563Y004890D01*
X006548Y004967D01*
X006518Y005040D01*
X006475Y005105D01*
X006419Y005160D01*
X006375Y005190D01*
X006430Y005190D01*
X006467Y005183D01*
X006478Y005156D01*
X006567Y005068D01*
X006683Y005020D01*
X006809Y005020D01*
X006925Y005068D01*
X007014Y005156D01*
X007062Y005273D01*
X007062Y005398D01*
X007014Y005514D01*
X006925Y005603D01*
X006866Y005628D01*
X006866Y005855D01*
X006934Y005855D01*
X006946Y005866D01*
X006961Y005868D01*
X007013Y005934D01*
X007080Y006001D01*
X007333Y006001D01*
X007333Y005963D01*
X007396Y005900D01*
X007386Y005895D01*
X007360Y005869D01*
X007342Y005837D01*
X007333Y005802D01*
X007333Y005607D01*
X007628Y005607D01*
X007628Y005528D01*
X007707Y005528D01*
X007707Y005213D01*
X007883Y005213D01*
X007918Y005223D01*
X007949Y005241D01*
X007975Y005267D01*
X007993Y005298D01*
X008002Y005333D01*
X008002Y005528D01*
X007707Y005528D01*
X007707Y005607D01*
X008002Y005607D01*
X008002Y005802D01*
X007993Y005837D01*
X007975Y005869D01*
X007949Y005895D01*
X007939Y005900D01*
X008002Y005963D01*
X008002Y006010D01*
X008057Y006007D01*
X008099Y005965D01*
X008215Y005917D01*
X008341Y005917D01*
X008457Y005965D01*
X008546Y006054D01*
X008592Y006167D01*
X008616Y006109D01*
X008705Y006020D01*
X008821Y005972D01*
X008947Y005972D01*
X009063Y006020D01*
X009152Y006109D01*
X009200Y006225D01*
X009200Y006351D01*
X009152Y006467D01*
X009080Y006539D01*
X009077Y007482D01*
X009088Y007498D01*
X009077Y007562D01*
X009077Y007626D01*
X009063Y007640D01*
X009034Y007803D01*
X009065Y007834D01*
X009113Y007950D01*
X009113Y008075D01*
X009065Y008192D01*
X008976Y008280D01*
X008860Y008329D01*
X008735Y008329D01*
X008654Y008295D01*
X008805Y008446D01*
X009279Y008666D01*
X009309Y008653D01*
X009435Y008653D01*
X009551Y008701D01*
X009640Y008790D01*
X009688Y008906D01*
X009688Y009032D01*
X009640Y009148D01*
X009551Y009237D01*
X009435Y009285D01*
X009309Y009285D01*
X009193Y009237D01*
X009104Y009148D01*
X009083Y009095D01*
X008615Y008879D01*
X008570Y008879D01*
X008530Y008839D01*
X008479Y008816D01*
X008464Y008773D01*
X008270Y008579D01*
X008270Y009145D01*
X008189Y009226D01*
X006644Y009226D01*
X006644Y009375D01*
X007319Y009375D01*
X007390Y009304D01*
X007506Y009256D01*
X007632Y009256D01*
X007748Y009304D01*
X007837Y009393D01*
X007885Y009509D01*
X007885Y009634D01*
X007837Y009751D01*
X007748Y009839D01*
X007734Y009845D01*
X007748Y009851D01*
X007837Y009940D01*
X007885Y010056D01*
X007885Y010182D01*
X007837Y010298D01*
X007748Y010387D01*
X007726Y010396D01*
X007799Y010426D01*
X007888Y010515D01*
X007936Y010631D01*
X007936Y010757D01*
X007888Y010873D01*
X007799Y010962D01*
X007785Y010967D01*
X007799Y010973D01*
X007888Y011062D01*
X007936Y011178D01*
X007936Y011304D01*
X007888Y011420D01*
X007799Y011509D01*
X007683Y011557D01*
X007638Y011557D01*
X007628Y011567D01*
X007628Y011831D01*
X008189Y011831D01*
X008270Y011911D01*
X008270Y012132D01*
X008290Y012152D01*
X008290Y012792D01*
X008327Y012792D01*
X008408Y012873D01*
X008408Y013381D01*
X008327Y013461D01*
X007780Y013461D01*
X007699Y013381D01*
X007699Y012965D01*
X007348Y012965D01*
X007258Y013055D01*
X007258Y013330D01*
X007177Y013410D01*
X006630Y013410D01*
X006549Y013330D01*
X006549Y012948D01*
X006501Y012997D01*
X006124Y013374D01*
X006124Y014219D01*
X006195Y014290D01*
X006243Y014406D01*
X006243Y014532D01*
X006195Y014648D01*
X006106Y014737D01*
X005990Y014785D01*
X005865Y014785D01*
X005748Y014737D01*
X005660Y014648D01*
X005611Y014532D01*
X005611Y014406D01*
X005660Y014290D01*
X005731Y014219D01*
X005731Y013211D01*
X006223Y012718D01*
X005651Y012718D01*
X005644Y012726D02*
X005644Y013445D01*
X005506Y013583D01*
X004600Y014489D01*
X001782Y014489D01*
X001644Y014351D01*
X001440Y014351D01*
X001460Y014399D02*
X001412Y014282D01*
X001323Y014194D01*
X001207Y014146D01*
X001081Y014146D01*
X000965Y014194D01*
X000876Y014282D01*
X000828Y014399D01*
X000828Y014524D01*
X000876Y014640D01*
X000965Y014729D01*
X001081Y014777D01*
X001207Y014777D01*
X001323Y014729D01*
X001412Y014640D01*
X001460Y014524D01*
X001460Y014399D01*
X001460Y014467D02*
X001761Y014467D01*
X001644Y014351D02*
X000935Y013642D01*
X000935Y007494D01*
X000917Y007457D01*
X000935Y007400D01*
X000935Y007340D01*
X000965Y007310D01*
X000978Y007271D01*
X001031Y007244D01*
X001074Y007202D01*
X001115Y007202D01*
X001347Y007085D01*
X001347Y007004D01*
X001414Y006843D01*
X001537Y006720D01*
X001698Y006654D01*
X002472Y006654D01*
X002633Y006720D01*
X002756Y006843D01*
X002823Y007004D01*
X002823Y007178D01*
X002756Y007339D01*
X002633Y007462D01*
X002472Y007529D01*
X001698Y007529D01*
X001598Y007488D01*
X001596Y007488D01*
X001511Y007533D01*
X001509Y007532D01*
X001408Y007583D01*
X001408Y007858D01*
X001414Y007843D01*
X001537Y007720D01*
X001698Y007654D01*
X002472Y007654D01*
X002633Y007720D01*
X002756Y007843D01*
X002823Y008004D01*
X002823Y008178D01*
X002756Y008339D01*
X002633Y008462D01*
X002472Y008529D01*
X002231Y008529D01*
X002231Y009610D01*
X002381Y009610D01*
X002542Y009677D01*
X002665Y009800D01*
X002732Y009961D01*
X002732Y010135D01*
X002665Y010296D01*
X002542Y010419D01*
X002381Y010486D01*
X001607Y010486D01*
X001446Y010419D01*
X001408Y010381D01*
X001408Y010716D01*
X001409Y010714D01*
X001465Y010674D01*
X001526Y010642D01*
X001592Y010621D01*
X001660Y010610D01*
X001953Y010610D01*
X001953Y011007D01*
X002035Y011007D01*
X002035Y010610D01*
X002329Y010610D01*
X002397Y010621D01*
X002462Y010642D01*
X002524Y010674D01*
X002580Y010714D01*
X002628Y010763D01*
X002669Y010819D01*
X002700Y010880D01*
X002721Y010946D01*
X002731Y011007D01*
X002035Y011007D01*
X002035Y011089D01*
X001953Y011089D01*
X001953Y011486D01*
X001660Y011486D01*
X001592Y011475D01*
X001526Y011454D01*
X001465Y011422D01*
X001409Y011382D01*
X001408Y011381D01*
X001408Y011716D01*
X001446Y011677D01*
X001607Y011610D01*
X002381Y011610D01*
X002542Y011677D01*
X002665Y011800D01*
X002732Y011961D01*
X002732Y012135D01*
X002665Y012296D01*
X002542Y012419D01*
X002381Y012486D01*
X001607Y012486D01*
X001446Y012419D01*
X001408Y012381D01*
X001408Y012716D01*
X001446Y012677D01*
X001607Y012610D01*
X002381Y012610D01*
X002542Y012677D01*
X002665Y012800D01*
X002732Y012961D01*
X002732Y013135D01*
X002665Y013296D01*
X002542Y013419D01*
X002381Y013486D01*
X001607Y013486D01*
X001446Y013419D01*
X001408Y013381D01*
X001408Y013446D01*
X001978Y014017D01*
X003276Y014017D01*
X003207Y013948D01*
X003207Y013519D01*
X003288Y013438D01*
X003599Y013438D01*
X003288Y013438D01*
X003207Y013357D01*
X003207Y012928D01*
X003288Y012847D01*
X003207Y012767D01*
X003207Y012337D01*
X003288Y012257D01*
X003599Y012257D01*
X003677Y012335D01*
X003739Y012335D01*
X003759Y012316D01*
X004053Y012316D01*
X004053Y011584D01*
X004192Y011446D01*
X004558Y011080D01*
X004842Y011080D01*
X004842Y011001D01*
X005230Y011001D01*
X005617Y011001D01*
X005617Y011129D01*
X005613Y011144D01*
X005617Y011149D01*
X005617Y011289D01*
X005685Y011221D01*
X005802Y011173D01*
X005927Y011173D01*
X006043Y011221D01*
X006132Y011310D01*
X006180Y011426D01*
X006180Y011552D01*
X006186Y011552D01*
X006186Y011426D01*
X006234Y011310D01*
X006323Y011221D01*
X006439Y011173D01*
X006565Y011173D01*
X006681Y011221D01*
X006770Y011310D01*
X006818Y011426D01*
X006818Y011471D01*
X006828Y011481D01*
X006943Y011596D01*
X006943Y011832D01*
X006949Y011831D01*
X007077Y011831D01*
X007156Y011831D01*
X007156Y011371D01*
X007294Y011233D01*
X007304Y011223D01*
X007304Y011178D01*
X007353Y011062D01*
X007441Y010973D01*
X007455Y010967D01*
X007441Y010962D01*
X007369Y010890D01*
X006595Y010887D01*
X006525Y010894D01*
X006515Y010886D01*
X006503Y010886D01*
X006453Y010836D01*
X006169Y010608D01*
X006169Y010670D01*
X006120Y010786D01*
X006032Y010875D01*
X005933Y010916D01*
X005927Y010922D01*
X005918Y010922D01*
X005915Y010923D01*
X005887Y010923D01*
X005855Y010940D01*
X005797Y010923D01*
X005790Y010923D01*
X005787Y010922D01*
X005617Y010922D01*
X005617Y011001D01*
X005230Y011001D01*
X005230Y011001D01*
X005230Y011001D01*
X004842Y011001D01*
X004842Y010873D01*
X004846Y010857D01*
X004842Y010853D01*
X004842Y010599D01*
X004306Y010599D01*
X004192Y010485D01*
X004077Y010370D01*
X004077Y010639D01*
X003962Y010754D01*
X003523Y010754D01*
X003408Y010639D01*
X003408Y010200D01*
X003506Y010102D01*
X003506Y010036D01*
X003473Y010036D01*
X003392Y009956D01*
X003392Y009448D01*
X003473Y009367D01*
X003392Y009286D01*
X003392Y008778D01*
X003473Y008698D01*
X004020Y008698D01*
X004101Y008778D01*
X004101Y008796D01*
X004198Y008796D01*
X004337Y008934D01*
X004526Y009123D01*
X004526Y010127D01*
X004842Y010127D01*
X004842Y009259D01*
X004922Y009178D01*
X005033Y009178D01*
X005033Y008955D01*
X004669Y008591D01*
X004553Y008476D01*
X004553Y007360D01*
X004829Y007085D01*
X004925Y006989D01*
X004717Y006989D01*
X004685Y007021D01*
X004569Y007069D01*
X004443Y007069D01*
X004327Y007021D01*
X004238Y006932D01*
X004190Y006816D01*
X004190Y006690D01*
X004238Y006574D01*
X004327Y006485D01*
X004443Y006437D01*
X004569Y006437D01*
X004685Y006485D01*
X004717Y006517D01*
X004884Y006517D01*
X004880Y006509D01*
X004871Y006474D01*
X004871Y006066D01*
X004871Y005658D01*
X004880Y005623D01*
X004898Y005592D01*
X004906Y005583D01*
X004586Y005583D01*
X004471Y005468D01*
X004471Y004201D01*
X004440Y004188D01*
X004328Y004077D01*
X004268Y003930D01*
X004268Y003891D01*
X003727Y003891D01*
X003727Y003948D01*
X003646Y004028D01*
X003099Y004028D01*
X003018Y003948D01*
X003018Y003440D01*
X003099Y003359D01*
X003068Y003389D02*
X000646Y003389D01*
X000646Y003506D02*
X003018Y003506D01*
X003018Y003623D02*
X000646Y003623D01*
X000646Y003739D02*
X003018Y003739D01*
X003018Y003856D02*
X000646Y003856D01*
X000646Y003972D02*
X003043Y003972D01*
X003152Y004256D02*
X003036Y004304D01*
X002947Y004393D01*
X002899Y004509D01*
X002899Y004634D01*
X002947Y004751D01*
X003036Y004839D01*
X003152Y004888D01*
X003278Y004888D01*
X003394Y004839D01*
X003483Y004751D01*
X003531Y004634D01*
X003531Y004509D01*
X003483Y004393D01*
X003394Y004304D01*
X003278Y004256D01*
X003152Y004256D01*
X003017Y004322D02*
X001873Y004322D01*
X001864Y004319D02*
X001980Y004367D01*
X002069Y004456D01*
X002117Y004572D01*
X002117Y004697D01*
X002069Y004814D01*
X001980Y004902D01*
X001864Y004951D01*
X001739Y004951D01*
X001622Y004902D01*
X001534Y004814D01*
X001486Y004697D01*
X001486Y004572D01*
X001534Y004456D01*
X001622Y004367D01*
X001739Y004319D01*
X001864Y004319D01*
X001730Y004322D02*
X000646Y004322D01*
X000646Y004206D02*
X004471Y004206D01*
X004471Y004322D02*
X003412Y004322D01*
X003502Y004439D02*
X004471Y004439D01*
X004471Y004556D02*
X003531Y004556D01*
X003515Y004672D02*
X004471Y004672D01*
X004471Y004789D02*
X003444Y004789D01*
X002985Y004789D02*
X002080Y004789D01*
X002117Y004672D02*
X002914Y004672D01*
X002899Y004556D02*
X002111Y004556D01*
X002052Y004439D02*
X002928Y004439D01*
X003372Y003694D02*
X004508Y003694D01*
X004666Y003851D01*
X004668Y003851D01*
X004668Y005387D01*
X005618Y005387D01*
X005618Y006066D01*
X005371Y006071D02*
X005366Y006071D01*
X005366Y006066D02*
X005366Y006474D01*
X005357Y006509D01*
X005353Y006517D01*
X005374Y006517D01*
X005371Y006513D01*
X005371Y005619D01*
X005406Y005583D01*
X005330Y005583D01*
X005339Y005592D01*
X005357Y005623D01*
X005366Y005658D01*
X005366Y006066D01*
X005118Y006066D01*
X004871Y006066D01*
X005118Y006066D01*
X005118Y006066D01*
X005118Y006066D01*
X005366Y006066D01*
X005366Y005955D02*
X005371Y005955D01*
X005366Y005838D02*
X005371Y005838D01*
X005366Y005722D02*
X005371Y005722D01*
X005385Y005605D02*
X005346Y005605D01*
X005441Y005139D02*
X005890Y005139D01*
X005912Y005160D02*
X005857Y005105D01*
X005813Y005040D01*
X005783Y004967D01*
X005768Y004890D01*
X005768Y004872D01*
X006145Y004872D01*
X006145Y005249D01*
X006126Y005249D01*
X006050Y005234D01*
X005977Y005204D01*
X005912Y005160D01*
X005806Y005022D02*
X005525Y005022D01*
X005563Y004905D02*
X005771Y004905D01*
X005768Y004830D02*
X005768Y004812D01*
X005783Y004735D01*
X005813Y004663D01*
X005857Y004598D01*
X005912Y004542D01*
X005977Y004499D01*
X006050Y004469D01*
X006126Y004453D01*
X006145Y004453D01*
X006145Y004830D01*
X006187Y004830D01*
X006187Y004872D01*
X006145Y004872D01*
X006145Y004830D01*
X005768Y004830D01*
X005772Y004789D02*
X005563Y004789D01*
X005522Y004672D02*
X005809Y004672D01*
X005899Y004556D02*
X005433Y004556D01*
X005482Y004206D02*
X004864Y004206D01*
X004864Y004322D02*
X007346Y004322D01*
X007372Y004296D02*
X007489Y004248D01*
X007614Y004248D01*
X007730Y004296D01*
X007801Y004367D01*
X009260Y004367D01*
X009331Y004296D01*
X009447Y004248D01*
X009573Y004248D01*
X009689Y004296D01*
X009778Y004385D01*
X009826Y004501D01*
X009826Y004627D01*
X009778Y004743D01*
X009689Y004832D01*
X009573Y004880D01*
X009447Y004880D01*
X009331Y004832D01*
X009260Y004761D01*
X007801Y004761D01*
X007730Y004832D01*
X007614Y004880D01*
X007489Y004880D01*
X007372Y004832D01*
X007284Y004743D01*
X007236Y004627D01*
X007236Y004501D01*
X007284Y004385D01*
X007372Y004296D01*
X007261Y004439D02*
X004864Y004439D01*
X004864Y004556D02*
X004899Y004556D01*
X004990Y004089D02*
X005341Y004089D01*
X005285Y003972D02*
X005046Y003972D01*
X005063Y003856D02*
X005268Y003856D01*
X005281Y003739D02*
X005050Y003739D01*
X005000Y003623D02*
X005332Y003623D01*
X005459Y003506D02*
X004872Y003506D01*
X004442Y003156D02*
X005487Y003156D01*
X005494Y003040D02*
X004468Y003040D01*
X004448Y002923D02*
X005500Y002923D01*
X005506Y002806D02*
X004373Y002806D01*
X004144Y003024D02*
X004152Y003032D01*
X004144Y003024D02*
X003372Y003024D01*
X003099Y002690D02*
X003646Y002690D01*
X003727Y002806D02*
X003931Y002806D01*
X003946Y003273D02*
X003727Y003273D01*
X003676Y003389D02*
X005475Y003389D01*
X005481Y003273D02*
X004358Y003273D01*
X004285Y003972D02*
X003702Y003972D01*
X004341Y004089D02*
X000646Y004089D01*
X000646Y004439D02*
X001550Y004439D01*
X001492Y004556D02*
X000646Y004556D01*
X000646Y004672D02*
X001486Y004672D01*
X001523Y004789D02*
X000646Y004789D01*
X000646Y004905D02*
X001629Y004905D01*
X001973Y004905D02*
X004471Y004905D01*
X004471Y005022D02*
X000646Y005022D01*
X000646Y005139D02*
X004471Y005139D01*
X004471Y005255D02*
X000646Y005255D01*
X000646Y005372D02*
X004471Y005372D01*
X004491Y005488D02*
X000646Y005488D01*
X000646Y005605D02*
X004890Y005605D01*
X004871Y005722D02*
X002634Y005722D01*
X002633Y005720D02*
X002756Y005843D01*
X002823Y006004D01*
X002823Y006178D01*
X002756Y006339D01*
X002633Y006462D01*
X002472Y006529D01*
X001698Y006529D01*
X001537Y006462D01*
X001414Y006339D01*
X001347Y006178D01*
X001347Y006004D01*
X001414Y005843D01*
X001537Y005720D01*
X001698Y005654D01*
X002472Y005654D01*
X002633Y005720D01*
X002751Y005838D02*
X004871Y005838D01*
X004871Y005955D02*
X002802Y005955D01*
X002823Y006071D02*
X004871Y006071D01*
X004871Y006188D02*
X002819Y006188D01*
X002770Y006305D02*
X004871Y006305D01*
X004871Y006421D02*
X002674Y006421D01*
X002474Y006655D02*
X004205Y006655D01*
X004190Y006771D02*
X002684Y006771D01*
X002774Y006888D02*
X004220Y006888D01*
X004311Y007004D02*
X002823Y007004D01*
X002823Y007121D02*
X004793Y007121D01*
X004701Y007004D02*
X004909Y007004D01*
X005026Y007166D02*
X006557Y007166D01*
X006636Y007245D01*
X006636Y007831D01*
X006618Y008006D01*
X006132Y008006D02*
X006132Y008838D01*
X005817Y008838D02*
X005817Y008560D01*
X005809Y008552D01*
X005238Y008552D01*
X005124Y008438D01*
X005124Y008012D01*
X005118Y008006D01*
X004750Y008394D02*
X004750Y007442D01*
X005026Y007166D01*
X004676Y007238D02*
X002798Y007238D01*
X002741Y007354D02*
X004559Y007354D01*
X004553Y007471D02*
X002613Y007471D01*
X002594Y007704D02*
X003525Y007704D01*
X003510Y007719D02*
X003599Y007631D01*
X003715Y007583D01*
X003841Y007583D01*
X003957Y007631D01*
X004046Y007719D01*
X004094Y007836D01*
X004094Y007961D01*
X004046Y008077D01*
X003957Y008166D01*
X003841Y008214D01*
X003715Y008214D01*
X003599Y008166D01*
X003510Y008077D01*
X003462Y007961D01*
X003462Y007836D01*
X003510Y007719D01*
X003468Y007821D02*
X002733Y007821D01*
X002795Y007937D02*
X003462Y007937D01*
X003500Y008054D02*
X002823Y008054D01*
X002823Y008170D02*
X003609Y008170D01*
X003947Y008170D02*
X004553Y008170D01*
X004553Y008054D02*
X004055Y008054D01*
X004094Y007937D02*
X004553Y007937D01*
X004553Y007821D02*
X004088Y007821D01*
X004030Y007704D02*
X004553Y007704D01*
X004553Y007587D02*
X003852Y007587D01*
X003703Y007587D02*
X001408Y007587D01*
X001408Y007704D02*
X001576Y007704D01*
X001436Y007821D02*
X001408Y007821D01*
X000935Y007821D02*
X000646Y007821D01*
X000646Y007937D02*
X000935Y007937D01*
X000935Y008054D02*
X000646Y008054D01*
X000646Y008170D02*
X000935Y008170D01*
X000935Y008287D02*
X000646Y008287D01*
X000646Y008404D02*
X000935Y008404D01*
X000935Y008520D02*
X000646Y008520D01*
X000646Y008637D02*
X000935Y008637D01*
X000935Y008754D02*
X000646Y008754D01*
X000646Y008870D02*
X000935Y008870D01*
X000935Y008987D02*
X000646Y008987D01*
X000646Y009103D02*
X000935Y009103D01*
X000935Y009220D02*
X000646Y009220D01*
X000646Y009337D02*
X000935Y009337D01*
X000935Y009453D02*
X000646Y009453D01*
X000646Y009570D02*
X000935Y009570D01*
X000935Y009686D02*
X000646Y009686D01*
X000646Y009803D02*
X000935Y009803D01*
X000935Y009920D02*
X000646Y009920D01*
X000646Y010036D02*
X000935Y010036D01*
X000935Y010153D02*
X000646Y010153D01*
X000646Y010269D02*
X000935Y010269D01*
X000935Y010386D02*
X000646Y010386D01*
X000646Y010503D02*
X000935Y010503D01*
X000935Y010619D02*
X000646Y010619D01*
X000646Y010736D02*
X000935Y010736D01*
X000935Y010852D02*
X000646Y010852D01*
X000646Y010969D02*
X000935Y010969D01*
X000935Y011086D02*
X000646Y011086D01*
X000646Y011202D02*
X000935Y011202D01*
X000935Y011319D02*
X000646Y011319D01*
X000646Y011436D02*
X000935Y011436D01*
X000935Y011552D02*
X000646Y011552D01*
X000646Y011669D02*
X000935Y011669D01*
X000935Y011785D02*
X000646Y011785D01*
X000646Y011902D02*
X000935Y011902D01*
X000935Y012019D02*
X000646Y012019D01*
X000646Y012135D02*
X000935Y012135D01*
X000935Y012252D02*
X000646Y012252D01*
X000646Y012368D02*
X000935Y012368D01*
X000935Y012485D02*
X000646Y012485D01*
X000646Y012602D02*
X000935Y012602D01*
X000935Y012718D02*
X000646Y012718D01*
X000646Y012835D02*
X000935Y012835D01*
X000935Y012951D02*
X000646Y012951D01*
X000646Y013068D02*
X000935Y013068D01*
X000935Y013185D02*
X000646Y013185D01*
X000646Y013301D02*
X000935Y013301D01*
X000935Y013418D02*
X000646Y013418D01*
X000646Y013535D02*
X000935Y013535D01*
X000944Y013651D02*
X000646Y013651D01*
X000646Y013768D02*
X001061Y013768D01*
X001178Y013884D02*
X000646Y013884D01*
X000646Y014001D02*
X001294Y014001D01*
X001411Y014118D02*
X000646Y014118D01*
X000646Y014234D02*
X000924Y014234D01*
X000848Y014351D02*
X000646Y014351D01*
X000646Y014467D02*
X000828Y014467D01*
X000853Y014584D02*
X000646Y014584D01*
X000646Y014701D02*
X000936Y014701D01*
X000901Y014898D02*
X001353Y014898D01*
X001353Y015371D01*
X001471Y015371D01*
X001471Y015489D01*
X002042Y015489D01*
X002042Y015842D01*
X002032Y015877D01*
X002014Y015908D01*
X001988Y015934D01*
X001957Y015952D01*
X001922Y015961D01*
X001471Y015961D01*
X001471Y015489D01*
X001353Y015489D01*
X001353Y015961D01*
X000901Y015961D01*
X000866Y015952D01*
X000835Y015934D01*
X000809Y015908D01*
X000791Y015877D01*
X000782Y015842D01*
X000782Y015489D01*
X001353Y015489D01*
X001353Y015371D01*
X000782Y015371D01*
X000782Y015018D01*
X000791Y014983D01*
X000809Y014952D01*
X000835Y014926D01*
X000866Y014908D01*
X000901Y014898D01*
X000827Y014934D02*
X000646Y014934D01*
X000646Y015050D02*
X000782Y015050D01*
X000782Y015167D02*
X000646Y015167D01*
X000646Y015284D02*
X000782Y015284D01*
X000646Y015400D02*
X001353Y015400D01*
X001353Y015284D02*
X001471Y015284D01*
X001471Y015371D02*
X001471Y014898D01*
X001922Y014898D01*
X001957Y014908D01*
X001988Y014926D01*
X002014Y014952D01*
X002032Y014983D01*
X002042Y015018D01*
X002042Y015371D01*
X001471Y015371D01*
X001471Y015400D02*
X003675Y015400D01*
X003675Y015371D02*
X002947Y015371D01*
X002947Y015018D01*
X002956Y014983D01*
X002975Y014952D01*
X003000Y014926D01*
X003032Y014908D01*
X003067Y014898D01*
X003675Y014898D01*
X003675Y015371D01*
X003675Y015489D01*
X002947Y015489D01*
X002947Y015842D01*
X002956Y015877D01*
X002975Y015908D01*
X003000Y015934D01*
X003032Y015952D01*
X003067Y015961D01*
X003675Y015961D01*
X003675Y015489D01*
X003794Y015489D01*
X004522Y015489D01*
X004522Y015842D01*
X004512Y015877D01*
X004494Y015908D01*
X004469Y015934D01*
X004437Y015952D01*
X004402Y015961D01*
X003794Y015961D01*
X003794Y015489D01*
X003794Y015371D01*
X004522Y015371D01*
X004522Y015018D01*
X004512Y014983D01*
X004494Y014952D01*
X004469Y014926D01*
X004437Y014908D01*
X004402Y014898D01*
X003794Y014898D01*
X003794Y015371D01*
X003675Y015371D01*
X003675Y015284D02*
X003794Y015284D01*
X003794Y015400D02*
X006656Y015400D01*
X006656Y015358D02*
X006951Y015358D01*
X006951Y015653D01*
X006827Y015653D01*
X006777Y015640D01*
X006732Y015614D01*
X006695Y015577D01*
X006669Y015532D01*
X006656Y015482D01*
X006656Y015358D01*
X006656Y015279D02*
X006656Y015155D01*
X006669Y015105D01*
X006695Y015060D01*
X006732Y015023D01*
X006777Y014997D01*
X006827Y014984D01*
X006951Y014984D01*
X006951Y015279D01*
X007030Y015279D01*
X007030Y015358D01*
X007325Y015358D01*
X007325Y015482D01*
X007312Y015532D01*
X007286Y015577D01*
X007249Y015614D01*
X007204Y015640D01*
X007154Y015653D01*
X007030Y015653D01*
X007030Y015358D01*
X006951Y015358D01*
X006951Y015279D01*
X006656Y015279D01*
X006656Y015167D02*
X004522Y015167D01*
X004522Y015050D02*
X006704Y015050D01*
X006771Y014963D02*
X006656Y014847D01*
X006656Y014409D01*
X006754Y014310D01*
X006754Y014080D01*
X006630Y014080D01*
X006549Y013999D01*
X006549Y013491D01*
X006630Y013410D01*
X007177Y013410D01*
X007258Y013491D01*
X007258Y013999D01*
X007227Y014030D01*
X007227Y014310D01*
X007325Y014409D01*
X007325Y014847D01*
X007210Y014963D01*
X006771Y014963D01*
X006742Y014934D02*
X004477Y014934D01*
X004522Y015284D02*
X006951Y015284D01*
X006852Y015181D02*
X007128Y015181D01*
X006852Y015181D02*
X006852Y015457D01*
X007128Y015457D01*
X007128Y015181D01*
X007128Y015298D02*
X006852Y015298D01*
X006852Y015415D02*
X007128Y015415D01*
X007030Y015400D02*
X006951Y015400D01*
X006951Y015517D02*
X007030Y015517D01*
X007030Y015634D02*
X006951Y015634D01*
X006766Y015634D02*
X006029Y015634D01*
X006079Y015654D02*
X005963Y015606D01*
X005837Y015606D01*
X005721Y015654D01*
X005687Y015688D01*
X005650Y015650D01*
X005103Y015650D01*
X005022Y015731D01*
X005022Y016239D01*
X005103Y016320D01*
X005650Y016320D01*
X005731Y016400D01*
X005731Y016908D01*
X005650Y016989D01*
X005493Y016989D01*
X005981Y017477D01*
X006071Y017477D01*
X006099Y017450D01*
X006646Y017450D01*
X006727Y017530D01*
X006727Y018038D01*
X006646Y018119D01*
X006099Y018119D01*
X006018Y018038D01*
X006018Y017871D01*
X005818Y017871D01*
X005703Y017756D01*
X005687Y017740D01*
X005724Y017828D01*
X005724Y017953D01*
X005676Y018069D01*
X005587Y018158D01*
X005471Y018206D01*
X005345Y018206D01*
X005229Y018158D01*
X005140Y018069D01*
X005092Y017953D01*
X005092Y017853D01*
X004932Y017694D01*
X004754Y017694D01*
X005576Y018517D01*
X005588Y018528D01*
X005733Y018528D01*
X005813Y018609D01*
X005813Y019432D01*
X005733Y019513D01*
X005225Y019513D01*
X005144Y019432D01*
X005144Y018752D01*
X004444Y018052D01*
X003680Y018052D01*
X003676Y018048D01*
X003107Y018048D01*
X003026Y017967D01*
X003026Y017656D01*
X003028Y017654D01*
X003026Y017652D01*
X003026Y017341D01*
X003028Y017339D01*
X003026Y017337D01*
X003026Y017026D01*
X003028Y017024D01*
X003026Y017022D01*
X003026Y016711D01*
X003035Y016702D01*
X003026Y016669D01*
X003026Y016552D01*
X003774Y016552D01*
X003774Y016316D01*
X004402Y016316D01*
X004437Y016325D01*
X004469Y016343D01*
X004494Y016369D01*
X004512Y016400D01*
X004522Y016435D01*
X004522Y016443D01*
X004632Y016397D01*
X004758Y016397D01*
X004874Y016446D01*
X004945Y016517D01*
X005022Y016517D01*
X005022Y016400D01*
X005103Y016320D01*
X005650Y016320D01*
X005731Y016239D01*
X005731Y016194D01*
X005837Y016238D01*
X005963Y016238D01*
X006079Y016190D01*
X006168Y016101D01*
X006216Y015985D01*
X006216Y015859D01*
X006168Y015743D01*
X006079Y015654D01*
X006171Y015750D02*
X008387Y015750D01*
X008383Y015696D02*
X008338Y015722D01*
X008288Y015736D01*
X008164Y015736D01*
X008164Y015441D01*
X008085Y015441D01*
X008085Y015736D01*
X007961Y015736D01*
X007910Y015722D01*
X007866Y015696D01*
X007829Y015660D01*
X007803Y015615D01*
X007790Y015565D01*
X007790Y015441D01*
X008085Y015441D01*
X008085Y015362D01*
X007790Y015362D01*
X007790Y015237D01*
X007803Y015187D01*
X007829Y015143D01*
X007866Y015106D01*
X007910Y015080D01*
X007961Y015067D01*
X008085Y015067D01*
X008085Y015362D01*
X008164Y015362D01*
X008164Y015441D01*
X008459Y015441D01*
X008459Y015565D01*
X008445Y015615D01*
X008420Y015660D01*
X008383Y015696D01*
X008435Y015634D02*
X008504Y015634D01*
X008564Y015573D02*
X008564Y015529D01*
X008612Y015412D01*
X008701Y015324D01*
X008817Y015275D01*
X008943Y015275D01*
X009059Y015324D01*
X009148Y015412D01*
X009196Y015529D01*
X009196Y015654D01*
X009148Y015770D01*
X009059Y015859D01*
X008943Y015907D01*
X008898Y015907D01*
X008691Y016114D01*
X008691Y016194D01*
X008709Y016194D01*
X008790Y016274D01*
X008790Y016822D01*
X008726Y016885D01*
X008736Y016891D01*
X008762Y016916D01*
X008780Y016948D01*
X008790Y016983D01*
X008790Y017178D01*
X008494Y017178D01*
X008494Y017257D01*
X008416Y017257D01*
X008416Y017572D01*
X008240Y017572D01*
X008205Y017562D01*
X008174Y017544D01*
X008148Y017518D01*
X008130Y017487D01*
X008120Y017452D01*
X008120Y017257D01*
X008416Y017257D01*
X008416Y017178D01*
X008120Y017178D01*
X008120Y016983D01*
X008130Y016948D01*
X008148Y016916D01*
X008174Y016891D01*
X008183Y016885D01*
X008120Y016822D01*
X008120Y016274D01*
X008201Y016194D01*
X008219Y016194D01*
X008219Y015919D01*
X008564Y015573D01*
X008569Y015517D02*
X008459Y015517D01*
X008459Y015362D02*
X008164Y015362D01*
X008164Y015067D01*
X008288Y015067D01*
X008338Y015080D01*
X008383Y015106D01*
X008420Y015143D01*
X008445Y015187D01*
X008459Y015237D01*
X008459Y015362D01*
X008459Y015284D02*
X008797Y015284D01*
X008963Y015284D02*
X009615Y015284D01*
X009624Y015306D02*
X009583Y015207D01*
X009034Y014658D01*
X009034Y014048D01*
X008996Y014048D01*
X008916Y013967D01*
X008916Y013459D01*
X008996Y013379D01*
X008916Y013298D01*
X008916Y012790D01*
X008996Y012709D01*
X009271Y012709D01*
X009366Y012614D01*
X009361Y012583D01*
X009083Y012583D01*
X009002Y012503D01*
X009002Y011933D01*
X008936Y011867D01*
X008928Y011867D01*
X008917Y011879D01*
X008302Y011879D01*
X008222Y011798D01*
X008222Y009259D01*
X008302Y009178D01*
X008917Y009178D01*
X008997Y009259D01*
X008997Y010745D01*
X009233Y010745D01*
X009304Y010674D01*
X009420Y010626D01*
X009545Y010626D01*
X009661Y010674D01*
X009750Y010763D01*
X009798Y010879D01*
X009798Y011005D01*
X009751Y011119D01*
X010280Y011119D01*
X010288Y011111D01*
X010404Y011063D01*
X010530Y011063D01*
X010646Y011111D01*
X010735Y011200D01*
X010783Y011316D01*
X010783Y011442D01*
X010735Y011558D01*
X010646Y011647D01*
X010737Y011552D02*
X014349Y011552D01*
X014392Y011436D02*
X010783Y011436D01*
X010783Y011319D02*
X014392Y011319D01*
X014392Y011202D02*
X012782Y011202D01*
X012831Y011182D02*
X012715Y011230D01*
X012589Y011230D01*
X012473Y011182D01*
X012384Y011093D01*
X012336Y010977D01*
X012336Y010851D01*
X012384Y010735D01*
X012473Y010646D01*
X012589Y010598D01*
X012689Y010598D01*
X013494Y009793D01*
X013494Y007382D01*
X012748Y006635D01*
X012735Y006648D01*
X012574Y006714D01*
X011800Y006714D01*
X011639Y006648D01*
X011516Y006524D01*
X011449Y006363D01*
X011449Y006189D01*
X011516Y006028D01*
X011639Y005905D01*
X011800Y005839D01*
X012574Y005839D01*
X012735Y005905D01*
X012858Y006028D01*
X012925Y006189D01*
X012925Y006255D01*
X013773Y007103D01*
X013888Y007218D01*
X013888Y009956D01*
X012968Y010877D01*
X012968Y010977D01*
X012920Y011093D01*
X012831Y011182D01*
X012923Y011086D02*
X014392Y011086D01*
X014392Y010969D02*
X012968Y010969D01*
X012992Y010852D02*
X014392Y010852D01*
X014392Y010736D02*
X013108Y010736D01*
X013225Y010619D02*
X014392Y010619D01*
X014392Y010503D02*
X013342Y010503D01*
X013458Y010386D02*
X014392Y010386D01*
X014392Y010269D02*
X013575Y010269D01*
X013692Y010153D02*
X014392Y010153D01*
X014392Y010036D02*
X013808Y010036D01*
X013888Y009920D02*
X014392Y009920D01*
X014392Y009803D02*
X013888Y009803D01*
X013888Y009686D02*
X014392Y009686D01*
X014392Y009570D02*
X013888Y009570D01*
X013888Y009453D02*
X014392Y009453D01*
X014392Y009337D02*
X013888Y009337D01*
X013888Y009220D02*
X014392Y009220D01*
X014392Y009103D02*
X013888Y009103D01*
X013888Y008987D02*
X014392Y008987D01*
X014392Y008870D02*
X013888Y008870D01*
X013888Y008754D02*
X014392Y008754D01*
X014392Y008637D02*
X013888Y008637D01*
X013888Y008520D02*
X014392Y008520D01*
X014392Y008404D02*
X013888Y008404D01*
X013888Y008287D02*
X014392Y008287D01*
X014392Y008170D02*
X013888Y008170D01*
X013888Y008054D02*
X014392Y008054D01*
X014392Y007937D02*
X013888Y007937D01*
X013888Y007821D02*
X014392Y007821D01*
X014392Y007704D02*
X013888Y007704D01*
X013888Y007587D02*
X014392Y007587D01*
X014392Y007471D02*
X013888Y007471D01*
X013888Y007354D02*
X014392Y007354D01*
X014392Y007238D02*
X013888Y007238D01*
X013791Y007121D02*
X014392Y007121D01*
X014392Y007004D02*
X013674Y007004D01*
X013557Y006888D02*
X014392Y006888D01*
X014392Y006771D02*
X013441Y006771D01*
X013324Y006655D02*
X014392Y006655D01*
X014369Y006538D02*
X013207Y006538D01*
X013091Y006421D02*
X014253Y006421D01*
X014136Y006305D02*
X012974Y006305D01*
X012925Y006188D02*
X014020Y006188D01*
X013903Y006071D02*
X012876Y006071D01*
X012785Y005955D02*
X013786Y005955D01*
X013670Y005838D02*
X007992Y005838D01*
X008002Y005722D02*
X013553Y005722D01*
X013436Y005605D02*
X012778Y005605D01*
X012772Y005610D02*
X012717Y005651D01*
X012655Y005682D01*
X012590Y005703D01*
X012522Y005714D01*
X012228Y005714D01*
X012228Y005317D01*
X012924Y005317D01*
X012914Y005379D01*
X012893Y005444D01*
X012862Y005506D01*
X012821Y005562D01*
X012772Y005610D01*
X012871Y005488D02*
X013320Y005488D01*
X013203Y005372D02*
X012915Y005372D01*
X012924Y005235D02*
X012228Y005235D01*
X012228Y004839D01*
X012522Y004839D01*
X012590Y004849D01*
X012655Y004871D01*
X012717Y004902D01*
X012772Y004942D01*
X012821Y004991D01*
X012862Y005047D01*
X012893Y005108D01*
X012914Y005174D01*
X012924Y005235D01*
X012903Y005139D02*
X012970Y005139D01*
X013087Y005255D02*
X012228Y005255D01*
X012228Y005235D02*
X012228Y005317D01*
X012146Y005317D01*
X012146Y005235D01*
X012228Y005235D01*
X012146Y005235D02*
X012146Y004839D01*
X011853Y004839D01*
X011785Y004849D01*
X011719Y004871D01*
X011658Y004902D01*
X011602Y004942D01*
X011553Y004991D01*
X011513Y005047D01*
X011482Y005108D01*
X011460Y005174D01*
X011450Y005235D01*
X012146Y005235D01*
X012146Y005255D02*
X007963Y005255D01*
X008002Y005372D02*
X011459Y005372D01*
X011460Y005379D02*
X011482Y005444D01*
X011513Y005506D01*
X011553Y005562D01*
X011602Y005610D01*
X011658Y005651D01*
X011719Y005682D01*
X011785Y005703D01*
X011853Y005714D01*
X012146Y005714D01*
X012146Y005317D01*
X011450Y005317D01*
X011460Y005379D01*
X011504Y005488D02*
X008002Y005488D01*
X007707Y005488D02*
X007628Y005488D01*
X007628Y005528D02*
X007628Y005213D01*
X007453Y005213D01*
X007418Y005223D01*
X007386Y005241D01*
X007360Y005267D01*
X007342Y005298D01*
X007333Y005333D01*
X007333Y005528D01*
X007628Y005528D01*
X007628Y005605D02*
X006921Y005605D01*
X006866Y005722D02*
X007333Y005722D01*
X007343Y005838D02*
X006866Y005838D01*
X007034Y005955D02*
X007341Y005955D01*
X007333Y005488D02*
X007025Y005488D01*
X007062Y005372D02*
X007333Y005372D01*
X007372Y005255D02*
X007055Y005255D01*
X006996Y005139D02*
X011472Y005139D01*
X011531Y005022D02*
X006815Y005022D01*
X006678Y005022D02*
X006525Y005022D01*
X006496Y005139D02*
X006441Y005139D01*
X006299Y005255D02*
X005765Y005255D01*
X005815Y005372D02*
X006184Y005372D01*
X006067Y005488D02*
X005815Y005488D01*
X005852Y005605D02*
X005885Y005605D01*
X005871Y005722D02*
X005866Y005722D01*
X005866Y005838D02*
X005871Y005838D01*
X005866Y005955D02*
X005871Y005955D01*
X005866Y006071D02*
X005871Y006071D01*
X005866Y006188D02*
X005871Y006188D01*
X005866Y006305D02*
X005871Y006305D01*
X005866Y006421D02*
X005871Y006421D01*
X006118Y006066D02*
X006118Y005715D01*
X006447Y005387D01*
X006746Y005335D01*
X006560Y004905D02*
X010237Y004905D01*
X010270Y004919D02*
X010154Y004871D01*
X010065Y004782D01*
X010017Y004666D01*
X010017Y004540D01*
X010065Y004424D01*
X010154Y004335D01*
X010270Y004287D01*
X010396Y004287D01*
X010512Y004335D01*
X010601Y004424D01*
X010649Y004540D01*
X010649Y004666D01*
X010601Y004782D01*
X010512Y004871D01*
X010396Y004919D01*
X010270Y004919D01*
X010429Y004905D02*
X011653Y004905D01*
X011699Y004672D02*
X010646Y004672D01*
X010649Y004556D02*
X011547Y004556D01*
X011481Y004439D02*
X010607Y004439D01*
X010480Y004322D02*
X011449Y004322D01*
X011377Y004206D02*
X005849Y004206D01*
X005990Y004089D02*
X007986Y004089D01*
X007757Y004322D02*
X009305Y004322D01*
X009510Y004564D02*
X007551Y004564D01*
X007773Y004789D02*
X009288Y004789D01*
X009715Y004322D02*
X010185Y004322D01*
X010059Y004439D02*
X009800Y004439D01*
X009826Y004556D02*
X010017Y004556D01*
X010020Y004672D02*
X009807Y004672D01*
X009732Y004789D02*
X010072Y004789D01*
X010594Y004789D02*
X012620Y004789D01*
X012721Y004905D02*
X012737Y004905D01*
X012844Y005022D02*
X012853Y005022D01*
X013172Y004672D02*
X015242Y004672D01*
X015264Y004650D02*
X015380Y004602D01*
X015506Y004602D01*
X015622Y004650D01*
X015711Y004739D01*
X015759Y004855D01*
X015759Y004981D01*
X015711Y005097D01*
X015622Y005186D01*
X015506Y005234D01*
X015380Y005234D01*
X015264Y005186D01*
X015175Y005097D01*
X015127Y004981D01*
X015127Y004855D01*
X015175Y004739D01*
X015264Y004650D01*
X015155Y004789D02*
X013288Y004789D01*
X013405Y004905D02*
X015127Y004905D01*
X015144Y005022D02*
X013522Y005022D01*
X013638Y005139D02*
X015217Y005139D01*
X015669Y005139D02*
X018044Y005139D01*
X018044Y005255D02*
X013755Y005255D01*
X013871Y005372D02*
X018044Y005372D01*
X018044Y005488D02*
X013988Y005488D01*
X014105Y005605D02*
X018044Y005605D01*
X018044Y005722D02*
X014221Y005722D01*
X014338Y005838D02*
X018044Y005838D01*
X018044Y005955D02*
X014454Y005955D01*
X014571Y006071D02*
X018044Y006071D01*
X018044Y006188D02*
X017015Y006188D01*
X016978Y006173D02*
X017095Y006221D01*
X017183Y006310D01*
X017231Y006426D01*
X017231Y006552D01*
X017183Y006668D01*
X017095Y006757D01*
X016978Y006805D01*
X016853Y006805D01*
X016737Y006757D01*
X016648Y006668D01*
X016600Y006552D01*
X016600Y006426D01*
X016648Y006310D01*
X016737Y006221D01*
X016853Y006173D01*
X016978Y006173D01*
X016817Y006188D02*
X014688Y006188D01*
X014804Y006305D02*
X016653Y006305D01*
X016602Y006421D02*
X014864Y006421D01*
X014864Y006365D02*
X014864Y011705D01*
X014726Y011843D01*
X012620Y013950D01*
X009624Y013950D01*
X009624Y013967D01*
X009544Y014048D01*
X009506Y014048D01*
X009506Y014462D01*
X009855Y014811D01*
X009955Y014811D01*
X010071Y014859D01*
X010160Y014948D01*
X010208Y015064D01*
X010208Y015190D01*
X010160Y015306D01*
X010071Y015395D01*
X009955Y015443D01*
X009829Y015443D01*
X009713Y015395D01*
X009624Y015306D01*
X009727Y015400D02*
X009136Y015400D01*
X009191Y015517D02*
X012441Y015517D01*
X012416Y015542D02*
X012638Y015320D01*
X012928Y015200D01*
X013242Y015200D01*
X013532Y015320D01*
X013754Y015542D01*
X013874Y015832D01*
X013874Y016146D01*
X013754Y016436D01*
X013532Y016658D01*
X013242Y016778D01*
X012928Y016778D01*
X012638Y016658D01*
X012416Y016436D01*
X012296Y016146D01*
X012296Y015832D01*
X012416Y015542D01*
X012378Y015634D02*
X009196Y015634D01*
X009156Y015750D02*
X012330Y015750D01*
X012296Y015867D02*
X011051Y015867D01*
X011089Y015905D02*
X011132Y016010D01*
X011655Y016532D01*
X011794Y016671D01*
X011794Y018756D01*
X011384Y019166D01*
X011246Y019304D01*
X010955Y019304D01*
X010955Y019318D01*
X010874Y019398D01*
X010366Y019398D01*
X010286Y019318D01*
X010286Y019280D01*
X009943Y019280D01*
X009943Y019318D01*
X009862Y019398D01*
X009355Y019398D01*
X009274Y019318D01*
X009274Y019288D01*
X008766Y019288D01*
X008766Y019326D01*
X008685Y019406D01*
X008177Y019406D01*
X008097Y019326D01*
X008097Y018778D01*
X008160Y018715D01*
X008150Y018709D01*
X008124Y018684D01*
X008106Y018652D01*
X008097Y018617D01*
X008097Y018422D01*
X008392Y018422D01*
X008392Y018343D01*
X008471Y018343D01*
X008471Y018422D01*
X008766Y018422D01*
X008766Y018617D01*
X008757Y018652D01*
X008738Y018684D01*
X008713Y018709D01*
X008703Y018715D01*
X008766Y018778D01*
X008766Y018816D01*
X009274Y018816D01*
X009274Y018770D01*
X009337Y018707D01*
X009327Y018702D01*
X009301Y018676D01*
X009283Y018645D01*
X009274Y018609D01*
X009274Y018414D01*
X009569Y018414D01*
X009569Y018335D01*
X009648Y018335D01*
X009648Y018020D01*
X009823Y018020D01*
X009859Y018030D01*
X009890Y018048D01*
X009916Y018074D01*
X009934Y018105D01*
X009943Y018140D01*
X009943Y018335D01*
X009648Y018335D01*
X009648Y018414D01*
X009943Y018414D01*
X009943Y018609D01*
X009934Y018645D01*
X009916Y018676D01*
X009890Y018702D01*
X009880Y018707D01*
X009943Y018770D01*
X009943Y018808D01*
X010286Y018808D01*
X010286Y018770D01*
X010349Y018707D01*
X010339Y018702D01*
X010313Y018676D01*
X010295Y018645D01*
X010286Y018609D01*
X010286Y018414D01*
X010581Y018414D01*
X010581Y018335D01*
X010660Y018335D01*
X010660Y018020D01*
X010835Y018020D01*
X010870Y018030D01*
X010902Y018048D01*
X010927Y018074D01*
X010946Y018105D01*
X010955Y018140D01*
X010955Y018335D01*
X010660Y018335D01*
X010660Y018414D01*
X010955Y018414D01*
X010955Y018609D01*
X010946Y018645D01*
X010927Y018676D01*
X010902Y018702D01*
X010892Y018707D01*
X010955Y018770D01*
X010955Y018831D01*
X011050Y018831D01*
X011321Y018560D01*
X011321Y016866D01*
X010854Y016399D01*
X010758Y016399D01*
X010642Y016351D01*
X010553Y016262D01*
X010505Y016146D01*
X010505Y016021D01*
X010553Y015905D01*
X010642Y015816D01*
X010758Y015768D01*
X010884Y015768D01*
X011000Y015816D01*
X011089Y015905D01*
X011122Y015983D02*
X012296Y015983D01*
X012296Y016100D02*
X011223Y016100D01*
X011339Y016217D02*
X012325Y016217D01*
X012373Y016333D02*
X011456Y016333D01*
X011573Y016450D02*
X012430Y016450D01*
X012547Y016566D02*
X011689Y016566D01*
X011794Y016683D02*
X012699Y016683D01*
X013471Y016683D02*
X016636Y016683D01*
X016575Y016658D02*
X016353Y016436D01*
X016233Y016146D01*
X016233Y015832D01*
X016353Y015542D01*
X016575Y015320D01*
X016865Y015200D01*
X017179Y015200D01*
X017469Y015320D01*
X017691Y015542D01*
X017811Y015832D01*
X017811Y016146D01*
X017691Y016436D01*
X017469Y016658D01*
X017179Y016778D01*
X016865Y016778D01*
X016575Y016658D01*
X016484Y016566D02*
X013623Y016566D01*
X013740Y016450D02*
X016367Y016450D01*
X016310Y016333D02*
X013796Y016333D01*
X013845Y016217D02*
X016262Y016217D01*
X016233Y016100D02*
X013874Y016100D01*
X013874Y015983D02*
X016233Y015983D01*
X016233Y015867D02*
X015048Y015867D01*
X015024Y015891D02*
X014908Y015939D01*
X014782Y015939D01*
X014666Y015891D01*
X014577Y015802D01*
X014529Y015686D01*
X014529Y015560D01*
X014577Y015444D01*
X014666Y015355D01*
X014782Y015307D01*
X014908Y015307D01*
X015024Y015355D01*
X015113Y015444D01*
X015161Y015560D01*
X015161Y015686D01*
X015113Y015802D01*
X015024Y015891D01*
X015134Y015750D02*
X016267Y015750D01*
X016315Y015634D02*
X015161Y015634D01*
X015143Y015517D02*
X016378Y015517D01*
X016495Y015400D02*
X015069Y015400D01*
X014620Y015400D02*
X013612Y015400D01*
X013729Y015517D02*
X014547Y015517D01*
X014529Y015634D02*
X013792Y015634D01*
X013840Y015750D02*
X014556Y015750D01*
X014642Y015867D02*
X013874Y015867D01*
X013444Y015284D02*
X016663Y015284D01*
X017381Y015284D02*
X018044Y015284D01*
X018044Y015400D02*
X017549Y015400D01*
X017666Y015517D02*
X018044Y015517D01*
X018044Y015634D02*
X017729Y015634D01*
X017777Y015750D02*
X018044Y015750D01*
X018044Y015867D02*
X017811Y015867D01*
X017811Y015983D02*
X018044Y015983D01*
X018044Y016100D02*
X017811Y016100D01*
X017782Y016217D02*
X018044Y016217D01*
X018044Y016333D02*
X017733Y016333D01*
X017677Y016450D02*
X018044Y016450D01*
X018044Y016566D02*
X017560Y016566D01*
X017408Y016683D02*
X018044Y016683D01*
X018044Y016800D02*
X011794Y016800D01*
X011794Y016916D02*
X018044Y016916D01*
X018044Y017033D02*
X011794Y017033D01*
X011794Y017149D02*
X018044Y017149D01*
X018044Y017266D02*
X011794Y017266D01*
X011794Y017383D02*
X018044Y017383D01*
X018044Y017499D02*
X011794Y017499D01*
X011794Y017616D02*
X012798Y017616D01*
X012928Y017562D02*
X013242Y017562D01*
X013532Y017682D01*
X013754Y017904D01*
X013874Y018194D01*
X013874Y018508D01*
X013754Y018798D01*
X013532Y019020D01*
X013242Y019140D01*
X012928Y019140D01*
X012638Y019020D01*
X012416Y018798D01*
X012296Y018508D01*
X012296Y018194D01*
X012416Y017904D01*
X012638Y017682D01*
X012928Y017562D01*
X012588Y017733D02*
X011794Y017733D01*
X011794Y017849D02*
X012471Y017849D01*
X012391Y017966D02*
X011794Y017966D01*
X011794Y018082D02*
X012342Y018082D01*
X012296Y018199D02*
X011794Y018199D01*
X011794Y018316D02*
X012296Y018316D01*
X012296Y018432D02*
X011794Y018432D01*
X011794Y018549D02*
X012313Y018549D01*
X012361Y018665D02*
X011794Y018665D01*
X011768Y018782D02*
X012409Y018782D01*
X012517Y018899D02*
X011651Y018899D01*
X011534Y019015D02*
X012633Y019015D01*
X012908Y019132D02*
X011418Y019132D01*
X011301Y019248D02*
X018044Y019248D01*
X018044Y019132D02*
X017199Y019132D01*
X017179Y019140D02*
X016865Y019140D01*
X016575Y019020D01*
X016353Y018798D01*
X016233Y018508D01*
X016233Y018194D01*
X016353Y017904D01*
X016575Y017682D01*
X016865Y017562D01*
X017179Y017562D01*
X017469Y017682D01*
X017691Y017904D01*
X017811Y018194D01*
X017811Y018508D01*
X017691Y018798D01*
X017469Y019020D01*
X017179Y019140D01*
X017474Y019015D02*
X018044Y019015D01*
X018044Y018899D02*
X017590Y018899D01*
X017697Y018782D02*
X018044Y018782D01*
X018044Y018665D02*
X017746Y018665D01*
X017794Y018549D02*
X018044Y018549D01*
X018044Y018432D02*
X017811Y018432D01*
X017811Y018316D02*
X018044Y018316D01*
X018044Y018199D02*
X017811Y018199D01*
X017765Y018082D02*
X018044Y018082D01*
X018044Y017966D02*
X017716Y017966D01*
X017636Y017849D02*
X018044Y017849D01*
X018044Y017733D02*
X017519Y017733D01*
X017308Y017616D02*
X018044Y017616D01*
X016735Y017616D02*
X013371Y017616D01*
X013582Y017733D02*
X016525Y017733D01*
X016408Y017849D02*
X013699Y017849D01*
X013779Y017966D02*
X014690Y017966D01*
X014634Y017989D02*
X014750Y017941D01*
X014876Y017941D01*
X014992Y017989D01*
X015081Y018078D01*
X015129Y018194D01*
X015129Y018320D01*
X015081Y018436D01*
X014992Y018525D01*
X014876Y018573D01*
X014750Y018573D01*
X014634Y018525D01*
X014545Y018436D01*
X014497Y018320D01*
X014497Y018194D01*
X014545Y018078D01*
X014634Y017989D01*
X014544Y018082D02*
X013828Y018082D01*
X013874Y018199D02*
X014497Y018199D01*
X014497Y018316D02*
X013874Y018316D01*
X013874Y018432D02*
X014544Y018432D01*
X014693Y018549D02*
X013857Y018549D01*
X013809Y018665D02*
X016298Y018665D01*
X016250Y018549D02*
X014934Y018549D01*
X015082Y018432D02*
X016233Y018432D01*
X016233Y018316D02*
X015129Y018316D01*
X015129Y018199D02*
X016233Y018199D01*
X016279Y018082D02*
X015083Y018082D01*
X014936Y017966D02*
X016328Y017966D01*
X016346Y018782D02*
X013760Y018782D01*
X013653Y018899D02*
X016454Y018899D01*
X016570Y019015D02*
X013537Y019015D01*
X013262Y019132D02*
X016845Y019132D01*
X018044Y019365D02*
X010908Y019365D01*
X010333Y019365D02*
X009896Y019365D01*
X009321Y019365D02*
X008726Y019365D01*
X008766Y018782D02*
X009274Y018782D01*
X009295Y018665D02*
X008749Y018665D01*
X008766Y018549D02*
X009274Y018549D01*
X009274Y018432D02*
X008766Y018432D01*
X008766Y018343D02*
X008471Y018343D01*
X008471Y018028D01*
X008646Y018028D01*
X008681Y018038D01*
X008713Y018056D01*
X008738Y018082D01*
X008757Y018113D01*
X008766Y018148D01*
X008766Y018343D01*
X008766Y018316D02*
X009274Y018316D01*
X009274Y018335D02*
X009274Y018140D01*
X009283Y018105D01*
X009301Y018074D01*
X009327Y018048D01*
X009358Y018030D01*
X009394Y018020D01*
X009569Y018020D01*
X009569Y018335D01*
X009274Y018335D01*
X009274Y018199D02*
X008766Y018199D01*
X008739Y018082D02*
X009296Y018082D01*
X009569Y018082D02*
X009648Y018082D01*
X009648Y018199D02*
X009569Y018199D01*
X009569Y018316D02*
X009648Y018316D01*
X009943Y018316D02*
X010286Y018316D01*
X010286Y018335D02*
X010286Y018140D01*
X010295Y018105D01*
X010313Y018074D01*
X010339Y018048D01*
X010370Y018030D01*
X010405Y018020D01*
X010581Y018020D01*
X010581Y018335D01*
X010286Y018335D01*
X010286Y018432D02*
X009943Y018432D01*
X009943Y018549D02*
X010286Y018549D01*
X010307Y018665D02*
X009922Y018665D01*
X009943Y018782D02*
X010286Y018782D01*
X010581Y018316D02*
X010660Y018316D01*
X010660Y018199D02*
X010581Y018199D01*
X010581Y018082D02*
X010660Y018082D01*
X010932Y018082D02*
X011321Y018082D01*
X011321Y017966D02*
X007323Y017966D01*
X007323Y018082D02*
X008124Y018082D01*
X008150Y018056D01*
X008181Y018038D01*
X008216Y018028D01*
X008392Y018028D01*
X008392Y018343D01*
X008097Y018343D01*
X008097Y018148D01*
X008106Y018113D01*
X008124Y018082D01*
X008097Y018199D02*
X007283Y018199D01*
X007323Y018159D02*
X007184Y018297D01*
X006894Y018587D01*
X006916Y018609D01*
X006916Y019432D01*
X006835Y019513D01*
X006327Y019513D01*
X006246Y019432D01*
X006246Y018875D01*
X006190Y018819D01*
X006190Y018623D01*
X006850Y017963D01*
X006850Y016842D01*
X006830Y016792D01*
X006830Y016690D01*
X006869Y016595D01*
X006941Y016523D01*
X007035Y016484D01*
X007138Y016484D01*
X007232Y016523D01*
X007304Y016595D01*
X007343Y016690D01*
X007343Y016792D01*
X007323Y016842D01*
X007323Y018159D01*
X007166Y018316D02*
X008097Y018316D01*
X008097Y018432D02*
X007049Y018432D01*
X006933Y018549D02*
X008097Y018549D01*
X008114Y018665D02*
X007578Y018665D01*
X007563Y018650D02*
X007652Y018739D01*
X007700Y018855D01*
X007700Y018981D01*
X007652Y019097D01*
X007563Y019186D01*
X007447Y019234D01*
X007321Y019234D01*
X007205Y019186D01*
X007116Y019097D01*
X007068Y018981D01*
X007068Y018855D01*
X007116Y018739D01*
X007205Y018650D01*
X007321Y018602D01*
X007447Y018602D01*
X007563Y018650D01*
X007670Y018782D02*
X008097Y018782D01*
X008097Y018899D02*
X007700Y018899D01*
X007686Y019015D02*
X008097Y019015D01*
X008097Y019132D02*
X007617Y019132D01*
X007190Y018665D02*
X006916Y018665D01*
X006916Y018782D02*
X007099Y018782D01*
X007068Y018899D02*
X006916Y018899D01*
X006916Y019015D02*
X007082Y019015D01*
X007151Y019132D02*
X006916Y019132D01*
X006916Y019248D02*
X008097Y019248D01*
X008136Y019365D02*
X006916Y019365D01*
X006866Y019482D02*
X018044Y019482D01*
X018044Y019598D02*
X002635Y019598D01*
X002610Y019623D02*
X002494Y019671D01*
X002369Y019671D01*
X002252Y019623D01*
X002164Y019534D01*
X002115Y019418D01*
X002115Y019292D01*
X002164Y019176D01*
X002252Y019087D01*
X002369Y019039D01*
X002494Y019039D01*
X002610Y019087D01*
X002699Y019176D01*
X002747Y019292D01*
X002747Y019418D01*
X002699Y019534D01*
X002610Y019623D01*
X002721Y019482D02*
X005194Y019482D01*
X005144Y019365D02*
X004517Y019365D01*
X004512Y019381D02*
X004494Y019412D01*
X004469Y019438D01*
X004437Y019456D01*
X004402Y019465D01*
X003794Y019465D01*
X003794Y018993D01*
X004522Y018993D01*
X004522Y019346D01*
X004512Y019381D01*
X004522Y019248D02*
X005144Y019248D01*
X005144Y019132D02*
X004522Y019132D01*
X004522Y019015D02*
X005144Y019015D01*
X005144Y018899D02*
X003794Y018899D01*
X003794Y018875D02*
X003794Y018993D01*
X003675Y018993D01*
X003675Y018875D01*
X002947Y018875D01*
X002947Y018522D01*
X002956Y018487D01*
X002975Y018456D01*
X003000Y018430D01*
X003032Y018412D01*
X003067Y018402D01*
X003675Y018402D01*
X003675Y018875D01*
X003794Y018875D01*
X004522Y018875D01*
X004522Y018522D01*
X004512Y018487D01*
X004494Y018456D01*
X004469Y018430D01*
X004437Y018412D01*
X004402Y018402D01*
X003794Y018402D01*
X003794Y018875D01*
X003794Y018782D02*
X003675Y018782D01*
X003675Y018665D02*
X003794Y018665D01*
X003794Y018549D02*
X003675Y018549D01*
X003675Y018432D02*
X003794Y018432D01*
X003675Y018899D02*
X001471Y018899D01*
X001471Y018875D02*
X001471Y018993D01*
X002042Y018993D01*
X002042Y019346D01*
X002032Y019381D01*
X002014Y019412D01*
X001988Y019438D01*
X001957Y019456D01*
X001922Y019465D01*
X001471Y019465D01*
X001471Y018993D01*
X001353Y018993D01*
X001353Y019465D01*
X000901Y019465D01*
X000866Y019456D01*
X000835Y019438D01*
X000809Y019412D01*
X000791Y019381D01*
X000782Y019346D01*
X000782Y018993D01*
X001353Y018993D01*
X001353Y018875D01*
X001471Y018875D01*
X002042Y018875D01*
X002042Y018522D01*
X002032Y018487D01*
X002014Y018456D01*
X001988Y018430D01*
X001957Y018412D01*
X001922Y018402D01*
X001471Y018402D01*
X001471Y018875D01*
X001471Y018782D02*
X001353Y018782D01*
X001353Y018875D02*
X001353Y018402D01*
X000901Y018402D01*
X000866Y018412D01*
X000835Y018430D01*
X000809Y018456D01*
X000791Y018487D01*
X000782Y018522D01*
X000782Y018875D01*
X001353Y018875D01*
X001353Y018899D02*
X000646Y018899D01*
X000646Y019015D02*
X000782Y019015D01*
X000782Y019132D02*
X000646Y019132D01*
X000646Y019248D02*
X000782Y019248D01*
X000787Y019365D02*
X000646Y019365D01*
X000646Y019482D02*
X002142Y019482D01*
X002115Y019365D02*
X002036Y019365D01*
X002042Y019248D02*
X002134Y019248D01*
X002208Y019132D02*
X002042Y019132D01*
X002042Y019015D02*
X002947Y019015D01*
X002947Y018993D02*
X003675Y018993D01*
X003675Y019465D01*
X003067Y019465D01*
X003032Y019456D01*
X003000Y019438D01*
X002975Y019412D01*
X002956Y019381D01*
X002947Y019346D01*
X002947Y018993D01*
X002947Y019132D02*
X002655Y019132D01*
X002729Y019248D02*
X002947Y019248D01*
X002952Y019365D02*
X002747Y019365D01*
X002228Y019598D02*
X000646Y019598D01*
X000646Y019715D02*
X018044Y019715D01*
X018044Y019767D02*
X000646Y019767D01*
X000646Y000400D01*
X018044Y000400D01*
X018044Y019767D01*
X018044Y015167D02*
X010208Y015167D01*
X010202Y015050D02*
X018044Y015050D01*
X018044Y014934D02*
X010146Y014934D01*
X009970Y014817D02*
X011939Y014817D01*
X011994Y014840D02*
X011878Y014792D01*
X011790Y014703D01*
X011741Y014587D01*
X011741Y014462D01*
X011790Y014345D01*
X011878Y014257D01*
X011994Y014209D01*
X012120Y014209D01*
X012236Y014257D01*
X012325Y014345D01*
X012373Y014462D01*
X012373Y014587D01*
X012325Y014703D01*
X012236Y014792D01*
X012120Y014840D01*
X011994Y014840D01*
X012176Y014817D02*
X018044Y014817D01*
X018044Y014701D02*
X012326Y014701D01*
X012373Y014584D02*
X018044Y014584D01*
X018044Y014467D02*
X012373Y014467D01*
X012327Y014351D02*
X018044Y014351D01*
X018044Y014234D02*
X012182Y014234D01*
X011932Y014234D02*
X009506Y014234D01*
X009506Y014118D02*
X018044Y014118D01*
X018044Y014001D02*
X009591Y014001D01*
X009506Y014351D02*
X011787Y014351D01*
X011741Y014467D02*
X009512Y014467D01*
X009628Y014584D02*
X011741Y014584D01*
X011788Y014701D02*
X009745Y014701D01*
X009426Y015050D02*
X007276Y015050D01*
X007286Y015060D02*
X007312Y015105D01*
X007325Y015155D01*
X007325Y015279D01*
X007030Y015279D01*
X007030Y014984D01*
X007154Y014984D01*
X007204Y014997D01*
X007249Y015023D01*
X007286Y015060D01*
X007325Y015167D02*
X007815Y015167D01*
X007790Y015284D02*
X007030Y015284D01*
X007030Y015167D02*
X006951Y015167D01*
X006951Y015050D02*
X007030Y015050D01*
X007238Y014934D02*
X007794Y014934D01*
X007790Y014930D02*
X007790Y014491D01*
X007876Y014405D01*
X007876Y014131D01*
X007780Y014131D01*
X007699Y014050D01*
X007699Y013542D01*
X007780Y013461D01*
X008327Y013461D01*
X008408Y013542D01*
X008408Y014050D01*
X008349Y014109D01*
X008349Y014381D01*
X008459Y014491D01*
X008459Y014930D01*
X008344Y015045D01*
X007905Y015045D01*
X007790Y014930D01*
X007790Y014817D02*
X007325Y014817D01*
X007325Y014701D02*
X007790Y014701D01*
X007790Y014584D02*
X007325Y014584D01*
X007325Y014467D02*
X007813Y014467D01*
X007876Y014351D02*
X007267Y014351D01*
X007227Y014234D02*
X007876Y014234D01*
X007767Y014118D02*
X007227Y014118D01*
X007256Y014001D02*
X007699Y014001D01*
X007699Y013884D02*
X007258Y013884D01*
X007258Y013768D02*
X007699Y013768D01*
X007699Y013651D02*
X007258Y013651D01*
X007258Y013535D02*
X007707Y013535D01*
X007736Y013418D02*
X007185Y013418D01*
X007258Y013301D02*
X007699Y013301D01*
X007699Y013185D02*
X007258Y013185D01*
X007258Y013068D02*
X007699Y013068D01*
X008290Y012718D02*
X008987Y012718D01*
X008916Y012835D02*
X008370Y012835D01*
X008408Y012951D02*
X008916Y012951D01*
X008916Y013068D02*
X008408Y013068D01*
X008408Y013185D02*
X008916Y013185D01*
X008919Y013301D02*
X008408Y013301D01*
X008370Y013418D02*
X008957Y013418D01*
X008996Y013379D02*
X009544Y013379D01*
X008996Y013379D01*
X008916Y013535D02*
X008400Y013535D01*
X008408Y013651D02*
X008916Y013651D01*
X008916Y013768D02*
X008408Y013768D01*
X008408Y013884D02*
X008916Y013884D01*
X008949Y014001D02*
X008408Y014001D01*
X008349Y014118D02*
X009034Y014118D01*
X009034Y014234D02*
X008349Y014234D01*
X008349Y014351D02*
X009034Y014351D01*
X009034Y014467D02*
X008435Y014467D01*
X008459Y014584D02*
X009034Y014584D01*
X009077Y014701D02*
X008459Y014701D01*
X008459Y014817D02*
X009193Y014817D01*
X009310Y014934D02*
X008455Y014934D01*
X008434Y015167D02*
X009543Y015167D01*
X010057Y015400D02*
X012558Y015400D01*
X012726Y015284D02*
X010169Y015284D01*
X010591Y015867D02*
X009041Y015867D01*
X008822Y015983D02*
X010521Y015983D01*
X010505Y016100D02*
X008706Y016100D01*
X008732Y016217D02*
X010534Y016217D01*
X010624Y016333D02*
X008790Y016333D01*
X008790Y016450D02*
X010905Y016450D01*
X011021Y016566D02*
X008790Y016566D01*
X008790Y016683D02*
X009700Y016683D01*
X009713Y016670D02*
X009829Y016622D01*
X009955Y016622D01*
X010071Y016670D01*
X010160Y016759D01*
X010208Y016875D01*
X010208Y017001D01*
X010160Y017117D01*
X010071Y017206D01*
X009955Y017254D01*
X009829Y017254D01*
X009713Y017206D01*
X009624Y017117D01*
X009576Y017001D01*
X009576Y016875D01*
X009624Y016759D01*
X009713Y016670D01*
X009607Y016800D02*
X008790Y016800D01*
X008762Y016916D02*
X009576Y016916D01*
X009589Y017033D02*
X008790Y017033D01*
X008790Y017149D02*
X009657Y017149D01*
X010084Y016683D02*
X011138Y016683D01*
X011254Y016800D02*
X010177Y016800D01*
X010208Y016916D02*
X011321Y016916D01*
X011321Y017033D02*
X010195Y017033D01*
X010127Y017149D02*
X011321Y017149D01*
X011321Y017266D02*
X008790Y017266D01*
X008790Y017257D02*
X008790Y017452D01*
X008780Y017487D01*
X008762Y017518D01*
X008736Y017544D01*
X008705Y017562D01*
X008670Y017572D01*
X008494Y017572D01*
X008494Y017257D01*
X008790Y017257D01*
X008790Y017383D02*
X011321Y017383D01*
X011321Y017499D02*
X008773Y017499D01*
X008494Y017499D02*
X008416Y017499D01*
X008416Y017383D02*
X008494Y017383D01*
X008494Y017266D02*
X008416Y017266D01*
X008120Y017266D02*
X007323Y017266D01*
X007323Y017149D02*
X008120Y017149D01*
X008120Y017033D02*
X007323Y017033D01*
X007323Y016916D02*
X008148Y016916D01*
X008120Y016800D02*
X007340Y016800D01*
X007340Y016683D02*
X008120Y016683D01*
X008120Y016566D02*
X007275Y016566D01*
X006898Y016566D02*
X006742Y016566D01*
X006770Y016538D02*
X006681Y016627D01*
X006569Y016673D01*
X006569Y016780D01*
X006646Y016780D01*
X006727Y016861D01*
X006727Y017369D01*
X006646Y017450D01*
X006099Y017450D01*
X006018Y017369D01*
X006018Y016861D01*
X006099Y016780D01*
X006175Y016780D01*
X006175Y016407D01*
X006186Y016397D01*
X006186Y016296D01*
X006234Y016180D01*
X006323Y016091D01*
X006439Y016043D01*
X006565Y016043D01*
X006681Y016091D01*
X006770Y016180D01*
X006818Y016296D01*
X006818Y016422D01*
X006770Y016538D01*
X006807Y016450D02*
X008120Y016450D01*
X008120Y016333D02*
X006818Y016333D01*
X006785Y016217D02*
X008178Y016217D01*
X008219Y016100D02*
X006690Y016100D01*
X006502Y016359D02*
X006372Y016489D01*
X006372Y017115D01*
X006079Y016800D02*
X005731Y016800D01*
X005723Y016916D02*
X006018Y016916D01*
X006018Y017033D02*
X005537Y017033D01*
X005654Y017149D02*
X006018Y017149D01*
X006018Y017266D02*
X005770Y017266D01*
X005887Y017383D02*
X006032Y017383D01*
X005900Y017674D02*
X006262Y017674D01*
X006372Y017784D01*
X006062Y018082D02*
X005663Y018082D01*
X005719Y017966D02*
X006018Y017966D01*
X005797Y017849D02*
X005724Y017849D01*
X005900Y017674D02*
X005408Y017182D01*
X003774Y017182D01*
X003774Y017497D02*
X005014Y017497D01*
X005408Y017891D01*
X005153Y018082D02*
X005142Y018082D01*
X005097Y017966D02*
X005026Y017966D01*
X005088Y017849D02*
X004909Y017849D01*
X004971Y017733D02*
X004792Y017733D01*
X004474Y018082D02*
X002929Y018082D01*
X002929Y018115D02*
X002878Y018238D01*
X002783Y018333D01*
X002660Y018384D01*
X002526Y018384D01*
X002402Y018333D01*
X002308Y018238D01*
X002257Y018115D01*
X002257Y017981D01*
X002308Y017858D01*
X002402Y017763D01*
X002526Y017712D01*
X002660Y017712D01*
X002783Y017763D01*
X002878Y017858D01*
X002929Y017981D01*
X002929Y018115D01*
X002894Y018199D02*
X004591Y018199D01*
X004707Y018316D02*
X002801Y018316D01*
X002998Y018432D02*
X001991Y018432D01*
X002042Y018549D02*
X002947Y018549D01*
X002947Y018665D02*
X002042Y018665D01*
X002042Y018782D02*
X002947Y018782D01*
X002385Y018316D02*
X000646Y018316D01*
X000646Y018432D02*
X000833Y018432D01*
X000782Y018549D02*
X000646Y018549D01*
X000646Y018665D02*
X000782Y018665D01*
X000782Y018782D02*
X000646Y018782D01*
X000646Y018199D02*
X002291Y018199D01*
X002257Y018082D02*
X000646Y018082D01*
X000646Y017966D02*
X002263Y017966D01*
X002316Y017849D02*
X000646Y017849D01*
X000646Y017733D02*
X002476Y017733D01*
X002710Y017733D02*
X003026Y017733D01*
X003026Y017849D02*
X002869Y017849D01*
X002923Y017966D02*
X003026Y017966D01*
X003026Y017616D02*
X000646Y017616D01*
X000646Y017499D02*
X003026Y017499D01*
X003026Y017383D02*
X000646Y017383D01*
X000646Y017266D02*
X003026Y017266D01*
X003026Y017149D02*
X000646Y017149D01*
X000646Y017033D02*
X003026Y017033D01*
X003026Y016916D02*
X000646Y016916D01*
X000646Y016800D02*
X003026Y016800D01*
X003030Y016683D02*
X000646Y016683D01*
X000646Y016566D02*
X002368Y016566D01*
X002402Y016601D02*
X002308Y016506D01*
X002257Y016383D01*
X002257Y016249D01*
X002308Y016125D01*
X002402Y016031D01*
X002526Y015980D01*
X002660Y015980D01*
X002783Y016031D01*
X002878Y016125D01*
X002929Y016249D01*
X002929Y016383D01*
X002878Y016506D01*
X002783Y016601D01*
X002660Y016652D01*
X002526Y016652D01*
X002402Y016601D01*
X002284Y016450D02*
X000646Y016450D01*
X000646Y016333D02*
X002257Y016333D01*
X002270Y016217D02*
X000646Y016217D01*
X000646Y016100D02*
X002333Y016100D01*
X002517Y015983D02*
X000646Y015983D01*
X000646Y015867D02*
X000788Y015867D01*
X000782Y015750D02*
X000646Y015750D01*
X000646Y015634D02*
X000782Y015634D01*
X000782Y015517D02*
X000646Y015517D01*
X000646Y014817D02*
X006656Y014817D01*
X006656Y014701D02*
X006143Y014701D01*
X006222Y014584D02*
X006656Y014584D01*
X006656Y014467D02*
X006243Y014467D01*
X006220Y014351D02*
X006714Y014351D01*
X006754Y014234D02*
X006139Y014234D01*
X006124Y014118D02*
X006754Y014118D01*
X006552Y014001D02*
X006124Y014001D01*
X006124Y013884D02*
X006549Y013884D01*
X006549Y013768D02*
X006124Y013768D01*
X006124Y013651D02*
X006549Y013651D01*
X006549Y013535D02*
X006124Y013535D01*
X006124Y013418D02*
X006622Y013418D01*
X006549Y013301D02*
X006197Y013301D01*
X006313Y013185D02*
X006549Y013185D01*
X006549Y013068D02*
X006430Y013068D01*
X006546Y012951D02*
X006549Y012951D01*
X006420Y012800D02*
X006420Y012246D01*
X006447Y012218D01*
X006746Y012203D02*
X006762Y012218D01*
X006746Y012203D02*
X006746Y011678D01*
X006557Y011489D01*
X006502Y011489D01*
X006369Y011202D02*
X005998Y011202D01*
X006136Y011319D02*
X006231Y011319D01*
X006186Y011436D02*
X006180Y011436D01*
X006180Y011552D02*
X006132Y011668D01*
X006053Y011747D01*
X006053Y011831D01*
X006549Y011831D01*
X006549Y011805D01*
X006439Y011805D01*
X006323Y011757D01*
X006234Y011668D01*
X006186Y011552D01*
X006235Y011669D02*
X006131Y011669D01*
X006053Y011785D02*
X006392Y011785D01*
X006774Y011319D02*
X007208Y011319D01*
X007156Y011436D02*
X006818Y011436D01*
X006899Y011552D02*
X007156Y011552D01*
X007156Y011669D02*
X006943Y011669D01*
X006943Y011785D02*
X007156Y011785D01*
X007077Y011831D02*
X007077Y012218D01*
X007077Y012218D01*
X007077Y011831D01*
X007077Y011902D02*
X007077Y011902D01*
X007077Y012019D02*
X007077Y012019D01*
X007077Y012135D02*
X007077Y012135D01*
X007628Y011785D02*
X008222Y011785D01*
X008222Y011669D02*
X007628Y011669D01*
X007694Y011552D02*
X008222Y011552D01*
X008222Y011436D02*
X007872Y011436D01*
X007930Y011319D02*
X008222Y011319D01*
X008222Y011202D02*
X007936Y011202D01*
X007898Y011086D02*
X008222Y011086D01*
X008222Y010969D02*
X007790Y010969D01*
X007896Y010852D02*
X008222Y010852D01*
X008222Y010736D02*
X007936Y010736D01*
X007931Y010619D02*
X008222Y010619D01*
X008222Y010503D02*
X007876Y010503D01*
X007749Y010386D02*
X008222Y010386D01*
X008222Y010269D02*
X007849Y010269D01*
X007885Y010153D02*
X008222Y010153D01*
X008222Y010036D02*
X007877Y010036D01*
X007817Y009920D02*
X008222Y009920D01*
X008222Y009803D02*
X007785Y009803D01*
X007864Y009686D02*
X008222Y009686D01*
X008222Y009570D02*
X007885Y009570D01*
X007862Y009453D02*
X008222Y009453D01*
X008222Y009337D02*
X007781Y009337D01*
X007569Y009572D02*
X006475Y009572D01*
X006447Y009544D01*
X006447Y008838D01*
X006644Y009337D02*
X007357Y009337D01*
X007569Y010119D02*
X006526Y010119D01*
X006038Y009741D01*
X005230Y009741D01*
X005230Y010056D02*
X005293Y010119D01*
X005872Y010119D01*
X006585Y010690D01*
X007620Y010694D01*
X007451Y010969D02*
X005617Y010969D01*
X005617Y011086D02*
X007343Y011086D01*
X007304Y011202D02*
X006636Y011202D01*
X006469Y010852D02*
X006054Y010852D01*
X006141Y010736D02*
X006328Y010736D01*
X006182Y010619D02*
X006169Y010619D01*
X005731Y011202D02*
X005617Y011202D01*
X004842Y010969D02*
X004077Y010969D01*
X004077Y010946D02*
X004077Y011070D01*
X003782Y011070D01*
X003782Y010775D01*
X003906Y010775D01*
X003956Y010789D01*
X004001Y010815D01*
X004038Y010851D01*
X004064Y010896D01*
X004077Y010946D01*
X004038Y010852D02*
X004842Y010852D01*
X004842Y010736D02*
X003980Y010736D01*
X004077Y010619D02*
X004842Y010619D01*
X004552Y011086D02*
X003782Y011086D01*
X003782Y011070D02*
X003782Y011149D01*
X004077Y011149D01*
X004077Y011274D01*
X004064Y011324D01*
X004038Y011369D01*
X004001Y011405D01*
X003956Y011431D01*
X003906Y011444D01*
X003782Y011444D01*
X003782Y011149D01*
X003703Y011149D01*
X003703Y011070D01*
X003782Y011070D01*
X003880Y010972D02*
X003604Y010972D01*
X003604Y011248D01*
X003880Y011248D01*
X003880Y010972D01*
X003880Y011089D02*
X003604Y011089D01*
X003604Y011206D02*
X003880Y011206D01*
X003782Y011202D02*
X003703Y011202D01*
X003703Y011149D02*
X003703Y011444D01*
X003579Y011444D01*
X003529Y011431D01*
X003484Y011405D01*
X003447Y011369D01*
X003421Y011324D01*
X003408Y011274D01*
X003408Y011149D01*
X003703Y011149D01*
X003703Y011086D02*
X002035Y011086D01*
X002035Y011089D02*
X002731Y011089D01*
X002721Y011151D01*
X002700Y011216D01*
X002669Y011277D01*
X002628Y011333D01*
X002580Y011382D01*
X002524Y011422D01*
X002462Y011454D01*
X002397Y011475D01*
X002329Y011486D01*
X002035Y011486D01*
X002035Y011089D01*
X002035Y011202D02*
X001953Y011202D01*
X001953Y011319D02*
X002035Y011319D01*
X002035Y011436D02*
X001953Y011436D01*
X001491Y011436D02*
X001408Y011436D01*
X001408Y011552D02*
X004085Y011552D01*
X004053Y011669D02*
X002523Y011669D01*
X002651Y011785D02*
X004053Y011785D01*
X004053Y011902D02*
X002708Y011902D01*
X002732Y012019D02*
X004053Y012019D01*
X004053Y012135D02*
X002732Y012135D01*
X002684Y012252D02*
X004053Y012252D01*
X004526Y012252D02*
X004671Y012252D01*
X004671Y012368D02*
X004526Y012368D01*
X004526Y012485D02*
X004671Y012485D01*
X004671Y012602D02*
X004526Y012602D01*
X004526Y012650D02*
X004506Y012669D01*
X004506Y012767D01*
X004425Y012847D01*
X004114Y012847D01*
X004055Y012788D01*
X003759Y012788D01*
X003739Y012769D01*
X003677Y012769D01*
X003599Y012847D01*
X003288Y012847D01*
X003599Y012847D01*
X003677Y012926D01*
X003857Y012926D01*
X004036Y012926D01*
X004114Y012847D01*
X004425Y012847D01*
X004506Y012928D01*
X004506Y013245D01*
X004671Y013080D01*
X004671Y011634D01*
X004526Y011780D01*
X004526Y012650D01*
X004506Y012718D02*
X004671Y012718D01*
X004671Y012835D02*
X004438Y012835D01*
X004506Y012951D02*
X004671Y012951D01*
X004671Y013068D02*
X004506Y013068D01*
X004506Y013185D02*
X004567Y013185D01*
X004314Y013438D02*
X004114Y013438D01*
X004036Y013359D01*
X003857Y013359D01*
X003857Y013143D01*
X003857Y013143D01*
X003857Y013359D01*
X003677Y013359D01*
X003599Y013438D01*
X003677Y013517D01*
X003739Y013517D01*
X003759Y013497D01*
X004055Y013497D01*
X004114Y013438D01*
X004314Y013438D01*
X004314Y013438D01*
X004095Y013418D02*
X003619Y013418D01*
X003857Y013301D02*
X003857Y013301D01*
X003857Y013185D02*
X003857Y013185D01*
X003857Y013143D02*
X003857Y012926D01*
X003857Y013143D01*
X003857Y013143D01*
X003857Y013068D02*
X003857Y013068D01*
X003857Y012951D02*
X003857Y012951D01*
X003611Y012835D02*
X004102Y012835D01*
X004526Y012135D02*
X004671Y012135D01*
X004671Y012019D02*
X004526Y012019D01*
X004526Y011902D02*
X004671Y011902D01*
X004671Y011785D02*
X004526Y011785D01*
X004637Y011669D02*
X004671Y011669D01*
X004318Y011319D02*
X004065Y011319D01*
X004077Y011202D02*
X004435Y011202D01*
X004202Y011436D02*
X003939Y011436D01*
X003782Y011436D02*
X003703Y011436D01*
X003703Y011319D02*
X003782Y011319D01*
X003545Y011436D02*
X002498Y011436D01*
X002639Y011319D02*
X003420Y011319D01*
X003408Y011202D02*
X002705Y011202D01*
X002725Y010969D02*
X003408Y010969D01*
X003408Y010946D02*
X003421Y010896D01*
X003447Y010851D01*
X003484Y010815D01*
X003529Y010789D01*
X003579Y010775D01*
X003703Y010775D01*
X003703Y011070D01*
X003408Y011070D01*
X003408Y010946D01*
X003446Y010852D02*
X002686Y010852D01*
X002601Y010736D02*
X003505Y010736D01*
X003408Y010619D02*
X002386Y010619D01*
X002035Y010619D02*
X001953Y010619D01*
X001953Y010736D02*
X002035Y010736D01*
X002035Y010852D02*
X001953Y010852D01*
X001953Y010969D02*
X002035Y010969D01*
X001603Y010619D02*
X001408Y010619D01*
X001408Y010503D02*
X003408Y010503D01*
X003408Y010386D02*
X002575Y010386D01*
X002676Y010269D02*
X003408Y010269D01*
X003455Y010153D02*
X002725Y010153D01*
X002732Y010036D02*
X003506Y010036D01*
X003392Y009920D02*
X002715Y009920D01*
X002667Y009803D02*
X003392Y009803D01*
X003392Y009686D02*
X002552Y009686D01*
X002231Y009570D02*
X003392Y009570D01*
X003392Y009453D02*
X002231Y009453D01*
X002231Y009337D02*
X003442Y009337D01*
X003473Y009367D02*
X004020Y009367D01*
X004053Y009400D01*
X004053Y009333D01*
X004020Y009367D01*
X003473Y009367D01*
X003392Y009220D02*
X002231Y009220D01*
X002231Y009103D02*
X003392Y009103D01*
X003392Y008987D02*
X002231Y008987D01*
X002231Y008870D02*
X003392Y008870D01*
X003417Y008754D02*
X002231Y008754D01*
X002231Y008637D02*
X004714Y008637D01*
X004598Y008520D02*
X002493Y008520D01*
X002692Y008404D02*
X004553Y008404D01*
X004553Y008287D02*
X002778Y008287D01*
X004076Y008754D02*
X004831Y008754D01*
X004947Y008870D02*
X004273Y008870D01*
X004389Y008987D02*
X005033Y008987D01*
X005033Y009103D02*
X004506Y009103D01*
X004526Y009220D02*
X004881Y009220D01*
X004842Y009337D02*
X004526Y009337D01*
X004526Y009453D02*
X004842Y009453D01*
X004842Y009570D02*
X004526Y009570D01*
X004526Y009686D02*
X004842Y009686D01*
X004842Y009803D02*
X004526Y009803D01*
X004526Y009920D02*
X004842Y009920D01*
X004842Y010036D02*
X004526Y010036D01*
X004093Y010386D02*
X004077Y010386D01*
X004077Y010503D02*
X004209Y010503D01*
X003880Y010281D02*
X003604Y010281D01*
X003604Y010557D01*
X003880Y010557D01*
X003880Y010281D01*
X003880Y010398D02*
X003604Y010398D01*
X003604Y010515D02*
X003880Y010515D01*
X003782Y010852D02*
X003703Y010852D01*
X003703Y010969D02*
X003782Y010969D01*
X003207Y012368D02*
X002593Y012368D01*
X002584Y012718D02*
X003207Y012718D01*
X003207Y012602D02*
X001408Y012602D01*
X001408Y012485D02*
X001605Y012485D01*
X002383Y012485D02*
X003207Y012485D01*
X003275Y012835D02*
X002680Y012835D01*
X002728Y012951D02*
X003207Y012951D01*
X003207Y013068D02*
X002732Y013068D01*
X002712Y013185D02*
X003207Y013185D01*
X003207Y013301D02*
X002660Y013301D01*
X002544Y013418D02*
X003268Y013418D01*
X003207Y013535D02*
X001496Y013535D01*
X001445Y013418D02*
X001408Y013418D01*
X001613Y013651D02*
X003207Y013651D01*
X003207Y013768D02*
X001729Y013768D01*
X001846Y013884D02*
X003207Y013884D01*
X003260Y014001D02*
X001962Y014001D01*
X001528Y014234D02*
X001363Y014234D01*
X001435Y014584D02*
X004850Y014584D01*
X004860Y014609D02*
X004812Y014493D01*
X004812Y014367D01*
X004860Y014251D01*
X004949Y014162D01*
X005065Y014114D01*
X005191Y014114D01*
X005307Y014162D01*
X005396Y014251D01*
X005444Y014367D01*
X005444Y014493D01*
X005396Y014609D01*
X005307Y014698D01*
X005191Y014746D01*
X005065Y014746D01*
X004949Y014698D01*
X004860Y014609D01*
X004956Y014701D02*
X001351Y014701D01*
X001353Y014934D02*
X001471Y014934D01*
X001471Y015050D02*
X001353Y015050D01*
X001353Y015167D02*
X001471Y015167D01*
X001471Y015517D02*
X001353Y015517D01*
X001353Y015634D02*
X001471Y015634D01*
X001471Y015750D02*
X001353Y015750D01*
X001353Y015867D02*
X001471Y015867D01*
X002035Y015867D02*
X002954Y015867D01*
X002947Y015750D02*
X002042Y015750D01*
X002042Y015634D02*
X002947Y015634D01*
X002947Y015517D02*
X002042Y015517D01*
X002042Y015284D02*
X002947Y015284D01*
X002947Y015167D02*
X002042Y015167D01*
X002042Y015050D02*
X002947Y015050D01*
X002992Y014934D02*
X001996Y014934D01*
X002669Y015983D02*
X005022Y015983D01*
X005022Y015867D02*
X004515Y015867D01*
X004522Y015750D02*
X005022Y015750D01*
X005022Y016100D02*
X002852Y016100D01*
X002916Y016217D02*
X005022Y016217D01*
X005089Y016333D02*
X004451Y016333D01*
X004878Y016450D02*
X005022Y016450D01*
X005317Y016713D02*
X005376Y016654D01*
X005317Y016713D02*
X004695Y016713D01*
X005376Y015985D02*
X005837Y015985D01*
X005900Y015922D01*
X005771Y015634D02*
X004522Y015634D01*
X004522Y015517D02*
X006665Y015517D01*
X007215Y015634D02*
X007814Y015634D01*
X007790Y015517D02*
X007316Y015517D01*
X007325Y015400D02*
X008085Y015400D01*
X007986Y015263D02*
X008262Y015263D01*
X007986Y015263D02*
X007986Y015539D01*
X008262Y015539D01*
X008262Y015263D01*
X008262Y015380D02*
X007986Y015380D01*
X007986Y015497D02*
X008262Y015497D01*
X008164Y015517D02*
X008085Y015517D01*
X008085Y015634D02*
X008164Y015634D01*
X008164Y015400D02*
X008624Y015400D01*
X008164Y015284D02*
X008085Y015284D01*
X008085Y015167D02*
X008164Y015167D01*
X008262Y014573D02*
X007986Y014573D01*
X007986Y014849D01*
X008262Y014849D01*
X008262Y014573D01*
X008262Y014690D02*
X007986Y014690D01*
X007986Y014807D02*
X008262Y014807D01*
X008124Y014711D02*
X008124Y014454D01*
X008112Y014442D01*
X007128Y014490D02*
X006852Y014490D01*
X006852Y014766D01*
X007128Y014766D01*
X007128Y014490D01*
X007128Y014607D02*
X006852Y014607D01*
X006852Y014724D02*
X007128Y014724D01*
X005927Y014469D02*
X005927Y013292D01*
X006420Y012800D01*
X006223Y012718D02*
X006223Y012606D01*
X005763Y012606D01*
X005644Y012726D01*
X005644Y012835D02*
X006106Y012835D01*
X005990Y012951D02*
X005644Y012951D01*
X005644Y013068D02*
X005873Y013068D01*
X005756Y013185D02*
X005644Y013185D01*
X005644Y013301D02*
X005731Y013301D01*
X005731Y013418D02*
X005644Y013418D01*
X005731Y013535D02*
X005554Y013535D01*
X005438Y013651D02*
X005731Y013651D01*
X005731Y013768D02*
X005321Y013768D01*
X005205Y013884D02*
X005731Y013884D01*
X005731Y014001D02*
X005088Y014001D01*
X005057Y014118D02*
X004971Y014118D01*
X004877Y014234D02*
X004855Y014234D01*
X004819Y014351D02*
X004738Y014351D01*
X004812Y014467D02*
X004622Y014467D01*
X005200Y014118D02*
X005731Y014118D01*
X005716Y014234D02*
X005379Y014234D01*
X005437Y014351D02*
X005635Y014351D01*
X005611Y014467D02*
X005444Y014467D01*
X005406Y014584D02*
X005633Y014584D01*
X005712Y014701D02*
X005300Y014701D01*
X006216Y015867D02*
X008271Y015867D01*
X008219Y015983D02*
X006216Y015983D01*
X006168Y016100D02*
X006315Y016100D01*
X006219Y016217D02*
X006014Y016217D01*
X006186Y016333D02*
X005663Y016333D01*
X005731Y016217D02*
X005785Y016217D01*
X005731Y016450D02*
X006175Y016450D01*
X006175Y016566D02*
X005731Y016566D01*
X005731Y016683D02*
X006175Y016683D01*
X006569Y016683D02*
X006832Y016683D01*
X006833Y016800D02*
X006665Y016800D01*
X006727Y016916D02*
X006850Y016916D01*
X006850Y017033D02*
X006727Y017033D01*
X006727Y017149D02*
X006850Y017149D01*
X006850Y017266D02*
X006727Y017266D01*
X006713Y017383D02*
X006850Y017383D01*
X006850Y017499D02*
X006696Y017499D01*
X006727Y017616D02*
X006850Y017616D01*
X006850Y017733D02*
X006727Y017733D01*
X006727Y017849D02*
X006850Y017849D01*
X006848Y017966D02*
X006727Y017966D01*
X006731Y018082D02*
X006682Y018082D01*
X006614Y018199D02*
X005489Y018199D01*
X005327Y018199D02*
X005259Y018199D01*
X005375Y018316D02*
X006498Y018316D01*
X006381Y018432D02*
X005492Y018432D01*
X005144Y018782D02*
X004522Y018782D01*
X004522Y018665D02*
X005057Y018665D01*
X004941Y018549D02*
X004522Y018549D01*
X004471Y018432D02*
X004824Y018432D01*
X005753Y018549D02*
X006265Y018549D01*
X006190Y018665D02*
X005813Y018665D01*
X005813Y018782D02*
X006190Y018782D01*
X006246Y018899D02*
X005813Y018899D01*
X005813Y019015D02*
X006246Y019015D01*
X006246Y019132D02*
X005813Y019132D01*
X005813Y019248D02*
X006246Y019248D01*
X006246Y019365D02*
X005813Y019365D01*
X005763Y019482D02*
X006296Y019482D01*
X007323Y017849D02*
X011321Y017849D01*
X011321Y017733D02*
X007323Y017733D01*
X007323Y017616D02*
X011321Y017616D01*
X011321Y018199D02*
X010955Y018199D01*
X010955Y018316D02*
X011321Y018316D01*
X011321Y018432D02*
X010955Y018432D01*
X010955Y018549D02*
X011321Y018549D01*
X011216Y018665D02*
X010934Y018665D01*
X010955Y018782D02*
X011100Y018782D01*
X010286Y018199D02*
X009943Y018199D01*
X009921Y018082D02*
X010308Y018082D01*
X008471Y018082D02*
X008392Y018082D01*
X008392Y018199D02*
X008471Y018199D01*
X008471Y018316D02*
X008392Y018316D01*
X008137Y017499D02*
X007323Y017499D01*
X007323Y017383D02*
X008120Y017383D01*
X009583Y013418D02*
X012483Y013418D01*
X012600Y013301D02*
X009621Y013301D01*
X009624Y013185D02*
X012716Y013185D01*
X012833Y013068D02*
X009624Y013068D01*
X009697Y012951D02*
X012950Y012951D01*
X013066Y012835D02*
X009813Y012835D01*
X009858Y012718D02*
X013183Y012718D01*
X013300Y012602D02*
X009853Y012602D01*
X010065Y012485D02*
X011134Y012485D01*
X011128Y012368D02*
X010065Y012368D01*
X010065Y012252D02*
X011128Y012252D01*
X011128Y012019D02*
X010065Y012019D01*
X010065Y012135D02*
X011601Y012135D01*
X011601Y012019D02*
X011719Y012019D01*
X011719Y011902D02*
X011601Y011902D01*
X011601Y011785D02*
X011719Y011785D01*
X011719Y012252D02*
X011601Y012252D01*
X011601Y012368D02*
X011719Y012368D01*
X011719Y012485D02*
X011601Y012485D01*
X012185Y012485D02*
X013416Y012485D01*
X013533Y012368D02*
X013058Y012368D01*
X013154Y012252D02*
X013649Y012252D01*
X013766Y012135D02*
X013188Y012135D01*
X013178Y012019D02*
X013883Y012019D01*
X013999Y011902D02*
X013114Y011902D01*
X012687Y012368D02*
X012191Y012368D01*
X013151Y013418D02*
X014634Y013418D01*
X014608Y013392D02*
X014560Y013276D01*
X014560Y013151D01*
X014608Y013034D01*
X014697Y012946D01*
X014813Y012897D01*
X014939Y012897D01*
X015055Y012946D01*
X015144Y013034D01*
X015192Y013151D01*
X015192Y013276D01*
X015144Y013392D01*
X015055Y013481D01*
X014939Y013529D01*
X014813Y013529D01*
X014697Y013481D01*
X014608Y013392D01*
X014571Y013301D02*
X013268Y013301D01*
X013385Y013185D02*
X014560Y013185D01*
X014594Y013068D02*
X013501Y013068D01*
X013618Y012951D02*
X014691Y012951D01*
X015061Y012951D02*
X016660Y012951D01*
X016616Y012995D02*
X016705Y012906D01*
X016821Y012858D01*
X016947Y012858D01*
X017063Y012906D01*
X017152Y012995D01*
X017200Y013111D01*
X017200Y013237D01*
X017152Y013353D01*
X017063Y013442D01*
X016947Y013490D01*
X016821Y013490D01*
X016705Y013442D01*
X016616Y013353D01*
X016568Y013237D01*
X016568Y013111D01*
X016616Y012995D01*
X016586Y013068D02*
X015158Y013068D01*
X015192Y013185D02*
X016568Y013185D01*
X016595Y013301D02*
X015182Y013301D01*
X015118Y013418D02*
X016681Y013418D01*
X017087Y013418D02*
X018044Y013418D01*
X018044Y013535D02*
X013035Y013535D01*
X012918Y013651D02*
X018044Y013651D01*
X018044Y013768D02*
X012802Y013768D01*
X012685Y013884D02*
X018044Y013884D01*
X018044Y013301D02*
X017173Y013301D01*
X017200Y013185D02*
X018044Y013185D01*
X018044Y013068D02*
X017182Y013068D01*
X017108Y012951D02*
X018044Y012951D01*
X018044Y012835D02*
X013734Y012835D01*
X013851Y012718D02*
X018044Y012718D01*
X018044Y012602D02*
X013968Y012602D01*
X014084Y012485D02*
X018044Y012485D01*
X018044Y012368D02*
X014201Y012368D01*
X014318Y012252D02*
X018044Y012252D01*
X018044Y012135D02*
X014434Y012135D01*
X014551Y012019D02*
X018044Y012019D01*
X018044Y011902D02*
X014667Y011902D01*
X014784Y011785D02*
X018044Y011785D01*
X018044Y011669D02*
X014864Y011669D01*
X014864Y011552D02*
X018044Y011552D01*
X018044Y011436D02*
X014864Y011436D01*
X014864Y011319D02*
X018044Y011319D01*
X018044Y011202D02*
X014864Y011202D01*
X014864Y011086D02*
X018044Y011086D01*
X018044Y010969D02*
X014864Y010969D01*
X014864Y010852D02*
X016817Y010852D01*
X016865Y010872D02*
X016575Y010752D01*
X016353Y010530D01*
X016233Y010240D01*
X016233Y009927D01*
X016353Y009637D01*
X016575Y009415D01*
X016865Y009294D01*
X017179Y009294D01*
X017469Y009415D01*
X017691Y009637D01*
X017811Y009927D01*
X017811Y010240D01*
X017691Y010530D01*
X017469Y010752D01*
X017179Y010872D01*
X016865Y010872D01*
X016559Y010736D02*
X014864Y010736D01*
X014864Y010619D02*
X016442Y010619D01*
X016342Y010503D02*
X014864Y010503D01*
X014864Y010386D02*
X016293Y010386D01*
X016245Y010269D02*
X014864Y010269D01*
X014864Y010153D02*
X016233Y010153D01*
X016233Y010036D02*
X014864Y010036D01*
X014864Y009920D02*
X016236Y009920D01*
X016284Y009803D02*
X014864Y009803D01*
X014864Y009686D02*
X016332Y009686D01*
X016420Y009570D02*
X014864Y009570D01*
X014864Y009453D02*
X016536Y009453D01*
X016763Y009337D02*
X014864Y009337D01*
X014864Y009220D02*
X018044Y009220D01*
X018044Y009337D02*
X017280Y009337D01*
X017507Y009453D02*
X018044Y009453D01*
X018044Y009570D02*
X017624Y009570D01*
X017711Y009686D02*
X018044Y009686D01*
X018044Y009803D02*
X017760Y009803D01*
X017808Y009920D02*
X018044Y009920D01*
X018044Y010036D02*
X017811Y010036D01*
X017811Y010153D02*
X018044Y010153D01*
X018044Y010269D02*
X017799Y010269D01*
X017751Y010386D02*
X018044Y010386D01*
X018044Y010503D02*
X017702Y010503D01*
X017602Y010619D02*
X018044Y010619D01*
X018044Y010736D02*
X017485Y010736D01*
X017227Y010852D02*
X018044Y010852D01*
X018044Y009103D02*
X014864Y009103D01*
X014864Y008987D02*
X015498Y008987D01*
X015534Y009002D02*
X015418Y008954D01*
X015329Y008865D01*
X015281Y008749D01*
X015281Y008623D01*
X015329Y008507D01*
X015418Y008418D01*
X015534Y008370D01*
X015660Y008370D01*
X015776Y008418D01*
X015865Y008507D01*
X015913Y008623D01*
X015913Y008749D01*
X015865Y008865D01*
X015776Y008954D01*
X015660Y009002D01*
X015534Y009002D01*
X015696Y008987D02*
X018044Y008987D01*
X018044Y008870D02*
X015859Y008870D01*
X015911Y008754D02*
X018044Y008754D01*
X018044Y008637D02*
X015913Y008637D01*
X015870Y008520D02*
X018044Y008520D01*
X018044Y008404D02*
X015741Y008404D01*
X015452Y008404D02*
X014864Y008404D01*
X014864Y008520D02*
X015323Y008520D01*
X015281Y008637D02*
X014864Y008637D01*
X014864Y008754D02*
X015283Y008754D01*
X015334Y008870D02*
X014864Y008870D01*
X014864Y008287D02*
X018044Y008287D01*
X018044Y008170D02*
X014864Y008170D01*
X014864Y008054D02*
X018044Y008054D01*
X018044Y007937D02*
X014864Y007937D01*
X014864Y007821D02*
X018044Y007821D01*
X018044Y007704D02*
X014864Y007704D01*
X014864Y007587D02*
X018044Y007587D01*
X018044Y007471D02*
X014864Y007471D01*
X014864Y007354D02*
X018044Y007354D01*
X018044Y007238D02*
X014864Y007238D01*
X014864Y007121D02*
X018044Y007121D01*
X018044Y007004D02*
X014864Y007004D01*
X014864Y006888D02*
X018044Y006888D01*
X018044Y006771D02*
X017060Y006771D01*
X017189Y006655D02*
X018044Y006655D01*
X018044Y006538D02*
X017231Y006538D01*
X017229Y006421D02*
X018044Y006421D01*
X018044Y006305D02*
X017178Y006305D01*
X016771Y006771D02*
X014864Y006771D01*
X014864Y006655D02*
X016642Y006655D01*
X016600Y006538D02*
X014864Y006538D01*
X014864Y006365D02*
X012907Y004407D01*
X012925Y004363D01*
X012925Y004189D01*
X012858Y004028D01*
X012735Y003905D01*
X012574Y003839D01*
X012423Y003839D01*
X012423Y003486D01*
X013212Y002698D01*
X013355Y002698D01*
X013501Y002637D01*
X013613Y002525D01*
X013674Y002379D01*
X013674Y002221D01*
X013613Y002075D01*
X013501Y001963D01*
X013355Y001902D01*
X013197Y001902D01*
X013050Y001963D01*
X012939Y002075D01*
X012878Y002221D01*
X012878Y002364D01*
X012187Y003055D01*
X010847Y001714D01*
X010708Y001576D01*
X010125Y001576D01*
X010144Y001547D01*
X010174Y001475D01*
X010189Y001398D01*
X010189Y001380D01*
X009813Y001380D01*
X009813Y001338D01*
X010189Y001338D01*
X010189Y001320D01*
X010174Y001243D01*
X010144Y001171D01*
X010101Y001105D01*
X010045Y001050D01*
X009980Y001007D01*
X009908Y000977D01*
X009831Y000961D01*
X009813Y000961D01*
X009813Y001338D01*
X009771Y001338D01*
X009771Y000961D01*
X009752Y000961D01*
X009676Y000977D01*
X009603Y001007D01*
X009538Y001050D01*
X009483Y001105D01*
X009439Y001171D01*
X009409Y001243D01*
X009394Y001320D01*
X009394Y001338D01*
X009771Y001338D01*
X009771Y001380D01*
X009771Y001757D01*
X009752Y001757D01*
X009676Y001742D01*
X009603Y001712D01*
X009538Y001668D01*
X009483Y001613D01*
X009439Y001547D01*
X009409Y001475D01*
X009394Y001398D01*
X009394Y001380D01*
X009771Y001380D01*
X009813Y001380D01*
X009813Y001742D01*
X009525Y002030D01*
X009517Y002022D01*
X009371Y001961D01*
X009212Y001961D01*
X009066Y002022D01*
X008954Y002134D01*
X008894Y002280D01*
X008894Y002438D01*
X008954Y002584D01*
X009066Y002696D01*
X009212Y002757D01*
X009354Y002757D01*
X008939Y002944D01*
X008856Y002909D01*
X008731Y002909D01*
X008615Y002957D01*
X008526Y003046D01*
X008478Y003162D01*
X008478Y003288D01*
X008526Y003404D01*
X008615Y003493D01*
X008731Y003541D01*
X008856Y003541D01*
X008972Y003493D01*
X009061Y003404D01*
X009104Y003301D01*
X010312Y002757D01*
X010371Y002757D01*
X010517Y002696D01*
X010629Y002584D01*
X010689Y002438D01*
X010689Y002280D01*
X010650Y002186D01*
X011951Y003486D01*
X011951Y003839D01*
X011800Y003839D01*
X011714Y003874D01*
X011524Y003685D01*
X011456Y003616D01*
X011455Y003616D01*
X011455Y003615D01*
X011358Y003615D01*
X008357Y003592D01*
X008286Y003563D01*
X008160Y003563D01*
X008088Y003593D01*
X005989Y003612D01*
X005944Y003567D01*
X005944Y003471D01*
X005989Y002618D01*
X006050Y002557D01*
X006111Y002411D01*
X006111Y002252D01*
X006050Y002106D01*
X005938Y001994D01*
X005792Y001934D01*
X005634Y001934D01*
X005488Y001994D01*
X005402Y002080D01*
X004152Y002017D01*
X003668Y001533D01*
X003668Y001259D01*
X003604Y001196D01*
X003614Y001190D01*
X003640Y001164D01*
X003658Y001133D01*
X003668Y001098D01*
X003668Y000902D01*
X003372Y000902D01*
X003372Y000824D01*
X018044Y000824D01*
X018044Y000941D02*
X013948Y000941D01*
X013964Y000947D02*
X013892Y000917D01*
X013815Y000902D01*
X013797Y000902D01*
X013797Y001279D01*
X013797Y001321D01*
X014174Y001321D01*
X014174Y001339D01*
X014158Y001416D01*
X014128Y001488D01*
X014085Y001554D01*
X014029Y001609D01*
X013964Y001653D01*
X013892Y001683D01*
X013815Y001698D01*
X013797Y001698D01*
X013797Y001321D01*
X013755Y001321D01*
X013755Y001698D01*
X013737Y001698D01*
X013660Y001683D01*
X013587Y001653D01*
X013522Y001609D01*
X013467Y001554D01*
X013423Y001488D01*
X013393Y001416D01*
X013378Y001339D01*
X013378Y001321D01*
X013755Y001321D01*
X013755Y001279D01*
X013797Y001279D01*
X014174Y001279D01*
X014174Y001261D01*
X014158Y001184D01*
X014128Y001112D01*
X014085Y001046D01*
X014029Y000991D01*
X013964Y000947D01*
X013797Y000941D02*
X013755Y000941D01*
X013755Y000902D02*
X013755Y001279D01*
X013378Y001279D01*
X013378Y001261D01*
X013393Y001184D01*
X013423Y001112D01*
X013467Y001046D01*
X013522Y000991D01*
X013587Y000947D01*
X013660Y000917D01*
X013737Y000902D01*
X013755Y000902D01*
X013755Y001057D02*
X013797Y001057D01*
X013797Y001174D02*
X013755Y001174D01*
X013755Y001290D02*
X013174Y001290D01*
X013174Y001221D02*
X013113Y001075D01*
X013001Y000963D01*
X012855Y000902D01*
X012697Y000902D01*
X012550Y000963D01*
X012439Y001075D01*
X012378Y001221D01*
X012378Y001379D01*
X012439Y001525D01*
X012550Y001637D01*
X012697Y001698D01*
X012855Y001698D01*
X013001Y001637D01*
X013113Y001525D01*
X013174Y001379D01*
X013174Y001221D01*
X013154Y001174D02*
X013398Y001174D01*
X013460Y001057D02*
X013096Y001057D01*
X012948Y000941D02*
X013604Y000941D01*
X013797Y001290D02*
X016431Y001290D01*
X016353Y001369D02*
X016575Y001147D01*
X016865Y001027D01*
X017179Y001027D01*
X017469Y001147D01*
X017691Y001369D01*
X017811Y001659D01*
X017811Y001973D01*
X017691Y002263D01*
X017469Y002485D01*
X017179Y002605D01*
X016865Y002605D01*
X016575Y002485D01*
X016353Y002263D01*
X016233Y001973D01*
X016233Y001659D01*
X016353Y001369D01*
X016337Y001407D02*
X014160Y001407D01*
X014105Y001524D02*
X016289Y001524D01*
X016241Y001640D02*
X013983Y001640D01*
X013797Y001640D02*
X013755Y001640D01*
X013755Y001524D02*
X013797Y001524D01*
X013797Y001407D02*
X013755Y001407D01*
X013447Y001524D02*
X013114Y001524D01*
X013162Y001407D02*
X013392Y001407D01*
X013569Y001640D02*
X012994Y001640D01*
X013023Y001990D02*
X011123Y001990D01*
X011239Y002107D02*
X012925Y002107D01*
X012878Y002223D02*
X011356Y002223D01*
X011473Y002340D02*
X012878Y002340D01*
X012785Y002457D02*
X011589Y002457D01*
X011706Y002573D02*
X012669Y002573D01*
X012552Y002690D02*
X011822Y002690D01*
X011939Y002806D02*
X012435Y002806D01*
X012319Y002923D02*
X012056Y002923D01*
X012172Y003040D02*
X012202Y003040D01*
X012520Y003389D02*
X016864Y003389D01*
X016865Y003389D02*
X017179Y003389D01*
X017469Y003509D01*
X017691Y003731D01*
X017811Y004021D01*
X017811Y004335D01*
X017691Y004625D01*
X017469Y004847D01*
X017179Y004967D01*
X016865Y004967D01*
X016575Y004847D01*
X016353Y004625D01*
X016233Y004335D01*
X016233Y004021D01*
X016353Y003731D01*
X016575Y003509D01*
X016865Y003389D01*
X016582Y003506D02*
X012423Y003506D01*
X012423Y003623D02*
X016461Y003623D01*
X016350Y003739D02*
X012423Y003739D01*
X012616Y003856D02*
X016301Y003856D01*
X016253Y003972D02*
X012802Y003972D01*
X012884Y004089D02*
X016233Y004089D01*
X016233Y004206D02*
X012925Y004206D01*
X012925Y004322D02*
X016233Y004322D01*
X016276Y004439D02*
X012938Y004439D01*
X013055Y004556D02*
X016324Y004556D01*
X016400Y004672D02*
X015644Y004672D01*
X015732Y004789D02*
X016517Y004789D01*
X016716Y004905D02*
X015759Y004905D01*
X015742Y005022D02*
X018044Y005022D01*
X018044Y004905D02*
X017327Y004905D01*
X017527Y004789D02*
X018044Y004789D01*
X018044Y004672D02*
X017643Y004672D01*
X017719Y004556D02*
X018044Y004556D01*
X018044Y004439D02*
X017768Y004439D01*
X017811Y004322D02*
X018044Y004322D01*
X018044Y004206D02*
X017811Y004206D01*
X017811Y004089D02*
X018044Y004089D01*
X018044Y003972D02*
X017791Y003972D01*
X017742Y003856D02*
X018044Y003856D01*
X018044Y003739D02*
X017694Y003739D01*
X017582Y003623D02*
X018044Y003623D01*
X018044Y003506D02*
X017461Y003506D01*
X017180Y003389D02*
X018044Y003389D01*
X018044Y003273D02*
X012637Y003273D01*
X012754Y003156D02*
X015895Y003156D01*
X015912Y003163D02*
X015796Y003115D01*
X015707Y003026D01*
X015659Y002910D01*
X015659Y002784D01*
X015707Y002668D01*
X015796Y002579D01*
X015912Y002531D01*
X016037Y002531D01*
X016154Y002579D01*
X016242Y002668D01*
X016291Y002784D01*
X016291Y002910D01*
X016242Y003026D01*
X016154Y003115D01*
X016037Y003163D01*
X015912Y003163D01*
X016054Y003156D02*
X018044Y003156D01*
X018044Y003040D02*
X016229Y003040D01*
X016285Y002923D02*
X018044Y002923D01*
X018044Y002806D02*
X016291Y002806D01*
X016251Y002690D02*
X018044Y002690D01*
X018044Y002573D02*
X017255Y002573D01*
X017497Y002457D02*
X018044Y002457D01*
X018044Y002340D02*
X017613Y002340D01*
X017707Y002223D02*
X018044Y002223D01*
X018044Y002107D02*
X017755Y002107D01*
X017804Y001990D02*
X018044Y001990D01*
X018044Y001873D02*
X017811Y001873D01*
X017811Y001757D02*
X018044Y001757D01*
X018044Y001640D02*
X017803Y001640D01*
X017755Y001524D02*
X018044Y001524D01*
X018044Y001407D02*
X017707Y001407D01*
X017612Y001290D02*
X018044Y001290D01*
X018044Y001174D02*
X017496Y001174D01*
X017252Y001057D02*
X018044Y001057D01*
X018044Y000707D02*
X003668Y000707D01*
X003668Y000628D02*
X003668Y000824D01*
X003372Y000824D01*
X003372Y000509D01*
X003548Y000509D01*
X003583Y000518D01*
X003614Y000536D01*
X003640Y000562D01*
X003658Y000593D01*
X003668Y000628D01*
X003657Y000591D02*
X018044Y000591D01*
X018044Y000474D02*
X000646Y000474D01*
X000646Y000591D02*
X003009Y000591D01*
X003008Y000593D02*
X003026Y000562D01*
X003051Y000536D01*
X003083Y000518D01*
X003118Y000509D01*
X003294Y000509D01*
X003294Y000824D01*
X003372Y000824D01*
X003294Y000824D02*
X002998Y000824D01*
X002998Y000628D01*
X003008Y000593D01*
X002998Y000707D02*
X000646Y000707D01*
X000646Y001990D02*
X000982Y001990D01*
X000982Y002107D02*
X000646Y002107D01*
X000646Y002223D02*
X001064Y002223D01*
X003294Y000707D02*
X003372Y000707D01*
X003372Y000591D02*
X003294Y000591D01*
X003668Y000941D02*
X005117Y000941D01*
X005134Y000934D02*
X005292Y000934D01*
X005438Y000994D01*
X005550Y001106D01*
X005611Y001252D01*
X005611Y001411D01*
X005550Y001557D01*
X005438Y001669D01*
X005292Y001729D01*
X005134Y001729D01*
X004988Y001669D01*
X004876Y001557D01*
X004815Y001411D01*
X004815Y001252D01*
X004876Y001106D01*
X004988Y000994D01*
X005134Y000934D01*
X005309Y000941D02*
X006139Y000941D01*
X006174Y000934D02*
X006192Y000934D01*
X006192Y001311D01*
X005815Y001311D01*
X005815Y001292D01*
X005830Y001215D01*
X005860Y001143D01*
X005904Y001078D01*
X005959Y001023D01*
X006024Y000979D01*
X006097Y000949D01*
X006174Y000934D01*
X006192Y000941D02*
X006234Y000941D01*
X006234Y000934D02*
X006252Y000934D01*
X006329Y000949D01*
X006401Y000979D01*
X006466Y001023D01*
X006522Y001078D01*
X006565Y001143D01*
X006595Y001215D01*
X006611Y001292D01*
X006611Y001311D01*
X006234Y001311D01*
X006234Y001352D01*
X006611Y001352D01*
X006611Y001371D01*
X006595Y001448D01*
X006565Y001520D01*
X006522Y001585D01*
X006466Y001640D01*
X006401Y001684D01*
X006329Y001714D01*
X006252Y001729D01*
X006234Y001729D01*
X006234Y001352D01*
X006192Y001352D01*
X006192Y001311D01*
X006234Y001311D01*
X006234Y000934D01*
X006287Y000941D02*
X012604Y000941D01*
X012456Y001057D02*
X010052Y001057D01*
X010145Y001174D02*
X012398Y001174D01*
X012378Y001290D02*
X010184Y001290D01*
X010188Y001407D02*
X012390Y001407D01*
X012438Y001524D02*
X010154Y001524D01*
X009813Y001524D02*
X009771Y001524D01*
X009771Y001640D02*
X009813Y001640D01*
X009798Y001757D02*
X003892Y001757D01*
X004008Y001873D02*
X009681Y001873D01*
X009565Y001990D02*
X009440Y001990D01*
X009510Y001640D02*
X009073Y001640D01*
X009129Y001584D02*
X009017Y001696D01*
X008871Y001757D01*
X008712Y001757D01*
X008566Y001696D01*
X008454Y001584D01*
X008394Y001438D01*
X008394Y001280D01*
X008454Y001134D01*
X008566Y001022D01*
X008712Y000961D01*
X008871Y000961D01*
X009017Y001022D01*
X009129Y001134D01*
X009189Y001280D01*
X009189Y001438D01*
X009129Y001584D01*
X009154Y001524D02*
X009429Y001524D01*
X009396Y001407D02*
X009189Y001407D01*
X009189Y001290D02*
X009400Y001290D01*
X009438Y001174D02*
X009145Y001174D01*
X009052Y001057D02*
X009531Y001057D01*
X009771Y001057D02*
X009813Y001057D01*
X009813Y001174D02*
X009771Y001174D01*
X009771Y001290D02*
X009813Y001290D01*
X009813Y001407D02*
X009771Y001407D01*
X009143Y001990D02*
X006928Y001990D01*
X006938Y001994D02*
X007050Y002106D01*
X007111Y002252D01*
X007111Y002411D01*
X007050Y002557D01*
X006938Y002669D01*
X006792Y002729D01*
X006634Y002729D01*
X006488Y002669D01*
X006376Y002557D01*
X006315Y002411D01*
X006315Y002252D01*
X006376Y002106D01*
X006488Y001994D01*
X006634Y001934D01*
X006792Y001934D01*
X006938Y001994D01*
X007050Y002107D02*
X008981Y002107D01*
X008917Y002223D02*
X007099Y002223D01*
X007111Y002340D02*
X008894Y002340D01*
X008901Y002457D02*
X007092Y002457D01*
X007034Y002573D02*
X008950Y002573D01*
X009060Y002690D02*
X006887Y002690D01*
X006538Y002690D02*
X005985Y002690D01*
X005979Y002806D02*
X009244Y002806D01*
X008985Y002923D02*
X008889Y002923D01*
X008698Y002923D02*
X007974Y002923D01*
X007998Y002948D02*
X008046Y003064D01*
X008046Y003190D01*
X007998Y003306D01*
X007909Y003395D01*
X007793Y003443D01*
X007668Y003443D01*
X007552Y003395D01*
X007463Y003306D01*
X007415Y003190D01*
X007415Y003064D01*
X007463Y002948D01*
X007552Y002859D01*
X007668Y002811D01*
X007793Y002811D01*
X007909Y002859D01*
X007998Y002948D01*
X008036Y003040D02*
X008532Y003040D01*
X008480Y003156D02*
X008046Y003156D01*
X008012Y003273D02*
X008478Y003273D01*
X008520Y003389D02*
X007915Y003389D01*
X007546Y003389D02*
X005948Y003389D01*
X005954Y003273D02*
X007449Y003273D01*
X007415Y003156D02*
X005960Y003156D01*
X005967Y003040D02*
X007425Y003040D01*
X007488Y002923D02*
X005973Y002923D01*
X006034Y002573D02*
X006392Y002573D01*
X006334Y002457D02*
X006092Y002457D01*
X006111Y002340D02*
X006315Y002340D01*
X006327Y002223D02*
X006099Y002223D01*
X006050Y002107D02*
X006375Y002107D01*
X006498Y001990D02*
X005928Y001990D01*
X006024Y001684D02*
X005959Y001640D01*
X005467Y001640D01*
X005564Y001524D02*
X005863Y001524D01*
X005860Y001520D02*
X005830Y001448D01*
X005815Y001371D01*
X005815Y001352D01*
X006192Y001352D01*
X006192Y001729D01*
X006174Y001729D01*
X006097Y001714D01*
X006024Y001684D01*
X005959Y001640D02*
X005904Y001585D01*
X005860Y001520D01*
X005822Y001407D02*
X005611Y001407D01*
X005611Y001290D02*
X005815Y001290D01*
X005848Y001174D02*
X005578Y001174D01*
X005501Y001057D02*
X005925Y001057D01*
X006192Y001057D02*
X006234Y001057D01*
X006234Y001174D02*
X006192Y001174D01*
X006192Y001290D02*
X006234Y001290D01*
X006234Y001407D02*
X006192Y001407D01*
X006192Y001524D02*
X006234Y001524D01*
X006234Y001640D02*
X006192Y001640D01*
X006467Y001640D02*
X008510Y001640D01*
X008429Y001524D02*
X006563Y001524D01*
X006603Y001407D02*
X008394Y001407D01*
X008394Y001290D02*
X006610Y001290D01*
X006578Y001174D02*
X008438Y001174D01*
X008531Y001057D02*
X006501Y001057D01*
X005498Y001990D02*
X004125Y001990D01*
X003775Y001640D02*
X004959Y001640D01*
X004862Y001524D02*
X003668Y001524D01*
X003668Y001407D02*
X004815Y001407D01*
X004815Y001290D02*
X003668Y001290D01*
X003630Y001174D02*
X004848Y001174D01*
X004925Y001057D02*
X003668Y001057D01*
X005944Y003506D02*
X008646Y003506D01*
X008941Y003506D02*
X010702Y003506D01*
X010660Y003463D02*
X010611Y003347D01*
X010611Y003221D01*
X010660Y003105D01*
X010748Y003016D01*
X010865Y002968D01*
X010990Y002968D01*
X011106Y003016D01*
X011195Y003105D01*
X011243Y003221D01*
X011243Y003347D01*
X011195Y003463D01*
X011106Y003552D01*
X010990Y003600D01*
X010865Y003600D01*
X010748Y003552D01*
X010660Y003463D01*
X010629Y003389D02*
X009067Y003389D01*
X009167Y003273D02*
X010611Y003273D01*
X010639Y003156D02*
X009426Y003156D01*
X009684Y003040D02*
X010725Y003040D01*
X010523Y002690D02*
X011154Y002690D01*
X011038Y002573D02*
X010633Y002573D01*
X010682Y002457D02*
X010921Y002457D01*
X010805Y002340D02*
X010689Y002340D01*
X010688Y002223D02*
X010666Y002223D01*
X010292Y002359D02*
X010292Y002550D01*
X008794Y003225D01*
X008459Y004089D02*
X011261Y004089D01*
X011579Y003739D02*
X011951Y003739D01*
X011951Y003623D02*
X011463Y003623D01*
X011226Y003389D02*
X011854Y003389D01*
X011951Y003506D02*
X011152Y003506D01*
X011243Y003273D02*
X011737Y003273D01*
X011621Y003156D02*
X011216Y003156D01*
X011130Y003040D02*
X011504Y003040D01*
X011388Y002923D02*
X009943Y002923D01*
X010202Y002806D02*
X011271Y002806D01*
X011006Y001873D02*
X016233Y001873D01*
X016233Y001757D02*
X010890Y001757D01*
X010773Y001640D02*
X012558Y001640D01*
X013528Y001990D02*
X014023Y001990D01*
X014050Y001963D02*
X014197Y001902D01*
X014355Y001902D01*
X014501Y001963D01*
X014613Y002075D01*
X014674Y002221D01*
X014674Y002379D01*
X014613Y002525D01*
X014501Y002637D01*
X014355Y002698D01*
X014197Y002698D01*
X014050Y002637D01*
X013939Y002525D01*
X013878Y002379D01*
X013878Y002221D01*
X013939Y002075D01*
X014050Y001963D01*
X013925Y002107D02*
X013626Y002107D01*
X013674Y002223D02*
X013878Y002223D01*
X013878Y002340D02*
X013674Y002340D01*
X013642Y002457D02*
X013910Y002457D01*
X013986Y002573D02*
X013565Y002573D01*
X013374Y002690D02*
X014177Y002690D01*
X014374Y002690D02*
X015698Y002690D01*
X015659Y002806D02*
X013104Y002806D01*
X012987Y002923D02*
X015664Y002923D01*
X015720Y003040D02*
X012870Y003040D01*
X011758Y003856D02*
X011695Y003856D01*
X012146Y004905D02*
X012228Y004905D01*
X012228Y005022D02*
X012146Y005022D01*
X012146Y005139D02*
X012228Y005139D01*
X012228Y005372D02*
X012146Y005372D01*
X012146Y005488D02*
X012228Y005488D01*
X012228Y005605D02*
X012146Y005605D01*
X011597Y005605D02*
X007707Y005605D01*
X007707Y005372D02*
X007628Y005372D01*
X007628Y005255D02*
X007707Y005255D01*
X007330Y004789D02*
X006559Y004789D01*
X006563Y004812D02*
X006563Y004830D01*
X006187Y004830D01*
X006187Y004453D01*
X006205Y004453D01*
X006282Y004469D01*
X006354Y004499D01*
X006419Y004542D01*
X006475Y004598D01*
X006518Y004663D01*
X006548Y004735D01*
X006563Y004812D01*
X006522Y004672D02*
X007254Y004672D01*
X007236Y004556D02*
X006433Y004556D01*
X006187Y004556D02*
X006145Y004556D01*
X006145Y004672D02*
X006187Y004672D01*
X006187Y004789D02*
X006145Y004789D01*
X006145Y004905D02*
X006187Y004905D01*
X006187Y005022D02*
X006145Y005022D01*
X006145Y005139D02*
X006187Y005139D01*
X006118Y005715D02*
X006093Y005741D01*
X005371Y006188D02*
X005366Y006188D01*
X005366Y006305D02*
X005371Y006305D01*
X005366Y006421D02*
X005371Y006421D01*
X004274Y006538D02*
X000646Y006538D01*
X000646Y006655D02*
X001695Y006655D01*
X001486Y006771D02*
X000646Y006771D01*
X000646Y006888D02*
X001395Y006888D01*
X001347Y007004D02*
X000646Y007004D01*
X000646Y007121D02*
X001275Y007121D01*
X001038Y007238D02*
X000646Y007238D01*
X000646Y007354D02*
X000935Y007354D01*
X000924Y007471D02*
X000646Y007471D01*
X000646Y007587D02*
X000935Y007587D01*
X000935Y007704D02*
X000646Y007704D01*
X000646Y006421D02*
X001496Y006421D01*
X001399Y006305D02*
X000646Y006305D01*
X000646Y006188D02*
X001351Y006188D01*
X001347Y006071D02*
X000646Y006071D01*
X000646Y005955D02*
X001368Y005955D01*
X001419Y005838D02*
X000646Y005838D01*
X000646Y005722D02*
X001535Y005722D01*
X004750Y008394D02*
X005230Y008874D01*
X005230Y009426D01*
X004053Y009337D02*
X004050Y009337D01*
X006118Y008006D02*
X006132Y008006D01*
X007994Y005955D02*
X008124Y005955D01*
X008432Y005955D02*
X009435Y005955D01*
X009410Y005965D02*
X009526Y005917D01*
X009652Y005917D01*
X009768Y005965D01*
X009857Y006054D01*
X009905Y006170D01*
X009905Y006296D01*
X009857Y006412D01*
X009786Y006483D01*
X009786Y008057D01*
X009798Y008088D01*
X009798Y008213D01*
X009750Y008329D01*
X009661Y008418D01*
X009545Y008466D01*
X009420Y008466D01*
X009304Y008418D01*
X009215Y008329D01*
X009167Y008213D01*
X009167Y008088D01*
X009215Y007971D01*
X009304Y007883D01*
X009392Y007846D01*
X009392Y006483D01*
X009321Y006412D01*
X009273Y006296D01*
X009273Y006170D01*
X009321Y006054D01*
X009410Y005965D01*
X009314Y006071D02*
X009114Y006071D01*
X009185Y006188D02*
X009273Y006188D01*
X009277Y006305D02*
X009200Y006305D01*
X009171Y006421D02*
X009330Y006421D01*
X009392Y006538D02*
X009081Y006538D01*
X009080Y006655D02*
X009392Y006655D01*
X009392Y006771D02*
X009079Y006771D01*
X009079Y006888D02*
X009392Y006888D01*
X009392Y007004D02*
X009079Y007004D01*
X009078Y007121D02*
X009392Y007121D01*
X009392Y007238D02*
X009078Y007238D01*
X009078Y007354D02*
X009392Y007354D01*
X009392Y007471D02*
X009077Y007471D01*
X009077Y007587D02*
X009392Y007587D01*
X009392Y007704D02*
X009052Y007704D01*
X009052Y007821D02*
X009392Y007821D01*
X009249Y007937D02*
X009108Y007937D01*
X009113Y008054D02*
X009181Y008054D01*
X009167Y008170D02*
X009074Y008170D01*
X008960Y008287D02*
X009197Y008287D01*
X009289Y008404D02*
X008763Y008404D01*
X008965Y008520D02*
X011945Y008520D01*
X011919Y008546D02*
X011990Y008475D01*
X011990Y007714D01*
X011800Y007714D01*
X011639Y007648D01*
X011516Y007524D01*
X011449Y007363D01*
X011449Y007189D01*
X011516Y007028D01*
X011639Y006905D01*
X011800Y006839D01*
X012574Y006839D01*
X012735Y006905D01*
X012858Y007028D01*
X012925Y007189D01*
X012925Y007363D01*
X012858Y007524D01*
X012735Y007648D01*
X012574Y007714D01*
X012384Y007714D01*
X012384Y008475D01*
X012455Y008546D01*
X012503Y008662D01*
X012503Y008788D01*
X012455Y008904D01*
X012366Y008993D01*
X012250Y009041D01*
X012124Y009041D01*
X012008Y008993D01*
X011919Y008904D01*
X011871Y008788D01*
X011871Y008662D01*
X011919Y008546D01*
X011882Y008637D02*
X009217Y008637D01*
X009603Y008754D02*
X011346Y008754D01*
X011388Y008736D02*
X011272Y008784D01*
X011183Y008873D01*
X011135Y008989D01*
X011135Y009115D01*
X011183Y009231D01*
X011272Y009320D01*
X011388Y009368D01*
X011433Y009368D01*
X011470Y009405D01*
X011470Y009532D01*
X011280Y009532D01*
X011199Y009613D01*
X011199Y010357D01*
X011280Y010438D01*
X012181Y010438D01*
X012262Y010357D01*
X012262Y009613D01*
X012181Y009532D01*
X011943Y009532D01*
X011943Y009210D01*
X011767Y009034D01*
X011767Y008989D01*
X011719Y008873D01*
X011630Y008784D01*
X011514Y008736D01*
X011388Y008736D01*
X011556Y008754D02*
X011871Y008754D01*
X011905Y008870D02*
X011716Y008870D01*
X011766Y008987D02*
X012002Y008987D01*
X011836Y009103D02*
X013494Y009103D01*
X013494Y008987D02*
X012372Y008987D01*
X012469Y008870D02*
X013494Y008870D01*
X013494Y008754D02*
X012503Y008754D01*
X012493Y008637D02*
X013494Y008637D01*
X013494Y008520D02*
X012429Y008520D01*
X012384Y008404D02*
X013494Y008404D01*
X013494Y008287D02*
X012384Y008287D01*
X012384Y008170D02*
X013494Y008170D01*
X013494Y008054D02*
X012384Y008054D01*
X012384Y007937D02*
X013494Y007937D01*
X013494Y007821D02*
X012384Y007821D01*
X012599Y007704D02*
X013494Y007704D01*
X013494Y007587D02*
X012795Y007587D01*
X012881Y007471D02*
X013494Y007471D01*
X013467Y007354D02*
X012925Y007354D01*
X012925Y007238D02*
X013350Y007238D01*
X013234Y007121D02*
X012897Y007121D01*
X012834Y007004D02*
X013117Y007004D01*
X013001Y006888D02*
X012693Y006888D01*
X012884Y006771D02*
X011261Y006771D01*
X011275Y006737D02*
X011227Y006853D01*
X011138Y006942D01*
X011022Y006990D01*
X010896Y006990D01*
X010780Y006942D01*
X010691Y006853D01*
X010643Y006737D01*
X010643Y006611D01*
X010691Y006495D01*
X010780Y006406D01*
X010896Y006358D01*
X011022Y006358D01*
X011138Y006406D01*
X011227Y006495D01*
X011275Y006611D01*
X011275Y006737D01*
X011275Y006655D02*
X011656Y006655D01*
X011530Y006538D02*
X011244Y006538D01*
X011153Y006421D02*
X011473Y006421D01*
X011449Y006305D02*
X009901Y006305D01*
X009905Y006188D02*
X011450Y006188D01*
X011498Y006071D02*
X009864Y006071D01*
X009743Y005955D02*
X011590Y005955D01*
X012187Y006276D02*
X012668Y006276D01*
X013691Y007300D01*
X013691Y009875D01*
X012652Y010914D01*
X012522Y011202D02*
X010736Y011202D01*
X010585Y011086D02*
X012381Y011086D01*
X012336Y010969D02*
X009798Y010969D01*
X009787Y010852D02*
X012336Y010852D01*
X012384Y010736D02*
X009723Y010736D01*
X009483Y010942D02*
X008669Y010942D01*
X008610Y011001D01*
X008610Y011316D02*
X010404Y011316D01*
X010467Y011379D01*
X010341Y011669D02*
X009406Y011669D01*
X009289Y011552D02*
X010197Y011552D01*
X010065Y011785D02*
X011131Y011785D01*
X011128Y011902D02*
X010065Y011902D01*
X010349Y011086D02*
X009765Y011086D01*
X009242Y010736D02*
X008997Y010736D01*
X008997Y010619D02*
X012538Y010619D01*
X012785Y010503D02*
X008997Y010503D01*
X008997Y010386D02*
X009102Y010386D01*
X009101Y010385D02*
X009082Y010353D01*
X009073Y010318D01*
X009073Y010044D01*
X009546Y010044D01*
X009546Y010438D01*
X009193Y010438D01*
X009158Y010428D01*
X009126Y010410D01*
X009101Y010385D01*
X009073Y010269D02*
X008997Y010269D01*
X008997Y010153D02*
X009073Y010153D01*
X008997Y010036D02*
X009546Y010036D01*
X009546Y010044D02*
X009546Y009926D01*
X009664Y009926D01*
X009664Y010044D01*
X010136Y010044D01*
X010136Y010318D01*
X010127Y010353D01*
X010109Y010385D01*
X010083Y010410D01*
X010051Y010428D01*
X010016Y010438D01*
X009664Y010438D01*
X009664Y010044D01*
X009546Y010044D01*
X009546Y010153D02*
X009664Y010153D01*
X009664Y010269D02*
X009546Y010269D01*
X009546Y010386D02*
X009664Y010386D01*
X009664Y010036D02*
X011199Y010036D01*
X011199Y009920D02*
X010136Y009920D01*
X010136Y009926D02*
X009664Y009926D01*
X009664Y009532D01*
X010016Y009532D01*
X010051Y009542D01*
X010083Y009560D01*
X010109Y009585D01*
X010127Y009617D01*
X010136Y009652D01*
X010136Y009926D01*
X010136Y009803D02*
X011199Y009803D01*
X011199Y009686D02*
X010136Y009686D01*
X010093Y009570D02*
X011242Y009570D01*
X011313Y009337D02*
X008997Y009337D01*
X008997Y009453D02*
X011470Y009453D01*
X011179Y009220D02*
X009568Y009220D01*
X009659Y009103D02*
X011135Y009103D01*
X011136Y008987D02*
X009688Y008987D01*
X009673Y008870D02*
X011186Y008870D01*
X011943Y009220D02*
X013494Y009220D01*
X013494Y009337D02*
X011943Y009337D01*
X011943Y009453D02*
X013494Y009453D01*
X013494Y009570D02*
X012219Y009570D01*
X012262Y009686D02*
X013494Y009686D01*
X013485Y009803D02*
X012262Y009803D01*
X012262Y009920D02*
X013368Y009920D01*
X013251Y010036D02*
X012262Y010036D01*
X012262Y010153D02*
X013135Y010153D01*
X013018Y010269D02*
X012262Y010269D01*
X012233Y010386D02*
X012902Y010386D01*
X012187Y008725D02*
X012187Y007276D01*
X011990Y007821D02*
X009786Y007821D01*
X009786Y007937D02*
X011990Y007937D01*
X011990Y008054D02*
X009786Y008054D01*
X009798Y008170D02*
X011990Y008170D01*
X011990Y008287D02*
X009768Y008287D01*
X009676Y008404D02*
X011990Y008404D01*
X011776Y007704D02*
X009786Y007704D01*
X009786Y007587D02*
X011579Y007587D01*
X011494Y007471D02*
X009786Y007471D01*
X009786Y007354D02*
X011449Y007354D01*
X011449Y007238D02*
X009786Y007238D01*
X009786Y007121D02*
X011478Y007121D01*
X011540Y007004D02*
X009786Y007004D01*
X009786Y006888D02*
X010726Y006888D01*
X010657Y006771D02*
X009786Y006771D01*
X009786Y006655D02*
X010643Y006655D01*
X010673Y006538D02*
X009786Y006538D01*
X009847Y006421D02*
X010765Y006421D01*
X011192Y006888D02*
X011681Y006888D01*
X012718Y006655D02*
X012767Y006655D01*
X009589Y006233D02*
X009589Y008044D01*
X009483Y008150D01*
X008797Y008013D02*
X008880Y007544D01*
X008884Y006288D01*
X008654Y006071D02*
X008553Y006071D01*
X008328Y008637D02*
X008270Y008637D01*
X008270Y008754D02*
X008444Y008754D01*
X008561Y008870D02*
X008270Y008870D01*
X008270Y008987D02*
X008848Y008987D01*
X008958Y009220D02*
X009176Y009220D01*
X009086Y009103D02*
X008270Y009103D01*
X008261Y009220D02*
X008195Y009220D01*
X008997Y009570D02*
X009116Y009570D01*
X009126Y009560D02*
X009158Y009542D01*
X009193Y009532D01*
X009546Y009532D01*
X009546Y009926D01*
X009073Y009926D01*
X009073Y009652D01*
X009082Y009617D01*
X009101Y009585D01*
X009126Y009560D01*
X009073Y009686D02*
X008997Y009686D01*
X008997Y009803D02*
X009073Y009803D01*
X009073Y009920D02*
X008997Y009920D01*
X009546Y009920D02*
X009664Y009920D01*
X009664Y009803D02*
X009546Y009803D01*
X009546Y009686D02*
X009664Y009686D01*
X009664Y009570D02*
X009546Y009570D01*
X010136Y010153D02*
X011199Y010153D01*
X011199Y010269D02*
X010136Y010269D01*
X010107Y010386D02*
X011228Y010386D01*
X009364Y012602D02*
X008290Y012602D01*
X008290Y012485D02*
X009002Y012485D01*
X009002Y012368D02*
X008290Y012368D01*
X008290Y012252D02*
X009002Y012252D01*
X009002Y012135D02*
X008273Y012135D01*
X008270Y012019D02*
X009002Y012019D01*
X008971Y011902D02*
X008260Y011902D01*
X003794Y014934D02*
X003675Y014934D01*
X003675Y015050D02*
X003794Y015050D01*
X003794Y015167D02*
X003675Y015167D01*
X003675Y015517D02*
X003794Y015517D01*
X003794Y015634D02*
X003675Y015634D01*
X003675Y015750D02*
X003794Y015750D01*
X003794Y015867D02*
X003675Y015867D01*
X003774Y016316D02*
X003774Y016552D01*
X003774Y016552D01*
X003774Y016552D01*
X003026Y016552D01*
X003026Y016435D01*
X003035Y016400D01*
X003053Y016369D01*
X003079Y016343D01*
X003110Y016325D01*
X003145Y016316D01*
X003774Y016316D01*
X003774Y016333D02*
X003774Y016333D01*
X003774Y016450D02*
X003774Y016450D01*
X003096Y016333D02*
X002929Y016333D01*
X002901Y016450D02*
X003026Y016450D01*
X003026Y016566D02*
X002818Y016566D01*
X001471Y018432D02*
X001353Y018432D01*
X001353Y018549D02*
X001471Y018549D01*
X001471Y018665D02*
X001353Y018665D01*
X001353Y019015D02*
X001471Y019015D01*
X001471Y019132D02*
X001353Y019132D01*
X001353Y019248D02*
X001471Y019248D01*
X001471Y019365D02*
X001353Y019365D01*
X003675Y019365D02*
X003794Y019365D01*
X003794Y019248D02*
X003675Y019248D01*
X003675Y019132D02*
X003794Y019132D01*
X003794Y019015D02*
X003675Y019015D01*
X001466Y011669D02*
X001408Y011669D01*
X001408Y010386D02*
X001413Y010386D01*
X014092Y001057D02*
X016791Y001057D01*
X016548Y001174D02*
X014154Y001174D01*
X014528Y001990D02*
X016240Y001990D01*
X016288Y002107D02*
X014626Y002107D01*
X014674Y002223D02*
X016337Y002223D01*
X016430Y002340D02*
X014674Y002340D01*
X014642Y002457D02*
X016547Y002457D01*
X016789Y002573D02*
X016138Y002573D01*
X015811Y002573D02*
X014565Y002573D01*
D23*
X014276Y002300D03*
X013276Y002300D03*
X013776Y001300D03*
X012776Y001300D03*
X010292Y002359D03*
X009792Y001359D03*
X009292Y002359D03*
X008792Y001359D03*
X006713Y002331D03*
X005713Y002331D03*
X006213Y001331D03*
X005213Y001331D03*
X005666Y003851D03*
X004666Y003851D03*
X005166Y004851D03*
X006166Y004851D03*
D24*
X001420Y002796D03*
X001420Y001796D03*
D25*
X001785Y006091D02*
X002385Y006091D01*
X002385Y007091D02*
X001785Y007091D01*
X001785Y008091D02*
X002385Y008091D01*
X002294Y010048D02*
X001694Y010048D01*
X001694Y011048D02*
X002294Y011048D01*
X002294Y012048D02*
X001694Y012048D01*
X001694Y013048D02*
X002294Y013048D01*
X011887Y007276D02*
X012487Y007276D01*
X012487Y006276D02*
X011887Y006276D01*
X011887Y005276D02*
X012487Y005276D01*
X012487Y004276D02*
X011887Y004276D01*
D26*
X006618Y006066D03*
X006118Y006066D03*
X005618Y006066D03*
X005118Y006066D03*
X005118Y008006D03*
X005618Y008006D03*
X006118Y008006D03*
X006618Y008006D03*
D27*
X007569Y009572D03*
X007569Y010119D03*
X007620Y010694D03*
X007620Y011241D03*
X006502Y011489D03*
X005864Y011489D03*
X005853Y010607D03*
X003778Y007898D03*
X004506Y006753D03*
X003215Y004572D03*
X004152Y003032D03*
X001801Y004635D03*
X006746Y005335D03*
X007551Y004564D03*
X008223Y003879D03*
X008794Y003225D03*
X007731Y003127D03*
X009510Y004564D03*
X010333Y004603D03*
X010927Y003284D03*
X009589Y006233D03*
X008884Y006288D03*
X008278Y006233D03*
X008797Y008013D03*
X009483Y008150D03*
X009372Y008969D03*
X009483Y010942D03*
X010467Y011379D03*
X012652Y010914D03*
X012872Y012107D03*
X014876Y013213D03*
X016884Y013174D03*
X014845Y015623D03*
X014813Y018257D03*
X012057Y014524D03*
X010821Y016083D03*
X009892Y016938D03*
X008880Y015591D03*
X009892Y015127D03*
X006502Y016359D03*
X005900Y015922D03*
X004695Y016713D03*
X005408Y017891D03*
X007384Y018918D03*
X005927Y014469D03*
X005128Y014430D03*
X002892Y014772D03*
X002754Y013623D03*
X001144Y014461D03*
X002431Y019355D03*
X011451Y009052D03*
X012187Y008725D03*
X010959Y006674D03*
X015443Y004918D03*
X016916Y006489D03*
X015597Y008686D03*
X015975Y002847D03*
D28*
X013776Y001300D02*
X013378Y000812D01*
X009849Y000812D01*
X009849Y001302D01*
X009792Y001359D01*
X010077Y001812D02*
X009553Y002335D01*
X009292Y002359D01*
X010077Y001812D02*
X010610Y001812D01*
X012187Y003389D01*
X012187Y004276D01*
X011782Y004276D01*
X011357Y003851D01*
X008223Y003828D01*
X008223Y003879D01*
X008223Y003828D02*
X005666Y003851D01*
X005688Y003833D01*
X005766Y002359D01*
X005713Y002331D02*
X004049Y002249D01*
X003333Y001532D01*
X003317Y002028D02*
X002766Y002028D01*
X002534Y001796D01*
X001420Y001796D01*
X002353Y000863D01*
X003333Y000863D01*
X003384Y000812D01*
X006203Y000812D01*
X009849Y000812D01*
X012187Y003389D02*
X013276Y002300D01*
X012366Y004201D02*
X014628Y006463D01*
X014628Y011607D01*
X012522Y013713D01*
X009270Y013713D01*
X009270Y014560D01*
X009837Y015127D01*
X009892Y015127D01*
X008880Y015591D02*
X008455Y016017D01*
X008455Y016548D01*
X008372Y017135D02*
X008049Y017135D01*
X007908Y016993D01*
X007908Y016024D01*
X008124Y015808D01*
X008124Y015401D01*
X007073Y015401D01*
X006990Y015319D01*
X003914Y015319D01*
X003846Y015319D01*
X003734Y015430D01*
X001815Y015430D01*
X001806Y015421D01*
X001806Y018721D01*
X001919Y018834D01*
X003448Y018834D01*
X003778Y017816D02*
X004542Y017816D01*
X005479Y018753D01*
X005479Y019020D01*
X006426Y018721D02*
X007086Y018061D01*
X007086Y016741D01*
X008372Y017135D02*
X008455Y017217D01*
X008455Y018359D01*
X008471Y018375D01*
X009609Y018375D01*
X010620Y018375D01*
X010620Y019044D02*
X010644Y019068D01*
X011148Y019068D01*
X011557Y018658D01*
X011557Y016769D01*
X010872Y016083D01*
X010821Y016083D01*
X008455Y018359D02*
X008431Y018383D01*
X008431Y019052D02*
X009601Y019052D01*
X009609Y019044D01*
X010620Y019044D01*
X006990Y014628D02*
X006990Y013831D01*
X006904Y013745D01*
X006904Y013076D02*
X007250Y012729D01*
X007707Y012729D01*
X007707Y012218D01*
X007392Y012218D02*
X007392Y011469D01*
X007620Y011241D01*
X007069Y011343D02*
X006727Y011001D01*
X005230Y011001D01*
X004351Y011001D01*
X003742Y011110D01*
X003734Y011118D01*
X003734Y011599D01*
X002947Y012387D01*
X002947Y013111D01*
X002975Y013139D01*
X003853Y013139D01*
X003857Y013143D01*
X003857Y013733D02*
X004353Y013733D01*
X004908Y013178D01*
X004908Y011631D01*
X005230Y011631D01*
X005230Y011316D02*
X004656Y011316D01*
X004290Y011682D01*
X004290Y012552D01*
X003857Y012552D01*
X002947Y013111D02*
X002947Y013139D01*
X002754Y013331D01*
X002754Y013623D01*
X001880Y014253D02*
X004502Y014253D01*
X005408Y013347D01*
X005408Y012628D01*
X005817Y012218D01*
X005817Y011489D01*
X005864Y011489D01*
X005817Y012218D02*
X006132Y012218D01*
X007069Y012210D02*
X007069Y011343D01*
X007069Y012210D02*
X007077Y012218D01*
X008022Y012218D02*
X008053Y012250D01*
X008053Y013127D01*
X008053Y013796D02*
X008112Y013855D01*
X008112Y014442D01*
X009270Y013044D02*
X009616Y012698D01*
X009534Y012131D01*
X009034Y011631D01*
X008610Y011631D01*
X009726Y010141D02*
X009949Y010141D01*
X010443Y010635D01*
X010880Y010635D01*
X011660Y011414D01*
X011660Y012131D01*
X011706Y010141D02*
X011706Y009307D01*
X011451Y009052D01*
X010109Y009099D02*
X010109Y005276D01*
X012187Y005276D01*
X010109Y005276D02*
X007991Y005276D01*
X007746Y005521D01*
X007668Y005568D02*
X007656Y005568D01*
X006912Y004824D01*
X006193Y004824D01*
X006166Y004851D01*
X005658Y004343D01*
X005423Y004343D01*
X005195Y004115D01*
X005195Y002977D01*
X004853Y002635D01*
X003923Y002635D01*
X003317Y002028D01*
X002561Y002976D02*
X001420Y001834D01*
X001420Y001796D01*
X002561Y002976D02*
X002561Y004891D01*
X002947Y005276D01*
X002947Y006066D01*
X005118Y006066D01*
X004506Y006753D02*
X006313Y006753D01*
X006616Y006450D01*
X006616Y006068D01*
X006618Y006066D01*
X006664Y006111D01*
X006618Y006066D02*
X006837Y006092D01*
X006982Y006237D01*
X007668Y006237D01*
X007691Y006261D01*
X007691Y006981D01*
X007683Y006989D01*
X007683Y007658D02*
X007077Y008265D01*
X007077Y008838D01*
X007683Y007658D02*
X008668Y008643D01*
X009372Y008969D01*
X009605Y009603D02*
X009605Y009985D01*
X009605Y009603D02*
X010109Y009099D01*
X008278Y006233D02*
X007691Y006261D01*
X004666Y003851D02*
X004447Y003633D01*
X006213Y001331D02*
X006122Y000893D01*
X006203Y000812D01*
X002947Y006066D02*
X002947Y010887D01*
X003170Y011110D01*
X003742Y011110D01*
X003742Y010419D02*
X003742Y009706D01*
X003746Y009702D01*
X004290Y009221D02*
X004101Y009032D01*
X003746Y009032D01*
X004290Y009221D02*
X004290Y010249D01*
X004404Y010363D01*
X005222Y010363D01*
X005230Y010371D01*
X005230Y010686D02*
X005829Y010686D01*
X005853Y010607D01*
X002947Y010887D02*
X002786Y011048D01*
X001994Y011048D01*
X001994Y010048D02*
X001994Y008182D01*
X002085Y008091D01*
X001489Y007278D02*
X001171Y007438D01*
X001171Y013544D01*
X001880Y014253D01*
X002892Y014772D02*
X003540Y015421D01*
X003786Y015421D01*
X003914Y015319D02*
X003790Y015194D01*
X003790Y016536D01*
X003774Y016552D01*
X003774Y017812D02*
X003778Y017816D01*
X001489Y007278D02*
X001846Y007093D01*
X002085Y007091D01*
D29*
X003766Y010356D02*
X003742Y010419D01*
X005766Y008821D02*
X005817Y008838D01*
X007683Y007658D02*
X007746Y007501D01*
X007668Y005568D02*
X007746Y005521D01*
X005766Y003541D02*
X005766Y002359D01*
X005766Y002221D01*
X005713Y002331D01*
X012187Y004276D02*
X012366Y004201D01*
X011731Y009985D02*
X011706Y010141D01*
X009726Y010141D02*
X009605Y009985D01*
X005766Y012121D02*
X005817Y012218D01*
X003786Y015421D02*
X003734Y015430D01*
X003126Y015421D01*
X001806Y015421D02*
X001412Y015430D01*
X001806Y018721D02*
X001412Y018934D01*
X003126Y018721D02*
X003448Y018834D01*
X003734Y018934D01*
X006426Y018721D02*
X006581Y019020D01*
D30*
X006118Y008006D02*
X005618Y008006D01*
D31*
X007086Y016741D03*
M02*
