%
M48
M72
T01C0.0118
T02C0.0236
T03C0.0320
T04C0.0354
T05C0.0400
T06C0.1260
%
T01
X7086Y18371
T02
X1801Y6265
X3215Y6202
X4152Y4663
X6746Y6966
X7551Y6194
X8223Y5509
X8794Y4856
X7731Y4757
X9510Y6194
X10333Y6234
X10927Y4915
X9589Y7863
X8884Y7919
X8278Y7863
X8797Y9643
X9483Y9781
X9372Y10600
X9483Y12572
X10467Y13009
X12652Y12545
X12872Y13737
X14876Y15056
X16884Y14804
X14845Y17253
X12057Y16155
X10821Y17714
X9892Y18568
X8880Y17222
X9892Y16757
X6502Y17989
X5900Y17552
X4695Y18344
X5408Y19521
X7384Y20549
X5927Y16100
X5128Y16060
X2892Y16403
X2754Y15253
X1144Y16092
X2431Y20986
X5864Y13119
X6502Y13119
X5853Y12237
X7620Y12324
X7620Y12871
X7569Y11749
X7569Y11202
X4506Y8383
X3778Y9529
X10959Y8304
X12187Y10356
X11451Y10682
X15597Y10316
X16916Y8119
X15443Y6549
X15975Y4478
X14813Y19887
T03
X5166Y6482
X5666Y5482
X6166Y6482
X4666Y5482
X5713Y3962
X6713Y3962
X6213Y2962
X5213Y2962
X8792Y2989
X9292Y3989
X9792Y2989
X10292Y3989
X12776Y2930
X13276Y3930
X14276Y3930
X13776Y2930
T04
X2593Y19678
X2593Y17946
T05
X1420Y3426
X1420Y4426
X2085Y7722
X2085Y8722
X2085Y9722
X1994Y11678
X1994Y12678
X1994Y13678
X1994Y14678
X12187Y8907
X12187Y7907
X12187Y6907
X12187Y5907
T06
X13085Y17619
X13085Y19982
X17022Y19982
X17022Y17619
X17022Y11714
X17022Y5808
X17022Y3446
M30
