G75*
%MOIN*%
%OFA0B0*%
%FSLAX24Y24*%
%IPPOS*%
%LPD*%
%AMOC8*
5,1,8,0,0,1.08239X$1,22.5*
%
%ADD10C,0.0000*%
%ADD11C,0.0520*%
%ADD12R,0.0600X0.0600*%
%ADD13C,0.0600*%
%ADD14C,0.0356*%
%ADD15C,0.0118*%
%ADD16C,0.0197*%
%ADD17C,0.0079*%
%ADD18C,0.0238*%
D10*
X000486Y001871D02*
X000486Y021556D01*
X018203Y021556D01*
X018203Y001871D01*
X000486Y001871D01*
X012455Y017619D02*
X012457Y017669D01*
X012463Y017719D01*
X012473Y017768D01*
X012487Y017816D01*
X012504Y017863D01*
X012525Y017908D01*
X012550Y017952D01*
X012578Y017993D01*
X012610Y018032D01*
X012644Y018069D01*
X012681Y018103D01*
X012721Y018133D01*
X012763Y018160D01*
X012807Y018184D01*
X012853Y018205D01*
X012900Y018221D01*
X012948Y018234D01*
X012998Y018243D01*
X013047Y018248D01*
X013098Y018249D01*
X013148Y018246D01*
X013197Y018239D01*
X013246Y018228D01*
X013294Y018213D01*
X013340Y018195D01*
X013385Y018173D01*
X013428Y018147D01*
X013469Y018118D01*
X013508Y018086D01*
X013544Y018051D01*
X013576Y018013D01*
X013606Y017973D01*
X013633Y017930D01*
X013656Y017886D01*
X013675Y017840D01*
X013691Y017792D01*
X013703Y017743D01*
X013711Y017694D01*
X013715Y017644D01*
X013715Y017594D01*
X013711Y017544D01*
X013703Y017495D01*
X013691Y017446D01*
X013675Y017398D01*
X013656Y017352D01*
X013633Y017308D01*
X013606Y017265D01*
X013576Y017225D01*
X013544Y017187D01*
X013508Y017152D01*
X013469Y017120D01*
X013428Y017091D01*
X013385Y017065D01*
X013340Y017043D01*
X013294Y017025D01*
X013246Y017010D01*
X013197Y016999D01*
X013148Y016992D01*
X013098Y016989D01*
X013047Y016990D01*
X012998Y016995D01*
X012948Y017004D01*
X012900Y017017D01*
X012853Y017033D01*
X012807Y017054D01*
X012763Y017078D01*
X012721Y017105D01*
X012681Y017135D01*
X012644Y017169D01*
X012610Y017206D01*
X012578Y017245D01*
X012550Y017286D01*
X012525Y017330D01*
X012504Y017375D01*
X012487Y017422D01*
X012473Y017470D01*
X012463Y017519D01*
X012457Y017569D01*
X012455Y017619D01*
X012455Y019982D02*
X012457Y020032D01*
X012463Y020082D01*
X012473Y020131D01*
X012487Y020179D01*
X012504Y020226D01*
X012525Y020271D01*
X012550Y020315D01*
X012578Y020356D01*
X012610Y020395D01*
X012644Y020432D01*
X012681Y020466D01*
X012721Y020496D01*
X012763Y020523D01*
X012807Y020547D01*
X012853Y020568D01*
X012900Y020584D01*
X012948Y020597D01*
X012998Y020606D01*
X013047Y020611D01*
X013098Y020612D01*
X013148Y020609D01*
X013197Y020602D01*
X013246Y020591D01*
X013294Y020576D01*
X013340Y020558D01*
X013385Y020536D01*
X013428Y020510D01*
X013469Y020481D01*
X013508Y020449D01*
X013544Y020414D01*
X013576Y020376D01*
X013606Y020336D01*
X013633Y020293D01*
X013656Y020249D01*
X013675Y020203D01*
X013691Y020155D01*
X013703Y020106D01*
X013711Y020057D01*
X013715Y020007D01*
X013715Y019957D01*
X013711Y019907D01*
X013703Y019858D01*
X013691Y019809D01*
X013675Y019761D01*
X013656Y019715D01*
X013633Y019671D01*
X013606Y019628D01*
X013576Y019588D01*
X013544Y019550D01*
X013508Y019515D01*
X013469Y019483D01*
X013428Y019454D01*
X013385Y019428D01*
X013340Y019406D01*
X013294Y019388D01*
X013246Y019373D01*
X013197Y019362D01*
X013148Y019355D01*
X013098Y019352D01*
X013047Y019353D01*
X012998Y019358D01*
X012948Y019367D01*
X012900Y019380D01*
X012853Y019396D01*
X012807Y019417D01*
X012763Y019441D01*
X012721Y019468D01*
X012681Y019498D01*
X012644Y019532D01*
X012610Y019569D01*
X012578Y019608D01*
X012550Y019649D01*
X012525Y019693D01*
X012504Y019738D01*
X012487Y019785D01*
X012473Y019833D01*
X012463Y019882D01*
X012457Y019932D01*
X012455Y019982D01*
X016392Y019982D02*
X016394Y020032D01*
X016400Y020082D01*
X016410Y020131D01*
X016424Y020179D01*
X016441Y020226D01*
X016462Y020271D01*
X016487Y020315D01*
X016515Y020356D01*
X016547Y020395D01*
X016581Y020432D01*
X016618Y020466D01*
X016658Y020496D01*
X016700Y020523D01*
X016744Y020547D01*
X016790Y020568D01*
X016837Y020584D01*
X016885Y020597D01*
X016935Y020606D01*
X016984Y020611D01*
X017035Y020612D01*
X017085Y020609D01*
X017134Y020602D01*
X017183Y020591D01*
X017231Y020576D01*
X017277Y020558D01*
X017322Y020536D01*
X017365Y020510D01*
X017406Y020481D01*
X017445Y020449D01*
X017481Y020414D01*
X017513Y020376D01*
X017543Y020336D01*
X017570Y020293D01*
X017593Y020249D01*
X017612Y020203D01*
X017628Y020155D01*
X017640Y020106D01*
X017648Y020057D01*
X017652Y020007D01*
X017652Y019957D01*
X017648Y019907D01*
X017640Y019858D01*
X017628Y019809D01*
X017612Y019761D01*
X017593Y019715D01*
X017570Y019671D01*
X017543Y019628D01*
X017513Y019588D01*
X017481Y019550D01*
X017445Y019515D01*
X017406Y019483D01*
X017365Y019454D01*
X017322Y019428D01*
X017277Y019406D01*
X017231Y019388D01*
X017183Y019373D01*
X017134Y019362D01*
X017085Y019355D01*
X017035Y019352D01*
X016984Y019353D01*
X016935Y019358D01*
X016885Y019367D01*
X016837Y019380D01*
X016790Y019396D01*
X016744Y019417D01*
X016700Y019441D01*
X016658Y019468D01*
X016618Y019498D01*
X016581Y019532D01*
X016547Y019569D01*
X016515Y019608D01*
X016487Y019649D01*
X016462Y019693D01*
X016441Y019738D01*
X016424Y019785D01*
X016410Y019833D01*
X016400Y019882D01*
X016394Y019932D01*
X016392Y019982D01*
X016392Y017619D02*
X016394Y017669D01*
X016400Y017719D01*
X016410Y017768D01*
X016424Y017816D01*
X016441Y017863D01*
X016462Y017908D01*
X016487Y017952D01*
X016515Y017993D01*
X016547Y018032D01*
X016581Y018069D01*
X016618Y018103D01*
X016658Y018133D01*
X016700Y018160D01*
X016744Y018184D01*
X016790Y018205D01*
X016837Y018221D01*
X016885Y018234D01*
X016935Y018243D01*
X016984Y018248D01*
X017035Y018249D01*
X017085Y018246D01*
X017134Y018239D01*
X017183Y018228D01*
X017231Y018213D01*
X017277Y018195D01*
X017322Y018173D01*
X017365Y018147D01*
X017406Y018118D01*
X017445Y018086D01*
X017481Y018051D01*
X017513Y018013D01*
X017543Y017973D01*
X017570Y017930D01*
X017593Y017886D01*
X017612Y017840D01*
X017628Y017792D01*
X017640Y017743D01*
X017648Y017694D01*
X017652Y017644D01*
X017652Y017594D01*
X017648Y017544D01*
X017640Y017495D01*
X017628Y017446D01*
X017612Y017398D01*
X017593Y017352D01*
X017570Y017308D01*
X017543Y017265D01*
X017513Y017225D01*
X017481Y017187D01*
X017445Y017152D01*
X017406Y017120D01*
X017365Y017091D01*
X017322Y017065D01*
X017277Y017043D01*
X017231Y017025D01*
X017183Y017010D01*
X017134Y016999D01*
X017085Y016992D01*
X017035Y016989D01*
X016984Y016990D01*
X016935Y016995D01*
X016885Y017004D01*
X016837Y017017D01*
X016790Y017033D01*
X016744Y017054D01*
X016700Y017078D01*
X016658Y017105D01*
X016618Y017135D01*
X016581Y017169D01*
X016547Y017206D01*
X016515Y017245D01*
X016487Y017286D01*
X016462Y017330D01*
X016441Y017375D01*
X016424Y017422D01*
X016410Y017470D01*
X016400Y017519D01*
X016394Y017569D01*
X016392Y017619D01*
X016392Y011714D02*
X016394Y011764D01*
X016400Y011814D01*
X016410Y011863D01*
X016424Y011911D01*
X016441Y011958D01*
X016462Y012003D01*
X016487Y012047D01*
X016515Y012088D01*
X016547Y012127D01*
X016581Y012164D01*
X016618Y012198D01*
X016658Y012228D01*
X016700Y012255D01*
X016744Y012279D01*
X016790Y012300D01*
X016837Y012316D01*
X016885Y012329D01*
X016935Y012338D01*
X016984Y012343D01*
X017035Y012344D01*
X017085Y012341D01*
X017134Y012334D01*
X017183Y012323D01*
X017231Y012308D01*
X017277Y012290D01*
X017322Y012268D01*
X017365Y012242D01*
X017406Y012213D01*
X017445Y012181D01*
X017481Y012146D01*
X017513Y012108D01*
X017543Y012068D01*
X017570Y012025D01*
X017593Y011981D01*
X017612Y011935D01*
X017628Y011887D01*
X017640Y011838D01*
X017648Y011789D01*
X017652Y011739D01*
X017652Y011689D01*
X017648Y011639D01*
X017640Y011590D01*
X017628Y011541D01*
X017612Y011493D01*
X017593Y011447D01*
X017570Y011403D01*
X017543Y011360D01*
X017513Y011320D01*
X017481Y011282D01*
X017445Y011247D01*
X017406Y011215D01*
X017365Y011186D01*
X017322Y011160D01*
X017277Y011138D01*
X017231Y011120D01*
X017183Y011105D01*
X017134Y011094D01*
X017085Y011087D01*
X017035Y011084D01*
X016984Y011085D01*
X016935Y011090D01*
X016885Y011099D01*
X016837Y011112D01*
X016790Y011128D01*
X016744Y011149D01*
X016700Y011173D01*
X016658Y011200D01*
X016618Y011230D01*
X016581Y011264D01*
X016547Y011301D01*
X016515Y011340D01*
X016487Y011381D01*
X016462Y011425D01*
X016441Y011470D01*
X016424Y011517D01*
X016410Y011565D01*
X016400Y011614D01*
X016394Y011664D01*
X016392Y011714D01*
X016392Y005808D02*
X016394Y005858D01*
X016400Y005908D01*
X016410Y005957D01*
X016424Y006005D01*
X016441Y006052D01*
X016462Y006097D01*
X016487Y006141D01*
X016515Y006182D01*
X016547Y006221D01*
X016581Y006258D01*
X016618Y006292D01*
X016658Y006322D01*
X016700Y006349D01*
X016744Y006373D01*
X016790Y006394D01*
X016837Y006410D01*
X016885Y006423D01*
X016935Y006432D01*
X016984Y006437D01*
X017035Y006438D01*
X017085Y006435D01*
X017134Y006428D01*
X017183Y006417D01*
X017231Y006402D01*
X017277Y006384D01*
X017322Y006362D01*
X017365Y006336D01*
X017406Y006307D01*
X017445Y006275D01*
X017481Y006240D01*
X017513Y006202D01*
X017543Y006162D01*
X017570Y006119D01*
X017593Y006075D01*
X017612Y006029D01*
X017628Y005981D01*
X017640Y005932D01*
X017648Y005883D01*
X017652Y005833D01*
X017652Y005783D01*
X017648Y005733D01*
X017640Y005684D01*
X017628Y005635D01*
X017612Y005587D01*
X017593Y005541D01*
X017570Y005497D01*
X017543Y005454D01*
X017513Y005414D01*
X017481Y005376D01*
X017445Y005341D01*
X017406Y005309D01*
X017365Y005280D01*
X017322Y005254D01*
X017277Y005232D01*
X017231Y005214D01*
X017183Y005199D01*
X017134Y005188D01*
X017085Y005181D01*
X017035Y005178D01*
X016984Y005179D01*
X016935Y005184D01*
X016885Y005193D01*
X016837Y005206D01*
X016790Y005222D01*
X016744Y005243D01*
X016700Y005267D01*
X016658Y005294D01*
X016618Y005324D01*
X016581Y005358D01*
X016547Y005395D01*
X016515Y005434D01*
X016487Y005475D01*
X016462Y005519D01*
X016441Y005564D01*
X016424Y005611D01*
X016410Y005659D01*
X016400Y005708D01*
X016394Y005758D01*
X016392Y005808D01*
X016392Y003446D02*
X016394Y003496D01*
X016400Y003546D01*
X016410Y003595D01*
X016424Y003643D01*
X016441Y003690D01*
X016462Y003735D01*
X016487Y003779D01*
X016515Y003820D01*
X016547Y003859D01*
X016581Y003896D01*
X016618Y003930D01*
X016658Y003960D01*
X016700Y003987D01*
X016744Y004011D01*
X016790Y004032D01*
X016837Y004048D01*
X016885Y004061D01*
X016935Y004070D01*
X016984Y004075D01*
X017035Y004076D01*
X017085Y004073D01*
X017134Y004066D01*
X017183Y004055D01*
X017231Y004040D01*
X017277Y004022D01*
X017322Y004000D01*
X017365Y003974D01*
X017406Y003945D01*
X017445Y003913D01*
X017481Y003878D01*
X017513Y003840D01*
X017543Y003800D01*
X017570Y003757D01*
X017593Y003713D01*
X017612Y003667D01*
X017628Y003619D01*
X017640Y003570D01*
X017648Y003521D01*
X017652Y003471D01*
X017652Y003421D01*
X017648Y003371D01*
X017640Y003322D01*
X017628Y003273D01*
X017612Y003225D01*
X017593Y003179D01*
X017570Y003135D01*
X017543Y003092D01*
X017513Y003052D01*
X017481Y003014D01*
X017445Y002979D01*
X017406Y002947D01*
X017365Y002918D01*
X017322Y002892D01*
X017277Y002870D01*
X017231Y002852D01*
X017183Y002837D01*
X017134Y002826D01*
X017085Y002819D01*
X017035Y002816D01*
X016984Y002817D01*
X016935Y002822D01*
X016885Y002831D01*
X016837Y002844D01*
X016790Y002860D01*
X016744Y002881D01*
X016700Y002905D01*
X016658Y002932D01*
X016618Y002962D01*
X016581Y002996D01*
X016547Y003033D01*
X016515Y003072D01*
X016487Y003113D01*
X016462Y003157D01*
X016441Y003202D01*
X016424Y003249D01*
X016410Y003297D01*
X016400Y003346D01*
X016394Y003396D01*
X016392Y003446D01*
X002416Y017946D02*
X002418Y017972D01*
X002424Y017998D01*
X002434Y018023D01*
X002447Y018046D01*
X002463Y018066D01*
X002483Y018084D01*
X002505Y018099D01*
X002528Y018111D01*
X002554Y018119D01*
X002580Y018123D01*
X002606Y018123D01*
X002632Y018119D01*
X002658Y018111D01*
X002682Y018099D01*
X002703Y018084D01*
X002723Y018066D01*
X002739Y018046D01*
X002752Y018023D01*
X002762Y017998D01*
X002768Y017972D01*
X002770Y017946D01*
X002768Y017920D01*
X002762Y017894D01*
X002752Y017869D01*
X002739Y017846D01*
X002723Y017826D01*
X002703Y017808D01*
X002681Y017793D01*
X002658Y017781D01*
X002632Y017773D01*
X002606Y017769D01*
X002580Y017769D01*
X002554Y017773D01*
X002528Y017781D01*
X002504Y017793D01*
X002483Y017808D01*
X002463Y017826D01*
X002447Y017846D01*
X002434Y017869D01*
X002424Y017894D01*
X002418Y017920D01*
X002416Y017946D01*
X002416Y019678D02*
X002418Y019704D01*
X002424Y019730D01*
X002434Y019755D01*
X002447Y019778D01*
X002463Y019798D01*
X002483Y019816D01*
X002505Y019831D01*
X002528Y019843D01*
X002554Y019851D01*
X002580Y019855D01*
X002606Y019855D01*
X002632Y019851D01*
X002658Y019843D01*
X002682Y019831D01*
X002703Y019816D01*
X002723Y019798D01*
X002739Y019778D01*
X002752Y019755D01*
X002762Y019730D01*
X002768Y019704D01*
X002770Y019678D01*
X002768Y019652D01*
X002762Y019626D01*
X002752Y019601D01*
X002739Y019578D01*
X002723Y019558D01*
X002703Y019540D01*
X002681Y019525D01*
X002658Y019513D01*
X002632Y019505D01*
X002606Y019501D01*
X002580Y019501D01*
X002554Y019505D01*
X002528Y019513D01*
X002504Y019525D01*
X002483Y019540D01*
X002463Y019558D01*
X002447Y019578D01*
X002434Y019601D01*
X002424Y019626D01*
X002418Y019652D01*
X002416Y019678D01*
D11*
X005166Y006482D03*
X005666Y005482D03*
X006166Y006482D03*
X004666Y005482D03*
X005713Y003962D03*
X006713Y003962D03*
X006213Y002962D03*
X005213Y002962D03*
X008792Y002989D03*
X009292Y003989D03*
X009792Y002989D03*
X010292Y003989D03*
X012776Y002930D03*
X013276Y003930D03*
X014276Y003930D03*
X013776Y002930D03*
D12*
X001420Y003426D03*
X001420Y004426D03*
D13*
X001785Y007722D02*
X002385Y007722D01*
X002385Y008722D02*
X001785Y008722D01*
X001785Y009722D02*
X002385Y009722D01*
X002294Y011678D02*
X001694Y011678D01*
X001694Y012678D02*
X002294Y012678D01*
X002294Y013678D02*
X001694Y013678D01*
X001694Y014678D02*
X002294Y014678D01*
X011887Y008907D02*
X012487Y008907D01*
X012487Y007907D02*
X011887Y007907D01*
X011887Y006907D02*
X012487Y006907D01*
X012487Y005907D02*
X011887Y005907D01*
D14*
X010927Y004915D03*
X010333Y006234D03*
X009510Y006194D03*
X008794Y004856D03*
X008223Y005509D03*
X007551Y006194D03*
X006746Y006966D03*
X008278Y007863D03*
X008884Y007919D03*
X009589Y007863D03*
X010959Y008304D03*
X009483Y009781D03*
X008797Y009643D03*
X009372Y010600D03*
X009483Y012572D03*
X010467Y013009D03*
X012652Y012545D03*
X012872Y013737D03*
X014876Y015056D03*
X016884Y014804D03*
X014845Y017253D03*
X014813Y019887D03*
X012057Y016155D03*
X010821Y017714D03*
X009892Y018568D03*
X008880Y017222D03*
X009892Y016757D03*
X006502Y017989D03*
X005900Y017552D03*
X004695Y018344D03*
X005408Y019521D03*
X007384Y020549D03*
X005927Y016100D03*
X005128Y016060D03*
X002892Y016403D03*
X002754Y015253D03*
X001144Y016092D03*
X002431Y020986D03*
X005864Y013119D03*
X006502Y013119D03*
X005853Y012237D03*
X007620Y012324D03*
X007620Y012871D03*
X007569Y011749D03*
X007569Y011202D03*
X004506Y008383D03*
X003778Y009529D03*
X003215Y006202D03*
X004152Y004663D03*
X001801Y006265D03*
X007731Y004757D03*
X012187Y010356D03*
X011451Y010682D03*
X015597Y010316D03*
X016916Y008119D03*
X015443Y006549D03*
X015975Y004478D03*
D15*
X016291Y004437D02*
X018044Y004437D01*
X018044Y004553D02*
X016285Y004553D01*
X016291Y004540D02*
X016242Y004657D01*
X016154Y004745D01*
X016037Y004794D01*
X015912Y004794D01*
X015796Y004745D01*
X015707Y004657D01*
X015659Y004540D01*
X015659Y004415D01*
X015707Y004299D01*
X015796Y004210D01*
X015912Y004162D01*
X016037Y004162D01*
X016154Y004210D01*
X016242Y004299D01*
X016291Y004415D01*
X016291Y004540D01*
X016229Y004670D02*
X018044Y004670D01*
X018044Y004787D02*
X016054Y004787D01*
X015895Y004787D02*
X014473Y004787D01*
X014473Y004903D02*
X018044Y004903D01*
X018044Y005020D02*
X017180Y005020D01*
X017179Y005019D02*
X017469Y005140D01*
X017691Y005361D01*
X017811Y005651D01*
X017811Y005965D01*
X017691Y006255D01*
X017469Y006477D01*
X017179Y006597D01*
X016865Y006597D01*
X016575Y006477D01*
X016353Y006255D01*
X016233Y005965D01*
X016233Y005651D01*
X016353Y005361D01*
X016575Y005140D01*
X016865Y005019D01*
X017179Y005019D01*
X017461Y005136D02*
X018044Y005136D01*
X018044Y005253D02*
X017582Y005253D01*
X017694Y005370D02*
X018044Y005370D01*
X018044Y005486D02*
X017742Y005486D01*
X017791Y005603D02*
X018044Y005603D01*
X018044Y005720D02*
X017811Y005720D01*
X017811Y005836D02*
X018044Y005836D01*
X018044Y005953D02*
X017811Y005953D01*
X017768Y006069D02*
X018044Y006069D01*
X018044Y006186D02*
X017719Y006186D01*
X017643Y006303D02*
X018044Y006303D01*
X018044Y006419D02*
X017527Y006419D01*
X017327Y006536D02*
X018044Y006536D01*
X018044Y006652D02*
X015742Y006652D01*
X015759Y006611D02*
X015711Y006727D01*
X015622Y006816D01*
X015506Y006864D01*
X015380Y006864D01*
X015264Y006816D01*
X015175Y006727D01*
X015127Y006611D01*
X015127Y006486D01*
X015175Y006370D01*
X015264Y006281D01*
X015380Y006233D01*
X015506Y006233D01*
X015622Y006281D01*
X015711Y006370D01*
X015759Y006486D01*
X015759Y006611D01*
X015759Y006536D02*
X016716Y006536D01*
X016517Y006419D02*
X015732Y006419D01*
X015644Y006303D02*
X016400Y006303D01*
X016324Y006186D02*
X014473Y006186D01*
X014473Y006303D02*
X015242Y006303D01*
X015155Y006419D02*
X014473Y006419D01*
X014473Y006536D02*
X015127Y006536D01*
X015144Y006652D02*
X014473Y006652D01*
X014473Y006769D02*
X015217Y006769D01*
X015669Y006769D02*
X018044Y006769D01*
X018044Y006886D02*
X014473Y006886D01*
X014473Y007002D02*
X018044Y007002D01*
X018044Y007119D02*
X014473Y007119D01*
X014473Y007235D02*
X018044Y007235D01*
X018044Y007352D02*
X014473Y007352D01*
X014473Y007469D02*
X018044Y007469D01*
X018044Y007585D02*
X014473Y007585D01*
X014473Y007702D02*
X018044Y007702D01*
X018044Y007818D02*
X017015Y007818D01*
X016978Y007803D02*
X017095Y007852D01*
X017183Y007940D01*
X017231Y008057D01*
X017231Y008182D01*
X017183Y008298D01*
X017095Y008387D01*
X016978Y008435D01*
X016853Y008435D01*
X016737Y008387D01*
X016648Y008298D01*
X016600Y008182D01*
X016600Y008057D01*
X016648Y007940D01*
X016737Y007852D01*
X016853Y007803D01*
X016978Y007803D01*
X016817Y007818D02*
X014473Y007818D01*
X014473Y007935D02*
X016653Y007935D01*
X016602Y008052D02*
X014473Y008052D01*
X014473Y008168D02*
X016600Y008168D01*
X016642Y008285D02*
X014473Y008285D01*
X014473Y008402D02*
X016771Y008402D01*
X017060Y008402D02*
X018044Y008402D01*
X018044Y008518D02*
X014413Y008518D01*
X014473Y008459D02*
X013014Y009917D01*
X012899Y010033D01*
X010932Y010033D01*
X009562Y008663D01*
X008308Y008663D01*
X007766Y009205D01*
X007766Y010952D01*
X007837Y011023D01*
X007885Y011139D01*
X007885Y011148D01*
X007893Y011140D01*
X007943Y010290D01*
X007947Y010210D01*
X007948Y010209D01*
X007948Y010207D01*
X008008Y010154D01*
X008486Y009717D01*
X008482Y009706D01*
X008482Y009580D01*
X008530Y009464D01*
X008619Y009375D01*
X008735Y009327D01*
X008860Y009327D01*
X008976Y009375D01*
X009065Y009464D01*
X009113Y009580D01*
X009113Y009706D01*
X009065Y009822D01*
X008976Y009911D01*
X008860Y009959D01*
X008806Y009959D01*
X008332Y010392D01*
X008282Y011231D01*
X008282Y011306D01*
X008277Y011311D01*
X008277Y011319D01*
X008220Y011369D01*
X007885Y011709D01*
X007885Y011812D01*
X007837Y011928D01*
X007748Y012017D01*
X007726Y012026D01*
X007799Y012056D01*
X007870Y012127D01*
X008007Y012127D01*
X008490Y011644D01*
X008490Y010408D01*
X008606Y010293D01*
X009167Y009732D01*
X009167Y009718D01*
X009215Y009602D01*
X009304Y009513D01*
X009420Y009465D01*
X009545Y009465D01*
X009661Y009513D01*
X009750Y009602D01*
X009798Y009718D01*
X009798Y009844D01*
X009750Y009960D01*
X009661Y010049D01*
X009545Y010097D01*
X009420Y010097D01*
X009376Y010079D01*
X008884Y010571D01*
X008884Y011807D01*
X008286Y012406D01*
X008170Y012521D01*
X007870Y012521D01*
X007799Y012592D01*
X007785Y012598D01*
X007799Y012604D01*
X007888Y012692D01*
X007936Y012809D01*
X007936Y012853D01*
X009116Y014033D01*
X009116Y017011D01*
X009148Y017043D01*
X009196Y017159D01*
X009196Y017285D01*
X009148Y017401D01*
X009059Y017490D01*
X008943Y017538D01*
X008817Y017538D01*
X008701Y017490D01*
X008612Y017401D01*
X008564Y017285D01*
X008564Y017159D01*
X008612Y017043D01*
X008644Y017011D01*
X008644Y014229D01*
X007602Y013187D01*
X007557Y013187D01*
X007441Y013139D01*
X007353Y013050D01*
X007323Y012978D01*
X007323Y018270D01*
X007343Y018320D01*
X007343Y018422D01*
X007304Y018517D01*
X007232Y018589D01*
X007138Y018628D01*
X007035Y018628D01*
X006941Y018589D01*
X006869Y018517D01*
X006830Y018422D01*
X006830Y018320D01*
X006850Y018270D01*
X006850Y008640D01*
X006790Y008579D01*
X006790Y008532D01*
X006291Y008033D01*
X002678Y008048D01*
X002633Y008093D01*
X002472Y008160D01*
X001698Y008160D01*
X001537Y008093D01*
X001414Y007970D01*
X001347Y007809D01*
X001347Y007635D01*
X001414Y007474D01*
X001537Y007351D01*
X001698Y007284D01*
X002472Y007284D01*
X002633Y007351D01*
X002756Y007474D01*
X002798Y007575D01*
X006290Y007561D01*
X006290Y007560D01*
X006387Y007560D01*
X006485Y007560D01*
X006485Y007560D01*
X006486Y007560D01*
X006555Y007629D01*
X006624Y007698D01*
X006624Y007698D01*
X007124Y008198D01*
X007262Y008337D01*
X007262Y008384D01*
X007323Y008444D01*
X007323Y011002D01*
X007372Y010952D01*
X007372Y009042D01*
X007488Y008926D01*
X008145Y008269D01*
X009725Y008269D01*
X009841Y008384D01*
X011096Y009639D01*
X012736Y009639D01*
X014079Y008296D01*
X014079Y004279D01*
X014050Y004268D01*
X013939Y004156D01*
X013878Y004010D01*
X013878Y003851D01*
X013939Y003705D01*
X014050Y003593D01*
X014197Y003533D01*
X014355Y003533D01*
X014501Y003593D01*
X014613Y003705D01*
X014674Y003851D01*
X014674Y004010D01*
X014613Y004156D01*
X014501Y004268D01*
X014473Y004279D01*
X014473Y008459D01*
X014276Y008377D02*
X012817Y009836D01*
X011014Y009836D01*
X009644Y008466D01*
X008227Y008466D01*
X007569Y009123D01*
X007569Y011202D01*
X007862Y011084D02*
X007896Y011084D01*
X007903Y010967D02*
X007781Y010967D01*
X007766Y010850D02*
X007910Y010850D01*
X007917Y010734D02*
X007766Y010734D01*
X007766Y010617D02*
X007924Y010617D01*
X007931Y010501D02*
X007766Y010501D01*
X007766Y010384D02*
X007938Y010384D01*
X007944Y010267D02*
X007766Y010267D01*
X007766Y010151D02*
X008012Y010151D01*
X008140Y010034D02*
X007766Y010034D01*
X007766Y009917D02*
X008267Y009917D01*
X008395Y009801D02*
X007766Y009801D01*
X007766Y009684D02*
X008482Y009684D01*
X008487Y009568D02*
X007766Y009568D01*
X007766Y009451D02*
X008543Y009451D01*
X008717Y009334D02*
X007766Y009334D01*
X007766Y009218D02*
X010118Y009218D01*
X010234Y009334D02*
X008878Y009334D01*
X009052Y009451D02*
X010351Y009451D01*
X010467Y009568D02*
X009716Y009568D01*
X009784Y009684D02*
X010584Y009684D01*
X010701Y009801D02*
X009798Y009801D01*
X009768Y009917D02*
X010817Y009917D01*
X011024Y009568D02*
X012807Y009568D01*
X012924Y009451D02*
X010908Y009451D01*
X010791Y009334D02*
X011776Y009334D01*
X011800Y009345D02*
X011639Y009278D01*
X011516Y009155D01*
X011449Y008994D01*
X011449Y008820D01*
X011516Y008659D01*
X011639Y008536D01*
X011800Y008469D01*
X012574Y008469D01*
X012735Y008536D01*
X012858Y008659D01*
X012925Y008820D01*
X012925Y008994D01*
X012858Y009155D01*
X012735Y009278D01*
X012574Y009345D01*
X011800Y009345D01*
X011579Y009218D02*
X010674Y009218D01*
X010558Y009101D02*
X011494Y009101D01*
X011449Y008985D02*
X010441Y008985D01*
X010324Y008868D02*
X011449Y008868D01*
X011478Y008751D02*
X010208Y008751D01*
X010091Y008635D02*
X011540Y008635D01*
X011681Y008518D02*
X011192Y008518D01*
X011227Y008483D02*
X011138Y008572D01*
X011022Y008620D01*
X010896Y008620D01*
X010780Y008572D01*
X010691Y008483D01*
X010643Y008367D01*
X010643Y008242D01*
X010691Y008125D01*
X010780Y008037D01*
X010896Y007989D01*
X011022Y007989D01*
X011138Y008037D01*
X011227Y008125D01*
X011275Y008242D01*
X011275Y008367D01*
X011227Y008483D01*
X011261Y008402D02*
X013973Y008402D01*
X014079Y008285D02*
X012718Y008285D01*
X012735Y008278D02*
X012574Y008345D01*
X011800Y008345D01*
X011639Y008278D01*
X011516Y008155D01*
X011449Y007994D01*
X011449Y007820D01*
X011516Y007659D01*
X011639Y007536D01*
X011800Y007469D01*
X012574Y007469D01*
X012735Y007536D01*
X012858Y007659D01*
X012925Y007820D01*
X012925Y007994D01*
X012858Y008155D01*
X012735Y008278D01*
X012845Y008168D02*
X014079Y008168D01*
X014079Y008052D02*
X012901Y008052D01*
X012925Y007935D02*
X014079Y007935D01*
X014079Y007818D02*
X012925Y007818D01*
X012876Y007702D02*
X014079Y007702D01*
X014079Y007585D02*
X012785Y007585D01*
X012655Y007313D02*
X012590Y007334D01*
X012522Y007345D01*
X012228Y007345D01*
X012228Y006948D01*
X012146Y006948D01*
X012146Y007345D01*
X011853Y007345D01*
X011785Y007334D01*
X011719Y007313D01*
X011658Y007281D01*
X011602Y007241D01*
X011553Y007192D01*
X011513Y007136D01*
X011482Y007075D01*
X011460Y007009D01*
X011450Y006948D01*
X012146Y006948D01*
X012146Y006866D01*
X011450Y006866D01*
X011460Y006804D01*
X011482Y006739D01*
X011513Y006677D01*
X011553Y006622D01*
X011602Y006573D01*
X011658Y006532D01*
X011719Y006501D01*
X011785Y006480D01*
X011853Y006469D01*
X012146Y006469D01*
X012146Y006866D01*
X012228Y006866D01*
X012228Y006469D01*
X012522Y006469D01*
X012590Y006480D01*
X012655Y006501D01*
X012717Y006532D01*
X012772Y006573D01*
X012821Y006622D01*
X012862Y006677D01*
X012893Y006739D01*
X012914Y006804D01*
X012924Y006866D01*
X012228Y006866D01*
X012228Y006948D01*
X012924Y006948D01*
X012914Y007009D01*
X012893Y007075D01*
X012862Y007136D01*
X012821Y007192D01*
X012772Y007241D01*
X012717Y007281D01*
X012655Y007313D01*
X012778Y007235D02*
X014079Y007235D01*
X014079Y007119D02*
X012871Y007119D01*
X012915Y007002D02*
X014079Y007002D01*
X014079Y006886D02*
X012228Y006886D01*
X012146Y006886D02*
X009707Y006886D01*
X009707Y007002D02*
X011459Y007002D01*
X011504Y007119D02*
X009707Y007119D01*
X009707Y007235D02*
X011597Y007235D01*
X011590Y007585D02*
X009743Y007585D01*
X009768Y007596D02*
X009857Y007685D01*
X009905Y007801D01*
X009905Y007926D01*
X009857Y008042D01*
X009768Y008131D01*
X009652Y008179D01*
X009526Y008179D01*
X009410Y008131D01*
X009321Y008042D01*
X009273Y007926D01*
X009273Y007801D01*
X009313Y007703D01*
X009313Y006444D01*
X009242Y006373D01*
X009194Y006257D01*
X009194Y006131D01*
X009242Y006015D01*
X009331Y005926D01*
X009447Y005878D01*
X009573Y005878D01*
X009689Y005926D01*
X009778Y006015D01*
X009826Y006131D01*
X009826Y006257D01*
X009778Y006373D01*
X009707Y006444D01*
X009707Y007570D01*
X009768Y007596D01*
X009707Y007469D02*
X014079Y007469D01*
X014079Y007352D02*
X009707Y007352D01*
X009864Y007702D02*
X011498Y007702D01*
X011450Y007818D02*
X009905Y007818D01*
X009901Y007935D02*
X011449Y007935D01*
X011473Y008052D02*
X011153Y008052D01*
X011244Y008168D02*
X011530Y008168D01*
X011656Y008285D02*
X011275Y008285D01*
X010765Y008052D02*
X009847Y008052D01*
X009678Y008168D02*
X010673Y008168D01*
X010643Y008285D02*
X009741Y008285D01*
X009858Y008402D02*
X010657Y008402D01*
X010726Y008518D02*
X009975Y008518D01*
X009768Y008868D02*
X008103Y008868D01*
X008219Y008751D02*
X009651Y008751D01*
X009884Y008985D02*
X007986Y008985D01*
X007870Y009101D02*
X010001Y009101D01*
X009483Y009781D02*
X009396Y009781D01*
X008687Y010489D01*
X008687Y011726D01*
X008089Y012324D01*
X007620Y012324D01*
X007790Y012600D02*
X009167Y012600D01*
X009167Y012635D02*
X009167Y012509D01*
X009215Y012393D01*
X009304Y012304D01*
X009420Y012256D01*
X009545Y012256D01*
X009661Y012304D01*
X009705Y012348D01*
X012402Y012348D01*
X012473Y012277D01*
X012589Y012229D01*
X012715Y012229D01*
X012831Y012277D01*
X012920Y012366D01*
X013013Y012366D01*
X012920Y012366D02*
X012960Y012462D01*
X013125Y012165D01*
X013135Y011555D01*
X012229Y010672D01*
X012124Y010672D01*
X012008Y010623D01*
X011919Y010535D01*
X011871Y010418D01*
X011871Y010293D01*
X011919Y010177D01*
X012008Y010088D01*
X012124Y010040D01*
X012250Y010040D01*
X012366Y010088D01*
X012455Y010177D01*
X012503Y010293D01*
X012503Y010389D01*
X013414Y011278D01*
X013418Y011278D01*
X013472Y011335D01*
X013529Y011390D01*
X013529Y011393D01*
X013531Y011395D01*
X013530Y011474D01*
X013531Y011553D01*
X013528Y011555D01*
X013518Y012192D01*
X013533Y012242D01*
X013517Y012270D01*
X013517Y012302D01*
X013479Y012339D01*
X013061Y013089D01*
X013060Y013121D01*
X013022Y013158D01*
X012997Y013204D01*
X012966Y013212D01*
X012944Y013234D01*
X012891Y013234D01*
X012840Y013248D01*
X012812Y013233D01*
X010714Y013209D01*
X010646Y013277D01*
X010530Y013325D01*
X010404Y013325D01*
X010288Y013277D01*
X010199Y013188D01*
X010151Y013072D01*
X010151Y012946D01*
X010199Y012830D01*
X010288Y012741D01*
X009754Y012741D01*
X009750Y012751D01*
X009661Y012840D01*
X009545Y012888D01*
X009420Y012888D01*
X009304Y012840D01*
X009215Y012751D01*
X009167Y012635D01*
X009200Y012716D02*
X007898Y012716D01*
X007936Y012833D02*
X009296Y012833D01*
X009483Y012572D02*
X009510Y012545D01*
X012652Y012545D01*
X012765Y012250D02*
X013078Y012250D01*
X013126Y012133D02*
X008558Y012133D01*
X008442Y012250D02*
X012538Y012250D01*
X013127Y012016D02*
X008675Y012016D01*
X008791Y011900D02*
X013129Y011900D01*
X013131Y011783D02*
X008884Y011783D01*
X008884Y011667D02*
X013133Y011667D01*
X013129Y011550D02*
X008884Y011550D01*
X008884Y011433D02*
X013010Y011433D01*
X012890Y011317D02*
X008884Y011317D01*
X008884Y011200D02*
X012771Y011200D01*
X012651Y011084D02*
X008884Y011084D01*
X008884Y010967D02*
X011313Y010967D01*
X011272Y010950D02*
X011240Y010919D01*
X009853Y010919D01*
X009831Y010933D01*
X009758Y010919D01*
X009684Y010919D01*
X009665Y010900D01*
X009536Y010874D01*
X009435Y010916D01*
X009309Y010916D01*
X009193Y010868D01*
X009104Y010779D01*
X009056Y010663D01*
X009056Y010537D01*
X009104Y010421D01*
X009193Y010332D01*
X009309Y010284D01*
X009435Y010284D01*
X009551Y010332D01*
X009630Y010411D01*
X009805Y010446D01*
X011240Y010446D01*
X011272Y010415D01*
X011388Y010366D01*
X011514Y010366D01*
X011630Y010415D01*
X011719Y010503D01*
X011767Y010620D01*
X011767Y010745D01*
X011719Y010861D01*
X011630Y010950D01*
X011514Y010998D01*
X011388Y010998D01*
X011272Y010950D01*
X011589Y010967D02*
X012532Y010967D01*
X012412Y010850D02*
X011723Y010850D01*
X011767Y010734D02*
X012293Y010734D01*
X012002Y010617D02*
X011766Y010617D01*
X011716Y010501D02*
X011905Y010501D01*
X011871Y010384D02*
X011556Y010384D01*
X011346Y010384D02*
X009603Y010384D01*
X009676Y010034D02*
X015452Y010034D01*
X015418Y010048D02*
X015534Y010000D01*
X015660Y010000D01*
X015776Y010048D01*
X015865Y010137D01*
X015913Y010253D01*
X015913Y010379D01*
X015865Y010495D01*
X015776Y010584D01*
X015660Y010632D01*
X015534Y010632D01*
X015418Y010584D01*
X015329Y010495D01*
X015281Y010379D01*
X015281Y010253D01*
X015329Y010137D01*
X015418Y010048D01*
X015323Y010151D02*
X012429Y010151D01*
X012493Y010267D02*
X015281Y010267D01*
X015283Y010384D02*
X012503Y010384D01*
X012618Y010501D02*
X015334Y010501D01*
X015498Y010617D02*
X012737Y010617D01*
X012857Y010734D02*
X018044Y010734D01*
X018044Y010850D02*
X012976Y010850D01*
X013096Y010967D02*
X016763Y010967D01*
X016865Y010925D02*
X017179Y010925D01*
X017469Y011045D01*
X017691Y011267D01*
X017811Y011557D01*
X017811Y011871D01*
X017691Y012161D01*
X017469Y012383D01*
X017179Y012503D01*
X016865Y012503D01*
X016575Y012383D01*
X016353Y012161D01*
X016233Y011871D01*
X016233Y011557D01*
X016353Y011267D01*
X016575Y011045D01*
X016865Y010925D01*
X016536Y011084D02*
X013215Y011084D01*
X013334Y011200D02*
X016420Y011200D01*
X016332Y011317D02*
X013455Y011317D01*
X013530Y011433D02*
X016284Y011433D01*
X016236Y011550D02*
X013531Y011550D01*
X013527Y011667D02*
X016233Y011667D01*
X016233Y011783D02*
X013525Y011783D01*
X013523Y011900D02*
X016245Y011900D01*
X016293Y012016D02*
X013521Y012016D01*
X013519Y012133D02*
X016342Y012133D01*
X016442Y012250D02*
X013529Y012250D01*
X013464Y012366D02*
X016559Y012366D01*
X016817Y012483D02*
X013399Y012483D01*
X013334Y012600D02*
X018044Y012600D01*
X018044Y012716D02*
X013269Y012716D01*
X013204Y012833D02*
X018044Y012833D01*
X018044Y012949D02*
X013139Y012949D01*
X013073Y013066D02*
X018044Y013066D01*
X018044Y013183D02*
X013008Y013183D01*
X012864Y013037D02*
X013321Y012218D01*
X013333Y011474D01*
X012187Y010356D01*
X011945Y010151D02*
X009304Y010151D01*
X009188Y010267D02*
X011882Y010267D01*
X012599Y009334D02*
X013040Y009334D01*
X013157Y009218D02*
X012795Y009218D01*
X012881Y009101D02*
X013273Y009101D01*
X013390Y008985D02*
X012925Y008985D01*
X012925Y008868D02*
X013507Y008868D01*
X013623Y008751D02*
X012897Y008751D01*
X012834Y008635D02*
X013740Y008635D01*
X013857Y008518D02*
X012693Y008518D01*
X013480Y009451D02*
X018044Y009451D01*
X018044Y009334D02*
X013597Y009334D01*
X013714Y009218D02*
X018044Y009218D01*
X018044Y009101D02*
X013830Y009101D01*
X013947Y008985D02*
X018044Y008985D01*
X018044Y008868D02*
X014063Y008868D01*
X014180Y008751D02*
X018044Y008751D01*
X018044Y008635D02*
X014297Y008635D01*
X014276Y008377D02*
X014276Y003930D01*
X013986Y004204D02*
X013565Y004204D01*
X013613Y004156D02*
X013501Y004268D01*
X013355Y004328D01*
X013197Y004328D01*
X013050Y004268D01*
X012939Y004156D01*
X012878Y004010D01*
X012878Y003851D01*
X012939Y003705D01*
X013050Y003593D01*
X013197Y003533D01*
X013355Y003533D01*
X013501Y003593D01*
X013613Y003705D01*
X013674Y003851D01*
X013674Y004010D01*
X013613Y004156D01*
X013642Y004087D02*
X013910Y004087D01*
X013878Y003970D02*
X013674Y003970D01*
X013674Y003854D02*
X013878Y003854D01*
X013925Y003737D02*
X013626Y003737D01*
X013528Y003621D02*
X014023Y003621D01*
X013892Y003313D02*
X013815Y003328D01*
X013797Y003328D01*
X013797Y002951D01*
X014174Y002951D01*
X014174Y002970D01*
X014158Y003046D01*
X014128Y003119D01*
X014085Y003184D01*
X014029Y003239D01*
X013964Y003283D01*
X013892Y003313D01*
X013983Y003271D02*
X016241Y003271D01*
X016233Y003289D02*
X016353Y002999D01*
X016575Y002777D01*
X016865Y002657D01*
X017179Y002657D01*
X017469Y002777D01*
X017691Y002999D01*
X017811Y003289D01*
X017811Y003603D01*
X017691Y003893D01*
X017469Y004115D01*
X017179Y004235D01*
X016865Y004235D01*
X016575Y004115D01*
X016353Y003893D01*
X016233Y003603D01*
X016233Y003289D01*
X016233Y003387D02*
X001460Y003387D01*
X001460Y003386D02*
X001460Y003467D01*
X001379Y003467D01*
X001379Y003864D01*
X001101Y003864D01*
X001066Y003855D01*
X001035Y003837D01*
X001009Y003811D01*
X000991Y003780D01*
X000982Y003745D01*
X000982Y003467D01*
X001379Y003467D01*
X001379Y003386D01*
X000982Y003386D01*
X000982Y003108D01*
X000991Y003073D01*
X001009Y003042D01*
X001035Y003016D01*
X001066Y002998D01*
X001101Y002989D01*
X001379Y002989D01*
X001379Y003386D01*
X001460Y003386D01*
X001460Y002989D01*
X001738Y002989D01*
X001773Y002998D01*
X001804Y003016D01*
X001830Y003042D01*
X001848Y003073D01*
X001857Y003108D01*
X001857Y003386D01*
X001460Y003386D01*
X001460Y003467D02*
X001857Y003467D01*
X001857Y003745D01*
X001848Y003780D01*
X001830Y003811D01*
X001804Y003837D01*
X001773Y003855D01*
X001738Y003864D01*
X001460Y003864D01*
X001460Y003467D01*
X001460Y003504D02*
X001379Y003504D01*
X001379Y003621D02*
X001460Y003621D01*
X001460Y003737D02*
X001379Y003737D01*
X001379Y003854D02*
X001460Y003854D01*
X001775Y003854D02*
X005327Y003854D01*
X005315Y003883D02*
X005376Y003737D01*
X005488Y003625D01*
X005634Y003564D01*
X005792Y003564D01*
X005938Y003625D01*
X006050Y003737D01*
X006375Y003737D01*
X006376Y003737D02*
X006488Y003625D01*
X006634Y003564D01*
X006792Y003564D01*
X006938Y003625D01*
X007050Y003737D01*
X008981Y003737D01*
X008954Y003764D02*
X009066Y003652D01*
X009212Y003592D01*
X009371Y003592D01*
X009517Y003652D01*
X009629Y003764D01*
X009689Y003910D01*
X009689Y004069D01*
X009629Y004215D01*
X009517Y004327D01*
X009371Y004387D01*
X009212Y004387D01*
X009066Y004327D01*
X008954Y004215D01*
X008894Y004069D01*
X008894Y003910D01*
X008954Y003764D01*
X008917Y003854D02*
X007099Y003854D01*
X007111Y003883D02*
X007050Y003737D01*
X007111Y003883D02*
X007111Y004041D01*
X007050Y004187D01*
X007019Y004218D01*
X007648Y005892D01*
X007730Y005926D01*
X007819Y006015D01*
X007867Y006131D01*
X007867Y006257D01*
X007819Y006373D01*
X007730Y006462D01*
X007614Y006510D01*
X007489Y006510D01*
X007372Y006462D01*
X007284Y006373D01*
X007236Y006257D01*
X007236Y006131D01*
X007279Y006028D01*
X006652Y004360D01*
X006634Y004360D01*
X006488Y004299D01*
X006376Y004187D01*
X006315Y004041D01*
X006315Y003883D01*
X006376Y003737D01*
X006327Y003854D02*
X006099Y003854D01*
X006111Y003883D02*
X006050Y003737D01*
X006111Y003883D02*
X006111Y004041D01*
X006050Y004187D01*
X005938Y004299D01*
X005792Y004360D01*
X005634Y004360D01*
X005488Y004299D01*
X005376Y004187D01*
X005315Y004041D01*
X005315Y003883D01*
X005315Y003970D02*
X000646Y003970D01*
X000646Y003854D02*
X001064Y003854D01*
X001062Y003989D02*
X001777Y003989D01*
X001857Y004069D01*
X001857Y004784D01*
X001777Y004864D01*
X001313Y004864D01*
X001313Y011454D01*
X001323Y011430D01*
X001446Y011307D01*
X001607Y011241D01*
X002381Y011241D01*
X002542Y011307D01*
X002665Y011430D01*
X002732Y011591D01*
X002732Y011766D01*
X002665Y011926D01*
X002542Y012050D01*
X002381Y012116D01*
X001607Y012116D01*
X001446Y012050D01*
X001323Y011926D01*
X001313Y011902D01*
X001313Y012462D01*
X001320Y012449D01*
X001360Y012393D01*
X001409Y012345D01*
X001465Y012304D01*
X001526Y012273D01*
X001592Y012251D01*
X001660Y012241D01*
X001953Y012241D01*
X001953Y012637D01*
X002035Y012637D01*
X002035Y012241D01*
X002329Y012241D01*
X002397Y012251D01*
X002462Y012273D01*
X002524Y012304D01*
X002580Y012345D01*
X002628Y012393D01*
X002669Y012449D01*
X002700Y012510D01*
X002721Y012576D01*
X002731Y012637D01*
X002035Y012637D01*
X002035Y012719D01*
X002731Y012719D01*
X002721Y012781D01*
X002700Y012846D01*
X002669Y012908D01*
X002628Y012964D01*
X002580Y013012D01*
X002524Y013053D01*
X002462Y013084D01*
X002397Y013105D01*
X002329Y013116D01*
X002035Y013116D01*
X002035Y012719D01*
X001953Y012719D01*
X001953Y013116D01*
X001660Y013116D01*
X001592Y013105D01*
X001526Y013084D01*
X001465Y013053D01*
X001409Y013012D01*
X001360Y012964D01*
X001320Y012908D01*
X001313Y012895D01*
X001313Y013057D01*
X001529Y013273D01*
X001607Y013241D01*
X002381Y013241D01*
X002542Y013307D01*
X002665Y013430D01*
X002732Y013591D01*
X002732Y013766D01*
X006305Y013766D01*
X006305Y013882D02*
X002684Y013882D01*
X002665Y013926D02*
X002542Y014050D01*
X002381Y014116D01*
X001607Y014116D01*
X001446Y014050D01*
X001323Y013926D01*
X001257Y013766D01*
X000646Y013766D01*
X000646Y013882D02*
X001305Y013882D01*
X001257Y013766D02*
X001257Y013668D01*
X000841Y013253D01*
X000841Y004483D01*
X000910Y004414D01*
X000982Y004342D01*
X000982Y004069D01*
X001062Y003989D01*
X000982Y004087D02*
X000646Y004087D01*
X000646Y004204D02*
X000982Y004204D01*
X000982Y004320D02*
X000646Y004320D01*
X000646Y004437D02*
X000887Y004437D01*
X000841Y004553D02*
X000646Y004553D01*
X000646Y004670D02*
X000841Y004670D01*
X000841Y004787D02*
X000646Y004787D01*
X000646Y004903D02*
X000841Y004903D01*
X000841Y005020D02*
X000646Y005020D01*
X000646Y005136D02*
X000841Y005136D01*
X000841Y005253D02*
X000646Y005253D01*
X000646Y005370D02*
X000841Y005370D01*
X000841Y005486D02*
X000646Y005486D01*
X000646Y005603D02*
X000841Y005603D01*
X000841Y005720D02*
X000646Y005720D01*
X000646Y005836D02*
X000841Y005836D01*
X000841Y005953D02*
X000646Y005953D01*
X000646Y006069D02*
X000841Y006069D01*
X000841Y006186D02*
X000646Y006186D01*
X000646Y006303D02*
X000841Y006303D01*
X000841Y006419D02*
X000646Y006419D01*
X000646Y006536D02*
X000841Y006536D01*
X000841Y006652D02*
X000646Y006652D01*
X000646Y006769D02*
X000841Y006769D01*
X000841Y006886D02*
X000646Y006886D01*
X000646Y007002D02*
X000841Y007002D01*
X000841Y007119D02*
X000646Y007119D01*
X000646Y007235D02*
X000841Y007235D01*
X000841Y007352D02*
X000646Y007352D01*
X000646Y007469D02*
X000841Y007469D01*
X000841Y007585D02*
X000646Y007585D01*
X000646Y007702D02*
X000841Y007702D01*
X000841Y007818D02*
X000646Y007818D01*
X000646Y007935D02*
X000841Y007935D01*
X000841Y008052D02*
X000646Y008052D01*
X000646Y008168D02*
X000841Y008168D01*
X000841Y008285D02*
X000646Y008285D01*
X000646Y008402D02*
X000841Y008402D01*
X000841Y008518D02*
X000646Y008518D01*
X000646Y008635D02*
X000841Y008635D01*
X000841Y008751D02*
X000646Y008751D01*
X000646Y008868D02*
X000841Y008868D01*
X000841Y008985D02*
X000646Y008985D01*
X000646Y009101D02*
X000841Y009101D01*
X000841Y009218D02*
X000646Y009218D01*
X000646Y009334D02*
X000841Y009334D01*
X000841Y009451D02*
X000646Y009451D01*
X000646Y009568D02*
X000841Y009568D01*
X000841Y009684D02*
X000646Y009684D01*
X000646Y009801D02*
X000841Y009801D01*
X000841Y009917D02*
X000646Y009917D01*
X000646Y010034D02*
X000841Y010034D01*
X000841Y010151D02*
X000646Y010151D01*
X000646Y010267D02*
X000841Y010267D01*
X000841Y010384D02*
X000646Y010384D01*
X000646Y010501D02*
X000841Y010501D01*
X000841Y010617D02*
X000646Y010617D01*
X000646Y010734D02*
X000841Y010734D01*
X000841Y010850D02*
X000646Y010850D01*
X000646Y010967D02*
X000841Y010967D01*
X000841Y011084D02*
X000646Y011084D01*
X000646Y011200D02*
X000841Y011200D01*
X000841Y011317D02*
X000646Y011317D01*
X000646Y011433D02*
X000841Y011433D01*
X000841Y011550D02*
X000646Y011550D01*
X000646Y011667D02*
X000841Y011667D01*
X000841Y011783D02*
X000646Y011783D01*
X000646Y011900D02*
X000841Y011900D01*
X000841Y012016D02*
X000646Y012016D01*
X000646Y012133D02*
X000841Y012133D01*
X000841Y012250D02*
X000646Y012250D01*
X000646Y012366D02*
X000841Y012366D01*
X000841Y012483D02*
X000646Y012483D01*
X000646Y012600D02*
X000841Y012600D01*
X000841Y012716D02*
X000646Y012716D01*
X000646Y012833D02*
X000841Y012833D01*
X000841Y012949D02*
X000646Y012949D01*
X000646Y013066D02*
X000841Y013066D01*
X000841Y013183D02*
X000646Y013183D01*
X000646Y013299D02*
X000887Y013299D01*
X001004Y013416D02*
X000646Y013416D01*
X000646Y013532D02*
X001121Y013532D01*
X001237Y013649D02*
X000646Y013649D01*
X000646Y013999D02*
X001396Y013999D01*
X001605Y014115D02*
X000646Y014115D01*
X000646Y014232D02*
X006305Y014232D01*
X006305Y014115D02*
X002383Y014115D01*
X002381Y014241D02*
X002542Y014307D01*
X002665Y014430D01*
X002732Y014591D01*
X002732Y014766D01*
X002665Y014926D01*
X002542Y015050D01*
X002381Y015116D01*
X001607Y015116D01*
X001446Y015050D01*
X001323Y014926D01*
X001257Y014766D01*
X001257Y014591D01*
X001323Y014430D01*
X001446Y014307D01*
X001607Y014241D01*
X002381Y014241D01*
X002584Y014349D02*
X006305Y014349D01*
X006305Y014465D02*
X002680Y014465D01*
X002728Y014582D02*
X006305Y014582D01*
X006305Y014699D02*
X002732Y014699D01*
X002712Y014815D02*
X006305Y014815D01*
X006305Y014932D02*
X002660Y014932D01*
X002544Y015048D02*
X006305Y015048D01*
X006305Y015165D02*
X000646Y015165D01*
X000646Y015282D02*
X006305Y015282D01*
X006305Y015398D02*
X000646Y015398D01*
X000646Y015515D02*
X006305Y015515D01*
X006305Y015631D02*
X000646Y015631D01*
X000646Y015748D02*
X005057Y015748D01*
X005065Y015744D02*
X005191Y015744D01*
X005307Y015793D01*
X005396Y015881D01*
X005444Y015997D01*
X005444Y016123D01*
X005396Y016239D01*
X005307Y016328D01*
X005191Y016376D01*
X005065Y016376D01*
X004949Y016328D01*
X004860Y016239D01*
X004812Y016123D01*
X004812Y015997D01*
X004860Y015881D01*
X004949Y015793D01*
X005065Y015744D01*
X005200Y015748D02*
X006305Y015748D01*
X006305Y015865D02*
X006139Y015865D01*
X006106Y015832D02*
X006195Y015921D01*
X006243Y016037D01*
X006243Y016163D01*
X006195Y016279D01*
X006106Y016368D01*
X006097Y016372D01*
X006097Y017303D01*
X006168Y017374D01*
X006216Y017490D01*
X006216Y017615D01*
X006168Y017731D01*
X006079Y017820D01*
X005963Y017868D01*
X005837Y017868D01*
X005721Y017820D01*
X005632Y017731D01*
X005584Y017615D01*
X005584Y017490D01*
X005632Y017374D01*
X005703Y017303D01*
X005703Y016322D01*
X005660Y016279D01*
X005611Y016163D01*
X005611Y016037D01*
X005660Y015921D01*
X005748Y015832D01*
X005865Y015784D01*
X005990Y015784D01*
X006106Y015832D01*
X006220Y015981D02*
X006305Y015981D01*
X006305Y016098D02*
X006243Y016098D01*
X006222Y016214D02*
X006305Y016214D01*
X006305Y016331D02*
X006143Y016331D01*
X006097Y016448D02*
X006305Y016448D01*
X006305Y016564D02*
X006097Y016564D01*
X006097Y016681D02*
X006305Y016681D01*
X006305Y016797D02*
X006097Y016797D01*
X006097Y016914D02*
X006305Y016914D01*
X006305Y017031D02*
X006097Y017031D01*
X006097Y017147D02*
X006305Y017147D01*
X006305Y017264D02*
X006097Y017264D01*
X006171Y017381D02*
X006305Y017381D01*
X006305Y017497D02*
X006216Y017497D01*
X006216Y017614D02*
X006305Y017614D01*
X006305Y017730D02*
X006168Y017730D01*
X006234Y017811D02*
X006305Y017740D01*
X006305Y013369D01*
X006234Y013298D01*
X006186Y013182D01*
X006186Y013057D01*
X006234Y012940D01*
X006323Y012852D01*
X006439Y012803D01*
X006565Y012803D01*
X006681Y012852D01*
X006770Y012940D01*
X006818Y013057D01*
X006818Y013182D01*
X006770Y013298D01*
X006699Y013369D01*
X006699Y017740D01*
X006770Y017811D01*
X006818Y017927D01*
X006818Y018052D01*
X006770Y018168D01*
X006681Y018257D01*
X006565Y018305D01*
X006439Y018305D01*
X006323Y018257D01*
X006234Y018168D01*
X006186Y018052D01*
X006186Y017927D01*
X006234Y017811D01*
X006219Y017847D02*
X006014Y017847D01*
X006186Y017964D02*
X002929Y017964D01*
X002929Y018013D02*
X002878Y018137D01*
X002783Y018231D01*
X002660Y018282D01*
X002526Y018282D01*
X002402Y018231D01*
X002308Y018137D01*
X002257Y018013D01*
X002257Y017879D01*
X002308Y017756D01*
X002402Y017661D01*
X002526Y017610D01*
X002660Y017610D01*
X002783Y017661D01*
X002878Y017756D01*
X002929Y017879D01*
X002929Y018013D01*
X002901Y018080D02*
X004512Y018080D01*
X004516Y018076D02*
X004632Y018028D01*
X004758Y018028D01*
X004874Y018076D01*
X004963Y018165D01*
X005011Y018281D01*
X005011Y018381D01*
X005605Y018975D01*
X005605Y019271D01*
X005676Y019342D01*
X005724Y019458D01*
X005724Y019584D01*
X005676Y019700D01*
X005587Y019789D01*
X005471Y019837D01*
X005345Y019837D01*
X005229Y019789D01*
X005140Y019700D01*
X005092Y019584D01*
X005092Y019458D01*
X005140Y019342D01*
X005211Y019271D01*
X005211Y019138D01*
X004733Y018660D01*
X004632Y018660D01*
X004516Y018612D01*
X004427Y018523D01*
X004379Y018407D01*
X004379Y018281D01*
X004427Y018165D01*
X004516Y018076D01*
X004414Y018197D02*
X002818Y018197D01*
X002916Y017847D02*
X005785Y017847D01*
X005632Y017730D02*
X002852Y017730D01*
X002669Y017614D02*
X005584Y017614D01*
X005584Y017497D02*
X000646Y017497D01*
X000646Y017381D02*
X005629Y017381D01*
X005703Y017264D02*
X000646Y017264D01*
X000646Y017147D02*
X005703Y017147D01*
X005703Y017031D02*
X000646Y017031D01*
X000646Y016914D02*
X005703Y016914D01*
X005703Y016797D02*
X000646Y016797D01*
X000646Y016681D02*
X005703Y016681D01*
X005703Y016564D02*
X000646Y016564D01*
X000646Y016448D02*
X005703Y016448D01*
X005703Y016331D02*
X005300Y016331D01*
X005406Y016214D02*
X005633Y016214D01*
X005611Y016098D02*
X005444Y016098D01*
X005437Y015981D02*
X005635Y015981D01*
X005716Y015865D02*
X005379Y015865D01*
X004877Y015865D02*
X001363Y015865D01*
X001323Y015824D02*
X001412Y015913D01*
X001460Y016029D01*
X001460Y016155D01*
X001412Y016271D01*
X001323Y016360D01*
X001207Y016408D01*
X001081Y016408D01*
X000965Y016360D01*
X000876Y016271D01*
X000828Y016155D01*
X000828Y016029D01*
X000876Y015913D01*
X000965Y015824D01*
X001081Y015776D01*
X001207Y015776D01*
X001323Y015824D01*
X001440Y015981D02*
X004819Y015981D01*
X004812Y016098D02*
X001460Y016098D01*
X001435Y016214D02*
X004850Y016214D01*
X004956Y016331D02*
X001351Y016331D01*
X000936Y016331D02*
X000646Y016331D01*
X000646Y016214D02*
X000853Y016214D01*
X000828Y016098D02*
X000646Y016098D01*
X000646Y015981D02*
X000848Y015981D01*
X000924Y015865D02*
X000646Y015865D01*
X000646Y015048D02*
X001445Y015048D01*
X001328Y014932D02*
X000646Y014932D01*
X000646Y014815D02*
X001277Y014815D01*
X001257Y014699D02*
X000646Y014699D01*
X000646Y014582D02*
X001260Y014582D01*
X001309Y014465D02*
X000646Y014465D01*
X000646Y014349D02*
X001405Y014349D01*
X001439Y013183D02*
X005549Y013183D01*
X005549Y013182D02*
X005549Y013057D01*
X005597Y012940D01*
X005625Y012912D01*
X005619Y012451D01*
X005585Y012416D01*
X005537Y012300D01*
X005537Y012175D01*
X005585Y012059D01*
X005674Y011970D01*
X005790Y011922D01*
X005915Y011922D01*
X006032Y011970D01*
X006120Y012059D01*
X006169Y012175D01*
X006169Y012300D01*
X006120Y012416D01*
X006092Y012445D01*
X006098Y012906D01*
X006132Y012940D01*
X006180Y013057D01*
X006180Y013182D01*
X006132Y013298D01*
X006043Y013387D01*
X005927Y013435D01*
X005802Y013435D01*
X005685Y013387D01*
X005597Y013298D01*
X005549Y013182D01*
X005549Y013066D02*
X002498Y013066D01*
X002639Y012949D02*
X005593Y012949D01*
X005624Y012833D02*
X002705Y012833D01*
X002725Y012600D02*
X005621Y012600D01*
X005623Y012716D02*
X002035Y012716D01*
X002035Y012600D02*
X001953Y012600D01*
X001953Y012483D02*
X002035Y012483D01*
X002035Y012366D02*
X001953Y012366D01*
X001953Y012250D02*
X002035Y012250D01*
X002386Y012250D02*
X005537Y012250D01*
X005554Y012133D02*
X001313Y012133D01*
X001313Y012016D02*
X001413Y012016D01*
X001313Y012250D02*
X001603Y012250D01*
X001387Y012366D02*
X001313Y012366D01*
X001313Y012949D02*
X001350Y012949D01*
X001322Y013066D02*
X001491Y013066D01*
X001953Y013066D02*
X002035Y013066D01*
X002035Y012949D02*
X001953Y012949D01*
X001953Y012833D02*
X002035Y012833D01*
X002523Y013299D02*
X005597Y013299D01*
X005754Y013416D02*
X002651Y013416D01*
X002708Y013532D02*
X006305Y013532D01*
X006305Y013416D02*
X005974Y013416D01*
X006131Y013299D02*
X006235Y013299D01*
X006186Y013183D02*
X006180Y013183D01*
X006180Y013066D02*
X006186Y013066D01*
X006231Y012949D02*
X006136Y012949D01*
X006097Y012833D02*
X006369Y012833D01*
X006095Y012716D02*
X006850Y012716D01*
X006850Y012600D02*
X006094Y012600D01*
X006092Y012483D02*
X006850Y012483D01*
X006850Y012366D02*
X006141Y012366D01*
X006169Y012250D02*
X006850Y012250D01*
X006850Y012133D02*
X006151Y012133D01*
X006078Y012016D02*
X006850Y012016D01*
X006850Y011900D02*
X002676Y011900D01*
X002725Y011783D02*
X006850Y011783D01*
X006850Y011667D02*
X002732Y011667D01*
X002715Y011550D02*
X006850Y011550D01*
X006850Y011433D02*
X002667Y011433D01*
X002552Y011317D02*
X006850Y011317D01*
X006850Y011200D02*
X001313Y011200D01*
X001313Y011084D02*
X006850Y011084D01*
X006850Y010967D02*
X001313Y010967D01*
X001313Y010850D02*
X006850Y010850D01*
X006850Y010734D02*
X001313Y010734D01*
X001313Y010617D02*
X006850Y010617D01*
X006850Y010501D02*
X001313Y010501D01*
X001313Y010384D02*
X006850Y010384D01*
X006850Y010267D02*
X001313Y010267D01*
X001313Y010151D02*
X001676Y010151D01*
X001698Y010160D02*
X001537Y010093D01*
X001414Y009970D01*
X001347Y009809D01*
X001347Y009635D01*
X001414Y009474D01*
X001537Y009351D01*
X001698Y009284D01*
X002472Y009284D01*
X002633Y009351D01*
X002756Y009474D01*
X002823Y009635D01*
X002823Y009809D01*
X002756Y009970D01*
X002633Y010093D01*
X002472Y010160D01*
X001698Y010160D01*
X001478Y010034D02*
X001313Y010034D01*
X001313Y009917D02*
X001392Y009917D01*
X001347Y009801D02*
X001313Y009801D01*
X001313Y009684D02*
X001347Y009684D01*
X001375Y009568D02*
X001313Y009568D01*
X001313Y009451D02*
X001436Y009451D01*
X001313Y009334D02*
X001576Y009334D01*
X001698Y009160D02*
X001537Y009093D01*
X001414Y008970D01*
X001347Y008809D01*
X001347Y008635D01*
X001313Y008635D01*
X001347Y008635D02*
X001414Y008474D01*
X001537Y008351D01*
X001698Y008284D01*
X002189Y008284D01*
X002237Y008235D01*
X003479Y008235D01*
X004277Y008166D01*
X004327Y008115D01*
X004443Y008067D01*
X004569Y008067D01*
X004685Y008115D01*
X004774Y008204D01*
X004822Y008320D01*
X004822Y008446D01*
X004774Y008562D01*
X004685Y008651D01*
X004569Y008699D01*
X004443Y008699D01*
X004327Y008651D01*
X004313Y008637D01*
X003595Y008699D01*
X003587Y008708D01*
X003499Y008708D01*
X003412Y008715D01*
X003403Y008708D01*
X002823Y008708D01*
X002823Y008809D01*
X002756Y008970D01*
X002633Y009093D01*
X002472Y009160D01*
X001698Y009160D01*
X001557Y009101D02*
X001313Y009101D01*
X001313Y008985D02*
X001429Y008985D01*
X001372Y008868D02*
X001313Y008868D01*
X001313Y008751D02*
X001347Y008751D01*
X001313Y008518D02*
X001395Y008518D01*
X001313Y008402D02*
X001486Y008402D01*
X001313Y008285D02*
X001695Y008285D01*
X001496Y008052D02*
X001313Y008052D01*
X001313Y008168D02*
X004249Y008168D01*
X004738Y008168D02*
X006426Y008168D01*
X006309Y008052D02*
X002674Y008052D01*
X002751Y007469D02*
X008026Y007469D01*
X008031Y007585D02*
X006511Y007585D01*
X006627Y007702D02*
X008003Y007702D01*
X008010Y007685D02*
X008034Y007661D01*
X007990Y006516D01*
X007986Y006513D01*
X007986Y006419D01*
X007773Y006419D01*
X007848Y006303D02*
X007986Y006303D01*
X007986Y006322D02*
X007986Y005720D01*
X007955Y005688D01*
X007907Y005572D01*
X007907Y005446D01*
X007955Y005330D01*
X008044Y005241D01*
X008160Y005193D01*
X008286Y005193D01*
X008402Y005241D01*
X008490Y005330D01*
X008539Y005446D01*
X008539Y005572D01*
X008490Y005688D01*
X008459Y005720D01*
X008459Y006410D01*
X008506Y007645D01*
X008546Y007685D01*
X008592Y007797D01*
X008616Y007740D01*
X008648Y007708D01*
X008601Y005110D01*
X008526Y005035D01*
X008478Y004918D01*
X008478Y004793D01*
X008526Y004677D01*
X008615Y004588D01*
X008731Y004540D01*
X008856Y004540D01*
X008972Y004588D01*
X009061Y004677D01*
X009109Y004793D01*
X009109Y004918D01*
X009061Y005035D01*
X008995Y005101D01*
X009040Y007641D01*
X009063Y007651D01*
X009152Y007740D01*
X009200Y007856D01*
X009200Y007981D01*
X009152Y008098D01*
X009063Y008186D01*
X008947Y008235D01*
X008821Y008235D01*
X008705Y008186D01*
X008616Y008098D01*
X008570Y007985D01*
X008546Y008042D01*
X008457Y008131D01*
X008341Y008179D01*
X008215Y008179D01*
X008099Y008131D01*
X008010Y008042D01*
X007962Y007926D01*
X007962Y007801D01*
X008010Y007685D01*
X007962Y007818D02*
X006744Y007818D01*
X006861Y007935D02*
X007966Y007935D01*
X008019Y008052D02*
X006977Y008052D01*
X007094Y008168D02*
X008188Y008168D01*
X008129Y008285D02*
X007210Y008285D01*
X007280Y008402D02*
X008013Y008402D01*
X007896Y008518D02*
X007323Y008518D01*
X007323Y008635D02*
X007779Y008635D01*
X007663Y008751D02*
X007323Y008751D01*
X007323Y008868D02*
X007546Y008868D01*
X007429Y008985D02*
X007323Y008985D01*
X007323Y009101D02*
X007372Y009101D01*
X007372Y009218D02*
X007323Y009218D01*
X007323Y009334D02*
X007372Y009334D01*
X007372Y009451D02*
X007323Y009451D01*
X007323Y009568D02*
X007372Y009568D01*
X007372Y009684D02*
X007323Y009684D01*
X007323Y009801D02*
X007372Y009801D01*
X007372Y009917D02*
X007323Y009917D01*
X007323Y010034D02*
X007372Y010034D01*
X007372Y010151D02*
X007323Y010151D01*
X007323Y010267D02*
X007372Y010267D01*
X007372Y010384D02*
X007323Y010384D01*
X007323Y010501D02*
X007372Y010501D01*
X007372Y010617D02*
X007323Y010617D01*
X007323Y010734D02*
X007372Y010734D01*
X007372Y010850D02*
X007323Y010850D01*
X007323Y010967D02*
X007357Y010967D01*
X008085Y011226D02*
X007569Y011749D01*
X007849Y011900D02*
X008235Y011900D01*
X008351Y011783D02*
X007885Y011783D01*
X007927Y011667D02*
X008468Y011667D01*
X008490Y011550D02*
X008042Y011550D01*
X008157Y011433D02*
X008490Y011433D01*
X008490Y011317D02*
X008277Y011317D01*
X008284Y011200D02*
X008490Y011200D01*
X008490Y011084D02*
X008291Y011084D01*
X008297Y010967D02*
X008490Y010967D01*
X008490Y010850D02*
X008304Y010850D01*
X008311Y010734D02*
X008490Y010734D01*
X008490Y010617D02*
X008318Y010617D01*
X008325Y010501D02*
X008490Y010501D01*
X008514Y010384D02*
X008341Y010384D01*
X008468Y010267D02*
X008631Y010267D01*
X008596Y010151D02*
X008748Y010151D01*
X008723Y010034D02*
X008864Y010034D01*
X008960Y009917D02*
X008981Y009917D01*
X009074Y009801D02*
X009097Y009801D01*
X009113Y009684D02*
X009181Y009684D01*
X009249Y009568D02*
X009108Y009568D01*
X008825Y009675D02*
X008140Y010300D01*
X008085Y011226D01*
X008118Y012016D02*
X007749Y012016D01*
X008208Y012483D02*
X009178Y012483D01*
X009242Y012366D02*
X008325Y012366D01*
X008032Y012949D02*
X010151Y012949D01*
X010151Y013066D02*
X008149Y013066D01*
X008266Y013183D02*
X010197Y013183D01*
X010341Y013299D02*
X008382Y013299D01*
X008499Y013416D02*
X018044Y013416D01*
X018044Y013532D02*
X013114Y013532D01*
X013140Y013559D02*
X013051Y013470D01*
X012935Y013422D01*
X012809Y013422D01*
X012693Y013470D01*
X012604Y013559D01*
X012556Y013675D01*
X012556Y013800D01*
X012604Y013916D01*
X012693Y014005D01*
X012809Y014053D01*
X012935Y014053D01*
X013051Y014005D01*
X013140Y013916D01*
X013188Y013800D01*
X013188Y013675D01*
X013140Y013559D01*
X013178Y013649D02*
X018044Y013649D01*
X018044Y013766D02*
X013188Y013766D01*
X013154Y013882D02*
X018044Y013882D01*
X018044Y013999D02*
X013058Y013999D01*
X012687Y013999D02*
X009082Y013999D01*
X009116Y014115D02*
X018044Y014115D01*
X018044Y014232D02*
X009116Y014232D01*
X009116Y014349D02*
X018044Y014349D01*
X018044Y014465D02*
X009116Y014465D01*
X009116Y014582D02*
X016660Y014582D01*
X016616Y014625D02*
X016705Y014537D01*
X016821Y014489D01*
X016947Y014489D01*
X017063Y014537D01*
X017152Y014625D01*
X017200Y014742D01*
X017200Y014867D01*
X017152Y014983D01*
X017063Y015072D01*
X016947Y015120D01*
X016821Y015120D01*
X016705Y015072D01*
X016616Y014983D01*
X016568Y014867D01*
X016568Y014742D01*
X016616Y014625D01*
X016586Y014699D02*
X009116Y014699D01*
X009116Y014815D02*
X014671Y014815D01*
X014697Y014789D02*
X014608Y014877D01*
X014560Y014994D01*
X014560Y015119D01*
X014608Y015235D01*
X014697Y015324D01*
X014813Y015372D01*
X014939Y015372D01*
X015055Y015324D01*
X015144Y015235D01*
X015192Y015119D01*
X015192Y014994D01*
X015144Y014877D01*
X015055Y014789D01*
X014939Y014740D01*
X014813Y014740D01*
X014697Y014789D01*
X014586Y014932D02*
X009116Y014932D01*
X009116Y015048D02*
X014560Y015048D01*
X014579Y015165D02*
X009116Y015165D01*
X009116Y015282D02*
X014655Y015282D01*
X015098Y015282D02*
X018044Y015282D01*
X018044Y015398D02*
X009116Y015398D01*
X009116Y015515D02*
X018044Y015515D01*
X018044Y015631D02*
X009116Y015631D01*
X009116Y015748D02*
X018044Y015748D01*
X018044Y015865D02*
X012182Y015865D01*
X012236Y015887D02*
X012325Y015976D01*
X012373Y016092D01*
X012373Y016218D01*
X012325Y016334D01*
X012236Y016423D01*
X012120Y016471D01*
X011994Y016471D01*
X011878Y016423D01*
X011790Y016334D01*
X011741Y016218D01*
X011741Y016092D01*
X011790Y015976D01*
X011878Y015887D01*
X011994Y015839D01*
X012120Y015839D01*
X012236Y015887D01*
X012327Y015981D02*
X018044Y015981D01*
X018044Y016098D02*
X012373Y016098D01*
X012373Y016214D02*
X018044Y016214D01*
X018044Y016331D02*
X012326Y016331D01*
X012176Y016448D02*
X018044Y016448D01*
X018044Y016564D02*
X010146Y016564D01*
X010160Y016578D02*
X010208Y016694D01*
X010208Y016767D01*
X010839Y017398D01*
X010884Y017398D01*
X011000Y017446D01*
X011089Y017535D01*
X011137Y017651D01*
X011137Y017777D01*
X011089Y017893D01*
X011000Y017982D01*
X010884Y018030D01*
X010758Y018030D01*
X010642Y017982D01*
X010553Y017893D01*
X010505Y017777D01*
X010505Y017732D01*
X009846Y017073D01*
X009829Y017073D01*
X009713Y017025D01*
X009624Y016936D01*
X009576Y016820D01*
X009576Y016694D01*
X009624Y016578D01*
X009713Y016489D01*
X009829Y016441D01*
X009955Y016441D01*
X010071Y016489D01*
X010160Y016578D01*
X010202Y016681D02*
X018044Y016681D01*
X018044Y016797D02*
X010239Y016797D01*
X010355Y016914D02*
X012726Y016914D01*
X012638Y016951D02*
X012928Y016830D01*
X013242Y016830D01*
X013532Y016951D01*
X013754Y017172D01*
X013874Y017462D01*
X013874Y017776D01*
X013754Y018066D01*
X013532Y018288D01*
X013242Y018408D01*
X012928Y018408D01*
X012638Y018288D01*
X012416Y018066D01*
X012296Y017776D01*
X012296Y017462D01*
X012416Y017172D01*
X012638Y016951D01*
X012558Y017031D02*
X010472Y017031D01*
X010589Y017147D02*
X012441Y017147D01*
X012378Y017264D02*
X010705Y017264D01*
X010822Y017381D02*
X012330Y017381D01*
X012296Y017497D02*
X011051Y017497D01*
X011122Y017614D02*
X012296Y017614D01*
X012296Y017730D02*
X011137Y017730D01*
X011108Y017847D02*
X012325Y017847D01*
X012373Y017964D02*
X011018Y017964D01*
X010624Y017964D02*
X007323Y017964D01*
X007323Y018080D02*
X012430Y018080D01*
X012547Y018197D02*
X007323Y018197D01*
X007340Y018313D02*
X009700Y018313D01*
X009713Y018300D02*
X009829Y018252D01*
X009955Y018252D01*
X010071Y018300D01*
X010160Y018389D01*
X010208Y018505D01*
X010208Y018631D01*
X010160Y018747D01*
X010071Y018836D01*
X009955Y018884D01*
X009829Y018884D01*
X009713Y018836D01*
X009624Y018747D01*
X009576Y018631D01*
X009576Y018505D01*
X009624Y018389D01*
X009713Y018300D01*
X009607Y018430D02*
X007340Y018430D01*
X007274Y018547D02*
X009576Y018547D01*
X009589Y018663D02*
X005293Y018663D01*
X005176Y018547D02*
X006899Y018547D01*
X006833Y018430D02*
X005060Y018430D01*
X005011Y018313D02*
X006832Y018313D01*
X006850Y018197D02*
X006742Y018197D01*
X006807Y018080D02*
X006850Y018080D01*
X006850Y017964D02*
X006818Y017964D01*
X006785Y017847D02*
X006850Y017847D01*
X006850Y017730D02*
X006699Y017730D01*
X006699Y017614D02*
X006850Y017614D01*
X006850Y017497D02*
X006699Y017497D01*
X006699Y017381D02*
X006850Y017381D01*
X006850Y017264D02*
X006699Y017264D01*
X006699Y017147D02*
X006850Y017147D01*
X006850Y017031D02*
X006699Y017031D01*
X006699Y016914D02*
X006850Y016914D01*
X006850Y016797D02*
X006699Y016797D01*
X006699Y016681D02*
X006850Y016681D01*
X006850Y016564D02*
X006699Y016564D01*
X006699Y016448D02*
X006850Y016448D01*
X006850Y016331D02*
X006699Y016331D01*
X006699Y016214D02*
X006850Y016214D01*
X006850Y016098D02*
X006699Y016098D01*
X006699Y015981D02*
X006850Y015981D01*
X006850Y015865D02*
X006699Y015865D01*
X006699Y015748D02*
X006850Y015748D01*
X006850Y015631D02*
X006699Y015631D01*
X006699Y015515D02*
X006850Y015515D01*
X006850Y015398D02*
X006699Y015398D01*
X006699Y015282D02*
X006850Y015282D01*
X006850Y015165D02*
X006699Y015165D01*
X006699Y015048D02*
X006850Y015048D01*
X006850Y014932D02*
X006699Y014932D01*
X006699Y014815D02*
X006850Y014815D01*
X006850Y014699D02*
X006699Y014699D01*
X006699Y014582D02*
X006850Y014582D01*
X006850Y014465D02*
X006699Y014465D01*
X006699Y014349D02*
X006850Y014349D01*
X006850Y014232D02*
X006699Y014232D01*
X006699Y014115D02*
X006850Y014115D01*
X006850Y013999D02*
X006699Y013999D01*
X006699Y013882D02*
X006850Y013882D01*
X006850Y013766D02*
X006699Y013766D01*
X006699Y013649D02*
X006850Y013649D01*
X006850Y013532D02*
X006699Y013532D01*
X006699Y013416D02*
X006850Y013416D01*
X006850Y013299D02*
X006769Y013299D01*
X006818Y013183D02*
X006850Y013183D01*
X006850Y013066D02*
X006818Y013066D01*
X006850Y012949D02*
X006774Y012949D01*
X006850Y012833D02*
X006636Y012833D01*
X006502Y013119D02*
X006502Y017989D01*
X006263Y018197D02*
X004976Y018197D01*
X004878Y018080D02*
X006198Y018080D01*
X005900Y017552D02*
X005900Y016127D01*
X005927Y016100D01*
X007323Y016098D02*
X008644Y016098D01*
X008644Y016214D02*
X007323Y016214D01*
X007323Y016331D02*
X008644Y016331D01*
X008644Y016448D02*
X007323Y016448D01*
X007323Y016564D02*
X008644Y016564D01*
X008644Y016681D02*
X007323Y016681D01*
X007323Y016797D02*
X008644Y016797D01*
X008644Y016914D02*
X007323Y016914D01*
X007323Y017031D02*
X008624Y017031D01*
X008569Y017147D02*
X007323Y017147D01*
X007323Y017264D02*
X008564Y017264D01*
X008604Y017381D02*
X007323Y017381D01*
X007323Y017497D02*
X008720Y017497D01*
X009041Y017497D02*
X010270Y017497D01*
X010154Y017381D02*
X009156Y017381D01*
X009196Y017264D02*
X010037Y017264D01*
X009920Y017147D02*
X009191Y017147D01*
X009136Y017031D02*
X009727Y017031D01*
X009615Y016914D02*
X009116Y016914D01*
X009116Y016797D02*
X009576Y016797D01*
X009582Y016681D02*
X009116Y016681D01*
X009116Y016564D02*
X009638Y016564D01*
X009814Y016448D02*
X009116Y016448D01*
X009116Y016331D02*
X011788Y016331D01*
X011741Y016214D02*
X009116Y016214D01*
X009116Y016098D02*
X011741Y016098D01*
X011787Y015981D02*
X009116Y015981D01*
X009116Y015865D02*
X011932Y015865D01*
X011939Y016448D02*
X009970Y016448D01*
X010387Y017614D02*
X007323Y017614D01*
X007323Y017730D02*
X010504Y017730D01*
X010534Y017847D02*
X007323Y017847D01*
X007323Y015981D02*
X008644Y015981D01*
X008644Y015865D02*
X007323Y015865D01*
X007323Y015748D02*
X008644Y015748D01*
X008644Y015631D02*
X007323Y015631D01*
X007323Y015515D02*
X008644Y015515D01*
X008644Y015398D02*
X007323Y015398D01*
X007323Y015282D02*
X008644Y015282D01*
X008644Y015165D02*
X007323Y015165D01*
X007323Y015048D02*
X008644Y015048D01*
X008644Y014932D02*
X007323Y014932D01*
X007323Y014815D02*
X008644Y014815D01*
X008644Y014699D02*
X007323Y014699D01*
X007323Y014582D02*
X008644Y014582D01*
X008644Y014465D02*
X007323Y014465D01*
X007323Y014349D02*
X008644Y014349D01*
X008644Y014232D02*
X007323Y014232D01*
X007323Y014115D02*
X008530Y014115D01*
X008414Y013999D02*
X007323Y013999D01*
X007323Y013882D02*
X008297Y013882D01*
X008181Y013766D02*
X007323Y013766D01*
X007323Y013649D02*
X008064Y013649D01*
X007947Y013532D02*
X007323Y013532D01*
X007323Y013416D02*
X007831Y013416D01*
X007714Y013299D02*
X007323Y013299D01*
X007323Y013183D02*
X007546Y013183D01*
X007368Y013066D02*
X007323Y013066D01*
X006305Y013649D02*
X002732Y013649D01*
X002732Y013766D02*
X002665Y013926D01*
X002593Y013999D02*
X006305Y013999D01*
X005620Y012483D02*
X002686Y012483D01*
X002601Y012366D02*
X005564Y012366D01*
X005627Y012016D02*
X002575Y012016D01*
X001437Y011317D02*
X001313Y011317D01*
X001313Y011433D02*
X001322Y011433D01*
X002493Y010151D02*
X006850Y010151D01*
X006850Y010034D02*
X002692Y010034D01*
X002778Y009917D02*
X006850Y009917D01*
X006850Y009801D02*
X003947Y009801D01*
X003957Y009797D02*
X003841Y009845D01*
X003715Y009845D01*
X003599Y009797D01*
X003510Y009708D01*
X003462Y009592D01*
X003462Y009466D01*
X003510Y009350D01*
X003599Y009261D01*
X003715Y009213D01*
X003841Y009213D01*
X003957Y009261D01*
X004046Y009350D01*
X004094Y009466D01*
X004094Y009592D01*
X004046Y009708D01*
X003957Y009797D01*
X004055Y009684D02*
X006850Y009684D01*
X006850Y009568D02*
X004094Y009568D01*
X004088Y009451D02*
X006850Y009451D01*
X006850Y009334D02*
X004030Y009334D01*
X003852Y009218D02*
X006850Y009218D01*
X006850Y009101D02*
X002613Y009101D01*
X002741Y008985D02*
X006850Y008985D01*
X006850Y008868D02*
X002798Y008868D01*
X002823Y008751D02*
X006850Y008751D01*
X006845Y008635D02*
X004701Y008635D01*
X004792Y008518D02*
X006776Y008518D01*
X006659Y008402D02*
X004822Y008402D01*
X004807Y008285D02*
X006542Y008285D01*
X006683Y007282D02*
X006567Y007234D01*
X006496Y007163D01*
X005568Y007163D01*
X005453Y007047D01*
X005273Y006868D01*
X005245Y006879D01*
X005086Y006879D01*
X004940Y006819D01*
X004828Y006707D01*
X004768Y006561D01*
X004768Y006402D01*
X004828Y006256D01*
X004940Y006144D01*
X004963Y006135D01*
X004963Y005747D01*
X004891Y005819D01*
X004745Y005879D01*
X004586Y005879D01*
X004440Y005819D01*
X004328Y005707D01*
X004268Y005561D01*
X004268Y005402D01*
X004328Y005256D01*
X004440Y005144D01*
X004586Y005084D01*
X004745Y005084D01*
X004891Y005144D01*
X004963Y005216D01*
X004963Y004860D01*
X004402Y004860D01*
X004331Y004931D01*
X004215Y004979D01*
X004089Y004979D01*
X003973Y004931D01*
X003884Y004842D01*
X003836Y004726D01*
X003836Y004600D01*
X003884Y004484D01*
X003973Y004395D01*
X004089Y004347D01*
X004215Y004347D01*
X004331Y004395D01*
X004402Y004466D01*
X005159Y004466D01*
X005241Y004549D01*
X005357Y004664D01*
X005357Y005228D01*
X005440Y005144D01*
X005586Y005084D01*
X005745Y005084D01*
X005891Y005144D01*
X006003Y005256D01*
X006063Y005402D01*
X006063Y005561D01*
X006003Y005707D01*
X005891Y005819D01*
X005745Y005879D01*
X005586Y005879D01*
X005440Y005819D01*
X005357Y005735D01*
X005357Y006130D01*
X005391Y006144D01*
X005503Y006256D01*
X005563Y006402D01*
X005563Y006561D01*
X005552Y006589D01*
X005731Y006769D01*
X005890Y006769D01*
X005857Y006735D01*
X005813Y006670D01*
X005783Y006598D01*
X005768Y006521D01*
X005768Y006503D01*
X006145Y006503D01*
X006145Y006461D01*
X006187Y006461D01*
X006187Y006503D01*
X006563Y006503D01*
X006563Y006521D01*
X006548Y006598D01*
X006518Y006670D01*
X006475Y006735D01*
X006441Y006769D01*
X006496Y006769D01*
X006567Y006698D01*
X006683Y006650D01*
X006809Y006650D01*
X006925Y006698D01*
X007014Y006787D01*
X007062Y006903D01*
X007062Y007029D01*
X007014Y007145D01*
X006925Y007234D01*
X006809Y007282D01*
X006683Y007282D01*
X006572Y007235D02*
X001313Y007235D01*
X001313Y007119D02*
X005524Y007119D01*
X005408Y007002D02*
X001313Y007002D01*
X001313Y006886D02*
X005291Y006886D01*
X005650Y006966D02*
X005166Y006482D01*
X005160Y006476D01*
X005160Y004745D01*
X005077Y004663D01*
X004152Y004663D01*
X003861Y004787D02*
X001854Y004787D01*
X001857Y004670D02*
X003836Y004670D01*
X003855Y004553D02*
X001857Y004553D01*
X001857Y004437D02*
X003931Y004437D01*
X004373Y004437D02*
X006681Y004437D01*
X006725Y004553D02*
X005246Y004553D01*
X005357Y004670D02*
X006769Y004670D01*
X006812Y004787D02*
X005357Y004787D01*
X005357Y004903D02*
X006856Y004903D01*
X006900Y005020D02*
X005357Y005020D01*
X005357Y005136D02*
X005459Y005136D01*
X005872Y005136D02*
X006944Y005136D01*
X006988Y005253D02*
X006000Y005253D01*
X006050Y005370D02*
X007031Y005370D01*
X007075Y005486D02*
X006063Y005486D01*
X006046Y005603D02*
X007119Y005603D01*
X007163Y005720D02*
X005990Y005720D01*
X005849Y005836D02*
X007207Y005836D01*
X007250Y005953D02*
X005357Y005953D01*
X005357Y006069D02*
X007261Y006069D01*
X007236Y006186D02*
X006433Y006186D01*
X006419Y006173D02*
X006475Y006228D01*
X006518Y006293D01*
X006548Y006366D01*
X006563Y006442D01*
X006563Y006461D01*
X006187Y006461D01*
X006187Y006084D01*
X006205Y006084D01*
X006282Y006099D01*
X006354Y006129D01*
X006419Y006173D01*
X006522Y006303D02*
X007254Y006303D01*
X007330Y006419D02*
X006559Y006419D01*
X006560Y006536D02*
X007991Y006536D01*
X007995Y006652D02*
X006815Y006652D01*
X006678Y006652D02*
X006525Y006652D01*
X006664Y006962D02*
X006746Y006966D01*
X005650Y006966D01*
X005615Y006652D02*
X005806Y006652D01*
X005771Y006536D02*
X005563Y006536D01*
X005563Y006419D02*
X005772Y006419D01*
X005768Y006442D02*
X005783Y006366D01*
X005813Y006293D01*
X005857Y006228D01*
X005912Y006173D01*
X005977Y006129D01*
X006050Y006099D01*
X006126Y006084D01*
X006145Y006084D01*
X006145Y006461D01*
X005768Y006461D01*
X005768Y006442D01*
X005809Y006303D02*
X005522Y006303D01*
X005433Y006186D02*
X005899Y006186D01*
X006145Y006186D02*
X006187Y006186D01*
X006187Y006303D02*
X006145Y006303D01*
X006145Y006419D02*
X006187Y006419D01*
X005482Y005836D02*
X005357Y005836D01*
X004963Y005836D02*
X004849Y005836D01*
X004963Y005953D02*
X003412Y005953D01*
X003394Y005934D02*
X003483Y006023D01*
X003531Y006139D01*
X003531Y006265D01*
X003483Y006381D01*
X003394Y006470D01*
X003278Y006518D01*
X003152Y006518D01*
X003036Y006470D01*
X002947Y006381D01*
X002899Y006265D01*
X002899Y006139D01*
X002947Y006023D01*
X003036Y005934D01*
X003152Y005886D01*
X003278Y005886D01*
X003394Y005934D01*
X003502Y006069D02*
X004963Y006069D01*
X004899Y006186D02*
X003531Y006186D01*
X003515Y006303D02*
X004809Y006303D01*
X004768Y006419D02*
X003444Y006419D01*
X002985Y006419D02*
X002080Y006419D01*
X002069Y006444D02*
X001980Y006533D01*
X001864Y006581D01*
X001739Y006581D01*
X001622Y006533D01*
X001534Y006444D01*
X001486Y006328D01*
X001486Y006202D01*
X001534Y006086D01*
X001622Y005997D01*
X001739Y005949D01*
X001864Y005949D01*
X001980Y005997D01*
X002069Y006086D01*
X002117Y006202D01*
X002117Y006328D01*
X002069Y006444D01*
X001973Y006536D02*
X004768Y006536D01*
X004806Y006652D02*
X001313Y006652D01*
X001313Y006536D02*
X001629Y006536D01*
X001523Y006419D02*
X001313Y006419D01*
X001313Y006303D02*
X001486Y006303D01*
X001492Y006186D02*
X001313Y006186D01*
X001313Y006069D02*
X001550Y006069D01*
X001730Y005953D02*
X001313Y005953D01*
X001313Y005836D02*
X004482Y005836D01*
X004341Y005720D02*
X001313Y005720D01*
X001313Y005603D02*
X004285Y005603D01*
X004268Y005486D02*
X001313Y005486D01*
X001313Y005370D02*
X004281Y005370D01*
X004332Y005253D02*
X001313Y005253D01*
X001313Y005136D02*
X004459Y005136D01*
X004358Y004903D02*
X004963Y004903D01*
X004963Y005020D02*
X001313Y005020D01*
X001313Y004903D02*
X003946Y004903D01*
X004872Y005136D02*
X004963Y005136D01*
X005538Y004320D02*
X001857Y004320D01*
X001857Y004204D02*
X005392Y004204D01*
X005334Y004087D02*
X001857Y004087D01*
X001857Y003737D02*
X005375Y003737D01*
X005498Y003621D02*
X001857Y003621D01*
X001857Y003504D02*
X016233Y003504D01*
X016240Y003621D02*
X014528Y003621D01*
X014626Y003737D02*
X016288Y003737D01*
X016337Y003854D02*
X014674Y003854D01*
X014674Y003970D02*
X016430Y003970D01*
X016547Y004087D02*
X014642Y004087D01*
X014565Y004204D02*
X015811Y004204D01*
X015698Y004320D02*
X014473Y004320D01*
X014473Y004437D02*
X015659Y004437D01*
X015664Y004553D02*
X014473Y004553D01*
X014473Y004670D02*
X015720Y004670D01*
X016138Y004204D02*
X016789Y004204D01*
X017255Y004204D02*
X018044Y004204D01*
X018044Y004320D02*
X016251Y004320D01*
X016864Y005020D02*
X014473Y005020D01*
X014473Y005136D02*
X016582Y005136D01*
X016461Y005253D02*
X014473Y005253D01*
X014473Y005370D02*
X016350Y005370D01*
X016301Y005486D02*
X014473Y005486D01*
X014473Y005603D02*
X016253Y005603D01*
X016233Y005720D02*
X014473Y005720D01*
X014473Y005836D02*
X016233Y005836D01*
X016233Y005953D02*
X014473Y005953D01*
X014473Y006069D02*
X016276Y006069D01*
X017178Y007935D02*
X018044Y007935D01*
X018044Y008052D02*
X017229Y008052D01*
X017231Y008168D02*
X018044Y008168D01*
X018044Y008285D02*
X017189Y008285D01*
X018044Y009568D02*
X013364Y009568D01*
X013247Y009684D02*
X018044Y009684D01*
X018044Y009801D02*
X013131Y009801D01*
X013014Y009917D02*
X018044Y009917D01*
X018044Y010034D02*
X015741Y010034D01*
X015870Y010151D02*
X018044Y010151D01*
X018044Y010267D02*
X015913Y010267D01*
X015911Y010384D02*
X018044Y010384D01*
X018044Y010501D02*
X015859Y010501D01*
X015696Y010617D02*
X018044Y010617D01*
X018044Y010967D02*
X017280Y010967D01*
X017507Y011084D02*
X018044Y011084D01*
X018044Y011200D02*
X017624Y011200D01*
X017711Y011317D02*
X018044Y011317D01*
X018044Y011433D02*
X017760Y011433D01*
X017808Y011550D02*
X018044Y011550D01*
X018044Y011667D02*
X017811Y011667D01*
X017811Y011783D02*
X018044Y011783D01*
X018044Y011900D02*
X017799Y011900D01*
X017751Y012016D02*
X018044Y012016D01*
X018044Y012133D02*
X017702Y012133D01*
X017602Y012250D02*
X018044Y012250D01*
X018044Y012366D02*
X017485Y012366D01*
X017227Y012483D02*
X018044Y012483D01*
X018044Y013299D02*
X010592Y013299D01*
X010467Y013009D02*
X012864Y013037D01*
X012631Y013532D02*
X008615Y013532D01*
X008732Y013649D02*
X012567Y013649D01*
X012556Y013766D02*
X008849Y013766D01*
X008965Y013882D02*
X012590Y013882D01*
X010198Y012833D02*
X009669Y012833D01*
X009176Y010850D02*
X008884Y010850D01*
X008884Y010734D02*
X009086Y010734D01*
X009056Y010617D02*
X008884Y010617D01*
X008955Y010501D02*
X009071Y010501D01*
X009071Y010384D02*
X009141Y010384D01*
X008825Y009675D02*
X008797Y009643D01*
X008687Y008168D02*
X008367Y008168D01*
X008536Y008052D02*
X008597Y008052D01*
X008553Y007702D02*
X008648Y007702D01*
X008646Y007585D02*
X008504Y007585D01*
X008499Y007469D02*
X008644Y007469D01*
X008642Y007352D02*
X008495Y007352D01*
X008490Y007235D02*
X008639Y007235D01*
X008637Y007119D02*
X008486Y007119D01*
X008481Y007002D02*
X008635Y007002D01*
X008633Y006886D02*
X008477Y006886D01*
X008473Y006769D02*
X008631Y006769D01*
X008629Y006652D02*
X008468Y006652D01*
X008464Y006536D02*
X008627Y006536D01*
X008625Y006419D02*
X008459Y006419D01*
X008459Y006303D02*
X008623Y006303D01*
X008621Y006186D02*
X008459Y006186D01*
X008459Y006069D02*
X008618Y006069D01*
X008616Y005953D02*
X008459Y005953D01*
X008459Y005836D02*
X008614Y005836D01*
X008612Y005720D02*
X008459Y005720D01*
X008526Y005603D02*
X008610Y005603D01*
X008608Y005486D02*
X008539Y005486D01*
X008507Y005370D02*
X008606Y005370D01*
X008604Y005253D02*
X008413Y005253D01*
X008602Y005136D02*
X007364Y005136D01*
X007321Y005020D02*
X007546Y005020D01*
X007552Y005025D02*
X007463Y004936D01*
X007415Y004820D01*
X007415Y004694D01*
X007463Y004578D01*
X007552Y004489D01*
X007668Y004441D01*
X007793Y004441D01*
X007909Y004489D01*
X007998Y004578D01*
X008046Y004694D01*
X008046Y004820D01*
X007998Y004936D01*
X007909Y005025D01*
X007793Y005073D01*
X007668Y005073D01*
X007552Y005025D01*
X007449Y004903D02*
X007277Y004903D01*
X007233Y004787D02*
X007415Y004787D01*
X007425Y004670D02*
X007189Y004670D01*
X007145Y004553D02*
X007488Y004553D01*
X007102Y004437D02*
X014079Y004437D01*
X014079Y004553D02*
X008889Y004553D01*
X008698Y004553D02*
X007974Y004553D01*
X008036Y004670D02*
X008532Y004670D01*
X008480Y004787D02*
X008046Y004787D01*
X008012Y004903D02*
X008478Y004903D01*
X008520Y005020D02*
X007915Y005020D01*
X008032Y005253D02*
X007408Y005253D01*
X007452Y005370D02*
X007939Y005370D01*
X007907Y005486D02*
X007496Y005486D01*
X007540Y005603D02*
X007920Y005603D01*
X007986Y005720D02*
X007583Y005720D01*
X007627Y005836D02*
X007986Y005836D01*
X007986Y005953D02*
X007757Y005953D01*
X007842Y006069D02*
X007986Y006069D01*
X007986Y006186D02*
X007867Y006186D01*
X007986Y006322D02*
X007983Y006326D01*
X007986Y006419D01*
X008000Y006769D02*
X006996Y006769D01*
X007055Y006886D02*
X008004Y006886D01*
X008009Y007002D02*
X007062Y007002D01*
X007025Y007119D02*
X008013Y007119D01*
X008018Y007235D02*
X006921Y007235D01*
X007551Y006194D02*
X006713Y003962D01*
X006538Y004320D02*
X005887Y004320D01*
X006034Y004204D02*
X006392Y004204D01*
X006334Y004087D02*
X006092Y004087D01*
X006111Y003970D02*
X006315Y003970D01*
X006498Y003621D02*
X005928Y003621D01*
X006024Y003314D02*
X005959Y003271D01*
X005904Y003215D01*
X005860Y003150D01*
X005830Y003078D01*
X005815Y003001D01*
X005815Y002983D01*
X006192Y002983D01*
X006192Y003360D01*
X006174Y003360D01*
X006097Y003344D01*
X006024Y003314D01*
X005959Y003271D02*
X005467Y003271D01*
X005438Y003299D02*
X005292Y003360D01*
X005134Y003360D01*
X004988Y003299D01*
X004876Y003187D01*
X004815Y003041D01*
X004815Y002883D01*
X004876Y002737D01*
X004988Y002625D01*
X005134Y002564D01*
X005292Y002564D01*
X005438Y002625D01*
X005550Y002737D01*
X005611Y002883D01*
X005611Y003041D01*
X005550Y003187D01*
X005438Y003299D01*
X005564Y003154D02*
X005863Y003154D01*
X005822Y003037D02*
X005611Y003037D01*
X005611Y002921D02*
X005815Y002921D01*
X005815Y002923D02*
X005830Y002846D01*
X005860Y002773D01*
X005904Y002708D01*
X005959Y002653D01*
X006024Y002609D01*
X006097Y002579D01*
X006174Y002564D01*
X006192Y002564D01*
X006192Y002941D01*
X006234Y002941D01*
X006234Y002983D01*
X006611Y002983D01*
X006611Y003001D01*
X006595Y003078D01*
X006565Y003150D01*
X006522Y003215D01*
X006466Y003271D01*
X006401Y003314D01*
X006329Y003344D01*
X006252Y003360D01*
X006234Y003360D01*
X006234Y002983D01*
X006192Y002983D01*
X006192Y002941D01*
X005815Y002941D01*
X005815Y002923D01*
X005848Y002804D02*
X005578Y002804D01*
X005501Y002688D02*
X005925Y002688D01*
X006139Y002571D02*
X005309Y002571D01*
X005117Y002571D02*
X000646Y002571D01*
X000646Y002454D02*
X018044Y002454D01*
X018044Y002338D02*
X000646Y002338D01*
X000646Y002221D02*
X018044Y002221D01*
X018044Y002105D02*
X000646Y002105D01*
X000646Y002030D02*
X000646Y021397D01*
X018044Y021397D01*
X018044Y002030D01*
X000646Y002030D01*
X000646Y002688D02*
X004925Y002688D01*
X004848Y002804D02*
X000646Y002804D01*
X000646Y002921D02*
X004815Y002921D01*
X004815Y003037D02*
X001825Y003037D01*
X001857Y003154D02*
X004862Y003154D01*
X004959Y003271D02*
X001857Y003271D01*
X001460Y003271D02*
X001379Y003271D01*
X001379Y003387D02*
X000646Y003387D01*
X000646Y003271D02*
X000982Y003271D01*
X000982Y003154D02*
X000646Y003154D01*
X000646Y003037D02*
X001014Y003037D01*
X001379Y003037D02*
X001460Y003037D01*
X001460Y003154D02*
X001379Y003154D01*
X000982Y003504D02*
X000646Y003504D01*
X000646Y003621D02*
X000982Y003621D01*
X000982Y003737D02*
X000646Y003737D01*
X001873Y005953D02*
X003017Y005953D01*
X002928Y006069D02*
X002052Y006069D01*
X002111Y006186D02*
X002899Y006186D01*
X002914Y006303D02*
X002117Y006303D01*
X001313Y006769D02*
X004890Y006769D01*
X003703Y009218D02*
X001313Y009218D01*
X001313Y007935D02*
X001399Y007935D01*
X001351Y007818D02*
X001313Y007818D01*
X001313Y007702D02*
X001347Y007702D01*
X001368Y007585D02*
X001313Y007585D01*
X001313Y007469D02*
X001419Y007469D01*
X001313Y007352D02*
X001535Y007352D01*
X002634Y007352D02*
X008022Y007352D01*
X008849Y007923D02*
X008884Y007919D01*
X008849Y007923D02*
X008794Y004856D01*
X008995Y005136D02*
X010702Y005136D01*
X010660Y005094D02*
X010611Y004978D01*
X010611Y004852D01*
X010660Y004736D01*
X010748Y004647D01*
X010865Y004599D01*
X010990Y004599D01*
X011106Y004647D01*
X011195Y004736D01*
X011243Y004852D01*
X011243Y004978D01*
X011195Y005094D01*
X011106Y005182D01*
X010990Y005231D01*
X010865Y005231D01*
X010748Y005182D01*
X010660Y005094D01*
X010629Y005020D02*
X009067Y005020D01*
X009109Y004903D02*
X010611Y004903D01*
X010639Y004787D02*
X009107Y004787D01*
X009055Y004670D02*
X010725Y004670D01*
X010517Y004327D02*
X010371Y004387D01*
X010212Y004387D01*
X010066Y004327D01*
X009954Y004215D01*
X009894Y004069D01*
X009894Y003910D01*
X009954Y003764D01*
X010066Y003652D01*
X010212Y003592D01*
X010371Y003592D01*
X010517Y003652D01*
X010629Y003764D01*
X010689Y003910D01*
X010689Y004069D01*
X010629Y004215D01*
X010517Y004327D01*
X010523Y004320D02*
X013177Y004320D01*
X013374Y004320D02*
X014079Y004320D01*
X014079Y004670D02*
X011130Y004670D01*
X011216Y004787D02*
X014079Y004787D01*
X014079Y004903D02*
X011243Y004903D01*
X011226Y005020D02*
X014079Y005020D01*
X014079Y005136D02*
X011152Y005136D01*
X011639Y005536D02*
X011516Y005659D01*
X011449Y005820D01*
X011449Y005994D01*
X011516Y006155D01*
X011639Y006278D01*
X011800Y006345D01*
X012574Y006345D01*
X012735Y006278D01*
X012858Y006155D01*
X012925Y005994D01*
X012925Y005820D01*
X012858Y005659D01*
X012735Y005536D01*
X012574Y005469D01*
X011800Y005469D01*
X011639Y005536D01*
X011572Y005603D02*
X009004Y005603D01*
X009006Y005720D02*
X011491Y005720D01*
X011449Y005836D02*
X009008Y005836D01*
X009010Y005953D02*
X009305Y005953D01*
X009220Y006069D02*
X009012Y006069D01*
X009014Y006186D02*
X009194Y006186D01*
X009213Y006303D02*
X009016Y006303D01*
X009019Y006419D02*
X009288Y006419D01*
X009313Y006536D02*
X009021Y006536D01*
X009023Y006652D02*
X009313Y006652D01*
X009313Y006769D02*
X009025Y006769D01*
X009027Y006886D02*
X009313Y006886D01*
X009313Y007002D02*
X009029Y007002D01*
X009031Y007119D02*
X009313Y007119D01*
X009313Y007235D02*
X009033Y007235D01*
X009035Y007352D02*
X009313Y007352D01*
X009313Y007469D02*
X009037Y007469D01*
X009039Y007585D02*
X009313Y007585D01*
X009313Y007702D02*
X009114Y007702D01*
X009185Y007818D02*
X009273Y007818D01*
X009277Y007935D02*
X009200Y007935D01*
X009171Y008052D02*
X009330Y008052D01*
X009499Y008168D02*
X009081Y008168D01*
X009510Y007785D02*
X009589Y007863D01*
X009510Y007785D02*
X009510Y006194D01*
X009715Y005953D02*
X010185Y005953D01*
X010154Y005966D02*
X010270Y005918D01*
X010396Y005918D01*
X010512Y005966D01*
X010601Y006055D01*
X010649Y006171D01*
X010649Y006296D01*
X010601Y006413D01*
X010512Y006501D01*
X010396Y006549D01*
X010270Y006549D01*
X010154Y006501D01*
X010065Y006413D01*
X010017Y006296D01*
X010017Y006171D01*
X010065Y006055D01*
X010154Y005966D01*
X010059Y006069D02*
X009800Y006069D01*
X009826Y006186D02*
X010017Y006186D01*
X010020Y006303D02*
X009807Y006303D01*
X009732Y006419D02*
X010072Y006419D01*
X010237Y006536D02*
X009707Y006536D01*
X009707Y006652D02*
X011531Y006652D01*
X011472Y006769D02*
X009707Y006769D01*
X010429Y006536D02*
X011653Y006536D01*
X011699Y006303D02*
X010646Y006303D01*
X010649Y006186D02*
X011547Y006186D01*
X011481Y006069D02*
X010607Y006069D01*
X010480Y005953D02*
X011449Y005953D01*
X011758Y005486D02*
X009002Y005486D01*
X009000Y005370D02*
X014079Y005370D01*
X014079Y005486D02*
X012616Y005486D01*
X012802Y005603D02*
X014079Y005603D01*
X014079Y005720D02*
X012884Y005720D01*
X012925Y005836D02*
X014079Y005836D01*
X014079Y005953D02*
X012925Y005953D01*
X012894Y006069D02*
X014079Y006069D01*
X014079Y006186D02*
X012827Y006186D01*
X012676Y006303D02*
X014079Y006303D01*
X014079Y006419D02*
X010594Y006419D01*
X008998Y005253D02*
X014079Y005253D01*
X014079Y006536D02*
X012721Y006536D01*
X012844Y006652D02*
X014079Y006652D01*
X014079Y006769D02*
X012903Y006769D01*
X012228Y006769D02*
X012146Y006769D01*
X012146Y006652D02*
X012228Y006652D01*
X012228Y006536D02*
X012146Y006536D01*
X012146Y007002D02*
X012228Y007002D01*
X012228Y007119D02*
X012146Y007119D01*
X012146Y007235D02*
X012228Y007235D01*
X012986Y004204D02*
X010633Y004204D01*
X010682Y004087D02*
X012910Y004087D01*
X012878Y003970D02*
X010689Y003970D01*
X010666Y003854D02*
X012878Y003854D01*
X012925Y003737D02*
X010602Y003737D01*
X010440Y003621D02*
X013023Y003621D01*
X012855Y003328D02*
X012697Y003328D01*
X012550Y003268D01*
X012439Y003156D01*
X012378Y003010D01*
X012378Y002851D01*
X012439Y002705D01*
X012550Y002593D01*
X012697Y002533D01*
X012855Y002533D01*
X013001Y002593D01*
X013113Y002705D01*
X013174Y002851D01*
X013174Y003010D01*
X013113Y003156D01*
X013001Y003268D01*
X012855Y003328D01*
X012994Y003271D02*
X013569Y003271D01*
X013587Y003283D02*
X013522Y003239D01*
X013467Y003184D01*
X013423Y003119D01*
X013393Y003046D01*
X013378Y002970D01*
X013378Y002951D01*
X013755Y002951D01*
X013755Y002909D01*
X013797Y002909D01*
X013797Y002533D01*
X013815Y002533D01*
X013892Y002548D01*
X013964Y002578D01*
X014029Y002621D01*
X014085Y002677D01*
X014128Y002742D01*
X014158Y002814D01*
X014174Y002891D01*
X014174Y002909D01*
X013797Y002909D01*
X013797Y002951D01*
X013755Y002951D01*
X013755Y003328D01*
X013737Y003328D01*
X013660Y003313D01*
X013587Y003283D01*
X013755Y003271D02*
X013797Y003271D01*
X013797Y003154D02*
X013755Y003154D01*
X013755Y003037D02*
X013797Y003037D01*
X013797Y002921D02*
X016431Y002921D01*
X016337Y003037D02*
X014160Y003037D01*
X014105Y003154D02*
X016289Y003154D01*
X016548Y002804D02*
X014154Y002804D01*
X014092Y002688D02*
X016791Y002688D01*
X017252Y002688D02*
X018044Y002688D01*
X018044Y002804D02*
X017496Y002804D01*
X017612Y002921D02*
X018044Y002921D01*
X018044Y003037D02*
X017707Y003037D01*
X017755Y003154D02*
X018044Y003154D01*
X018044Y003271D02*
X017803Y003271D01*
X017811Y003387D02*
X018044Y003387D01*
X018044Y003504D02*
X017811Y003504D01*
X017804Y003621D02*
X018044Y003621D01*
X018044Y003737D02*
X017755Y003737D01*
X017707Y003854D02*
X018044Y003854D01*
X018044Y003970D02*
X017613Y003970D01*
X017497Y004087D02*
X018044Y004087D01*
X018044Y002571D02*
X013948Y002571D01*
X013797Y002571D02*
X013755Y002571D01*
X013755Y002533D02*
X013755Y002909D01*
X013378Y002909D01*
X013378Y002891D01*
X013393Y002814D01*
X013423Y002742D01*
X013467Y002677D01*
X013522Y002621D01*
X013587Y002578D01*
X013660Y002548D01*
X013737Y002533D01*
X013755Y002533D01*
X013755Y002688D02*
X013797Y002688D01*
X013797Y002804D02*
X013755Y002804D01*
X013755Y002921D02*
X013174Y002921D01*
X013162Y003037D02*
X013392Y003037D01*
X013447Y003154D02*
X013114Y003154D01*
X013154Y002804D02*
X013398Y002804D01*
X013460Y002688D02*
X013096Y002688D01*
X012948Y002571D02*
X013604Y002571D01*
X012604Y002571D02*
X006287Y002571D01*
X006252Y002564D02*
X006329Y002579D01*
X006401Y002609D01*
X006466Y002653D01*
X006522Y002708D01*
X006565Y002773D01*
X006595Y002846D01*
X006611Y002923D01*
X006611Y002941D01*
X006234Y002941D01*
X006234Y002564D01*
X006252Y002564D01*
X006234Y002571D02*
X006192Y002571D01*
X006192Y002688D02*
X006234Y002688D01*
X006234Y002804D02*
X006192Y002804D01*
X006192Y002921D02*
X006234Y002921D01*
X006234Y003037D02*
X006192Y003037D01*
X006192Y003154D02*
X006234Y003154D01*
X006234Y003271D02*
X006192Y003271D01*
X006467Y003271D02*
X008510Y003271D01*
X008454Y003215D02*
X008394Y003069D01*
X008394Y002910D01*
X008454Y002764D01*
X008566Y002652D01*
X008712Y002592D01*
X008871Y002592D01*
X009017Y002652D01*
X009129Y002764D01*
X009189Y002910D01*
X009189Y003069D01*
X009129Y003215D01*
X009017Y003327D01*
X008871Y003387D01*
X008712Y003387D01*
X008566Y003327D01*
X008454Y003215D01*
X008429Y003154D02*
X006563Y003154D01*
X006603Y003037D02*
X008394Y003037D01*
X008394Y002921D02*
X006610Y002921D01*
X006578Y002804D02*
X008438Y002804D01*
X008531Y002688D02*
X006501Y002688D01*
X006928Y003621D02*
X009143Y003621D01*
X009440Y003621D02*
X010143Y003621D01*
X009981Y003737D02*
X009602Y003737D01*
X009666Y003854D02*
X009917Y003854D01*
X009894Y003970D02*
X009689Y003970D01*
X009682Y004087D02*
X009901Y004087D01*
X009950Y004204D02*
X009633Y004204D01*
X009523Y004320D02*
X010060Y004320D01*
X009908Y003372D02*
X009831Y003387D01*
X009813Y003387D01*
X009813Y003010D01*
X010189Y003010D01*
X010189Y003029D01*
X010174Y003105D01*
X010144Y003178D01*
X010101Y003243D01*
X010045Y003298D01*
X009980Y003342D01*
X009908Y003372D01*
X009771Y003387D02*
X009752Y003387D01*
X009676Y003372D01*
X009603Y003342D01*
X009538Y003298D01*
X009483Y003243D01*
X009439Y003178D01*
X009409Y003105D01*
X009394Y003029D01*
X009394Y003010D01*
X009771Y003010D01*
X009771Y002969D01*
X009394Y002969D01*
X009394Y002950D01*
X009409Y002873D01*
X009439Y002801D01*
X009483Y002736D01*
X009538Y002680D01*
X009603Y002637D01*
X009676Y002607D01*
X009752Y002592D01*
X009771Y002592D01*
X009771Y002969D01*
X009813Y002969D01*
X009813Y003010D01*
X009771Y003010D01*
X009771Y003387D01*
X009771Y003271D02*
X009813Y003271D01*
X009813Y003154D02*
X009771Y003154D01*
X009771Y003037D02*
X009813Y003037D01*
X009813Y002969D02*
X010189Y002969D01*
X010189Y002950D01*
X010174Y002873D01*
X010144Y002801D01*
X010101Y002736D01*
X010045Y002680D01*
X009980Y002637D01*
X009908Y002607D01*
X009831Y002592D01*
X009813Y002592D01*
X009813Y002969D01*
X009813Y002921D02*
X009771Y002921D01*
X009771Y002804D02*
X009813Y002804D01*
X009813Y002688D02*
X009771Y002688D01*
X010052Y002688D02*
X012456Y002688D01*
X012398Y002804D02*
X010145Y002804D01*
X010184Y002921D02*
X012378Y002921D01*
X012390Y003037D02*
X010188Y003037D01*
X010154Y003154D02*
X012438Y003154D01*
X012558Y003271D02*
X010073Y003271D01*
X009510Y003271D02*
X009073Y003271D01*
X009154Y003154D02*
X009429Y003154D01*
X009396Y003037D02*
X009189Y003037D01*
X009189Y002921D02*
X009400Y002921D01*
X009438Y002804D02*
X009145Y002804D01*
X009052Y002688D02*
X009531Y002688D01*
X008894Y003970D02*
X007111Y003970D01*
X007092Y004087D02*
X008901Y004087D01*
X008950Y004204D02*
X007034Y004204D01*
X007058Y004320D02*
X009060Y004320D01*
X003525Y009334D02*
X002594Y009334D01*
X002733Y009451D02*
X003468Y009451D01*
X003462Y009568D02*
X002795Y009568D01*
X002823Y009684D02*
X003500Y009684D01*
X003609Y009801D02*
X002823Y009801D01*
X002517Y017614D02*
X000646Y017614D01*
X000646Y017730D02*
X002333Y017730D01*
X002270Y017847D02*
X000646Y017847D01*
X000646Y017964D02*
X002257Y017964D01*
X002284Y018080D02*
X000646Y018080D01*
X000646Y018197D02*
X002368Y018197D01*
X002526Y019342D02*
X002660Y019342D01*
X002783Y019393D01*
X002878Y019488D01*
X002929Y019612D01*
X002929Y019745D01*
X002878Y019869D01*
X002783Y019963D01*
X002660Y020015D01*
X002526Y020015D01*
X002402Y019963D01*
X002308Y019869D01*
X002257Y019745D01*
X002257Y019612D01*
X002308Y019488D01*
X002402Y019393D01*
X002526Y019342D01*
X002476Y019363D02*
X000646Y019363D01*
X000646Y019480D02*
X002316Y019480D01*
X002263Y019596D02*
X000646Y019596D01*
X000646Y019713D02*
X002257Y019713D01*
X002291Y019829D02*
X000646Y019829D01*
X000646Y019946D02*
X002385Y019946D01*
X002801Y019946D02*
X012296Y019946D01*
X012296Y020063D02*
X000646Y020063D01*
X000646Y020179D02*
X012313Y020179D01*
X012296Y020139D02*
X012416Y020429D01*
X012638Y020650D01*
X012928Y020771D01*
X013242Y020771D01*
X013532Y020650D01*
X013754Y020429D01*
X013874Y020139D01*
X013874Y019825D01*
X013754Y019535D01*
X013532Y019313D01*
X013242Y019193D01*
X012928Y019193D01*
X012638Y019313D01*
X012416Y019535D01*
X012296Y019825D01*
X012296Y020139D01*
X012361Y020296D02*
X007578Y020296D01*
X007563Y020281D02*
X007652Y020370D01*
X007700Y020486D01*
X007700Y020611D01*
X007652Y020727D01*
X007563Y020816D01*
X007447Y020864D01*
X007321Y020864D01*
X007205Y020816D01*
X007116Y020727D01*
X007068Y020611D01*
X007068Y020486D01*
X007116Y020370D01*
X007205Y020281D01*
X007321Y020233D01*
X007447Y020233D01*
X007563Y020281D01*
X007670Y020412D02*
X012409Y020412D01*
X012517Y020529D02*
X007700Y020529D01*
X007686Y020646D02*
X012633Y020646D01*
X012908Y020762D02*
X007617Y020762D01*
X007151Y020762D02*
X002655Y020762D01*
X002699Y020807D02*
X002747Y020923D01*
X002747Y021048D01*
X002699Y021164D01*
X002610Y021253D01*
X002494Y021301D01*
X002369Y021301D01*
X002252Y021253D01*
X002164Y021164D01*
X002115Y021048D01*
X002115Y020923D01*
X002164Y020807D01*
X002252Y020718D01*
X002369Y020670D01*
X002494Y020670D01*
X002610Y020718D01*
X002699Y020807D01*
X002729Y020879D02*
X018044Y020879D01*
X018044Y020995D02*
X002747Y020995D01*
X002721Y021112D02*
X018044Y021112D01*
X018044Y021229D02*
X002635Y021229D01*
X002228Y021229D02*
X000646Y021229D01*
X000646Y021345D02*
X018044Y021345D01*
X018044Y020762D02*
X017199Y020762D01*
X017179Y020771D02*
X016865Y020771D01*
X016575Y020650D01*
X016353Y020429D01*
X016233Y020139D01*
X016233Y019825D01*
X016353Y019535D01*
X016575Y019313D01*
X016865Y019193D01*
X017179Y019193D01*
X017469Y019313D01*
X017691Y019535D01*
X017811Y019825D01*
X017811Y020139D01*
X017691Y020429D01*
X017469Y020650D01*
X017179Y020771D01*
X017474Y020646D02*
X018044Y020646D01*
X018044Y020529D02*
X017590Y020529D01*
X017697Y020412D02*
X018044Y020412D01*
X018044Y020296D02*
X017746Y020296D01*
X017794Y020179D02*
X018044Y020179D01*
X018044Y020063D02*
X017811Y020063D01*
X017811Y019946D02*
X018044Y019946D01*
X018044Y019829D02*
X017811Y019829D01*
X017765Y019713D02*
X018044Y019713D01*
X018044Y019596D02*
X017716Y019596D01*
X017636Y019480D02*
X018044Y019480D01*
X018044Y019363D02*
X017519Y019363D01*
X017308Y019246D02*
X018044Y019246D01*
X018044Y019130D02*
X005605Y019130D01*
X005605Y019246D02*
X012798Y019246D01*
X012588Y019363D02*
X005684Y019363D01*
X005724Y019480D02*
X012471Y019480D01*
X012391Y019596D02*
X005719Y019596D01*
X005663Y019713D02*
X012342Y019713D01*
X012296Y019829D02*
X005489Y019829D01*
X005327Y019829D02*
X002894Y019829D01*
X002929Y019713D02*
X005153Y019713D01*
X005097Y019596D02*
X002923Y019596D01*
X002869Y019480D02*
X005092Y019480D01*
X005131Y019363D02*
X002710Y019363D01*
X002208Y020762D02*
X000646Y020762D01*
X000646Y020646D02*
X007082Y020646D01*
X007068Y020529D02*
X000646Y020529D01*
X000646Y020412D02*
X007099Y020412D01*
X007190Y020296D02*
X000646Y020296D01*
X000646Y020879D02*
X002134Y020879D01*
X002115Y020995D02*
X000646Y020995D01*
X000646Y021112D02*
X002142Y021112D01*
X000646Y019246D02*
X005211Y019246D01*
X005203Y019130D02*
X000646Y019130D01*
X000646Y019013D02*
X005086Y019013D01*
X004969Y018896D02*
X000646Y018896D01*
X000646Y018780D02*
X004853Y018780D01*
X004736Y018663D02*
X000646Y018663D01*
X000646Y018547D02*
X004451Y018547D01*
X004389Y018430D02*
X000646Y018430D01*
X000646Y018313D02*
X004379Y018313D01*
X004695Y018344D02*
X005408Y019056D01*
X005408Y019521D01*
X005605Y019013D02*
X018044Y019013D01*
X018044Y018896D02*
X005526Y018896D01*
X005410Y018780D02*
X009657Y018780D01*
X010127Y018780D02*
X018044Y018780D01*
X018044Y018663D02*
X010195Y018663D01*
X010208Y018547D02*
X018044Y018547D01*
X018044Y018430D02*
X010177Y018430D01*
X010084Y018313D02*
X012699Y018313D01*
X013471Y018313D02*
X016636Y018313D01*
X016575Y018288D02*
X016353Y018066D01*
X016233Y017776D01*
X016233Y017462D01*
X016353Y017172D01*
X016575Y016951D01*
X016865Y016830D01*
X017179Y016830D01*
X017469Y016951D01*
X017691Y017172D01*
X017811Y017462D01*
X017811Y017776D01*
X017691Y018066D01*
X017469Y018288D01*
X017179Y018408D01*
X016865Y018408D01*
X016575Y018288D01*
X016484Y018197D02*
X013623Y018197D01*
X013740Y018080D02*
X016367Y018080D01*
X016310Y017964D02*
X013796Y017964D01*
X013845Y017847D02*
X016262Y017847D01*
X016233Y017730D02*
X013874Y017730D01*
X013874Y017614D02*
X016233Y017614D01*
X016233Y017497D02*
X015048Y017497D01*
X015024Y017521D02*
X014908Y017569D01*
X014782Y017569D01*
X014666Y017521D01*
X014577Y017432D01*
X014529Y017316D01*
X014529Y017190D01*
X014577Y017074D01*
X014666Y016985D01*
X014782Y016937D01*
X014908Y016937D01*
X015024Y016985D01*
X015113Y017074D01*
X015161Y017190D01*
X015161Y017316D01*
X015113Y017432D01*
X015024Y017521D01*
X015134Y017381D02*
X016267Y017381D01*
X016315Y017264D02*
X015161Y017264D01*
X015143Y017147D02*
X016378Y017147D01*
X016495Y017031D02*
X015069Y017031D01*
X014620Y017031D02*
X013612Y017031D01*
X013729Y017147D02*
X014547Y017147D01*
X014529Y017264D02*
X013792Y017264D01*
X013840Y017381D02*
X014556Y017381D01*
X014642Y017497D02*
X013874Y017497D01*
X013444Y016914D02*
X016663Y016914D01*
X017381Y016914D02*
X018044Y016914D01*
X018044Y017031D02*
X017549Y017031D01*
X017666Y017147D02*
X018044Y017147D01*
X018044Y017264D02*
X017729Y017264D01*
X017777Y017381D02*
X018044Y017381D01*
X018044Y017497D02*
X017811Y017497D01*
X017811Y017614D02*
X018044Y017614D01*
X018044Y017730D02*
X017811Y017730D01*
X017782Y017847D02*
X018044Y017847D01*
X018044Y017964D02*
X017733Y017964D01*
X017677Y018080D02*
X018044Y018080D01*
X018044Y018197D02*
X017560Y018197D01*
X017408Y018313D02*
X018044Y018313D01*
X016735Y019246D02*
X013371Y019246D01*
X013582Y019363D02*
X016525Y019363D01*
X016408Y019480D02*
X013699Y019480D01*
X013779Y019596D02*
X014690Y019596D01*
X014634Y019619D02*
X014750Y019571D01*
X014876Y019571D01*
X014992Y019619D01*
X015081Y019708D01*
X015129Y019824D01*
X015129Y019950D01*
X015081Y020066D01*
X014992Y020155D01*
X014876Y020203D01*
X014750Y020203D01*
X014634Y020155D01*
X014545Y020066D01*
X014497Y019950D01*
X014497Y019824D01*
X014545Y019708D01*
X014634Y019619D01*
X014544Y019713D02*
X013828Y019713D01*
X013874Y019829D02*
X014497Y019829D01*
X014497Y019946D02*
X013874Y019946D01*
X013874Y020063D02*
X014544Y020063D01*
X014693Y020179D02*
X013857Y020179D01*
X013809Y020296D02*
X016298Y020296D01*
X016346Y020412D02*
X013760Y020412D01*
X013653Y020529D02*
X016454Y020529D01*
X016570Y020646D02*
X013537Y020646D01*
X013262Y020762D02*
X016845Y020762D01*
X016250Y020179D02*
X014934Y020179D01*
X015082Y020063D02*
X016233Y020063D01*
X016233Y019946D02*
X015129Y019946D01*
X015129Y019829D02*
X016233Y019829D01*
X016279Y019713D02*
X015083Y019713D01*
X014936Y019596D02*
X016328Y019596D01*
X015173Y015165D02*
X018044Y015165D01*
X018044Y015048D02*
X017087Y015048D01*
X017173Y014932D02*
X018044Y014932D01*
X018044Y014815D02*
X017200Y014815D01*
X017182Y014699D02*
X018044Y014699D01*
X018044Y014582D02*
X017108Y014582D01*
X016568Y014815D02*
X015082Y014815D01*
X015167Y014932D02*
X016595Y014932D01*
X016681Y015048D02*
X015192Y015048D01*
D16*
X011451Y010682D02*
X009782Y010682D01*
X009372Y010600D01*
X007620Y012871D02*
X008880Y014131D01*
X008880Y017222D01*
X009892Y016785D02*
X010821Y017714D01*
X009892Y016785D02*
X009892Y016757D01*
X007086Y018371D02*
X007086Y008542D01*
X007026Y008482D01*
X007026Y008434D01*
X006388Y007797D01*
X002466Y007812D01*
X002466Y007811D01*
X002174Y007811D01*
X002085Y007722D01*
X002335Y008471D02*
X002085Y008722D01*
X002335Y008471D02*
X003489Y008471D01*
X004506Y008383D01*
X005853Y012237D02*
X005864Y013119D01*
X002892Y015391D02*
X002754Y015253D01*
X002892Y015391D02*
X002892Y016403D01*
X001994Y013678D02*
X001601Y013678D01*
X001077Y013155D01*
X001077Y004581D01*
X001146Y004511D01*
X001335Y004511D01*
X001420Y004426D01*
X008223Y005509D02*
X008223Y006415D01*
X008278Y007863D01*
D17*
X001994Y013678D02*
X001806Y013751D01*
D18*
X007086Y018371D03*
M02*
