%
M48
M72
T01C0.0118
T02C0.0236
T03C0.0320
T04C0.0354
T05C0.0400
T06C0.1260
%
T01
X7086Y16741
T02
X4152Y3032
X3215Y4572
X1801Y4635
X4506Y6753
X3778Y7898
X5853Y10607
X5864Y11489
X6502Y11489
X7620Y11241
X7620Y10694
X7569Y10119
X7569Y9572
X8797Y8013
X9483Y8150
X9372Y8969
X9483Y10942
X10467Y11379
X12652Y10914
X12872Y12107
X14876Y13213
X16884Y13174
X14845Y15623
X12057Y14524
X10821Y16083
X9892Y16938
X8880Y15591
X9892Y15127
X6502Y16359
X5900Y15922
X4695Y16713
X5408Y17891
X7384Y18918
X5927Y14469
X5128Y14430
X2892Y14772
X2754Y13623
X1144Y14461
X2431Y19355
X11451Y9052
X12187Y8725
X10959Y6674
X9589Y6233
X8884Y6288
X8278Y6233
X7551Y4564
X8223Y3879
X8794Y3225
X7731Y3127
X9510Y4564
X10333Y4603
X10927Y3284
X6746Y5335
X15443Y4918
X15975Y2847
X16916Y6489
X15597Y8686
X14813Y18257
T03
X5166Y4851
X6166Y4851
X5666Y3851
X4666Y3851
X5713Y2331
X6713Y2331
X6213Y1331
X5213Y1331
X8792Y1359
X9292Y2359
X9792Y1359
X10292Y2359
X12776Y1300
X13276Y2300
X14276Y2300
X13776Y1300
T04
X2593Y18048
X2593Y16316
T05
X1420Y1796
X1420Y2796
X2085Y6091
X2085Y7091
X2085Y8091
X1994Y10048
X1994Y11048
X1994Y12048
X1994Y13048
X12187Y7276
X12187Y6276
X12187Y5276
X12187Y4276
T06
X13085Y15989
X13085Y18351
X17022Y18351
X17022Y15989
X17022Y10083
X17022Y4178
X17022Y1816
M30
